<!-- icon666.com - MILLIONS vector ICONS FREE --><svg viewBox="0 0 512 512" xmlns="http://www.w3.org/2000/svg"><g id="diamond"><path d="m256 0c-141.38 0-256 114.62-256 256s114.62 256 256 256 256-114.62 256-256-114.62-256-256-256zm-.11 429.65a41.61 41.61 0 1 1 41.61-41.65 41.61 41.61 0 0 1 -41.61 41.65zm40.33-143.3a28 28 0 0 1 -8.22 16.95 28.91 28.91 0 0 1 -17.26 8.07h-.19a108 108 0 0 1 -12.28.7 140.28 140.28 0 0 1 -14.73-.7h-.2a28.91 28.91 0 0 1 -17.25-8.07 28 28 0 0 1 -8.22-16.95c-1-9.39-1.5-74.6-1.5-89.13s.51-79.91 1.5-89.3a28 28 0 0 1 8.22-17 29 29 0 0 1 17.25-8.07h.2a106.83 106.83 0 0 1 14.73-.45 74.15 74.15 0 0 1 12.27.45h.2a29 29 0 0 1 17.26 8.15 28 28 0 0 1 8.22 17c1 9.39 1.5 74.78 1.5 89.3s-.51 79.7-1.5 89.05z" fill="#000000" style="fill: rgb(255, 255, 255);"></path></g></svg>