<?xml version="1.0" encoding="utf-8"?>
<!-- Generator: Adobe Illustrator 26.2.1, SVG Export Plug-In . SVG Version: 6.00 Build 0)  -->
<svg version="1.1" id="Capa_1" xmlns="http://www.w3.org/2000/svg" xmlns:xlink="http://www.w3.org/1999/xlink" x="0px" y="0px"
	 viewBox="0 0 90.7 80" style="enable-background:new 0 0 90.7 80;" xml:space="preserve">
<style type="text/css">
	.st0{fill:#FFFFFF;}
	.st1{fill:#FCBE1F;}
	.st2{fill:#4F4C4D;}
</style>
<path class="st0" d="M78.5,71.8c-0.2,0.3-0.7,0.6-1.1,0.6H5.2c-0.4,0-0.9-0.2-1.1-0.6c-0.2-0.3-0.3-0.8-0.2-1.2l6.4-19.2
	c0.2-0.6,0.7-0.9,1.3-0.9H71c0.6,0,1.1,0.3,1.3,0.9l6.4,19.2C78.8,70.9,78.8,71.3,78.5,71.8z"/>
<path class="st1" d="M14.4,50L9.2,68c0,0-0.8,2.5,2.2,2.5s67.3,0,67.3,0s-5.1-21-5.5-21S14.4,50,14.4,50z"/>
<path class="st0" d="M11.3,10c0-0.6,0.4-0.9,1-0.9h29.3H71c0.6,0,1,0.4,1,1v37.1c0,0.6-0.4,1-1,1H11.6c-0.6,0-1-0.4-1-1L11.3,10z"/>
<g>
	<path class="st2" d="M49.8,66.8H33.3c-0.8,0-1.3,0.7-1.3,1.3c0,0.8,0.7,1.3,1.3,1.3h16.5c0.8,0,1.3-0.6,1.3-1.3
		S50.6,66.8,49.8,66.8z"/>
	<path class="st2" d="M81.5,69.7l-6.4-19.3c-0.2-0.7-0.7-1.3-1.2-1.9c0.4-0.7,0.8-1.5,0.8-2.4c0,0,0-31-0.1-38.3
		c0-0.9-0.7-1.6-1.6-1.6H10.1c-0.9,0-1.6,0.7-1.6,1.6v38.3c0,0.8,0.2,1.7,0.8,2.4c-0.6,0.4-1,1.1-1.2,1.9L1.5,69.7
		c-0.7,2.1,0.4,4.5,2.6,5.2C4.5,74.9,5,75,5.4,75h72.2c2.2,0,4.2-1.9,4.2-4.2C81.7,70.4,81.7,70,81.5,69.7z M78.7,71.8
		c-0.2,0.3-0.7,0.6-1.1,0.6H5.4c-0.4,0-0.9-0.2-1.1-0.6C4.1,71.4,4,71,4.1,70.6l6.4-19.2c0.2-0.6,0.7-0.9,1.3-0.9h2.7h56.6
		c0.6,0,1.1,0.3,1.3,0.9l6.4,19.2l0,0l0,0l0,0C79,70.9,79,71.3,78.7,71.8z M29.5,9.1h24.3H56h15.2c0.1,0,0.2,0,0.2,0l0,0
		c0.4,0.1,0.7,0.4,0.7,0.9v37.1c0,0.6-0.4,1-1,1h-6.2H20.4h-8.5c-0.6,0-1-0.4-1-1l0.3-21.2v-16c0-0.4,0.2-0.8,0.7-0.9
		C12,9,12,9,12.1,9h0.3H27h2.5V9.1z"/>
</g>
<path class="st1" d="M89.9,18.5c0,0.1,0,0.2,0,0.3l0,0c0,0.1,0,0.2,0,0.2c0,0.1,0,0.1-0.1,0.2v0.1l-0.1,0.1c0,0.1-0.1,0.2-0.1,0.3
	c-0.2,0.4-0.3,0.6-0.8,1c-1,1-2.2,1.8-3.5,2.5c-1.1,0.6-2.2,1.1-3.3,1.6C82,24.9,82,25,81.8,25h-0.1c-0.2,0.1-0.4,0.2-0.7,0.2
	c-3.3,1.3-6.6,2.5-10,3.6c-4.8,1.7-9.7,3.3-14.6,4.8c-4.9,1.6-9.9,3.3-14.7,4.8c-3.5,1.1-7,2.2-10.3,3.4c-0.2,0.1-0.3,0.1-0.6,0.2
	c-1.5-3.1-2.9-6.3-4.5-9.4c1.3,0.6,2.7,1,4,1.6c1,0.3,1.7,0.7,2.7,0.2c0.6-0.2,1-0.4,1.6-0.7c2.8-1.2,5.7-2.4,8.5-3.6
	c0.7-0.3,1.5-0.6,2.1-0.9c0.7-0.3,1.5-0.4,1.8-1.1c0.3-0.6,0.1-1.2-0.3-1.5c0,0-0.1,0-0.1-0.1c0,0-0.1,0-0.1-0.1
	c-0.2-0.2-0.4-0.4-0.8-0.7c-0.8-0.8-1.6-1.5-2.4-2.2c-2.7-2.6-5.4-5.1-8.2-7.6l-0.1-0.1c0.9-0.6,1.8-1,2.7-1.6
	c0.9-0.6,1.7-1.1,2.7-1.1c0.6,0,1.2,0.1,1.8,0.3c2.6,0.8,5.1,2.1,7.4,3.4c2.7,1.3,5.4,2.7,8.2,3.8c1.3,0.4,2.7,0.9,4,0.4
	c1.3-0.4,2.8-0.9,4.2-1.3c3.3-1,6.5-2,9.8-2.9c2.2-0.6,4.6-1.2,7-1.6c1.2-0.1,2.7-0.2,3.8,0c1.1,0.2,2.1,0.6,2.8,1.5
	c0.1,0.1,0.2,0.4,0.3,0.6c0,0,0,0.1,0.1,0.1l0,0l0,0c0.1,0.2,0.1,0.3,0.2,0.6c0,0.1,0,0.2,0.1,0.3C89.9,18.3,89.9,18.4,89.9,18.5z"
	/>
<path class="st2" d="M90.2,17.6c-0.3-1-0.9-1.9-1.8-2.6c-1.1-0.9-2.5-1.2-3.8-1.3c-2.7-0.3-5.5,0.3-8.1,1c-2.9,0.7-5.8,1.6-8.7,2.5
	c-1.7,0.6-3.4,1-5.1,1.6c-0.7,0.2-1.3,0.4-2.1,0.7c-0.7,0.2-1.5,0.7-2.1,0.4c-1.1-0.2-2.2-0.7-3.3-1.1c-1.5-0.7-2.8-1.3-4.3-2
	c-2.8-1.3-5.6-2.9-8.5-4c-1.2-0.4-2.5-0.9-3.8-0.9c-1.1,0-2.1,0.4-3.1,1s-2,1.1-2.9,1.7c-0.7,0.4-1.5,0.9-1.7,1.7
	c-0.2,0.8,0.3,1.5,0.9,1.9c1.6,1.5,3.1,2.9,4.7,4.4c2,1.9,3.9,3.8,6,5.6h-0.1c-0.6,0.2-1.1,0.6-1.8,0.8c-1.3,0.6-2.7,1.1-3.9,1.7
	c-1.3,0.6-2.7,1.1-4,1.7c-0.6,0.2-1.1,0.4-1.7,0.7c-0.2,0.1-0.4,0.2-0.7,0.3c-0.1-0.1-0.6-0.2-0.7-0.2c-2.1-0.8-4.4-1.7-6.5-2.5
	c-0.1,0-0.1-0.1-0.2-0.1l0,0c-0.2-0.1-0.6-0.1-0.8,0.1h-0.1c-0.2,0.1-0.3,0.2-0.4,0.4c0,0.1-0.1,0.1-0.1,0.2c-0.1,0.2,0,0.6,0.1,0.8
	v0.1c1.8,3.7,3.5,7.5,5.3,11.2c0.2,0.6,0.4,1,0.8,1.6c0.2,0.4,0.8,0.7,1.2,0.4c3-1,6.2-2,9.2-2.9c4.9-1.6,9.8-3.1,14.7-4.8
	c5.2-1.7,10.2-3.4,15.4-5.1c3.7-1.2,7.5-2.5,11.1-3.9c1.1-0.4,2.2-0.9,3.4-1.5c2.6-1.2,5.7-2.7,7.2-5.4C90.5,20.4,90.6,19,90.2,17.6
	z M32.7,16.8L32.7,16.8C32.7,16.8,32.7,17,32.7,16.8z M43.4,27.6C43.4,27.6,43.5,27.6,43.4,27.6L43.4,27.6z M88.3,19.5L88.3,19.5
	c0,0.1,0,0.2,0,0.2c0,0.1,0,0.1-0.1,0.2v0.1L88,20.2c0,0.1-0.1,0.2-0.1,0.3c-0.2,0.4-0.3,0.6-0.8,1c-1,1-2.2,1.8-3.5,2.5
	c-1.1,0.6-2.2,1.1-3.3,1.6c-0.1,0-0.1,0.1-0.2,0.1h-0.1c-0.2,0.1-0.4,0.2-0.7,0.2c-3.3,1.3-6.6,2.5-10,3.6
	c-4.8,1.7-9.7,3.3-14.6,4.8c-4.9,1.6-9.9,3.3-14.7,4.8c-3.5,1.1-7,2.2-10.3,3.4c-0.2,0.1-0.3,0.1-0.6,0.2c-1.5-3.1-2.9-6.3-4.5-9.4
	c1.3,0.6,2.7,1,4,1.6c1,0.3,1.7,0.7,2.7,0.2c0.6-0.2,1-0.4,1.6-0.7c2.8-1.2,5.7-2.4,8.5-3.6c0.7-0.3,1.5-0.6,2.1-0.9
	c0.7-0.3,1.5-0.4,1.8-1.1c0.3-0.6,0.1-1.2-0.3-1.5c0,0-0.1,0-0.1-0.1c0,0-0.1,0-0.1-0.1c-0.2-0.2-0.4-0.4-0.8-0.7
	c-0.8-0.8-1.6-1.5-2.4-2.2c-2.7-2.6-5.4-5.1-8.2-7.6l-0.1-0.1c0.9-0.6,1.8-1,2.7-1.6c0.9-0.6,1.7-1.1,2.7-1.1c0.6,0,1.2,0.1,1.8,0.3
	c2.6,0.8,5.1,2.1,7.4,3.4c2.7,1.3,5.4,2.7,8.2,3.8c1.3,0.4,2.7,0.9,4,0.4s2.8-0.9,4.2-1.3c3.3-1,6.5-2,9.8-2.9
	c2.2-0.7,4.6-1.2,7-1.6c1.2-0.1,2.7-0.2,3.8,0s2.1,0.6,2.8,1.5c0.1,0.1,0.2,0.4,0.3,0.6c0,0.1,0,0.1,0.1,0.2c0-0.1-0.1-0.1,0,0l0,0
	c0,0,0,0,0,0.1c0,0,0,0,0-0.1c0.1,0.2,0.1,0.3,0.2,0.6c0,0.1,0,0.2,0.1,0.3c0,0.1,0,0.1,0,0.2C88.3,19.3,88.3,19.4,88.3,19.5z"/>
</svg>
