<?xml version="1.0" encoding="utf-8"?>
<!-- Generator: Adobe Illustrator 26.2.1, SVG Export Plug-In . SVG Version: 6.00 Build 0)  -->
<svg version="1.1" id="Capa_1" xmlns="http://www.w3.org/2000/svg" xmlns:xlink="http://www.w3.org/1999/xlink" x="0px" y="0px"
	 viewBox="0 0 90.7 80" style="enable-background:new 0 0 90.7 80;" xml:space="preserve">
<style type="text/css">
	.st0{fill:#FFFFFF;}
	.st1{fill:#FCBE1F;}
	.st2{fill:none;stroke:#4F4C4D;stroke-width:2.5672;stroke-miterlimit:10;}
</style>
<path class="st0" d="M88.9,66.2c-0.4,0.7-0.8,0.8-1.5,0.3c-4.8-3.1-9.7-6.3-14.5-9.3c-0.1-0.1-0.2-0.1-0.4-0.2
	c0,0.4-0.1,0.8-0.1,1.2c-0.2,2.7-0.4,5.4-0.8,8c0,0.2,0.1,0.3,0.2,0.4c1.7,1.1,3.5,2.2,5.1,3.3c0.4,0.2,0.6,0.6,0.6,1.1
	c0,0.4,0,0.8,0,1.2c0,0.7-0.4,1-1.1,0.9c-2.2-0.4-4.5-1-6.7-1.5c-0.1,0-0.3,0-0.4,0c-2.2,0.4-4.5,1-6.7,1.5
	c-0.7,0.1-1.1-0.2-1.1-0.9c0-0.4,0-0.9,0-1.3c0-0.4,0.1-0.7,0.6-0.9c1.7-1.1,3.5-2.3,5.1-3.5c0.2-0.1,0.3-0.3,0.2-0.6
	c-0.3-2.9-0.6-5.8-0.8-8.7c0-0.1,0-0.2-0.1-0.3c-0.1,0.1-0.3,0.2-0.4,0.2c-4.8,3.1-9.6,6.1-14.4,9.3c-0.1,0.1-0.2,0.2-0.3,0.2
	c-0.4,0.2-1.1-0.1-1.1-0.6c0-1,0-2,0.1-3c0.1-0.8,0.7-1.5,1.2-2.1c4.8-4.8,9.6-9.6,14.4-14.4c0.2-0.2,0.3-0.4,0.3-0.8
	c0-2,0-3.9,0-5.9c0-1.6,0.4-2.9,1.1-4.2c0.3-0.7,1-0.9,1.6-1.1c0.3,0,0.6,0,0.9,0c0.7,0.2,1.2,0.6,1.6,1.1c0.8,1.2,1.2,2.7,1.1,4.1
	c0,2,0,4,0,6c0,0.3,0.1,0.6,0.3,0.8c4.8,4.8,9.6,9.6,14.4,14.4c0.6,0.6,1,1.1,1.2,1.9c0.1,0.2,0.1,0.4,0.2,0.7
	C88.9,64.4,88.9,65.3,88.9,66.2z"/>
<path class="st0" d="M40.6,66.2c-0.4,0.7-0.8,0.8-1.5,0.3c-4.8-3.1-9.7-6.3-14.5-9.3c-0.1-0.1-0.2-0.1-0.4-0.2
	c0,0.4-0.1,0.8-0.1,1.2c-0.2,2.7-0.4,5.4-0.8,8c0,0.2,0.1,0.3,0.2,0.4c1.7,1.1,3.5,2.2,5.1,3.3c0.4,0.2,0.6,0.6,0.6,1.1
	c0,0.4,0,0.8,0,1.2c0,0.7-0.4,1-1.1,0.9c-2.2-0.4-4.5-1-6.7-1.5c-0.1,0-0.3,0-0.4,0c-2.2,0.4-4.5,1-6.7,1.5
	c-0.7,0.1-1.1-0.2-1.1-0.9c0-0.4,0-0.9,0-1.3c0-0.4,0.1-0.7,0.6-0.9c1.7-1.1,3.5-2.3,5.1-3.5c0.2-0.1,0.3-0.3,0.2-0.6
	c-0.3-2.9-0.6-5.8-0.8-8.7c0-0.1,0-0.2-0.1-0.3c-0.1,0.1-0.3,0.2-0.4,0.2c-4.8,3.1-9.6,6.1-14.4,9.3c-0.1,0.1-0.2,0.2-0.3,0.2
	c-0.4,0.2-1.1-0.1-1.1-0.6c0-1,0-2,0.1-3c0.1-0.8,0.7-1.5,1.2-2.1c4.8-4.8,9.6-9.6,14.4-14.4c0.2-0.2,0.3-0.4,0.3-0.8
	c0-2,0-3.9,0-5.9c0-1.6,0.4-2.9,1.1-4.2c0.3-0.7,1-0.9,1.6-1.1c0.3,0,0.6,0,0.9,0c0.7,0.2,1.2,0.6,1.6,1.1c0.8,1.2,1.2,2.7,1.1,4.1
	c0,2,0,4,0,6c0,0.3,0.1,0.6,0.3,0.8c4.8,4.8,9.6,9.6,14.4,14.4c0.6,0.6,1,1.1,1.2,1.9c0.1,0.2,0.1,0.4,0.2,0.7
	C40.6,64.4,40.6,65.3,40.6,66.2z"/>
<path class="st0" d="M26.2,12.2c0.4-0.7,0.8-0.8,1.5-0.3c4.8,3.1,9.7,6.3,14.5,9.3c0.1,0.1,0.2,0.1,0.4,0.2c0-0.4,0.1-0.8,0.1-1.2
	c0.2-2.7,0.4-5.4,0.8-8c0-0.2-0.1-0.3-0.2-0.4c-1.7-1.1-3.5-2.2-5.1-3.3c-0.4-0.2-0.6-0.6-0.6-1.1c0-0.4,0-0.8,0-1.2
	c0-0.7,0.4-1,1.1-0.9c2.2,0.4,4.5,1,6.7,1.5c0.1,0,0.3,0,0.4,0c2.2-0.4,4.5-1,6.7-1.5c0.7-0.1,1.1,0.2,1.1,0.9c0,0.4,0,0.9,0,1.3
	S53.5,8,53.1,8.2c-1.7,1.1-3.5,2.3-5.1,3.5c-0.2,0.1-0.3,0.3-0.2,0.6c0.3,2.9,0.6,5.8,0.8,8.7c0,0.1,0,0.2,0.1,0.3
	c0.1-0.1,0.3-0.2,0.4-0.2c4.8-3.1,9.6-6.1,14.4-9.3c0.1-0.1,0.2-0.2,0.3-0.2c0.4-0.2,1.1,0.1,1.1,0.6c0,1,0,2-0.1,3
	c-0.1,0.8-0.7,1.5-1.2,2.1C58.8,22,54,26.8,49.2,31.6c-0.2,0.2-0.3,0.4-0.3,0.8c0,2,0,3.9,0,5.9c0,1.6-0.4,2.9-1.1,4.2
	c-0.3,0.7-1,0.9-1.6,1.1c-0.3,0-0.6,0-0.9,0c-0.7-0.2-1.2-0.6-1.6-1.1c-0.8-1.2-1.2-2.7-1.1-4.1c0-2,0-4,0-6c0-0.3-0.1-0.6-0.3-0.8
	c-4.8-4.8-9.6-9.6-14.4-14.4c-0.6-0.6-1-1.1-1.2-1.9c-0.1-0.2-0.1-0.4-0.2-0.7C26.2,13.9,26.2,13,26.2,12.2z"/>
<path class="st1" d="M6.8,63.1C6.9,62.3,7.4,61.6,8,61c4.8-4.8,9.6-9.6,14.4-14.4c0.2-0.2,0.3-0.4,0.3-0.8c0-2,0-3.9,0-5.9
	c0-1.6,0.4-2.9,1.1-4.2c0.1-0.2,0.3-0.3,0.4-0.6c-0.3-0.3-0.7-0.4-1.1-0.7c-0.3,0-0.6,0-0.9,0c-0.7,0.2-1.2,0.6-1.6,1.1
	c-0.8,1.3-1.2,2.7-1.1,4.2c0,2,0,3.9,0,5.9c0,0.3-0.1,0.6-0.3,0.8c-4.8,4.8-9.6,9.6-14.4,14.4c-0.6,0.6-1.1,1.2-1.2,2.1
	c-0.1,1-0.1,2-0.1,3c0,0.6,0.7,0.8,1.1,0.6c0.1-0.1,0.2-0.1,0.3-0.2c0.6-0.3,1.1-0.7,1.7-1.1C6.6,64.7,6.6,63.9,6.8,63.1z"/>
<path class="st1" d="M17.9,72.2c0-0.4,0-0.9,0-1.3s0.1-0.7,0.6-0.9c1.7-1.1,3.5-2.3,5.1-3.5c0.2-0.1,0.3-0.3,0.2-0.6
	c-0.3-2.9-0.6-5.8-0.8-8.7c0-0.1,0-0.2-0.1-0.3c-0.1,0.1-0.3,0.2-0.4,0.2c-0.9,0.6-1.7,1.1-2.6,1.7c0.2,2.3,0.4,4.8,0.7,7.1
	c0,0.3,0,0.4-0.2,0.6c-1.7,1.1-3.5,2.3-5.1,3.5c-0.3,0.2-0.6,0.6-0.4,0.9c0,0.4,0,0.9,0,1.3c0,0.7,0.4,1,1.1,0.9
	c0.7-0.1,1.5-0.3,2.1-0.4C17.9,72.6,17.9,72.4,17.9,72.2z"/>
<path class="st1" d="M53,21.1c0,0.1,0,0.2,0.1,0.3c0.1-0.1,0.3-0.2,0.4-0.2c4.2-2.7,8.5-5.5,12.7-8.1c0-0.2,0-0.4,0-0.8
	c0-0.6-0.7-0.8-1.1-0.6c-0.1,0.1-0.2,0.1-0.3,0.2c-3.9,2.6-7.9,5-11.8,7.6C52.9,20,53,20.6,53,21.1z"/>
<path class="st1" d="M26.2,71.7c-0.1,0-0.3,0-0.4,0c-0.4,0.1-0.9,0.2-1.3,0.3c1.8,0.4,3.6,0.8,5.4,1.2c0.6,0.1,0.9-0.1,1-0.4
	C29.2,72.4,27.6,72,26.2,71.7z"/>
<path class="st1" d="M39.5,8.4c1.7,1.1,3.5,2.2,5.1,3.3c0.1,0.1,0.2,0.2,0.2,0.4c-0.2,2.5-0.4,4.8-0.7,7.3c0.9,0.6,1.8,1.1,2.7,1.7
	c0.1,0.1,0.2,0.1,0.4,0.2c0-0.4,0.1-0.8,0.1-1.2c0.2-2.7,0.4-5.4,0.8-8c0-0.2-0.1-0.3-0.2-0.4c-1.7-1.1-3.5-2.2-5.1-3.3
	c-0.4-0.2-0.6-0.6-0.6-1.1c0-0.4,0-0.8,0-1.2c0-0.1,0-0.3,0.1-0.4c-0.7-0.1-1.5-0.3-2.1-0.4c-0.7-0.1-1.1,0.2-1.1,0.9
	c0,0.4,0,0.8,0,1.2C38.8,7.7,39,8.1,39.5,8.4z"/>
<path class="st1" d="M49.8,6.7c0.1,0,0.3,0,0.4,0c1.6-0.3,3-0.7,4.6-1c-0.1-0.4-0.6-0.6-1-0.4c-1.8,0.3-3.6,0.8-5.4,1.1
	C49,6.5,49.4,6.6,49.8,6.7z"/>
<path class="st1" d="M74.5,71.7c-0.1,0-0.3,0-0.4,0c-0.4,0.1-0.9,0.2-1.3,0.3c1.8,0.4,3.6,0.8,5.4,1.2c0.6,0.1,0.9-0.1,1-0.4
	C77.5,72.4,76.1,72,74.5,71.7z"/>
<path class="st1" d="M77.6,57.2c-0.1-0.1-0.2-0.1-0.4-0.2c0,0.4-0.1,0.8-0.1,1.2c0,0.2,0,0.4-0.1,0.8c3.9,2.6,7.9,5,11.8,7.6
	c0.7,0.4,1,0.3,1.5-0.3c0-0.2,0-0.6,0-0.8C86.1,62.6,81.9,60,77.6,57.2z"/>
<path class="st1" d="M29.2,57.2c-0.1-0.1-0.2-0.1-0.4-0.2c0,0.4-0.1,0.8-0.1,1.2c0,0.2,0,0.4-0.1,0.8c3.9,2.6,7.9,5,11.8,7.6
	c0.7,0.4,1,0.3,1.5-0.3c0-0.2,0-0.6,0-0.8C37.8,62.6,33.4,60,29.2,57.2z"/>
<path class="st1" d="M66.3,72.2c0-0.4,0-0.9,0-1.3s0.1-0.7,0.4-0.9c1.7-1.1,3.5-2.3,5.1-3.5c0.2-0.1,0.3-0.3,0.2-0.6
	c-0.3-2.9-0.6-5.8-0.8-8.7c0-0.1,0-0.2-0.1-0.3c-0.1,0.1-0.3,0.2-0.4,0.2c-0.9,0.6-1.7,1.1-2.6,1.7c0.2,2.3,0.4,4.8,0.7,7.1
	c0,0.3,0,0.4-0.2,0.6c-1.7,1.1-3.5,2.3-5.1,3.5c-0.3,0.2-0.6,0.6-0.6,0.9c0,0.4,0,0.9,0,1.3c0,0.7,0.4,1,1.1,0.9
	c0.7-0.1,1.5-0.3,2.1-0.4C66.3,72.6,66.3,72.4,66.3,72.2z"/>
<path class="st1" d="M48.1,42.6c-0.8-1.2-1.2-2.7-1.1-4.1c0-2,0-4,0-6c0-0.3-0.1-0.6-0.3-0.8C41.8,26.8,37,22,32.2,17.2
	c-0.6-0.6-1-1.1-1.2-1.9c-0.1-0.2-0.1-0.4-0.2-0.7c0-0.7,0-1.2,0-1.9c-0.6-0.3-1.1-0.8-1.8-1.1c-0.7-0.4-1-0.3-1.5,0.3
	c0,0.9,0,1.8,0,2.7c0.1,0.2,0.1,0.4,0.2,0.7c0.2,0.7,0.7,1.3,1.2,1.9c4.8,4.8,9.6,9.6,14.4,14.4c0.2,0.2,0.3,0.4,0.3,0.8
	c0,2,0,4,0,6c0,1.5,0.4,2.9,1.1,4.1c0.3,0.7,0.9,0.9,1.6,1.1c0.3,0,0.6,0,0.9,0c0.4-0.1,0.8-0.3,1.1-0.7
	C48.4,43,48.2,42.8,48.1,42.6z"/>
<path class="st1" d="M55.1,63.1c0.1-0.8,0.7-1.5,1.2-2.1c4.8-4.8,9.6-9.6,14.4-14.4c0.2-0.2,0.3-0.4,0.3-0.8c0-2,0-3.9,0-5.9
	c0-1.6,0.4-2.9,1.1-4.2c0.1-0.2,0.3-0.3,0.4-0.6c-0.3-0.3-0.7-0.4-1.1-0.7c-0.3,0-0.6,0-0.9,0c-0.7,0.2-1.2,0.6-1.6,1.1
	c-0.8,1.3-1.2,2.7-1.1,4.2c0,2,0,3.9,0,5.9c0,0.3-0.1,0.6-0.3,0.8c-4.8,4.8-9.6,9.6-14.4,14.4c-0.6,0.6-1.1,1.2-1.2,2.1
	c-0.1,1-0.1,2-0.1,3c0,0.6,0.7,0.8,1.1,0.6c0.1-0.1,0.2-0.1,0.3-0.2c0.6-0.3,1.1-0.7,1.7-1.1C55,64.7,55,63.9,55.1,63.1z"/>
<path class="st2" d="M88.9,66.2c-0.4,0.7-0.8,0.8-1.5,0.3c-4.8-3.1-9.7-6.3-14.5-9.3c-0.1-0.1-0.2-0.1-0.4-0.2
	c0,0.4-0.1,0.8-0.1,1.2c-0.2,2.7-0.4,5.4-0.8,8c0,0.2,0.1,0.3,0.2,0.4c1.7,1.1,3.5,2.2,5.1,3.3c0.4,0.2,0.6,0.6,0.6,1.1
	c0,0.4,0,0.8,0,1.2c0,0.7-0.4,1-1.1,0.9c-2.2-0.4-4.5-1-6.7-1.5c-0.1,0-0.3,0-0.4,0c-2.2,0.4-4.5,1-6.7,1.5
	c-0.7,0.1-1.1-0.2-1.1-0.9c0-0.4,0-0.9,0-1.3c0-0.4,0.1-0.7,0.6-0.9c1.7-1.1,3.5-2.3,5.1-3.5c0.2-0.1,0.3-0.3,0.2-0.6
	c-0.3-2.9-0.6-5.8-0.8-8.7c0-0.1,0-0.2-0.1-0.3c-0.1,0.1-0.3,0.2-0.4,0.2c-4.8,3.1-9.6,6.1-14.4,9.3c-0.1,0.1-0.2,0.2-0.3,0.2
	c-0.4,0.2-1.1-0.1-1.1-0.6c0-1,0-2,0.1-3c0.1-0.8,0.7-1.5,1.2-2.1c4.8-4.8,9.6-9.6,14.4-14.4c0.2-0.2,0.3-0.4,0.3-0.8
	c0-2,0-3.9,0-5.9c0-1.6,0.4-2.9,1.1-4.2c0.3-0.7,1-0.9,1.6-1.1c0.3,0,0.6,0,0.9,0c0.7,0.2,1.2,0.6,1.6,1.1c0.8,1.2,1.2,2.7,1.1,4.1
	c0,2,0,4,0,6c0,0.3,0.1,0.6,0.3,0.8c4.8,4.8,9.6,9.6,14.4,14.4c0.6,0.6,1,1.1,1.2,1.9c0.1,0.2,0.1,0.4,0.2,0.7
	C88.9,64.4,88.9,65.3,88.9,66.2z"/>
<path class="st2" d="M40.6,66.2c-0.4,0.7-0.8,0.8-1.5,0.3c-4.8-3.1-9.7-6.3-14.5-9.3c-0.1-0.1-0.2-0.1-0.4-0.2
	c0,0.4-0.1,0.8-0.1,1.2c-0.2,2.7-0.4,5.4-0.8,8c0,0.2,0.1,0.3,0.2,0.4c1.7,1.1,3.5,2.2,5.1,3.3c0.4,0.2,0.6,0.6,0.6,1.1
	c0,0.4,0,0.8,0,1.2c0,0.7-0.4,1-1.1,0.9c-2.2-0.4-4.5-1-6.7-1.5c-0.1,0-0.3,0-0.4,0c-2.2,0.4-4.5,1-6.7,1.5
	c-0.7,0.1-1.1-0.2-1.1-0.9c0-0.4,0-0.9,0-1.3c0-0.4,0.1-0.7,0.6-0.9c1.7-1.1,3.5-2.3,5.1-3.5c0.2-0.1,0.3-0.3,0.2-0.6
	c-0.3-2.9-0.6-5.8-0.8-8.7c0-0.1,0-0.2-0.1-0.3c-0.1,0.1-0.3,0.2-0.4,0.2c-4.8,3.1-9.6,6.1-14.4,9.3c-0.1,0.1-0.2,0.2-0.3,0.2
	c-0.4,0.2-1.1-0.1-1.1-0.6c0-1,0-2,0.1-3c0.1-0.8,0.7-1.5,1.2-2.1c4.8-4.8,9.6-9.6,14.4-14.4c0.2-0.2,0.3-0.4,0.3-0.8
	c0-2,0-3.9,0-5.9c0-1.6,0.4-2.9,1.1-4.2c0.3-0.7,1-0.9,1.6-1.1c0.3,0,0.6,0,0.9,0c0.7,0.2,1.2,0.6,1.6,1.1c0.8,1.2,1.2,2.7,1.1,4.1
	c0,2,0,4,0,6c0,0.3,0.1,0.6,0.3,0.8c4.8,4.8,9.6,9.6,14.4,14.4c0.6,0.6,1,1.1,1.2,1.9c0.1,0.2,0.1,0.4,0.2,0.7
	C40.6,64.4,40.6,65.3,40.6,66.2z"/>
<path class="st2" d="M26.2,12.2c0.4-0.7,0.8-0.8,1.5-0.3c4.8,3.1,9.7,6.3,14.5,9.3c0.1,0.1,0.2,0.1,0.4,0.2c0-0.4,0.1-0.8,0.1-1.2
	c0.2-2.7,0.4-5.4,0.8-8c0-0.2-0.1-0.3-0.2-0.4c-1.7-1.1-3.5-2.2-5.1-3.3c-0.4-0.2-0.6-0.6-0.6-1.1c0-0.4,0-0.8,0-1.2
	c0-0.7,0.4-1,1.1-0.9c2.2,0.4,4.5,1,6.7,1.5c0.1,0,0.3,0,0.4,0c2.2-0.4,4.5-1,6.7-1.5c0.7-0.1,1.1,0.2,1.1,0.9c0,0.4,0,0.9,0,1.3
	S53.5,8,53.1,8.2c-1.7,1.1-3.5,2.3-5.1,3.5c-0.2,0.1-0.3,0.3-0.2,0.6c0.3,2.9,0.6,5.8,0.8,8.7c0,0.1,0,0.2,0.1,0.3
	c0.1-0.1,0.3-0.2,0.4-0.2c4.8-3.1,9.6-6.1,14.4-9.3c0.1-0.1,0.2-0.2,0.3-0.2c0.4-0.2,1.1,0.1,1.1,0.6c0,1,0,2-0.1,3
	c-0.1,0.8-0.7,1.5-1.2,2.1C58.8,22,54,26.8,49.2,31.6c-0.2,0.2-0.3,0.4-0.3,0.8c0,2,0,3.9,0,5.9c0,1.6-0.4,2.9-1.1,4.2
	c-0.3,0.7-1,0.9-1.6,1.1c-0.3,0-0.6,0-0.9,0c-0.7-0.2-1.2-0.6-1.6-1.1c-0.8-1.2-1.2-2.7-1.1-4.1c0-2,0-4,0-6c0-0.3-0.1-0.6-0.3-0.8
	c-4.8-4.8-9.6-9.6-14.4-14.4c-0.6-0.6-1-1.1-1.2-1.9c-0.1-0.2-0.1-0.4-0.2-0.7C26.2,13.9,26.2,13,26.2,12.2z"/>
</svg>
