<?xml version="1.0" encoding="utf-8"?>
<!-- Generator: Adobe Illustrator 26.2.1, SVG Export Plug-In . SVG Version: 6.00 Build 0)  -->
<svg version="1.1" id="Capa_1" xmlns="http://www.w3.org/2000/svg" xmlns:xlink="http://www.w3.org/1999/xlink" x="0px" y="0px"
	 viewBox="0 0 70 80" style="enable-background:new 0 0 70 80;" xml:space="preserve">
<style type="text/css">
	.st0{fill:#FFFFFF;}
	.st1{fill:#FDBE15;}
	.st2{fill:#4F4C4D;}
</style>
<g>
	<path class="st0" d="M23.2,38.1L39.8,6.8l25.6,13.6L55,38.1H23.2z"/>
	<path class="st0" d="M9.2,32.7h15.3l-1.9,4.8H9.2V32.7z"/>
	<path class="st1" d="M31.1,36.3L45.7,9.8l4.3,2.7L35.4,38.6L31.1,36.3z"/>
	<rect x="7.9" y="38.8" class="st0" width="51.3" height="34.2"/>
	<path class="st1" d="M8.7,43H57c1.4,0,2.5,1.1,2.5,2.5v26.7H8.7V43z"/>
	<rect x="50.7" y="51" class="st0" width="12.2" height="9.8"/>
	<path class="st2" d="M63.8,17.6L43,6.3C41,5.2,38.3,6,37.2,8L24.9,30.8H10.1c-1.9,0-3.4,1.5-3.4,3.4V40v30.8c0,1.9,1.5,3.4,3.4,3.4
		h47.4c1.9,0,3.4-1.5,3.4-3.4v-8.6h1.4c0.8,0,1.3-0.5,1.3-1.3v-9.8c0-0.8-0.5-1.3-1.3-1.3h-1.4v-9.7c0-1.5-1.2-3-2.6-3.3l7.3-13.4
		C66.6,21.3,65.9,18.8,63.8,17.6z M48.9,12.5L35.8,36.7h-3.7l14-25.6L48.9,12.5z M39.6,9.2C40,8.5,41,8.1,41.8,8.6l2.1,1.2
		L29.2,36.7h-4.5L39.6,9.2z M9.3,34.1c0-0.2,0.3-0.7,0.8-0.7h13.4l-1.9,3.3H10c-0.2,0-0.5,0-0.8,0.1v-2.7H9.3z M58.2,70.8
		c0,0.4-0.3,0.8-0.8,0.8H10c-0.4,0-0.8-0.3-0.8-0.8V40.1c0-0.4,0.3-0.8,0.8-0.8h12.4h5.3h9.7H56h1.4c0.4,0,0.8,0.3,0.8,0.8v9.7h-5.1
		c-2.2,0-4,1.9-4,4v4.5c0,2.2,1.9,4,4,4h5.2v8.6H58.2z M60.8,52.4L60.8,52.4l0.1,7.1h-0.1H53c-0.8,0-1.3-0.5-1.3-1.3v-4.5
		c0-0.8,0.5-1.3,1.3-1.3H60.8L60.8,52.4z M63.1,22.1l-7.9,14.6H38.8l12.4-22.9L62.5,20C63.3,20.3,63.6,21.3,63.1,22.1z"/>
	<path class="st2" d="M58.2,20.8l-0.7-0.3c-1.6-0.9-3.8-0.2-4.8,1.4l-0.9,1.5c-0.4,0.9-0.5,1.9-0.2,2.7c0.2,0.9,0.9,1.6,1.8,2.1
		l0.7,0.3c0.5,0.2,1.1,0.4,1.6,0.4c1.3,0,2.5-0.8,3.2-1.9l0.9-1.5C60.5,23.9,59.8,21.8,58.2,20.8z M57.2,24.4l-0.9,1.5
		c-0.2,0.4-0.9,0.5-1.2,0.3l-0.7-0.4c-0.2-0.1-0.3-0.3-0.4-0.5c-0.1-0.2-0.1-0.5,0.1-0.7l0.9-1.5c0.1-0.2,0.5-0.5,0.9-0.5
		c0.1,0,0.2,0,0.4,0.1L57,23C57.2,23.4,57.4,23.9,57.2,24.4z"/>
</g>
</svg>
