<?xml version="1.0" encoding="utf-8"?>
<!-- Generator: Adobe Illustrator 26.3.1, SVG Export Plug-In . SVG Version: 6.00 Build 0)  -->
<svg version="1.1" id="Capa_1" xmlns="http://www.w3.org/2000/svg" xmlns:xlink="http://www.w3.org/1999/xlink" x="0px" y="0px"
	 viewBox="0 0 1200 1200" style="enable-background:new 0 0 1200 1200;" xml:space="preserve">
<style type="text/css">
	.st0{fill:#4F4C4D;}
	.st1{fill:#641980;}
	.st2{fill:#FCBD15;}
	.st3{fill:#FFFFFF;}
	.st4{fill:#803F9B;}
</style>
<g>
	<g id="XMLID_00000070800825362600872820000001636691909170728104_">
		<g>
			<rect x="949.3" y="275.7" class="st0" width="57.3" height="28.7"/>
			
				<rect x="956.5" y="338.4" transform="matrix(0.7073 -0.7069 0.7069 0.7073 23.4421 794.249)" class="st0" width="28.7" height="60.8"/>
			
				<rect x="940.4" y="196.8" transform="matrix(0.7071 -0.7071 0.7071 0.7071 135.0388 748.317)" class="st0" width="60.8" height="28.7"/>
			<path class="st0" d="M930.1,666.2c10.9,10.2,17.2,24.5,17.2,39.4c0,14.9-6.2,29.2-17.2,39.4l-66.8,50.2l-65.9-49.5
				c-11.3-10.1-17.9-24.5-18-39.6c-0.2-15.2,6.1-29.7,17.2-40c18.6-16.2,45.3-18.9,66.8-6.7C884.8,647.3,911.5,650,930.1,666.2z
				 M912,722.8c9.1-10.1,8.7-25.5-0.8-35.1c-11-9.6-27.4-9.6-38.4,0l-9.4,8.3l-9.4-8.3c-11-9.6-27.4-9.6-38.4,0
				c-4.8,4.8-7.4,11.2-7.4,17.9c0,6.7,2.7,13.2,7.4,17.9l47.9,35.8L912,722.8z"/>
			<path class="st1" d="M911.2,687.8c9.5,9.6,9.9,25,0.8,35.1l-48.7,36.5l-47.9-35.8c-4.8-4.8-7.4-11.2-7.4-17.9
				c0-6.7,2.7-13.2,7.4-17.9c11-9.6,27.4-9.6,38.4,0l9.4,8.3l9.4-8.3C883.8,678.1,900.2,678.2,911.2,687.8z"/>
			<path class="st0" d="M877.7,318.6c23.7,0,43,19.3,43,43c0,23.7-19.3,43-43,43c-3.2,0-6.4-0.4-9.6-1.2l15.5,15.5L705.7,596.9
				v395.4c0,23.7-19.3,43-43,43c-23.7,0-43-19.3-43-43V791.6H591v200.7c0,23.7-19.3,43-43,43c-23.7,0-43-19.3-43-43V596.9L327.1,419
				l15.5-15.5c-3.1,0.8-6.3,1.1-9.5,1.2c-23.8,0-43-19.3-43-43c0-23.8,19.2-43,43-43c4.9,0.1,9.7,0.9,14.3,2.6v-146h516v146
				C867.9,319.6,872.8,318.7,877.7,318.6z M892,361.7c0-7.9-6.4-14.3-14.3-14.3c-7.9,0-14.3,6.4-14.3,14.3c0,7.9,6.4,14.3,14.3,14.3
				C885.6,376,892,369.6,892,361.7z M705.7,556.4L843,419l-21.5-21.5l7.2-7.2h-0.1l-7.1,7.1l-1.1-1.1L682.9,533.6h22.7V556.4z
				 M834.7,361.7V204H376v157.7H834.7z M642.4,533.6l143.3-143.3H690c4.4,25-2.5,50.6-18.9,70c-16.3,19.4-40.5,30.5-65.8,30.4
				c-25.3,0.1-49.5-11-65.8-30.4c-16.4-19.4-23.3-45-18.9-70h-95.7l143.3,143.3H642.4z M677,992.3V791.6h-28.7v200.7
				c0,7.9,6.4,14.3,14.3,14.3C670.6,1006.6,677,1000.2,677,992.3z M677,763V562.3H533.7V763H677z M638.3,452.3
				c19.8-13.9,28.7-38.7,22.4-62H550c-6.3,23.3,2.6,48.1,22.4,62C592.2,466.1,618.5,466.1,638.3,452.3z M562.3,992.3V791.6h-28.7
				v200.7c0,7.9,6.4,14.3,14.3,14.3C555.9,1006.6,562.3,1000.2,562.3,992.3z M527.7,533.6L390.3,396.2L367.6,419L505,556.4v-22.7
				H527.7z M347.3,361.7c0-7.9-6.4-14.3-14.3-14.3c-7.9,0-14.3,6.4-14.3,14.3c0,7.9,6.4,14.3,14.3,14.3
				C340.9,376,347.3,369.6,347.3,361.7z"/>
			<path class="st2" d="M834.7,204v157.7H376V204H834.7z M777.3,318.6V290h-86v28.7H777.3z M748.7,261.3v-28.7H720v28.7H748.7z
				 M691.3,261.3v-28.7H548v28.7H691.3z M519.3,318.6V290h-28.7v28.7H519.3z M519.3,261.3v-28.7H462v28.7H519.3z M462,318.6V290
				h-28.7v28.7H462z"/>
			<polygon class="st3" points="828.6,390.3 821.5,397.5 843,419 705.7,556.4 705.7,533.6 682.9,533.6 820.3,396.2 821.5,397.4 
				828.5,390.3 			"/>
			<rect x="691.3" y="290" class="st0" width="86" height="28.7"/>
			<rect x="720" y="232.7" class="st0" width="28.7" height="28.7"/>
			<rect x="548" y="232.7" class="st0" width="143.3" height="28.7"/>
			<path class="st3" d="M677,791.6v200.7c0,7.9-6.4,14.3-14.3,14.3c-7.9,0-14.3-6.4-14.3-14.3V791.6H677z"/>
			<rect x="533.7" y="562.3" class="st4" width="143.3" height="200.7"/>
			<path class="st3" d="M660.7,390.3c6.3,23.3-2.6,48.1-22.4,62c-19.8,13.9-46.1,13.9-65.9,0c-19.8-13.9-28.7-38.7-22.4-62H660.7z"
				/>
			<path class="st3" d="M562.3,791.6v200.7c0,7.9-6.4,14.3-14.3,14.3c-7.9,0-14.3-6.4-14.3-14.3V791.6H562.3z"/>
			<polygon class="st3" points="390.3,396.2 527.7,533.6 505,533.6 505,556.4 367.6,419 			"/>
			<rect x="490.7" y="290" class="st0" width="28.7" height="28.7"/>
			<rect x="462" y="232.7" class="st0" width="57.3" height="28.7"/>
			<rect x="433.3" y="290" class="st0" width="28.7" height="28.7"/>
			<path class="st0" d="M400,523.1c12.2,9.4,19.4,23.9,19.4,39.3s-7.2,29.9-19.4,39.3l-81.8,80.8l-81.3-81.3
				c-11.6-9.6-18.5-23.8-18.9-38.8c0.6-15.3,7.6-29.6,19.4-39.3c22.7-19.8,55.5-22.7,81.3-7.2C344.4,500.3,377.3,503.2,400,523.1z
				 M390.7,562.3c-0.8-7.1-4.4-13.6-10-18.1c-15-12.9-37.3-12.9-52.3,0l-9.7,8.8l-9.6-8.8c-15.1-12.9-37.3-12.9-52.4,0h0
				c-5.6,4.4-9.3,10.9-10.1,18.1c0.8,7.1,4.4,13.6,10.1,18.1l61.6,61.6l61.9-61.2C386,576.3,389.8,569.6,390.7,562.3z"/>
			<path class="st1" d="M380.6,544.2c5.6,4.4,9.2,10.9,10,18.1c-0.9,7.3-4.6,14-10.5,18.5L318.3,642l-61.6-61.6
				c-5.7-4.4-9.3-10.9-10.1-18.1c0.8-7.1,4.4-13.6,10.1-18.1h0c15-12.9,37.3-12.9,52.4,0l9.6,8.8l9.7-8.8
				C343.3,531.3,365.6,531.3,380.6,544.2z"/>
			
				<rect x="209.4" y="354.5" transform="matrix(0.7071 -0.7071 0.7071 0.7071 -190.5412 277.6211)" class="st0" width="60.8" height="28.7"/>
			
				<rect x="225.5" y="180.8" transform="matrix(0.7069 -0.7073 0.7073 0.7069 -79.0555 231.5238)" class="st0" width="28.7" height="60.8"/>
			<rect x="204" y="275.7" class="st0" width="57.3" height="28.7"/>
		</g>
		<g>
		</g>
	</g>
</g>
</svg>
