<?xml version="1.0" encoding="utf-8"?>
<!-- Generator: Adobe Illustrator 26.3.1, SVG Export Plug-In . SVG Version: 6.00 Build 0)  -->
<svg version="1.1" id="Capa_1" xmlns="http://www.w3.org/2000/svg" xmlns:xlink="http://www.w3.org/1999/xlink" x="0px" y="0px"
	 viewBox="0 0 1200 1200" style="enable-background:new 0 0 1200 1200;" xml:space="preserve">
<style type="text/css">
	.st0{fill:#4F4C4D;}
	.st1{fill:#FFFFFF;}
	.st2{fill:#FABB1B;}
	.st3{fill:#A66BC1;}
	.st4{fill:#803F9B;}
</style>
<g>
	<g id="XMLID_00000092439329611422471950000016650406999012188033_">
		<g>
			<path class="st0" d="M1007.4,267.1v301.5c0,53.7-43.8,97.4-97.7,97.4h-38.9l-97.1,74.2c-6.8,5.3-16.5,2-19.8-5.1
				c-0.8-1.6-1.1-3.3-1.1-5.2V666H607.3c-12.7,0-25.1-2.4-36.5-7c0,0,0,65.8-0.1,67.4h116.2c16.6,0,31.7,6.8,42.7,17.7
				c10.9,10.8,17.7,25.9,17.7,42.6v145.6v8.6v14.6c0,33.1-27.1,60.2-60.4,60.2h-15.6l-52.7,40.8c-8.3,6.4-20.9,0.1-20.9-10.4v-30.4
				h-80c-33.3,0-60.5-27-60.5-60.2V808.9l-65.7,50.8c-8.3,6.4-21,0.1-21-10.4v-48.1h-118c-44,0-79.8-35.7-79.8-79.6V597.8v-7.7
				V483.8c0-43.9,35.8-79.6,79.8-79.6H491c6.4,0,12.6,0.8,18.6,2.2V267.1c0-53.7,43.9-97.4,97.8-97.4h264.2h2.5h35.7
				C963.6,169.7,1007.4,213.4,1007.4,267.1z M981.4,568.6V267.1c0-39.4-32.1-71.4-71.7-71.4H874h-2.5H607.3
				c-39.6,0-71.7,32-71.7,71.4v150.8c21.2,14.3,35.1,38.5,35.1,65.9V630c11,6.5,23.5,10,36.5,10h158.5c7.3,0,13.1,5.8,13.1,13v50.6
				l79.6-60.9c2.3-1.7,5-2.6,7.9-2.6h43.3C949.3,640,981.4,608,981.4,568.6z M721.3,955.5v-14.6v-8.6V786.7
				c0-18.8-15.4-34.2-34.4-34.2H517.6c-18.9,0-34.3,15.4-34.3,34.2v168.8c0,18.8,15.4,34.2,34.3,34.2h93c7.2,0,13,5.8,13,13v17
				l35.3-27.2c2.3-1.8,5.1-2.7,7.9-2.7h20.1C705.8,989.7,721.3,974.3,721.3,955.5z M544.8,721.6v-82.9c-0.2-1.1-0.2-2.3,0-3.5V483.8
				c0-29.5-24.1-53.5-53.8-53.5H252.5c-29.6,0-53.7,24-53.7,53.5v106.3v7.7v123.7c0,29.5,24.1,53.5,53.7,53.5h131.1
				c7.2,0,13,5.8,13,13.1v34.7l58.3-45c1-0.8,2.2-1.4,3.4-1.9c5.1-28.1,29.8-49.4,59.3-49.4h26.9
				C544.6,724.9,544.8,723.2,544.8,721.6z"/>
			<path class="st1" d="M789.5,265.6c-16-3-31.8,9.8-31.8,26.3c0,18.7-6.8,36.7-19.1,50.7l-35.9,40.7c-0.6-0.9-1.3-1.7-2.1-2.4
				c-2.4-2.2-5.5-3.5-8.9-3.5h-70.1c-7.3,0-13.1,5.8-13.1,13v157.6c0,7.3,5.8,13.1,13.1,13.1h70.1c5.3,0,9.8-3.1,11.9-7.6
				c14.1,8.7,30.6,13.4,47.4,13.4h123.8c18.9,0,34.5-16.5,33.6-35.3c-0.4-8.4,0-120.6,0-123.1c0-7.9-2.7-15.3-7.3-21
				c-0.7-2.5-2.6-4.5-5.2-5.2c-5.7-4.7-13.1-7.5-21.1-7.5l-64.4-0.2l2.7-6.3c12.1-28.8,10.2-62.3-5.4-89.6c-0.7-1.1-1.4-2.3-2.3-3.3
				c-0.4-0.9-0.9-1.8-1.4-2.7c-0.3-0.4-0.8-0.4-1.1-0.1c-3.1-3-7.1-5.2-11.3-6.4c-0.1,0-0.2,0-0.3,0c-0.1-0.1-0.2-0.1-0.3-0.1
				C790.5,265.9,790,265.7,789.5,265.6z M981.4,267.1v301.5c0,39.4-32.1,71.4-71.7,71.4h-43.3c-2.9,0-5.7,0.9-7.9,2.6l-79.6,60.9
				V653c0-7.2-5.8-13-13.1-13H607.3c-13,0-25.5-3.5-36.5-10V483.8c0-27.4-13.9-51.6-35.1-65.9V267.1c0-39.4,32.1-71.4,71.7-71.4
				h264.2h2.5h35.7C949.3,195.7,981.4,227.7,981.4,267.1z"/>
			<path class="st0" d="M908.4,531.4c0.8,18.8-14.7,35.3-33.6,35.3H751c-16.8,0-33.2-4.7-47.4-13.4c-2.1,4.5-6.6,7.6-11.9,7.6h-70.1
				c-7.3,0-13.1-5.8-13.1-13.1V390.3c0-7.2,5.8-13,13.1-13h70.1c3.4,0,6.5,1.3,8.9,3.5l-2.9,3.6h-44.1v19h-18.9v131.6h44V516h19
				v-95.9h7.1v101.7l5.5,4.4c11.5,9.3,26,14.4,40.8,14.4h123.8c2.1,0,4-0.8,5.5-2.4c0.8-0.8,2.3-2.8,2.2-5.7
				c-0.1-1.8-0.2-5.6-0.2-10.9h11.5c2.1,0,4-0.8,5.6-2.4c0.8-0.9,2.2-2.8,2.1-5.7c-0.4-8-0.3-55.7-0.1-106
				c0.1-9.1,0.1-15.8,0.1-18.4c0-0.7-0.1-1.3-0.3-2c4.6,5.7,7.3,13.1,7.3,21C908.4,410.8,908,523.1,908.4,531.4z"/>
			<path class="st0" d="M901.3,513.7c0.1,2.8-1.3,4.7-2.1,5.7c-1.5,1.5-3.5,2.4-5.6,2.4h-11.5c-0.1-18.6-0.1-56,0.1-95.1
				c0-9.1,0.1-15.8,0.1-18.3c0-4.2-3.5-7.6-7.6-7.6l-84.1-0.3c-4.3,0-8.4-2.2-10.8-5.8c-2.4-3.7-2.8-8.2-1.1-12.2l10.4-24.4
				c5.7-13.6,7.3-28.6,4.5-42.8c5.9-13.2,9-27.5,9-42.2c0-0.3,0.1-0.4,0.3-0.5c0.9,0.8,1.8,1.8,2.5,2.8
				c10.2,19.7,11.2,43.3,2.5,63.8l-10.3,24.4c-1.7,4-1.3,8.6,1.1,12.2c2.4,3.6,6.4,5.8,10.8,5.8l84,0.3c0.8,0,1.5,0.1,2.2,0.4
				c1.9,1.5,3.7,3.3,5.2,5.2c0.2,0.7,0.3,1.3,0.3,2c0,2.5,0,9.2-0.1,18.4C901.1,458.1,901,505.7,901.3,513.7z"/>
			<path class="st2" d="M901.1,387.3c-1.5-1.9-3.3-3.7-5.2-5.2C898.4,382.8,900.4,384.8,901.1,387.3z"/>
			<path class="st0" d="M895.9,382.2c-0.7-0.3-1.4-0.4-2.2-0.4l-84-0.3c-4.4,0-8.5-2.3-10.8-5.8c-2.4-3.7-2.8-8.3-1.1-12.2L808,339
				c8.7-20.4,7.6-44.1-2.5-63.8c0.8,1,1.6,2.2,2.3,3.3c15.5,27.2,17.5,60.7,5.4,89.6l-2.7,6.3l64.4,0.2
				C882.8,374.6,890.1,377.5,895.9,382.2z"/>
			<path class="st1" d="M882.4,532.7c0.1,2.8-1.3,4.8-2.2,5.7c-1.4,1.5-3.4,2.4-5.5,2.4H751c-14.8,0-29.3-5.1-40.8-14.4l-5.5-4.4
				V420.1l53.3-60.3c16.6-18.8,25.7-42.9,25.7-68c0-0.8,1-0.9,1.3-0.3c4.2,7.3,7.1,15.3,8.6,23.5c-4.1,9.3-9.7,17.9-16.6,25.7
				l-53.3,60.4v101.7l5.5,4.4c11.5,9.3,25.9,14.4,40.7,14.4h112.4C882.2,527.1,882.3,530.9,882.4,532.7z"/>
			<path class="st2" d="M882.4,408.3c0,2.4-0.1,9.1-0.1,18.3c-0.2,39.1-0.2,76.6-0.1,95.1H769.9c-14.8,0-29.2-5.1-40.7-14.4
				l-5.5-4.4V401.2l53.3-60.4c6.9-7.8,12.4-16.4,16.6-25.7c2.7,14.2,1.2,29.3-4.5,42.8l-10.4,24.4c-1.7,4-1.2,8.6,1.1,12.2
				c2.4,3.7,6.5,5.8,10.8,5.8l84.1,0.3C878.9,400.7,882.4,404.1,882.4,408.3z"/>
			<path class="st2" d="M804.1,272.5c0.5,0.9,1,1.8,1.4,2.7c-0.8-1-1.6-2-2.5-2.8C803.2,272.2,803.8,272.2,804.1,272.5z"/>
			<path class="st0" d="M802.9,272.5c-0.2,0.1-0.3,0.2-0.3,0.5c0,14.7-3.1,29-9,42.2c-1.5-8.3-4.3-16.2-8.6-23.5
				c-0.3-0.7-1.3-0.5-1.3,0.3c0,25.1-9.1,49.2-25.7,68l-53.3,60.3h-7.1v-35.8l2.9-3.6c0.8,0.8,1.5,1.5,2.1,2.4l35.9-40.7
				c12.3-13.9,19.1-31.9,19.1-50.7c0-16.5,15.8-29.3,31.8-26.3c0.6,0.1,1,0.3,1.6,0.4c0.1,0,0.2,0,0.3,0.1c0.1,0,0.2,0,0.3,0
				C795.9,267.3,799.8,269.4,802.9,272.5z"/>
			<path class="st1" d="M721.3,940.9v14.6c0,18.8-15.4,34.2-34.4,34.2h-20.1c-2.8,0-5.7,0.9-7.9,2.7l-35.3,27.2v-17
				c0-7.2-5.8-13-13-13h-93c-18.9,0-34.3-15.4-34.3-34.2V786.7c0-18.8,15.4-34.2,34.3-34.2h169.3c18.9,0,34.4,15.4,34.4,34.2v145.6
				V940.9z M677.1,860c0-27.9-18.8-44.5-37.4-48.7c-14-3.1-27.6,0.2-37.6,8.5c-10.5-8.8-24.6-12.1-38.6-8.8
				c-18,4.4-36.2,21.2-36.2,49c0,17.2,6.3,32.2,19.3,45.8c10.5,11.1,25.8,21.7,49.5,34.2c1.9,1,4,1.5,6,1.5c2.2,0,4.2-0.5,6.1-1.5
				C649.6,918,677.1,896.1,677.1,860z"/>
			<polygon class="st0" points="697.6,420.1 697.6,516 678.6,516 678.6,403.4 653.6,403.4 653.6,384.3 697.6,384.3 			"/>
			<polygon class="st1" points="678.6,516 678.6,534.9 634.6,534.9 634.6,403.4 653.6,403.4 653.6,516 			"/>
			<rect x="653.6" y="403.4" class="st2" width="25.1" height="112.6"/>
			<path class="st0" d="M639.7,811.3c18.6,4.1,37.4,20.8,37.4,48.7c0,36.1-27.5,58-68.7,80c-1.9,1-4,1.5-6.1,1.5
				c-2.1,0-4.1-0.5-6-1.5c-23.7-12.5-39-23.1-49.5-34.2c-13-13.6-19.3-28.5-19.3-45.8c0-27.8,18.2-44.5,36.2-49
				c14-3.4,28.1,0,38.6,8.8C612.1,811.5,625.7,808.2,639.7,811.3z M663.7,845.9c0-14.3-8.9-21.4-17-23.3c-6.9-1.5-15.8,0.1-20.1,9.1
				c-1.3,2.8-3.5,5-6.2,6.3c-1.6,0.8-3.4,1.2-5.3,1.2c-5,0.1-9.5-2.6-11.9-7.1c-4-7.8-10.5-10.5-16.4-10.5c-1.6,0-3.1,0.3-4.6,0.6
				c-6,1.5-12.4,6.1-15,14.9c-7.1,2.8-13.7,9.9-13.7,22.9c0,19.5,12.9,33.9,48.8,53.6c23.4-12.8,37-23.4,43.6-34.6l0.1-0.1
				C658.6,868.2,663.7,858,663.7,845.9z"/>
			<path class="st0" d="M646.6,822.6c8.2,1.9,17,8.9,17,23.3c0,12.1-5.1,22.3-17.7,33.1c3.7-6,5.2-12.1,5.2-18.9
				c0-14.3-8.9-21.4-17-23.3c-4.2-0.9-9.2-0.7-13.5,1.8l-0.3-0.5c2.7-1.3,4.9-3.5,6.2-6.3C630.8,822.7,639.7,821.1,646.6,822.6z"/>
			<path class="st3" d="M651.1,860c0,6.8-1.5,12.9-5.2,18.9l-0.1,0.1c-7.5,6.4-17.7,13.1-31.1,20.4c-35.9-19.8-48.8-34.1-48.8-53.6
				c0-3.3,0.5-6.2,1.2-8.8c0.8-0.3,1.6-0.6,2.4-0.8c1.5-0.3,3-0.6,4.6-0.6c5.9,0,12.4,2.7,16.4,10.5c2.4,4.4,6.9,7.2,11.9,7.1
				c5-0.1,9.4-3,11.5-7.5c1.6-3.5,4-5.8,6.6-7.3c4.2-2.4,9.2-2.7,13.5-1.8C642.3,838.6,651.1,845.7,651.1,860z"/>
			<path class="st1" d="M645.9,879c-6.6,11.2-20.2,21.8-43.6,34.6c-35.9-19.7-48.8-34.1-48.8-53.6c0-13,6.7-20.1,13.7-22.9
				c-0.8,2.5-1.2,5.5-1.2,8.8c0,19.5,12.9,33.8,48.8,53.6C628.1,892.1,638.3,885.4,645.9,879z"/>
			<path class="st0" d="M620.3,838.1l0.3,0.5c-2.6,1.5-5,3.9-6.6,7.3c-2.1,4.5-6.5,7.4-11.5,7.5c-5,0.1-9.5-2.6-11.9-7.1
				c-4-7.8-10.5-10.5-16.4-10.5c-1.6,0-3.1,0.3-4.6,0.6c-0.8,0.2-1.6,0.5-2.4,0.8c2.5-8.8,8.9-13.4,15-14.9c1.5-0.3,3-0.6,4.6-0.6
				c5.9,0,12.4,2.7,16.4,10.5c2.4,4.4,6.9,7.2,11.9,7.1C616.9,839.3,618.7,838.8,620.3,838.1z"/>
			<path class="st1" d="M544.8,638.7v82.9c0,1.6-0.2,3.3-0.3,4.9h-26.9c-29.6,0-54.2,21.4-59.3,49.4c-1.2,0.5-2.4,1-3.4,1.9
				l-58.3,45v-34.7c0-7.3-5.8-13.1-13-13.1H252.5c-29.6,0-53.7-24-53.7-53.5V597.8v-7.7V483.8c0-29.5,24.1-53.5,53.7-53.5H491
				c29.7,0,53.8,24,53.8,53.5v151.4C544.6,636.4,544.6,637.6,544.8,638.7z M491.2,558.5c0-7.2-5.8-13-13-13h-38.4l7.2-43.4
				c1.2-7.1-3.6-13.8-10.7-15c-7.1-1.2-13.7,3.6-15,10.7l-1.5,8.9c-0.8-0.4-1.6-0.6-2.4-0.8c-7.2-1.1-13.8,3.7-15,10.7l-4.8,28.7
				H382l7.2-43.4c1.1-7.1-3.7-13.8-10.7-15c-7.2-1.2-13.8,3.6-15,10.7l-1.5,8.9c-0.8-0.4-1.6-0.6-2.4-0.8c-7.2-1.1-13.8,3.7-15,10.7
				l-4.8,28.7h-36.4c-7.2,0-13,5.8-13,13c0,2.2,0.6,4.1,1.5,5.9h-7.4c-7.3,0-13.1,5.8-13.1,13c0,7.3,5.8,13.1,13.1,13.1h47.9
				l-2.2,12.8h-26.8c-7.2,0-13,5.8-13,13c0,2.2,0.5,4.1,1.5,5.9h-7.4c-7.3,0-13.1,5.8-13.1,13.1c0,7.2,5.8,13,13.1,13h38.4
				l-7.3,43.4c-1.1,7.1,3.7,13.7,10.7,15c0.8,0.1,1.5,0.2,2.2,0.2c6.3,0,11.8-4.6,12.8-10.9l1.5-8.9c0.8,0.4,1.7,0.6,2.5,0.8
				c0.7,0.1,1.4,0.1,2.1,0.1c6.3,0,11.9-4.5,12.9-10.8l4.7-28.7h15.6l-7.2,43.4c-1.2,7.1,3.6,13.7,10.7,15c0.7,0.1,1.4,0.2,2.1,0.2
				c6.3,0,11.9-4.6,12.9-10.9l1.5-8.9c0.8,0.4,1.6,0.6,2.4,0.8c0.8,0.1,1.4,0.1,2.2,0.1c6.2,0,11.8-4.5,12.8-10.8l4.8-28.7h36.4
				c7.2,0,13-5.8,13-13c0-2.2-0.5-4.1-1.5-5.9h7.4c7.2,0,13-5.8,13-13.1c0-7.2-5.8-13-13-13h-48l2.2-12.8h26.9c7.2,0,13-5.8,13-13.1
				c0-2.2-0.6-4.1-1.5-5.9h7.4C485.4,571.5,491.2,565.6,491.2,558.5z"/>
			<path class="st4" d="M478.2,545.5c7.2,0,13,5.8,13,13c0,7.2-5.8,13-13,13h-7.4c-2.1-4.2-6.5-7.1-11.5-7.1h-38.4L428,521
				c1-6.2-2.6-12.1-8.3-14.2l1.5-8.9c1.2-7.2,7.9-12,15-10.7c7.2,1.1,12,7.9,10.7,15l-7.2,43.4H478.2z"/>
			<path class="st4" d="M478.2,603.3c7.2,0,13,5.8,13,13c0,7.3-5.8,13.1-13,13.1h-7.4c-2.1-4.2-6.5-7.2-11.5-7.2h-48l5.3-31.7h15.8
				l-2.2,12.8H478.2z"/>
			<path class="st0" d="M470.8,571.5c0.9,1.8,1.5,3.8,1.5,5.9c0,7.3-5.8,13.1-13,13.1h-26.9l3.1-19H470.8z"/>
			<path class="st0" d="M470.8,629.4c1,1.8,1.5,3.8,1.5,5.9c0,7.2-5.8,13-13,13h-36.4l3.1-18.9H470.8z"/>
			<path class="st0" d="M470.8,571.5h-35.3l-3.1,19h-15.8l-5.3,31.7h48c5,0,9.4,2.9,11.5,7.2H426l-3.1,18.9h-15.9l-6.3,38.7
				c-5.7-2.1-9.3-8-8.3-14.3l7.2-43.3H368l-3.1,18.9h-15.8l-6.4,38.7c-5.7-2.1-9.2-8-8.2-14.3l7.2-43.3h-38.4c-5,0-9.4-2.9-11.5-7.2
				H327l3.1-18.9H346l5.3-31.8h-48c-5,0-9.4-2.8-11.5-7.1h44.8l3.1-18.9h15.8l6.4-38.7c5.7,2.1,9.3,8,8.3,14.2l-7.3,43.4h31.5
				l3.1-18.9h15.8l6.4-38.7c5.7,2.1,9.3,8,8.3,14.2l-7.2,43.4h38.4C464.3,564.4,468.7,567.2,470.8,571.5z M403.8,603.3l5.3-31.8
				h-31.5l-3.1,19h-15.8l-5.3,31.7h31.5l3.1-18.9H403.8z"/>
			<path class="st4" d="M422.8,648.3L418,677c-1,6.3-6.6,10.8-12.8,10.8c-0.8,0-1.4,0-2.2-0.1c-0.8-0.2-1.6-0.4-2.4-0.8l6.3-38.7
				H422.8z"/>
			<path class="st0" d="M419.7,506.8l-6.4,38.7h-15.8l4.8-28.7c1.1-7.1,7.8-11.9,15-10.7C418.1,506.2,418.9,506.4,419.7,506.8z"/>
			<polygon class="st0" points="409.1,571.5 403.8,603.3 388,603.3 390.1,590.5 374.5,590.5 377.6,571.5 			"/>
			<path class="st0" d="M400.6,687l-1.5,8.9c-1,6.3-6.6,10.9-12.9,10.9c-0.7,0-1.4-0.1-2.1-0.2c-7.2-1.2-12-7.9-10.7-15l7.2-43.4
				h-15.6l3.1-18.9h31.5l-7.2,43.3C391.3,679,394.9,684.9,400.6,687z"/>
			<path class="st4" d="M397.5,545.5l-3.1,18.9H363l7.3-43.4c1-6.2-2.6-12.1-8.3-14.2l1.5-8.9c1.1-7.2,7.8-12,15-10.7
				c7.1,1.1,11.9,7.9,10.7,15l-7.2,43.4H397.5z"/>
			<polygon class="st1" points="390.1,590.5 388,603.3 372.4,603.3 374.5,590.5 			"/>
			<polygon class="st4" points="388,603.3 384.9,622.2 353.4,622.2 358.7,590.5 374.5,590.5 372.4,603.3 			"/>
			<path class="st4" d="M364.9,648.3l-4.7,28.7c-1,6.3-6.6,10.8-12.9,10.8c-0.7,0-1.4,0-2.1-0.1c-0.8-0.2-1.7-0.4-2.5-0.8l6.4-38.7
				H364.9z"/>
			<path class="st0" d="M361.9,506.8l-6.4,38.7h-15.8l4.8-28.7c1.1-7.1,7.8-11.9,15-10.7C360.3,506.2,361.1,506.4,361.9,506.8z"/>
			<path class="st0" d="M351.3,571.5l-5.3,31.8h-15.9l2.2-12.8h-47.9c-7.3,0-13.1-5.8-13.1-13.1c0-7.2,5.8-13,13.1-13h7.4
				c2.1,4.2,6.5,7.1,11.5,7.1H351.3z"/>
			<path class="st0" d="M342.7,687l-1.5,8.9c-1,6.3-6.5,10.9-12.8,10.9c-0.7,0-1.4-0.1-2.2-0.2c-7.1-1.2-11.9-7.9-10.7-15l7.3-43.4
				h-38.4c-7.3,0-13.1-5.8-13.1-13c0-7.3,5.8-13.1,13.1-13.1h7.4c2.1,4.2,6.5,7.2,11.5,7.2h38.4l-7.2,43.3
				C333.5,679,337.1,684.9,342.7,687z"/>
			<path class="st4" d="M339.7,545.5l-3.1,18.9h-44.8c-0.9-1.8-1.5-3.8-1.5-5.9c0-7.2,5.8-13,13-13H339.7z"/>
			<path class="st4" d="M330.1,603.3l-3.1,18.9h-35.2c-1-1.8-1.5-3.8-1.5-5.9c0-7.2,5.8-13,13-13H330.1z"/>
		</g>
		<g>
		</g>
	</g>
</g>
</svg>
