<?xml version="1.0" encoding="utf-8"?>
<!-- Generator: Adobe Illustrator 26.3.1, SVG Export Plug-In . SVG Version: 6.00 Build 0)  -->
<svg version="1.1" id="Capa_1" xmlns="http://www.w3.org/2000/svg" xmlns:xlink="http://www.w3.org/1999/xlink" x="0px" y="0px"
	 viewBox="0 0 1200 1200" style="enable-background:new 0 0 1200 1200;" xml:space="preserve">
<style type="text/css">
	.st0{fill:#FFFFFF;}
	.st1{fill:#FABC19;}
	.st2{fill:#803F9B;}
	.st3{fill:#4F4C4D;}
	.st4{clip-path:url(#SVGID_00000073686537924651990140000003116415009837053606_);}
	.st5{fill:#FCBD15;}
</style>
<g>
	<polygon class="st0" points="451,582.9 656.7,195 974,363.6 844.1,582.9 	"/>
	<polygon class="st0" points="277.1,514.8 466.1,514.8 443.4,575.3 277.1,575.3 	"/>
	<polygon class="st1" points="549.3,559.3 730.7,230.9 783.7,265.3 602.2,588.6 	"/>
	<rect x="262" y="590.4" class="st0" width="635.1" height="423.4"/>
	<path class="st2" d="M271,641.8h576.9c28.8,0,52.2,23.4,52.2,52.2v310.7H271V641.8z"/>
	<rect x="791.2" y="741.6" class="st0" width="151.2" height="121"/>
	<path class="st3" d="M945.8,383.2l-98.1,181.9H645.3l153.3-283l139,75.6C947.8,361.7,950.9,374,945.8,383.2z M917.1,759.2h1v88.9
		h-1h-96.1c-9.2,0-16.3-7.2-16.3-16.4v-56.2c0-9.2,7.2-16.4,16.3-16.4H917.1z M884.4,987.1c0,5.1-4.1,9.2-9.2,9.2H287.7
		c-5.1,0-9.2-4.1-9.2-9.2V606.9c0-5.1,4.1-9.2,9.2-9.2H442h65.4H627h229.9h17.4c5.1,0,9.2,4.1,9.2,9.2v119.6h-62.3
		c-27.6,0-49,22.5-49,49v56.2c0,27.6,22.5,49,49,49h63.4V987.1z M278.5,531.3c0-3.1,4.1-8.2,9.2-8.2h166.6L431.8,564H287.7
		c-3.1,0-6.1,0-9.2,1V531.3z M653.5,224.8c5.1-9.2,17.4-13.3,26.6-8.2l25.5,14.3L525.8,565.1h-56.2L653.5,224.8z M770,265.7
		L608.6,565.1h-46l172.7-317.8L770,265.7z M953.9,328L695.4,188c-24.5-13.3-58.2-3.1-71.5,21.5l-151.2,281H288.7
		c-23.5,0-41.9,18.4-41.9,41.9v73.6v381.1c0,23.5,18.4,41.9,41.9,41.9h587.5c23.5,0,41.9-18.4,41.9-41.9V880.8h17.4
		c9.2,0,16.3-7.2,16.3-16.3V742.9c0-9.2-7.2-16.3-16.3-16.3h-17.4V606.9c0-19.4-14.3-36.8-32.7-40.9l89.9-166.6
		C988.7,374,979.5,342.3,953.9,328z"/>
	<path class="st3" d="M872.2,411.8L862,431.2c-3.1,5.1-10.2,7.2-15.3,4.1l-8.2-5.1c-2-1-4.1-4.1-5.1-6.1c-1-3.1-1-6.1,1-8.2
		l10.2-19.4c2-3.1,6.1-6.1,10.2-6.1c2,0,3.1,0,5.1,1l8.2,4.1C872.2,399.5,874.2,405.7,872.2,411.8z M883.4,367.8l-8.2-4.1
		c-20.4-11.2-48-3.1-59.3,17.4l-10.2,19.4c-5.1,10.2-7.2,22.5-3.1,33.7c3.1,11.2,11.2,20.4,21.5,25.5l8.2,4.1
		c6.1,3.1,13.3,5.1,20.4,5.1c16.3,0,30.7-9.2,38.8-22.5l10.2-19.4C912,405.7,903.9,379.1,883.4,367.8z"/>
</g>
<g>
	<defs>
		<polygon id="SVGID_1_" points="967.3,564 407.4,565.1 485.4,2.5 1030.1,11.2 		"/>
	</defs>
	<clipPath id="SVGID_00000128461543560599665620000012048737079469927834_">
		<use xlink:href="#SVGID_1_"  style="overflow:visible;"/>
	</clipPath>
	<g style="clip-path:url(#SVGID_00000128461543560599665620000012048737079469927834_);">
		<g>
			<path class="st0" d="M376.8,673l323.8-559l68.2,37.6c0,0,4.1,76.8,39.9,95.2c35.7,18.4,100.3-22.3,100.3-22.3l66.6,43.7
				L655.7,825c0,0-34.3-17.4-74.3-39.2c-23.7-12.9,26-61.5-41.5-89.1c-67.6-27.7-67.3,24.6-91,11.7C408.9,686.6,376.8,673,376.8,673
				z"/>
		</g>
		<g>
			<path class="st3" d="M788.1,154.1c3.2-5.5,0.9-12.1-4.1-14.9l-61-35c-16.5-9.5-37.5-2.9-46.4,12.6L371.4,649.2
				c-10.5,15.9-3.9,37,12.6,46.4l61,35c5.5,3.2,12.1,0.9,14.9-4.1c16.3-28.5,52.8-38.8,81.8-22.2c29,16.6,38.8,52.8,22.2,81.8
				c-3.2,5.5-0.9,12.1,4.1,14.9l61,35c16.5,9.5,37.5,2.9,46.4-12.6l305.3-532.5c9.5-16.5,2.9-37.5-12.6-46.4l-61-35
				c-5.5-3.2-12.1-0.9-14.9,4.1c-16.3,28.5-52.8,38.8-81.8,22.2C781.3,219.3,772,182.1,788.1,154.1z M799.7,254.4
				c36,20.6,81,10.6,105.5-20.6l53,30.4c5.5,3.2,8.4,10.8,4.7,17.3l-59,103c0,0,0,0-1-0.6l-20.5-11.8c-5.5-3.2-12.1-0.9-14.9,4.1
				c-2.6,4.5-0.9,12.1,4.1,14.9l20.5,11.8c0,0,0,0,1,0.6l-235,410c-3.2,5.5-10.8,8.4-17.3,4.7l-53-30.4
				c15.3-37.1,0.5-80.8-35.5-101.4c-36-20.6-81-10.6-105.5,20.6l-53-30.4c-5.5-3.2-8.4-10.8-4.7-17.3l235-410c0,0,0,0,1,0.6
				l20.5,11.8c5.5,3.2,12.1,0.9,14.9-4.1c3.2-5.5,0.9-12.1-4.1-14.9l-19.5-11.2c0,0,0,0-1-0.6l59-103c3.2-5.5,10.8-8.4,17.3-4.7
				l53,30.4C749.2,189.6,763.2,233.5,799.7,254.4z"/>
		</g>
		<g>
			<path class="st3" d="M748,309.8c-2.6,4.5-0.4,11.1,5.1,14.2l22,12.6c5.5,3.2,12,2.2,14.9-2.8c2.6-4.5,0.4-11.1-5.1-14.2l-22-12.6
				C757.9,302.9,750.9,304.8,748,309.8z"/>
		</g>
		<g>
			<path class="st3" d="M677.5,269.4c-2.6,4.5-0.4,11.1,5.1,14.2l22.5,12.9c5.5,3.2,12,2.2,14.9-2.8c2.6-4.5,0.4-11.1-5.1-14.2
				l-22-12.6C687.9,262.8,680.7,263.9,677.5,269.4z"/>
		</g>
		<g>
			<path class="st3" d="M808.6,341.9c-3.2,5.5-0.9,12.1,5.6,15.8l24,13.8c6.5,3.7,13,2.8,16.4-3.2c3.2-5.5,0.9-12.1-5.6-15.8
				l-24-13.8C818.6,335,811.2,337.4,808.6,341.9z"/>
		</g>
		<g>
			<path class="st5" d="M718.4,399.8c12,6.9,12.6,23.2,7.2,32.7L709.3,461l39.5,99.1c1.3,4.7,0.2,10.1-0.9,12.1
				c-5.4,9.5-19,11.1-26.4,0.8L677.8,510l-26.1,45.5l10.3,27.2c1.3,4.7,1.3,4.7,0.4,6.2c-2.6,4.5-7.3,5.8-11.8,3.2l-65-37.3
				c-4.5-2.6-5.8-7.3-3.2-11.8c1.7-3,2.6-4.5,5.6-2.8l29-5.3l27.5-48l-80.1,0.6c-12.1-0.9-17.8-14.2-12.6-23.2
				c2.6-4.5,7.3-5.8,9.9-6.9l105-16.2l16.3-28.5C693.1,401.2,707.4,393.5,718.4,399.8z"/>
		</g>
	</g>
</g>
</svg>
