<?xml version="1.0" encoding="utf-8"?>
<!-- Generator: Adobe Illustrator 26.2.1, SVG Export Plug-In . SVG Version: 6.00 Build 0)  -->
<svg version="1.1" id="Capa_1" xmlns="http://www.w3.org/2000/svg" xmlns:xlink="http://www.w3.org/1999/xlink" x="0px" y="0px"
	 viewBox="0 0 220 84" style="enable-background:new 0 0 220 84;" xml:space="preserve">
<style type="text/css">
	.st0{fill:none;stroke:#4F4C4D;stroke-width:1.2727;stroke-linecap:round;stroke-linejoin:round;stroke-miterlimit:10;}
	.st1{fill:none;stroke:#4F4C4D;stroke-width:1.5623;stroke-linecap:round;stroke-linejoin:round;stroke-miterlimit:10;}
	.st2{clip-path:url(#SVGID_00000093866630955792708830000005353657029615275404_);}
	.st3{fill:#FEDB79;}
	.st4{fill:none;stroke:#4F4C4D;stroke-width:1.2499;stroke-linecap:round;stroke-linejoin:round;stroke-miterlimit:10;}
	.st5{fill:#FEBE10;}
	.st6{fill:#FFFFFF;stroke:#4F4C4D;stroke-width:1.2499;stroke-miterlimit:10;}
	.st7{fill:#FFFFFF;stroke:#4F4C4D;stroke-width:1.0154;stroke-linecap:round;stroke-miterlimit:10;}
	.st8{fill:#4F4C4D;}
	.st9{opacity:0.61;}
	.st10{fill:none;stroke:#4D4D4D;stroke-width:1.2727;stroke-linecap:round;stroke-linejoin:round;stroke-miterlimit:10;}
	.st11{fill:none;stroke:#4D4D4D;stroke-width:1.5623;stroke-linecap:round;stroke-linejoin:round;stroke-miterlimit:10;}
	.st12{clip-path:url(#SVGID_00000177461611449900677840000012201396210664636808_);}
	.st13{fill:#DBDBDB;}
	.st14{fill:none;stroke:#4D4D4D;stroke-width:1.2499;stroke-linecap:round;stroke-linejoin:round;stroke-miterlimit:10;}
	.st15{fill:#BEBEBE;}
	.st16{fill:#FFFFFF;stroke:#4D4D4D;stroke-width:1.2499;stroke-miterlimit:10;}
	.st17{fill:#FFFFFF;stroke:#4D4D4D;stroke-width:1.0154;stroke-linecap:round;stroke-miterlimit:10;}
	.st18{fill:#4D4D4D;}
	.st19{clip-path:url(#SVGID_00000067200119892251243900000007205057024917766317_);}
</style>
<g>
	<polygon class="st0" points="134.2,61.9 134.2,67.2 129.5,67.2 129.5,73.2 111,73.2 111,67.6 105.4,67.6 105.4,58.4 135.2,58.4 	
		"/>
	<line class="st1" x1="119.6" y1="22.7" x2="136.4" y2="22.7"/>
	<g>
		<defs>
			<path id="SVGID_1_" d="M128.2,35.3L128.2,35.3c-4.9,0-8.8-3.9-8.8-8.8v-7.7c0-4.9,3.9-8.8,8.8-8.8h0c4.9,0,8.8,3.9,8.8,8.8v7.7
				C137,31.4,133,35.3,128.2,35.3z"/>
		</defs>
		<clipPath id="SVGID_00000119802760945128343470000003586107590027429283_">
			<use xlink:href="#SVGID_1_"  style="overflow:visible;"/>
		</clipPath>
		<g style="clip-path:url(#SVGID_00000119802760945128343470000003586107590027429283_);">
			<path class="st3" d="M140.8,32.7h-14.3l0-0.2c0-2.6,2.1-4.7,4.7-4.7c0.7-1.4,2.2-2.3,3.8-2.3c2.2,0,4,1.6,4.2,3.7
				c1.1,0.4,1.8,1.4,1.8,2.5c0,0.3,0,0.5-0.1,0.8L140.8,32.7z"/>
		</g>
	</g>
	<line class="st4" x1="116.6" y1="77.1" x2="94.2" y2="77.1"/>
	<path class="st5" d="M139.2,55.6c0-2.2-1.8-4-4-4h-26.4l-15-36.9c-1.5-4.2-3.6-6.3-6.3-6.3c-0.3,0-0.5,0-0.8,0.1
		c-2.1,0.3-3.1,1.4-3.6,2.2c-1.1,1.9-0.6,4.2,0,5.8l0,0.1l0,0.1l15.7,39l0,0l0,0c0.3,0.7,3,6.5,8.2,6.5h28.2c1.1,0,2.1-0.4,2.8-1.2
		c0.8-0.8,1.2-1.8,1.2-2.8L139.2,55.6z"/>
	<g>
		<path class="st3" d="M139.2,55.6c0-2.2-1.8-4-4-4h-4c2.2,0,4,1.8,4,4l0,2.6c0,1.1-0.4,2.1-1.2,2.8c-0.8,0.8-1.8,1.2-2.8,1.2h4
			c1.1,0,2.1-0.4,2.8-1.2c0.8-0.8,1.2-1.8,1.2-2.8L139.2,55.6z"/>
	</g>
	<g>
		<path class="st5" d="M82.9,11.8c1.2-2.5,3.8-4.3,6.8-4.3c4.1,0,7.5,3.3,7.5,7.5s-3.3,7.5-7.5,7.5c0,0,0,0-0.1,0"/>
	</g>
	<path class="st4" d="M128.2,35.3L128.2,35.3c-4.9,0-8.8-3.9-8.8-8.8v-7.7c0-4.9,3.9-8.8,8.8-8.8h0c4.9,0,8.8,3.9,8.8,8.8v7.7
		C137,31.4,133,35.3,128.2,35.3z"/>
	<path class="st5" d="M128.2,9.4c-5.2,0-9.4,4.2-9.4,9.4v3.5h1.2v0l16.4,0l0,0h1.2v-3.5C137.6,13.6,133.4,9.4,128.2,9.4z"/>
	<g>
		<rect x="118.7" y="22.3" class="st3" width="1.2" height="0"/>
		<path class="st3" d="M128.1,9.4c-0.5,0-1,0-1.5,0.1c4.5,0.7,8,4.6,8,9.3v3.5h1.7h1.2v-3.5C137.6,13.6,133.3,9.4,128.1,9.4z"/>
	</g>
	<path class="st6" d="M101.1,45.6l-1,0c-1.1,0-2-0.8-2-1.9c0-1,0.9-1.9,2-1.9l24.2,0c1.1,0,2,0.8,2,1.9c0,1-0.9,1.9-2,1.9l-1,0
		l-4.1,0l-14.2,0L101.1,45.6z"/>
	<circle class="st7" cx="100.2" cy="44" r="3.3"/>
	<g>
		<path class="st8" d="M124.2,67.2v3.3h-7.8v-3.3H124.2 M124.6,66.1H116c-0.4,0-0.7,0.3-0.7,0.7v4c0,0.4,0.3,0.7,0.7,0.7h8.6
			c0.4,0,0.7-0.3,0.7-0.7v-4C125.3,66.4,125,66.1,124.6,66.1L124.6,66.1z"/>
	</g>
	<line class="st4" x1="128.4" y1="73.2" x2="80.8" y2="73.2"/>
</g>
<g class="st9">
	<polygon class="st10" points="62.6,61.9 62.6,67.2 57.8,67.2 57.8,73.2 39.4,73.2 39.4,67.6 33.7,67.6 33.7,58.4 63.6,58.4 	"/>
	<line class="st11" x1="47.9" y1="22.7" x2="64.8" y2="22.7"/>
	<g>
		<defs>
			<path id="SVGID_00000088847051212121579730000011663576452292616125_" d="M56.5,35.3L56.5,35.3c-4.9,0-8.8-3.9-8.8-8.8v-7.7
				c0-4.9,3.9-8.8,8.8-8.8h0c4.9,0,8.8,3.9,8.8,8.8v7.7C65.3,31.4,61.4,35.3,56.5,35.3z"/>
		</defs>
		<clipPath id="SVGID_00000013158672734588541710000003466096324087988922_">
			<use xlink:href="#SVGID_00000088847051212121579730000011663576452292616125_"  style="overflow:visible;"/>
		</clipPath>
		<g style="clip-path:url(#SVGID_00000013158672734588541710000003466096324087988922_);">
			<path class="st13" d="M60.5,30.6h-5.7l0-0.1c0-1,0.8-1.8,1.9-1.9c0.3-0.6,0.9-0.9,1.5-0.9c0.9,0,1.6,0.6,1.7,1.5
				c0.4,0.1,0.7,0.5,0.7,1C60.5,30.3,60.5,30.4,60.5,30.6L60.5,30.6z"/>
		</g>
	</g>
	<line class="st14" x1="44.9" y1="77.1" x2="22.6" y2="77.1"/>
	<path class="st15" d="M67.5,55.6c0-2.2-1.8-4-4-4H37.1l-15-36.9c-1.5-4.2-3.6-6.3-6.3-6.3c-0.3,0-0.5,0-0.8,0.1
		c-2.1,0.3-3.1,1.4-3.6,2.2c-1.1,1.9-0.6,4.2,0,5.8l0,0.1l0,0.1l15.7,39l0,0l0,0c0.3,0.7,3,6.5,8.2,6.5h28.2c1.1,0,2.1-0.4,2.8-1.2
		c0.8-0.8,1.2-1.8,1.2-2.8L67.5,55.6z"/>
	<g>
		<path class="st13" d="M67.5,55.6c0-2.2-1.8-4-4-4h-4c2.2,0,4,1.8,4,4l0,2.6c0,1.1-0.4,2.1-1.2,2.8c-0.8,0.8-1.8,1.2-2.8,1.2h4
			c1.1,0,2.1-0.4,2.8-1.2c0.8-0.8,1.2-1.8,1.2-2.8L67.5,55.6z"/>
	</g>
	<g>
		<path class="st15" d="M11.2,11.8C12.4,9.3,15,7.5,18,7.5c4.1,0,7.5,3.3,7.5,7.5s-3.3,7.5-7.5,7.5c0,0,0,0-0.1,0"/>
	</g>
	<path class="st14" d="M56.5,35.3L56.5,35.3c-4.9,0-8.8-3.9-8.8-8.8v-7.7c0-4.9,3.9-8.8,8.8-8.8h0c4.9,0,8.8,3.9,8.8,8.8v7.7
		C65.3,31.4,61.4,35.3,56.5,35.3z"/>
	<path class="st15" d="M56.5,9.4c-5.2,0-9.4,4.2-9.4,9.4v3.5h1.2v0l16.4,0l0,0h1.2v-3.5C65.9,13.6,61.7,9.4,56.5,9.4z"/>
	<g>
		<rect x="47" y="22.3" class="st13" width="1.2" height="0"/>
		<path class="st13" d="M56.5,9.4c-0.5,0-1,0-1.5,0.1c4.5,0.7,8,4.6,8,9.3v3.5h1.7h1.2v-3.5C65.9,13.6,61.7,9.4,56.5,9.4z"/>
	</g>
	<path class="st16" d="M29.5,45.6l-1,0c-1.1,0-2-0.8-2-1.9c0-1,0.9-1.9,2-1.9l24.2,0c1.1,0,2,0.8,2,1.9c0,1-0.9,1.9-2,1.9l-1,0
		l-4.1,0l-14.2,0L29.5,45.6z"/>
	<circle class="st17" cx="28.5" cy="44" r="3.3"/>
	<g>
		<path class="st18" d="M52.6,67.2v3.3h-7.8v-3.3H52.6 M53,66.1h-8.6c-0.4,0-0.7,0.3-0.7,0.7v4c0,0.4,0.3,0.7,0.7,0.7H53
			c0.4,0,0.7-0.3,0.7-0.7v-4C53.7,66.4,53.3,66.1,53,66.1L53,66.1z"/>
	</g>
	<line class="st14" x1="56.8" y1="73.2" x2="9.1" y2="73.2"/>
</g>
<g class="st9">
	<polygon class="st10" points="206.2,61.9 206.2,67.2 201.4,67.2 201.4,73.2 182.9,73.2 182.9,67.6 177.3,67.6 177.3,58.4 
		207.1,58.4 	"/>
	<line class="st11" x1="191.5" y1="22.7" x2="208.3" y2="22.7"/>
	<g>
		<defs>
			<path id="SVGID_00000048459045497682530340000011505615529862138256_" d="M200.1,35.3L200.1,35.3c-4.9,0-8.8-3.9-8.8-8.8v-7.7
				c0-4.9,3.9-8.8,8.8-8.8h0c4.9,0,8.8,3.9,8.8,8.8v7.7C208.9,31.4,205,35.3,200.1,35.3z"/>
		</defs>
		<clipPath id="SVGID_00000135658118806512686260000005626485286621295291_">
			<use xlink:href="#SVGID_00000048459045497682530340000011505615529862138256_"  style="overflow:visible;"/>
		</clipPath>
		<g style="clip-path:url(#SVGID_00000135658118806512686260000005626485286621295291_);">
			<path class="st13" d="M198.5,32.7h-14.3l0-0.2c0-2.6,2.1-4.7,4.7-4.7c0.7-1.4,2.2-2.3,3.8-2.3c2.2,0,4,1.6,4.2,3.7
				c1.1,0.4,1.8,1.4,1.8,2.5c0,0.3,0,0.5-0.1,0.8L198.5,32.7z"/>
		</g>
	</g>
	<line class="st14" x1="188.5" y1="77.1" x2="166.2" y2="77.1"/>
	<path class="st15" d="M211.1,55.6c0-2.2-1.8-4-4-4h-26.4l-15-36.9c-1.5-4.2-3.6-6.3-6.3-6.3c-0.3,0-0.5,0-0.8,0.1
		c-2.1,0.3-3.1,1.4-3.6,2.2c-1.1,1.9-0.6,4.2,0,5.8l0,0.1l0,0.1l15.7,39l0,0l0,0c0.3,0.7,3,6.5,8.2,6.5h28.2c1.1,0,2.1-0.4,2.8-1.2
		c0.8-0.8,1.2-1.8,1.2-2.8L211.1,55.6z"/>
	<g>
		<path class="st13" d="M211.1,55.6c0-2.2-1.8-4-4-4h-4c2.2,0,4,1.8,4,4l0,2.6c0,1.1-0.4,2.1-1.2,2.8c-0.8,0.8-1.8,1.2-2.8,1.2h4
			c1.1,0,2.1-0.4,2.8-1.2c0.8-0.8,1.2-1.8,1.2-2.8L211.1,55.6z"/>
	</g>
	<g>
		<path class="st15" d="M154.8,11.8c1.2-2.5,3.8-4.3,6.8-4.3c4.1,0,7.5,3.3,7.5,7.5s-3.3,7.5-7.5,7.5c0,0,0,0-0.1,0"/>
	</g>
	<path class="st14" d="M200.1,35.3L200.1,35.3c-4.9,0-8.8-3.9-8.8-8.8v-7.7c0-4.9,3.9-8.8,8.8-8.8h0c4.9,0,8.8,3.9,8.8,8.8v7.7
		C208.9,31.4,205,35.3,200.1,35.3z"/>
	<path class="st15" d="M200.1,9.4c-5.2,0-9.4,4.2-9.4,9.4v3.5h1.2v0l16.4,0l0,0h1.2v-3.5C209.5,13.6,205.3,9.4,200.1,9.4z"/>
	<g>
		<rect x="190.6" y="22.3" class="st13" width="1.2" height="0"/>
		<path class="st13" d="M200.1,9.4c-0.5,0-1,0-1.5,0.1c4.5,0.7,8,4.6,8,9.3v3.5h1.7h1.2v-3.5C209.5,13.6,205.3,9.4,200.1,9.4z"/>
	</g>
	<path class="st16" d="M173,45.6l-1,0c-1.1,0-2-0.8-2-1.9c0-1,0.9-1.9,2-1.9l24.2,0c1.1,0,2,0.8,2,1.9c0,1-0.9,1.9-2,1.9l-1,0
		l-4.1,0l-14.2,0L173,45.6z"/>
	<circle class="st17" cx="172.1" cy="44" r="3.3"/>
	<g>
		<path class="st18" d="M196.1,67.2v3.3h-7.8v-3.3H196.1 M196.5,66.1h-8.6c-0.4,0-0.7,0.3-0.7,0.7v4c0,0.4,0.3,0.7,0.7,0.7h8.6
			c0.4,0,0.7-0.3,0.7-0.7v-4C197.2,66.4,196.9,66.1,196.5,66.1L196.5,66.1z"/>
	</g>
	<line class="st14" x1="200.3" y1="73.2" x2="152.7" y2="73.2"/>
</g>
</svg>
