<?xml version="1.0" encoding="utf-8"?>
<!-- Generator: Adobe Illustrator 26.3.1, SVG Export Plug-In . SVG Version: 6.00 Build 0)  -->
<svg version="1.1" id="Capa_1" xmlns="http://www.w3.org/2000/svg" xmlns:xlink="http://www.w3.org/1999/xlink" x="0px" y="0px"
	 viewBox="0 0 220 84" style="enable-background:new 0 0 220 84;" xml:space="preserve">
<style type="text/css">
	.st0{fill:#FFFFFF;}
	.st1{fill:#FBBD19;}
	.st2{fill:#4F4C4D;}
</style>
<g>
	<path class="st0" d="M85.6,14.4c0-3,2.4-5.5,5.5-5.5h37.8c3.1,0,5.7,2.6,5.7,5.7v52c0,3-2.4,5.4-5.4,5.4H92.3c-3.7,0-6.7-3-6.7-6.7
		V14.4z"/>
	<path class="st1" d="M87.9,18c0-3.4,2.7-6.1,6.1-6.1H130c2.5,0,4.6,2,4.6,4.6v41.8c0,7.6-6.1,13.7-13.7,13.7h-19.3
		c-7.6,0-13.7-6.1-13.7-13.7V18z"/>
	<polygon class="st0" points="80.1,61.2 84.5,56.8 84.5,64.2 86,67.5 91.2,62.7 90.8,54.5 93.4,52.7 96.8,55.6 95.7,74.6 91.9,77.9 
		91.9,82 79,82 	"/>
	<polygon class="st0" points="89.7,36.3 93.1,34.9 97.1,33 98.6,33.4 102.7,31.5 103.4,23.4 106,21.5 108.6,22.6 109.4,24.5 
		110.5,31.9 119.8,35.2 122.4,37.8 121.6,39.3 110.1,40.1 109.8,43.4 109.8,46.7 115.3,50.4 115.7,52.7 106,50.8 97.1,53 97.1,50.8 
		102.3,46.7 102,45.2 101.6,40.4 89.7,40.1 	"/>
	<path class="st2" d="M133.4,15.3H86.6v-1.2c0-2,1.7-3.7,3.7-3.7h39.4c2,0,3.7,1.7,3.7,3.7V15.3z M102.6,38.8H91.5v-1.6l11.5-4.6
		c0.5-0.2,0.8-0.6,0.8-1.1v-6.2c0-1.4,1.1-2.5,2.5-2.5c1.4,0,2.5,1.1,2.5,2.5v6.2c0,0.5,0.3,1,0.8,1.1l11.5,4.6v1.6H110
		c-0.7,0-1.2,0.6-1.2,1.2v6.2c0,0.4,0.2,0.8,0.6,1.1l5.6,3.4v1.4l-8.3-2.1c-0.1,0-0.2,0-0.3,0c-0.1,0-0.2,0-0.3,0l-8.3,2.1v-1.4
		l5.6-3.4c0.4-0.2,0.6-0.6,0.6-1.1v-6.2C103.8,39.4,103.3,38.8,102.6,38.8z M133.4,63.6H97.7v-8c0-0.3,0-0.6-0.1-0.9l8.7-2.2
		l8.6,2.2v5.2c0,0.7,0.6,1.2,1.2,1.2h13.6c0.7,0,1.2-0.6,1.2-1.2v-7.4h-2.5v6.2h-11.1v-4.9V50v-1.2h6.2v-2.5h-7.4
		c-0.7,0-1.2,0.6-1.2,1.2v0.3l-3.7-2.2v-4.2h11.1c0.7,0,1.2-0.6,1.2-1.2v-3.7c0-0.5-0.3-1-0.8-1.1l-11.5-4.6v-5.3
		c0-2.7-2.2-4.9-4.9-4.9s-4.9,2.2-4.9,4.9v5.3l-11.5,4.6c-0.5,0.2-0.8,0.6-0.8,1.1v3.7c0,0.7,0.6,1.2,1.2,1.2h11.1v4.2l-5.6,3.4
		c-0.4,0.2-0.6,0.6-0.6,1.1v1.7c-0.6-0.3-1.2-0.4-1.8-0.4c-2.4,0-4.3,1.9-4.3,4.3v7.5l-2.5,2.5V17.8h46.8V63.6z M133.4,67.3
		c0,2-1.7,3.7-3.7,3.7h-32v-4.9h35.7V67.3z M129.7,7.9H90.3c-3.4,0-6.2,2.8-6.2,6.2v39.1l-5.9,7.1c-0.2,0.2-0.3,0.5-0.3,0.8v21h2.5
		V61.6l3.7-4.5v11.4c0,0.5,0.3,1,0.8,1.1c0.5,0.2,1,0.1,1.3-0.3l4.9-4.9c0.2-0.2,0.4-0.5,0.4-0.9v-8c0-1,0.8-1.9,1.8-1.9
		c1,0,1.8,0.8,1.8,1.9v18.7l-4.6,4.6c-0.2,0.2-0.4,0.5-0.4,0.9v2.5h2.5v-2l4.6-4.6c0.2-0.2,0.4-0.5,0.4-0.9v-1.2h32
		c3.4,0,6.2-2.8,6.2-6.2V14.1C135.9,10.7,133.1,7.9,129.7,7.9z"/>
	<rect x="139.6" y="32.7" class="st2" width="2.5" height="2.5"/>
	<rect x="144.5" y="32.7" class="st2" width="2.5" height="2.5"/>
	<rect x="144.5" y="27.7" class="st2" width="2.5" height="2.5"/>
	<rect x="144.5" y="37.6" class="st2" width="2.5" height="2.5"/>
	<rect x="78" y="32.7" class="st2" width="2.5" height="2.5"/>
	<rect x="73" y="32.7" class="st2" width="2.5" height="2.5"/>
	<rect x="73" y="37.6" class="st2" width="2.5" height="2.5"/>
	<rect x="73" y="27.7" class="st2" width="2.5" height="2.5"/>
	<path class="st2" d="M128.8,46.6l-6.5,6.5l-1.6-1.6l-1.7,1.7l2.5,2.5c0.2,0.2,0.6,0.4,0.9,0.4c0.3,0,0.6-0.1,0.9-0.4l7.4-7.4
		L128.8,46.6z"/>
	<rect x="116.2" y="20.3" class="st2" width="14.8" height="2.5"/>
	<rect x="116.2" y="25.2" class="st2" width="14.8" height="2.5"/>
	<rect x="123.6" y="30.2" class="st2" width="7.4" height="2.5"/>
</g>
</svg>
