<?xml version="1.0" encoding="utf-8"?>
<!-- Generator: Adobe Illustrator 26.2.1, SVG Export Plug-In . SVG Version: 6.00 Build 0)  -->
<svg version="1.1" id="Capa_1" xmlns="http://www.w3.org/2000/svg" xmlns:xlink="http://www.w3.org/1999/xlink" x="0px" y="0px"
	 viewBox="0 0 220 84" style="enable-background:new 0 0 220 84;" xml:space="preserve">
<style type="text/css">
	.st0{fill:none;stroke:#4F4C4D;stroke-width:1.1206;stroke-linecap:round;stroke-linejoin:round;stroke-miterlimit:10;}
	.st1{fill:#FFFFFF;stroke:#4F4C4D;stroke-width:1.1206;stroke-linecap:round;stroke-linejoin:round;stroke-miterlimit:10;}
	.st2{fill:#FEBE10;}
	.st3{fill:#FEDB79;}
	.st4{fill:#FFFFFF;stroke:#4F4C4D;stroke-width:1.2083;stroke-linecap:round;stroke-linejoin:round;stroke-miterlimit:10;}
	.st5{fill:none;stroke:#4F4C4D;stroke-width:1.2083;stroke-linecap:round;stroke-linejoin:round;stroke-miterlimit:10;}
	.st6{fill:#4F4C4D;}
	.st7{fill:#FFFFFF;}
	.st8{fill:#FBBD1D;}
	.st9{fill:none;stroke:#4F4C4D;stroke-width:1.0929;stroke-linecap:round;stroke-linejoin:round;stroke-miterlimit:10;}
	.st10{fill:none;stroke:#4F4C4D;stroke-linecap:round;stroke-linejoin:round;stroke-miterlimit:10;}
</style>
<g>
	<g>
		<path class="st0" d="M74.2,69.1L74.2,69.1c0.1,0.4,0.2,0.7,0.2,1.1c0,1.9-1.5,3.3-3.4,3.4c-1.9,0-3.4-1.5-3.4-3.3
			c0-0.3,0-0.7,0.1-1"/>
		<path class="st0" d="M49.3,69.2L49.3,69.2c-0.1,0.4-0.2,0.7-0.2,1.1c0,1.9,1.5,3.3,3.4,3.3s3.4-1.5,3.4-3.4c0-0.3,0-0.7-0.1-1"/>
	</g>
	<path class="st1" d="M52.5,14.4h-0.8c-0.9,0-1.7-0.7-1.7-1.7c0-0.9,0.8-1.7,1.7-1.7h20.2c0.9,0,1.7,0.7,1.7,1.7
		c0,0.9-0.8,1.7-1.7,1.7h-0.8h-3.4H55.9H52.5z"/>
	<g>
		<line class="st0" x1="54.9" y1="26.1" x2="54.9" y2="14.4"/>
		<line class="st0" x1="52.7" y1="26.2" x2="52.7" y2="14.4"/>
	</g>
	<g>
		<g>
			<line class="st0" x1="68.6" y1="14.4" x2="68.6" y2="26.1"/>
			<line class="st0" x1="70.8" y1="14.3" x2="70.8" y2="26.1"/>
		</g>
	</g>
	<g>
		<path class="st0" d="M43.4,53.6c-2.1,0-3.7-0.9-3.7-2.9v-5.8c0-1.9,1.7-2.9,3.7-2.9h1.2v11.7L43.4,53.6z"/>
		<path class="st0" d="M44.6,51.4c-1.6,0-2.9,0-2.9-1.8v-3.7c0-1.8,1.3-1.8,2.9-1.8h1v7.4L44.6,51.4z"/>
	</g>
	<g>
		<path class="st2" d="M47.4,69.4c-1.9-0.5-3.4-2.2-3.4-4.2V55V40.4V30.3c0-2.4,2.1-4.4,4.6-4.4h3.7h3.5h0.1h11.7l0,0h0.1h3.5h3.7
			c2.5,0,4.6,2,4.6,4.4l0.1,34.9c0,2-1.4,3.7-3.4,4.2c-0.4,0.1-0.8,0.2-1.2,0.2h-5.3H53.9h-5.3C48.2,69.6,47.8,69.6,47.4,69.4z"/>
	</g>
	<path class="st3" d="M79.5,30.3c0-2.4-2.1-4.4-4.6-4.4h-3.7h-1.7c2.5,0.1,4.4,2,4.5,4.4l0.1,34.9c0,2-1.4,3.7-3.4,4.2
		c-0.4,0.1-0.8,0.2-1.2,0.2h5.6c0.4,0,0.8-0.1,1.2-0.2c1.9-0.5,3.4-2.2,3.4-4.2L79.5,30.3z"/>
	<g>
		<line class="st0" x1="73.5" y1="30.5" x2="73.6" y2="63.8"/>
		<line class="st0" x1="68.8" y1="30.5" x2="68.9" y2="63.8"/>
		<line class="st0" x1="64.1" y1="30.5" x2="64.2" y2="63.8"/>
		<line class="st0" x1="59.4" y1="30.5" x2="59.4" y2="63.9"/>
		<line class="st0" x1="54.7" y1="30.5" x2="54.7" y2="63.9"/>
		<line class="st0" x1="50" y1="30.6" x2="50" y2="63.9"/>
	</g>
</g>
<g>
	<path class="st2" d="M139.9,10c0,0,0.9,23.1,0.9,29.3c0,4.2,0,2.6,0,7.7s-0.9,21.6-0.9,21.6c0,2.6,2.1,4.6,4.6,4.6l0,0
		c2.6,0,4.6-2.1,4.6-4.6c0,0-0.9-16.4-0.9-21.5s0-0.9,0-7.8s0.9-29.3,0.9-29.3c0-2.6-2.1-4.6-4.7-4.6l0,0
		C141.9,5.4,139.9,7.4,139.9,10z"/>
	<g>
		<path class="st3" d="M148.2,39.3c0-6.9,0.9-29.3,0.9-29.3c0-2.6-2.1-4.6-4.7-4.6c-0.4,0-0.7,0-1,0.1C145.5,6,147,7.8,147,10
			c0,0-0.9,22.4-0.9,29.3s0,2.8,0,7.8s0.9,21.5,0.9,21.5c0,2.2-1.5,4-3.6,4.5c0.3,0.1,0.7,0.1,1.1,0.1l0,0c2.6,0,4.6-2.1,4.6-4.6
			c0,0-0.9-16.4-0.9-21.5S148.2,46.2,148.2,39.3z"/>
	</g>
	<path class="st4" d="M148.1,41.3c0,0,1.6-6.2-3.2-6.5c-4.9-0.3-3.8,6.5-3.8,6.5H148.1z"/>
	<path class="st4" d="M140.9,48h7.3c0,0,1,4.9-3.2,5.2C140.2,53.6,140.9,48,140.9,48z"/>
	<path class="st5" d="M141.3,22.3"/>
	<path class="st5" d="M148,15.6"/>
	<g>
		<line class="st5" x1="171.5" y1="31.2" x2="164.7" y2="72"/>
		<path class="st5" d="M173,20.2c0,0,8.5,0.6,7.1-3.2S173,20.2,173,20.2z"/>
		<line class="st5" x1="167.9" y1="70.6" x2="162.5" y2="69.8"/>
		<path class="st2" d="M172,19.9l2.5,0.4c0.5,0.1,0.8,0.6,0.8,1.1l-1.5,9.4c-0.1,0.5-0.6,0.8-1.1,0.8l-2.5-0.4
			c-0.5-0.1-0.8-0.6-0.8-1.1l1.5-9.4C171.1,20.2,171.5,19.9,172,19.9z"/>
	</g>
	<g>
		<line class="st5" x1="129.5" y1="29.7" x2="135.7" y2="70.8"/>
		<path class="st5" d="M128.1,18.8c0,0-8.5,0.5-7.1-3.3S128.1,18.8,128.1,18.8z"/>
		<line class="st5" x1="132.5" y1="69.3" x2="137.9" y2="68.5"/>
		<path class="st2" d="M129,18.6l-2.5,0.4c-0.5,0.1-0.8,0.6-0.8,1.1l1.4,9.4c0.1,0.5,0.6,0.8,1.1,0.8l2.5-0.4
			c0.5-0.1,0.8-0.6,0.8-1.1l-1.4-9.4C130,18.9,129.6,18.6,129,18.6z"/>
	</g>
	<line class="st5" x1="141.9" y1="44.8" x2="147.1" y2="44.8"/>
	<polygon class="st3" points="148.8,17.6 140.4,24.4 140.2,19.2 149.1,12.1 	"/>
	<path class="st2" d="M151.6,10c0,0,0.9,23.1,0.9,29.3c0,4.2,0,2.6,0,7.7s-0.9,21.6-0.9,21.6c0,2.6,2.1,4.6,4.6,4.6l0,0
		c2.6,0,4.6-2.1,4.6-4.6c0,0-0.9-16.4-0.9-21.5s0-0.9,0-7.8s0.9-29.3,0.9-29.3c0-2.6-2.1-4.6-4.7-4.6l0,0
		C153.6,5.4,151.6,7.4,151.6,10z"/>
	<g>
		<path class="st3" d="M159.9,39.3c0-6.9,0.9-29.3,0.9-29.3c0-2.6-2.1-4.6-4.7-4.6c-0.4,0-0.7,0-1,0.1c2.1,0.5,3.6,2.3,3.6,4.5
			c0,0-0.9,22.4-0.9,29.3s0,2.8,0,7.8s0.9,21.5,0.9,21.5c0,2.2-1.5,4-3.6,4.5c0.3,0.1,0.7,0.1,1.1,0.1l0,0c2.6,0,4.6-2.1,4.6-4.6
			c0,0-0.9-16.4-0.9-21.5S159.9,46.2,159.9,39.3z"/>
	</g>
	<path class="st4" d="M159.8,41.3c0,0,1.6-6.2-3.2-6.5c-4.9-0.3-3.8,6.5-3.8,6.5H159.8z"/>
	<path class="st4" d="M152.6,48h7.3c0,0,1,4.9-3.2,5.2C151.9,53.6,152.6,48,152.6,48z"/>
	<path class="st5" d="M153,22.3"/>
	<path class="st5" d="M159.7,15.6"/>
	<line class="st5" x1="153.6" y1="44.8" x2="158.9" y2="44.8"/>
	<polygon class="st3" points="151.9,17.6 160.3,24.3 160.5,19.1 151.7,12.1 	"/>
</g>
<g>
	<g id="XMLID_00000113331343680126455660000003542965199811224991_">
		<g>
			<path class="st6" d="M109.3,35.4c1.3,0.5,2,1.9,1.5,3.1l-2,5.5c-0.5-0.2-1-0.4-1.5-0.6l1.2-3.1l-6.1-2.2l-1,2.8
				c-0.5-0.2-1.1-0.4-1.5-0.5l1.9-5.1c0.5-1.2,1.9-1.8,3.1-1.4L109.3,35.4z M109.3,38c0.2-0.4-0.1-0.8-0.5-1l-4.6-1.7
				c-0.4-0.2-0.9,0.1-1,0.5l-0.3,0.8l6.1,2.2L109.3,38z"/>
			<path class="st7" d="M108.8,37c0.4,0.2,0.6,0.6,0.5,1l-0.3,0.8l-6.1-2.2l0.3-0.8c0.2-0.4,0.6-0.6,1-0.5L108.8,37z"/>
		</g>
	</g>
	<path class="st3" d="M138.3,37.4c0.2,1.4-0.6,2.9-2,3.6c-3.6,1.6-7.3,2.8-11,4.1c-3.9,1.5-7.7,2.8-11.7,4.2
		c-0.1,0.1-0.3,0.2-0.4,0.2c-1.7,0.6-2.8,1.8-2.9,3.6c-0.2,1.6-0.8,3.1-1.7,4.4c-0.4,0.7-1,1.1-1.8,1.4c-1.1,0.4-2.2,0.6-3.3,0.9
		c-1.3,0.3-2.5,0.9-3.4,1.9c-0.9,0.9-1.6,1.8-2.5,2.8c-0.1,0.1-1.9,2.1-2.9,2.8c-2.4,1.6-5.1,1.9-7.9,1.3c-2.7-0.9-4.7-2.5-6.2-4.9
		c-1.8-2.8-3.2-5.8-3.5-9.3c-0.1-0.7-0.1-1.3-0.1-2c0-0.5,0.1-0.9,0.1-1.3c0,0,0.1-0.6,0.4-1.4l0-0.1l0-0.1c0.4-0.7,0.8-1.7,1.7-2.6
		c0,0,0-0.1,0.1-0.1c1.6-2,3.9-3,6.5-3.2c2.3-0.1,4.8,0,7.1,0c1.2,0,2.3-0.4,3.2-1.1c1.2-0.9,2.5-1.7,4-2l0,0c0.6,0,1.6,0,3.1,0.6
		c0.9,0.5,1.9,0.9,2.8,1.5c0.2,0.2,0.4,0.2,0.6,0.4c1.2,0.5,2.2,0.4,3.5-0.1c2.3-1.1,4.6-2.1,6.9-3.2c1.8-0.8,3.4-1.5,5.1-2.4
		c2.9-1.4,6-2.9,9-4.3c0.9-0.4,1.9-0.6,2.8-0.7c1.2-0.2,1.9,0.6,2.4,1.4C137.4,34.7,138.1,36,138.3,37.4z"/>
	<path class="st8" d="M138.1,36.5c-2.2,0.5-4.5,1.1-6.7,1.6c-1.9,0.4-3.9,0.9-5.8,1.6c-3.5,1.3-6.8,3.2-9.7,5.6
		c-0.6,0.5-1,0.9-1.4,1.5c-0.5,0.8-0.7,1.7-1,2.6c-0.1,0.1-0.2,0.1-0.4,0.2c-1.4,0.4-2.2,1.3-2.7,2.5c-4.2-0.9-8.8-0.2-12.1,2.4
		c-2.6,2.1-4.2,5-6.9,6.9c-2.3,1.8-5.3,2.6-8.2,2.6c-0.9,0.1-1.9,0-2.8-0.2c-0.1-0.1-0.1-0.1-0.2-0.3c-1.8-2.8-3.2-5.8-3.5-9.3
		c-0.1-0.7-0.1-1.3-0.1-2c0-0.5,0.1-0.9,0.1-1.3c0,0,0.1-0.6,0.4-1.4l0-0.1l0-0.1c0.4-0.7,0.8-1.7,1.7-2.6l0.1-0.1
		c1.6-2.1,3.9-3,6.5-3.2c2.3-0.1,4.8,0,7.1,0c1.2,0,2.3-0.4,3.2-1.1c1.2-0.9,2.5-1.7,4-2l0,0c0.6,0,1.6,0,3.1,0.6
		c0.9,0.5,1.9,0.9,2.8,1.5c0.2,0.2,0.4,0.2,0.6,0.4c1.2,0.5,2.2,0.4,3.5-0.1c2.3-1.1,4.6-2.1,6.9-3.2c1.7-0.8,3.4-1.5,5.1-2.4
		c2.9-1.4,6-2.9,9-4.3c0.9-0.4,1.9-0.6,2.8-0.7c1.2-0.2,1.9,0.6,2.4,1.4C137.3,34.5,137.8,35.5,138.1,36.5"/>
	<path class="st9" d="M80.9,54.3c0,0,0.1-8,11.1-7c7.3,0.6,8.5-4.3,8.5-4.3"/>
	<path class="st10" d="M88.4,71.1c0,1-0.8,1.8-1.8,1.8s-1.8-0.8-1.8-1.8c0-1,0.8-1.8,1.8-1.8C87.5,69.3,88.4,70,88.4,71.1"/>
</g>
<line class="st0" x1="147.7" y1="77.7" x2="73.9" y2="77.7"/>
<line class="st0" x1="186.9" y1="73.7" x2="29.3" y2="73.7"/>
</svg>
