<?xml version="1.0" encoding="utf-8"?>
<!-- Generator: Adobe Illustrator 26.2.1, SVG Export Plug-In . SVG Version: 6.00 Build 0)  -->
<svg version="1.1" id="Capa_1" xmlns="http://www.w3.org/2000/svg" xmlns:xlink="http://www.w3.org/1999/xlink" x="0px" y="0px"
	 viewBox="0 0 220 84" style="enable-background:new 0 0 220 84;" xml:space="preserve">
<style type="text/css">
	.st0{fill:#FBBD1D;}
	.st1{fill:#FEDB79;}
	.st2{fill-rule:evenodd;clip-rule:evenodd;fill:#FDBE15;}
	.st3{filter:url(#Adobe_OpacityMaskFilter);}
	.st4{enable-background:new    ;}
	
		.st5{clip-path:url(#SVGID_00000044158704770594674660000017653552868160690313_);fill-rule:evenodd;clip-rule:evenodd;fill:#FFFFFF;}
	.st6{mask:url(#SVGID_1_);}
	
		.st7{clip-path:url(#SVGID_00000044871954674901443190000004558975128597716880_);fill-rule:evenodd;clip-rule:evenodd;fill:#4F4C4D;}
	.st8{filter:url(#Adobe_OpacityMaskFilter_00000066509369606246205070000000686456736713749161_);}
	
		.st9{clip-path:url(#SVGID_00000133510223067556223150000004273793413940521396_);fill-rule:evenodd;clip-rule:evenodd;fill:#FFFFFF;}
	.st10{mask:url(#SVGID_00000108995488300542419610000011636171571210652338_);}
	
		.st11{clip-path:url(#SVGID_00000179608557468973571570000015498864590787882402_);fill-rule:evenodd;clip-rule:evenodd;fill:#4F4C4D;}
	.st12{filter:url(#Adobe_OpacityMaskFilter_00000035508231383526294280000017862857370811041924_);}
	.st13{clip-path:url(#SVGID_00000073706950076435651560000011382097118068726455_);}
	
		.st14{clip-path:url(#SVGID_00000065762048995500030240000013853941777767331742_);fill-rule:evenodd;clip-rule:evenodd;fill:#FFFFFF;}
	.st15{mask:url(#SVGID_00000054980864863821515750000003806445906405925254_);}
	.st16{filter:url(#Adobe_OpacityMaskFilter_00000031893515458233929130000003395277424159319729_);}
	.st17{clip-path:url(#SVGID_00000015352601023063778070000011719654199054418836_);}
	
		.st18{clip-path:url(#SVGID_00000179637579018603524240000002421542508563552180_);fill-rule:evenodd;clip-rule:evenodd;fill:#FFFFFF;}
	.st19{mask:url(#SVGID_00000098213457078598550190000016040040935809312697_);}
	.st20{filter:url(#Adobe_OpacityMaskFilter_00000173122065910296462220000010067810060748111253_);}
	.st21{clip-path:url(#SVGID_00000040541979441924817830000013546834016201855679_);}
	
		.st22{clip-path:url(#SVGID_00000013915701034425360050000001529074573367097527_);fill-rule:evenodd;clip-rule:evenodd;fill:#FFFFFF;}
	.st23{mask:url(#SVGID_00000134231952014990634210000010773172229928234417_);}
	.st24{fill-rule:evenodd;clip-rule:evenodd;fill:#FEDB79;}
	.st25{filter:url(#Adobe_OpacityMaskFilter_00000079471744751385124880000013519225528734882966_);}
	
		.st26{clip-path:url(#SVGID_00000089537345676577786900000017186641256601913515_);fill-rule:evenodd;clip-rule:evenodd;fill:#FFFFFF;}
	.st27{mask:url(#SVGID_00000106142898803379618480000009548503910118412191_);}
	.st28{filter:url(#Adobe_OpacityMaskFilter_00000068666871154895602320000003791385258831208638_);}
	
		.st29{clip-path:url(#SVGID_00000181790668085733703770000007381378128652294040_);fill-rule:evenodd;clip-rule:evenodd;fill:#FFFFFF;}
	.st30{mask:url(#SVGID_00000129190899304267152990000017894372785791112865_);}
	
		.st31{clip-path:url(#SVGID_00000096048565873891931840000001402718126205311135_);fill-rule:evenodd;clip-rule:evenodd;fill:#4F4C4D;}
	.st32{filter:url(#Adobe_OpacityMaskFilter_00000131351334591458475280000005607534927147767487_);}
	
		.st33{clip-path:url(#SVGID_00000015332535448521212880000018123973173998353288_);fill-rule:evenodd;clip-rule:evenodd;fill:#FFFFFF;}
	.st34{mask:url(#SVGID_00000111187767824683947540000000238093877936267153_);}
	
		.st35{clip-path:url(#SVGID_00000029733131524193143430000010145387628269486215_);fill-rule:evenodd;clip-rule:evenodd;fill:#4F4C4D;}
	.st36{fill-rule:evenodd;clip-rule:evenodd;fill:#4F4C4D;}
	.st37{fill:#4F4C4D;}
</style>
<g>
	<g>
		<g>
			<path class="st0" d="M139.1,42.2c0,0-1.2-2.3-3.5-2.9c-2.3-0.6-7.6,5.3-7.6,5.3h-9.4l-5.9-5.9l-5.3,3.1l0.1,5.3l1.1-0.2l-0.6,2.9
				l-0.6,4.7l1.2,8.2l5.3,9.4l5.9,1.8l5.9,1.2l7-2.3l4.7-5.3l1.8-5.3l-0.6-8.8L139.1,42.2z"/>
			<path class="st1" d="M112.6,38.7l3.5-6.5l1.8-0.6l1.8,0.6l4.1-8.8l0.6-7l-12.3-5.3l-5.9,4.1l-14.1-0.6l-5.9-4.1
				c0,0-10.6,4.1-12.9,5.9c-2.3,1.8,3.5,10.6,3.5,10.6l1.8,5.3l2.9-0.6l2.9,2.9l0.6,3.5l2.9,8.2l4.7,2.3h2.9l1.8,7
				c0,0,2.9-0.6,3.5-0.6s2.9-6.5,2.9-6.5l1.8-1.2l1.8-0.4l-0.1-5.3L112.6,38.7z"/>
		</g>
		<path class="st2" d="M96.6,15.1v2.7c0,8.4-4.1,16.2-10.9,20.9c-1.8-3-2.9-6.4-3.4-9.9v0l0.5-1.3c1.9-4.8,5-9.1,9-12.3
			c0.1,0,0.1,0,0.2,0H96.6z"/>
		<path class="st2" d="M116.1,28.8L116.1,28.8c-0.5,3.5-1.6,6.9-3.4,9.9c-6.8-4.7-10.9-12.5-10.9-20.9v-2.7h4.7c0.1,0,0.1,0,0.2,0
			c4,3.3,7.1,7.5,9,12.3L116.1,28.8z"/>
		<defs>
			<filter id="Adobe_OpacityMaskFilter" filterUnits="userSpaceOnUse" x="107.9" y="26.4" width="2.1" height="2.1">
				<feColorMatrix  type="matrix" values="1 0 0 0 0  0 1 0 0 0  0 0 1 0 0  0 0 0 1 0"/>
			</filter>
		</defs>
		<mask maskUnits="userSpaceOnUse" x="107.9" y="26.4" width="2.1" height="2.1" id="SVGID_1_">
			<g class="st3">
				<rect x="107.9" y="26.4" width="2.1" height="2.1"/>
				<g class="st4">
					<g>
						<defs>
							<rect id="SVGID_00000013162168816002743570000000715230770036300972_" x="107.9" y="26.4" width="2.1" height="2.1"/>
						</defs>
						<clipPath id="SVGID_00000062897852401031616610000011966094650936859309_">
							<use xlink:href="#SVGID_00000013162168816002743570000000715230770036300972_"  style="overflow:visible;"/>
						</clipPath>
						
							<rect x="72" y="10" style="clip-path:url(#SVGID_00000062897852401031616610000011966094650936859309_);fill-rule:evenodd;clip-rule:evenodd;fill:#FFFFFF;" width="75.9" height="65.6"/>
					</g>
				</g>
			</g>
		</mask>
		<g class="st6">
			<g>
				<defs>
					<rect id="SVGID_00000076576896176600752430000006527633548893992594_" x="107.9" y="26.4" width="2.1" height="2.1"/>
				</defs>
				<use xlink:href="#SVGID_00000076576896176600752430000006527633548893992594_"  style="overflow:visible;fill:#4F4C4D;"/>
				<clipPath id="SVGID_00000152245213385190435030000006155552990631279792_">
					<use xlink:href="#SVGID_00000076576896176600752430000006527633548893992594_"  style="overflow:visible;"/>
				</clipPath>
				
					<rect x="107.9" y="26.4" style="clip-path:url(#SVGID_00000152245213385190435030000006155552990631279792_);fill-rule:evenodd;clip-rule:evenodd;fill:#4F4C4D;" width="2.1" height="2.1"/>
			</g>
		</g>
		<defs>
			
				<filter id="Adobe_OpacityMaskFilter_00000050653147898133767070000016381134864890958245_" filterUnits="userSpaceOnUse" x="88.4" y="26.4" width="2.1" height="2.1">
				<feColorMatrix  type="matrix" values="1 0 0 0 0  0 1 0 0 0  0 0 1 0 0  0 0 0 1 0"/>
			</filter>
		</defs>
		
			<mask maskUnits="userSpaceOnUse" x="88.4" y="26.4" width="2.1" height="2.1" id="SVGID_00000020390913473566574290000013001978310979014838_">
			<g style="filter:url(#Adobe_OpacityMaskFilter_00000050653147898133767070000016381134864890958245_);">
				<rect x="88.4" y="26.4" width="2.1" height="2.1"/>
				<g class="st4">
					<g>
						<defs>
							<rect id="SVGID_00000131342893871234951130000004198336161467801266_" x="88.4" y="26.4" width="2.1" height="2.1"/>
						</defs>
						<clipPath id="SVGID_00000173854419428243864360000018206676306666655655_">
							<use xlink:href="#SVGID_00000131342893871234951130000004198336161467801266_"  style="overflow:visible;"/>
						</clipPath>
						
							<rect x="72" y="10" style="clip-path:url(#SVGID_00000173854419428243864360000018206676306666655655_);fill-rule:evenodd;clip-rule:evenodd;fill:#FFFFFF;" width="75.9" height="65.6"/>
					</g>
				</g>
			</g>
		</mask>
		<g style="mask:url(#SVGID_00000020390913473566574290000013001978310979014838_);">
			<g>
				<defs>
					<rect id="SVGID_00000124146484763578008590000006423750478069606316_" x="88.4" y="26.4" width="2.1" height="2.1"/>
				</defs>
				<use xlink:href="#SVGID_00000124146484763578008590000006423750478069606316_"  style="overflow:visible;fill:#4F4C4D;"/>
				<clipPath id="SVGID_00000177464436956247654160000005897866010771327644_">
					<use xlink:href="#SVGID_00000124146484763578008590000006423750478069606316_"  style="overflow:visible;"/>
				</clipPath>
				
					<rect x="88.4" y="26.4" style="clip-path:url(#SVGID_00000177464436956247654160000005897866010771327644_);fill-rule:evenodd;clip-rule:evenodd;fill:#4F4C4D;" width="2.1" height="2.1"/>
			</g>
		</g>
		<defs>
			
				<filter id="Adobe_OpacityMaskFilter_00000138560468989734137580000015977785487213173401_" filterUnits="userSpaceOnUse" x="72" y="10" width="54.3" height="46.1">
				<feFlood  style="flood-color:white;flood-opacity:1" result="back"/>
				<feBlend  in="SourceGraphic" in2="back" mode="normal"/>
			</filter>
		</defs>
		
			<mask maskUnits="userSpaceOnUse" x="72" y="10" width="54.3" height="46.1" id="SVGID_00000065046465473067755440000005334929415861375123_">
			<g style="filter:url(#Adobe_OpacityMaskFilter_00000138560468989734137580000015977785487213173401_);">
				<g>
					<defs>
						<rect id="SVGID_00000148620746413469646190000012480142405609329593_" x="966.8" y="2731.2" width="92.5" height="78.6"/>
					</defs>
					<clipPath id="SVGID_00000107549630983567631960000004135638687027985067_">
						<use xlink:href="#SVGID_00000148620746413469646190000012480142405609329593_"  style="overflow:visible;"/>
					</clipPath>
					
						<rect x="966.8" y="2730.5" style="clip-path:url(#SVGID_00000107549630983567631960000004135638687027985067_);" width="92.5" height="79.3"/>
					<g class="st4">
						<g>
							<defs>
								<rect id="SVGID_00000000218351651282712700000004754864759720856967_" x="966.8" y="2730.5" width="92.5" height="79.3"/>
							</defs>
							
								<clipPath id="SVGID_00000016761110493408133900000001655114800152487570_" style="clip-path:url(#SVGID_00000107549630983567631960000004135638687027985067_);">
								<use xlink:href="#SVGID_00000000218351651282712700000004754864759720856967_"  style="overflow:visible;"/>
							</clipPath>
							
								<rect x="966.8" y="2731.2" style="clip-path:url(#SVGID_00000016761110493408133900000001655114800152487570_);fill-rule:evenodd;clip-rule:evenodd;fill:#FFFFFF;" width="129.2" height="111.8"/>
						</g>
					</g>
				</g>
			</g>
		</mask>
		<g style="mask:url(#SVGID_00000065046465473067755440000005334929415861375123_);">
			<g>
				<path class="st2" d="M101.4,49.9l-0.5,2.3c-0.2,0.8-0.9,1.4-1.7,1.4c-0.8,0-1.6-0.6-1.7-1.4L97,49.9H101.4z M97.9,39.4l-1.1-1.1
					c-0.1-0.1-0.1-0.2-0.1-0.4c0-0.3,0.2-0.5,0.5-0.5h3.9c0.3,0,0.5,0.2,0.5,0.5c0,0.1-0.1,0.3-0.1,0.4l-1.1,1.1
					C99.8,40.1,98.6,40.1,97.9,39.4 M83.4,28.9l0.4-1c1.8-4.5,4.7-8.5,8.4-11.6l13.9,0c3.7,3.1,6.6,7.1,8.4,11.6l0.4,1
					c-0.5,3.3-1.6,6.4-3.2,9.2l-0.2,0.3v0.3c0,3.5-2.1,6.6-5.1,7.9c0.1-0.4,0.2-0.7,0.2-1.1v-0.6h-2.5v0.6c0,1-0.8,1.9-1.9,1.9
					c-1,0-1.9-0.8-1.9-1.9v-3.3c0.6-0.2,1.3-0.5,1.7-1l1.1-1.1c0.6-0.6,0.9-1.3,0.9-2.1c0-1.7-1.3-3-3-3h-3.9c-1.6,0-3,1.4-3,3
					c0,0.8,0.3,1.6,0.9,2.1l1.1,1.1c0.5,0.5,1.1,0.8,1.7,1v3.3c0,1-0.8,1.9-1.9,1.9c-1,0-1.9-0.8-1.9-1.9v-0.6h-2.5v0.6
					c0,0.4,0.1,0.7,0.2,1.1c-3-1.4-5.1-4.4-5.1-7.9v-0.3l-0.2-0.3C85,35.2,83.9,32.1,83.4,28.9 M78.9,30.8l-4.3-12
					c-0.1-0.2-0.1-0.4-0.1-0.6c0-0.7,0.4-1.3,1-1.6l9.8-4c0.3-0.1,0.7-0.2,1.1-0.2c0.8,0,1.5,0.3,2,0.8l1.6,1.6
					c-3.7,3.3-6.6,7.4-8.4,12L80,30.9C79.8,31.3,79.1,31.3,78.9,30.8 M110,13.3c0.8-0.8,2-1.1,3.1-0.6l9.8,4c0.6,0.3,1,0.9,1,1.6
					c0,0.2,0,0.4-0.1,0.6l-4.3,12c-0.2,0.4-0.9,0.5-1,0l-1.6-3.9c-1.8-4.6-4.7-8.7-8.4-12L110,13.3z M107.4,48.4
					c1.3-0.7,3.6-2.4,4.6-3.4c0.6-0.8,1.3-2.1,1.7-3.7c0.2-0.8,0.3-1.6,0.3-2.2c1.2-2,2-4.2,2.7-6.4c0.6,0.6,1.4,1.1,2.3,1.1
					c1.3,0,2.4-0.8,2.8-2l4.3-12c0.2-0.5,0.2-0.9,0.2-1.4c0-1.7-1-3.2-2.6-3.9l-9.8-4c-1.9-0.8-4.2-0.3-5.7,1.2l-2.2,2.2l-13.8,0
					l-2.2-2.2c-1.5-1.5-3.8-2-5.7-1.2l-9.8,4C73,15,72,16.5,72,18.2c0,0.5,0.1,1,0.2,1.4l4.3,12c0.4,1.2,1.6,2,2.8,2
					c0.9,0,1.7-0.4,2.3-1.1c0.6,2.2,1.5,4.4,2.7,6.4c0.1,2.2,0.8,4.3,1.9,6c3.6,4.4,5.5,4.3,8.1,4.8l0.9,3.3c0.9,2.2,1.6,3,3.8,3
					c4.4,0,4.7-6.3,4.7-6.3L107.4,48.4z"/>
			</g>
		</g>
		<defs>
			
				<filter id="Adobe_OpacityMaskFilter_00000006675256528818842800000010649673689316653967_" filterUnits="userSpaceOnUse" x="107.9" y="38.7" width="9.2" height="11.3">
				<feColorMatrix  type="matrix" values="1 0 0 0 0  0 1 0 0 0  0 0 1 0 0  0 0 0 1 0"/>
			</filter>
		</defs>
		
			<mask maskUnits="userSpaceOnUse" x="107.9" y="38.7" width="9.2" height="11.3" id="SVGID_00000054951390978443505870000009492996362059369377_">
			<g style="filter:url(#Adobe_OpacityMaskFilter_00000006675256528818842800000010649673689316653967_);">
				<g>
					<defs>
						<rect id="SVGID_00000181800630654159477750000015667163740127923587_" x="107.9" y="38.7" width="9.2" height="11.3"/>
					</defs>
					<clipPath id="SVGID_00000098185180037177145990000012298016224990755257_">
						<use xlink:href="#SVGID_00000181800630654159477750000015667163740127923587_"  style="overflow:visible;"/>
					</clipPath>
					
						<rect x="106.6" y="37.8" style="clip-path:url(#SVGID_00000098185180037177145990000012298016224990755257_);" width="11.5" height="12.2"/>
					<g class="st4">
						<g>
							<defs>
								<rect id="SVGID_00000129917341995063483960000005517655671267210676_" x="106.6" y="37.8" width="11.5" height="12.2"/>
							</defs>
							
								<clipPath id="SVGID_00000020363423421409647670000012242000526697019825_" style="clip-path:url(#SVGID_00000098185180037177145990000012298016224990755257_);">
								<use xlink:href="#SVGID_00000129917341995063483960000005517655671267210676_"  style="overflow:visible;"/>
							</clipPath>
							
								<rect x="72" y="10" style="clip-path:url(#SVGID_00000020363423421409647670000012242000526697019825_);fill-rule:evenodd;clip-rule:evenodd;fill:#FFFFFF;" width="75.9" height="65.6"/>
						</g>
					</g>
				</g>
			</g>
		</mask>
		<g style="mask:url(#SVGID_00000054951390978443505870000009492996362059369377_);">
			<g>
				<path class="st2" d="M113.5,38.9c3,0,4.6,2,2.9,4.8c-2.4,4-8,6.2-8,6.2s-1.8-4.5,1-9.4C111.1,37.8,110.5,38.9,113.5,38.9"/>
			</g>
		</g>
		<defs>
			
				<filter id="Adobe_OpacityMaskFilter_00000008138766065057830870000012684729131102470553_" filterUnits="userSpaceOnUse" x="108.9" y="45.9" width="16.4" height="16.4">
				<feColorMatrix  type="matrix" values="1 0 0 0 0  0 1 0 0 0  0 0 1 0 0  0 0 0 1 0"/>
			</filter>
		</defs>
		
			<mask maskUnits="userSpaceOnUse" x="108.9" y="45.9" width="16.4" height="16.4" id="SVGID_00000161592673523915639520000014498695894742293660_">
			<g style="filter:url(#Adobe_OpacityMaskFilter_00000008138766065057830870000012684729131102470553_);">
				<g>
					<defs>
						<rect id="SVGID_00000155138279237485668220000006697963557362903982_" x="108.9" y="45.9" width="16.4" height="16.4"/>
					</defs>
					<clipPath id="SVGID_00000119089467375096189670000002534734689960151939_">
						<use xlink:href="#SVGID_00000155138279237485668220000006697963557362903982_"  style="overflow:visible;"/>
					</clipPath>
					
						<rect x="107.9" y="45.9" style="clip-path:url(#SVGID_00000119089467375096189670000002534734689960151939_);" width="17.4" height="16.4"/>
					<g class="st4">
						<g>
							<defs>
								<rect id="SVGID_00000047054450187287358770000010420429941042251451_" x="107.9" y="45.9" width="17.4" height="16.4"/>
							</defs>
							
								<clipPath id="SVGID_00000012473059823632841720000012674930850795943570_" style="clip-path:url(#SVGID_00000119089467375096189670000002534734689960151939_);">
								<use xlink:href="#SVGID_00000047054450187287358770000010420429941042251451_"  style="overflow:visible;"/>
							</clipPath>
							
								<rect x="72" y="10" style="clip-path:url(#SVGID_00000012473059823632841720000012674930850795943570_);fill-rule:evenodd;clip-rule:evenodd;fill:#FFFFFF;" width="75.9" height="65.6"/>
						</g>
					</g>
				</g>
			</g>
		</mask>
		<g style="mask:url(#SVGID_00000161592673523915639520000014498695894742293660_);">
			<g>
				<path class="st24" d="M118.8,45.9c3.3,0,6.5,1.7,6.5,5c0,5-16.2,11.4-16.2,11.4s-1.2-7,1.9-11.9
					C112.8,47.5,115.5,45.9,118.8,45.9"/>
			</g>
		</g>
		<defs>
			
				<filter id="Adobe_OpacityMaskFilter_00000034081803852148095000000003041496186304757643_" filterUnits="userSpaceOnUse" x="106.3" y="37.7" width="33.8" height="37.9">
				<feColorMatrix  type="matrix" values="1 0 0 0 0  0 1 0 0 0  0 0 1 0 0  0 0 0 1 0"/>
			</filter>
		</defs>
		
			<mask maskUnits="userSpaceOnUse" x="106.3" y="37.7" width="33.8" height="37.9" id="SVGID_00000047054304369185028220000006251904501883044762_">
			<g style="filter:url(#Adobe_OpacityMaskFilter_00000034081803852148095000000003041496186304757643_);">
				<rect x="98.7" y="37.7" width="49.2" height="37.9"/>
				<g class="st4">
					<g>
						<defs>
							<rect id="SVGID_00000160873875888273538390000010974216250374373531_" x="98.7" y="37.7" width="49.2" height="37.9"/>
						</defs>
						<clipPath id="SVGID_00000083068204517867832790000016814979387388962225_">
							<use xlink:href="#SVGID_00000160873875888273538390000010974216250374373531_"  style="overflow:visible;"/>
						</clipPath>
						
							<rect x="72" y="10" style="clip-path:url(#SVGID_00000083068204517867832790000016814979387388962225_);fill-rule:evenodd;clip-rule:evenodd;fill:#FFFFFF;" width="75.9" height="65.6"/>
					</g>
				</g>
			</g>
		</mask>
		<g style="mask:url(#SVGID_00000047054304369185028220000006251904501883044762_);">
			<g id="XMLID_00000021831442774266634860000005010706037970842272_">
				<g>
					<path class="st1" d="M113.8,69.8C113.9,69.8,113.9,69.9,113.8,69.8c0.4,0.4,0.8,0.7,1.2,1c0,0,0,0,0.1,0c1,0.7,2.1,1.3,3.5,1.8
						c5.6,2.1,10.7,0.5,14.2-2.7c1.3-1.2,2.3-2.6,3.1-4.1c0.4-0.8,0.8-1.6,1-2.5c0.5-1.7,0.7-3.5,0.5-5.2
						c-0.4-6.4-4.3-12.8-14.2-12.8s-13.8,6.4-14.2,12.8c0,0-0.1,1.1,0.1,2.7c0,0,0,0,0,0c0.1,0.9,0.3,1.7,0.5,2.6c0,0,0,0,0,0
						c0.2,0.8,0.6,1.6,1,2.5h0c0,0,0,0.1,0.1,0.1c0.1,0.1,0.1,0.3,0.2,0.4C111.6,67.5,112.6,68.7,113.8,69.8z M140.1,48.7v8.9
						c0,0,0,0,0.1,0c-0.1,0.8-0.2,1.7-0.4,2.6c-0.5,2.8-1.4,5.7-2.9,8.2c-2,3.2-5,5.9-9.7,6.9l-3.3,0.4c-0.3,0-0.5,0-0.7-0.1
						c-2.6-0.3-4.9-0.9-6.7-1.6c0,0,0,0-0.1,0c-1-0.5-2-1.1-3.4-1.8c-1.7-1.1-2.9-2.5-3.9-3.8c0,0,0-0.1,0-0.1
						c-0.4-0.7-0.8-1.3-1.1-2.1c0,0-0.1,0-0.1,0c-0.4-0.8-0.7-1.7-0.9-2.4c0,0,0.1,0,0.1,0c-0.3-1.1-0.5-2.3-0.5-3.5
						c0,0-0.1,0-0.1,0c-0.1-1.6,0.1-2.6,0.1-2.6V43.2c0-3,2.5-5.5,5.6-5.5c1.8,0,3.4,0.8,4.5,2.2l2.5,3.3c1.3-0.3,2.7-0.4,4.2-0.4
						s2.9,0.2,4.2,0.4l2.5-3.3c1.1-1.4,2.7-2.2,4.5-2.2c3.1,0,5.6,2.5,5.6,5.5V48.7z M137.5,49.8v-6.5c0-1.6-1.4-3-3-3
						c-0.9,0-1.8,0.4-2.4,1.2l-1.9,2.5C133.3,45.1,135.8,47.1,137.5,49.8z M116.4,44l-1.9-2.5c-0.6-0.7-1.5-1.2-2.4-1.2
						c-1.7,0-3,1.3-3,3v6.5C110.7,47.1,113.2,45.1,116.4,44z"/>
					<path class="st1" d="M132.7,69.8L132.7,69.8c-3.4,3.3-8.6,4.9-14.1,2.8c1.5,0.5,3,0.8,4.7,0.8s3.2-0.3,4.7-0.8
						c-2.2-0.9-3.7-2.2-4.7-3.3c-0.9,1.1-2.4,2.5-4.7,3.3c-1.3-0.5-2.5-1.1-3.5-1.8c3.1-0.3,5-1.9,6.1-3c-1.8-1-3.1-3.1-3.1-4.6
						c0-2.1,2.3-3.8,5.2-3.8s5.2,1.7,5.2,3.8c0,1.5-1.2,3.6-3.1,4.6c1,1.2,3,2.8,6.1,3C131.9,70.5,132.3,70.2,132.7,69.8z
						 M125.9,63.2c0-0.5-1-1.3-2.6-1.3s-2.6,0.8-2.6,1.3c0,0.8,1.3,2.6,2.6,2.6S125.9,64,125.9,63.2z"/>
					<path class="st1" d="M123.9,75.6l3.3-0.4C126.1,75.4,125,75.6,123.9,75.6z"/>
					<path class="st1" d="M123.1,75.6c-2.8-0.3-4.3-0.6-6.2-1.4c-0.2-0.1-0.3-0.1-0.5-0.2C118.3,74.7,120.5,75.2,123.1,75.6z"/>
					<path class="st1" d="M112.9,72.1c1.4,0.7,2.4,1.3,3.4,1.8C115,73.4,113.9,72.7,112.9,72.1z"/>
					<path class="st1" d="M109,68.1C109,68.2,109,68.2,109,68.1c-0.5-0.6-0.9-1.3-1.2-2c0,0,0.1,0,0.1,0
						C108.2,66.8,108.6,67.5,109,68.1z"/>
					<path class="st1" d="M107,63.7c0,0-0.1,0-0.1,0c-0.4-1.3-0.5-2.5-0.6-3.5c0,0,0.1,0,0.1,0C106.5,61.4,106.7,62.5,107,63.7z"/>
				</g>
				<g>
				</g>
			</g>
		</g>
		<defs>
			
				<filter id="Adobe_OpacityMaskFilter_00000183240649168907112330000012844495142722720406_" filterUnits="userSpaceOnUse" x="116.1" y="52.1" width="3.1" height="3.1">
				<feColorMatrix  type="matrix" values="1 0 0 0 0  0 1 0 0 0  0 0 1 0 0  0 0 0 1 0"/>
			</filter>
		</defs>
		
			<mask maskUnits="userSpaceOnUse" x="116.1" y="52.1" width="3.1" height="3.1" id="SVGID_00000105418480265283256880000006549326628659167151_">
			<g style="filter:url(#Adobe_OpacityMaskFilter_00000183240649168907112330000012844495142722720406_);">
				<rect x="116.1" y="52.1" width="3.1" height="3.1"/>
				<g class="st4">
					<g>
						<defs>
							<rect id="SVGID_00000041268444223147947620000010877356379503403950_" x="116.1" y="52.1" width="3.1" height="3.1"/>
						</defs>
						<clipPath id="SVGID_00000029728103887521893590000009446163428244398746_">
							<use xlink:href="#SVGID_00000041268444223147947620000010877356379503403950_"  style="overflow:visible;"/>
						</clipPath>
						
							<rect x="72" y="10" style="clip-path:url(#SVGID_00000029728103887521893590000009446163428244398746_);fill-rule:evenodd;clip-rule:evenodd;fill:#FFFFFF;" width="75.9" height="65.6"/>
					</g>
				</g>
			</g>
		</mask>
		<g style="mask:url(#SVGID_00000105418480265283256880000006549326628659167151_);">
			<g>
				<defs>
					<rect id="SVGID_00000114780193078724866260000008593363003786204066_" x="116.1" y="52.1" width="3.1" height="3.1"/>
				</defs>
				<use xlink:href="#SVGID_00000114780193078724866260000008593363003786204066_"  style="overflow:visible;fill:#4F4C4D;"/>
				<clipPath id="SVGID_00000013889331454809232400000016629116618168856480_">
					<use xlink:href="#SVGID_00000114780193078724866260000008593363003786204066_"  style="overflow:visible;"/>
				</clipPath>
				
					<rect x="116.1" y="52.1" style="clip-path:url(#SVGID_00000013889331454809232400000016629116618168856480_);fill-rule:evenodd;clip-rule:evenodd;fill:#4F4C4D;" width="3.1" height="3.1"/>
			</g>
		</g>
		<defs>
			
				<filter id="Adobe_OpacityMaskFilter_00000041999902116390066500000010048735113776657041_" filterUnits="userSpaceOnUse" x="128.4" y="52.1" width="3.1" height="3.1">
				<feColorMatrix  type="matrix" values="1 0 0 0 0  0 1 0 0 0  0 0 1 0 0  0 0 0 1 0"/>
			</filter>
		</defs>
		
			<mask maskUnits="userSpaceOnUse" x="128.4" y="52.1" width="3.1" height="3.1" id="SVGID_00000034071335904896927850000005560139691202049465_">
			<g style="filter:url(#Adobe_OpacityMaskFilter_00000041999902116390066500000010048735113776657041_);">
				<rect x="128.4" y="52.1" width="3.1" height="3.1"/>
				<g class="st4">
					<g>
						<defs>
							<rect id="SVGID_00000153694933054532626950000018323097873918724488_" x="128.4" y="52.1" width="3.1" height="3.1"/>
						</defs>
						<clipPath id="SVGID_00000139989646098091302430000002440879219618519216_">
							<use xlink:href="#SVGID_00000153694933054532626950000018323097873918724488_"  style="overflow:visible;"/>
						</clipPath>
						
							<rect x="72" y="10" style="clip-path:url(#SVGID_00000139989646098091302430000002440879219618519216_);fill-rule:evenodd;clip-rule:evenodd;fill:#FFFFFF;" width="75.9" height="65.6"/>
					</g>
				</g>
			</g>
		</mask>
		<g style="mask:url(#SVGID_00000034071335904896927850000005560139691202049465_);">
			<g>
				<defs>
					<rect id="SVGID_00000070118722328546276280000006541653578997106613_" x="128.4" y="52.1" width="3.1" height="3.1"/>
				</defs>
				<use xlink:href="#SVGID_00000070118722328546276280000006541653578997106613_"  style="overflow:visible;fill:#4F4C4D;"/>
				<clipPath id="SVGID_00000172427684459919635040000003890673872651791497_">
					<use xlink:href="#SVGID_00000070118722328546276280000006541653578997106613_"  style="overflow:visible;"/>
				</clipPath>
				
					<rect x="128.4" y="52.1" style="clip-path:url(#SVGID_00000172427684459919635040000003890673872651791497_);fill-rule:evenodd;clip-rule:evenodd;fill:#4F4C4D;" width="3.1" height="3.1"/>
			</g>
		</g>
		<path class="st36" d="M98.7,56.8c0,0,5.2-0.6,14.7,2.6l-1,2.4c0,0-5.2-2.2-13.8-2.5C98.7,57.8,98.7,56.8,98.7,56.8z"/>
		<path class="st36" d="M98.5,66c0,0,4.6-2.5,14.6-3l0,2.6c0,0-5.6-0.1-13.7,2.8C98.9,67,98.5,66,98.5,66z"/>
		<path class="st36" d="M114.6,69.2c0,0-4.3,3.1-14.1,5l-0.3-2.5c0,0,5.6-0.7,13.2-4.6C114.1,68.3,114.6,69.2,114.6,69.2z"/>
		<path class="st36" d="M147.8,56.8c0,0-5.2-0.6-14.7,2.6l1,2.4c0,0,5.2-2.2,13.8-2.5C147.8,57.8,147.8,56.8,147.8,56.8z"/>
		<path class="st36" d="M148,66c0,0-4.6-2.5-14.6-3l0,2.6c0,0,5.6-0.1,13.7,2.8C147.6,67,148,66,148,66z"/>
		<path class="st36" d="M131.9,69.2c0,0,4.3,3.1,14.1,5l0.3-2.5c0,0-5.6-0.7-13.2-4.6C132.4,68.3,131.9,69.2,131.9,69.2z"/>
	</g>
	<path class="st36" d="M97.9,39.4l-1.1-1.1c-0.1-0.1-0.1-0.2-0.1-0.4c0-0.3,0.2-0.5,0.5-0.5h3.9c0.3,0,0.5,0.2,0.5,0.5
		c0,0.1-0.1,0.3-0.1,0.4l-1.1,1.1C99.8,40.1,98.6,40.1,97.9,39.4"/>
	<path class="st37" d="M123.3,65.7c-1.3,0-2.6-1.8-2.6-2.5c0-0.5,1-1.3,2.6-1.3c1.6,0,2.6,0.8,2.6,1.3
		C125.9,64,124.6,65.7,123.3,65.7L123.3,65.7z"/>
	<path class="st37" d="M91.8,44.9h2.5c0,0-0.3,2.5,1.9,2.5c2.1,0,1.8-2.2,1.8-2.2l0-3c0,0,1.4,0.5,2.5,0v3.3c0,0,0.2,1.8,1.9,1.9
		c1.7,0.1,2.1-2.2,1.9-2.5c2.3,0,2.3,0,2.3,0s0.4,3.7-4.1,3.8C97.9,48.8,91,48.9,91.8,44.9z"/>
	<path class="st37" d="M115,70.8c0,0,1.7,1.3,3.5,1.8c0,0,2.8-1,4.7-3.3c1.1,1.2,2.6,2.9,4.7,3.3c1-0.3,3.5-1.8,3.5-1.8
		s-3,0.2-6.1-3c0,0-1.5,0.8-4.2,0C121.2,67.7,118.7,70.6,115,70.8z"/>
</g>
</svg>
