<?xml version="1.0" encoding="utf-8"?>
<!-- Generator: Adobe Illustrator 26.3.1, SVG Export Plug-In . SVG Version: 6.00 Build 0)  -->
<svg version="1.1" id="Capa_1" xmlns="http://www.w3.org/2000/svg" xmlns:xlink="http://www.w3.org/1999/xlink" x="0px" y="0px"
	 viewBox="0 0 220 84" style="enable-background:new 0 0 220 84;" xml:space="preserve">
<style type="text/css">
	.st0{fill:none;stroke:#4F4C4D;stroke-width:0.9405;stroke-linecap:round;stroke-linejoin:round;stroke-miterlimit:10;}
	.st1{fill:#4F4C4D;}
	.st2{fill:#FEBE10;}
	.st3{fill:#FEDB79;}
	.st4{fill:none;stroke:#4F4C4D;stroke-width:0.9979;stroke-linecap:round;stroke-linejoin:round;stroke-miterlimit:10;}
	.st5{fill:none;stroke:#4F4C4D;stroke-width:1.0256;stroke-linecap:round;stroke-linejoin:round;stroke-miterlimit:10;}
	.st6{fill:#FFFFFF;stroke:#4F4C4D;stroke-width:1.0256;stroke-linecap:round;stroke-linejoin:round;stroke-miterlimit:10;}
</style>
<g>
	<path class="st0" d="M105.6,11.9c0,1.6,0,8.9,0,8.9c0,1.3-1.2,2.4-2.7,2.4H90.4c-1.5,0-2.7,1-2.7,2.4l-0.1,3c0,1.3-1.2,2.4-2.7,2.4
		l-1.7,0c-1.5,0-2.7,1.1-2.7,2.4v2.4c0,1.3-1.2,2.4-2.7,2.4H76c-1.5,0-8-1.1-8-2.4v-8.3c0-1.3,1.2-2.4,2.7-2.4l10.5,0
		c1.5,0,2.7-1.1,2.7-2.4v-1.2c0-1.3,1.2-2.4,2.7-2.4l3.7-0.1c1.5,0,2.6-1.1,2.7-2.4l0-2.5c0,0,0-0.9,0-2"/>
	<g>
		<path class="st1" d="M103.1,36.1c3.2,0,7.4,0.6,7.4,6s-4.2,6-7.4,6h-2.6V36.1H103.1 M103.1,35h-3.7v14.1h3.7c6.5,0,8.5-3.1,8.5-7
			S109.6,35,103.1,35L103.1,35z"/>
	</g>
	<g>
		<g>
			<path class="st1" d="M103.7,39c3.4,0,3.9,1.6,3.9,3c0,1.4-0.4,3-3.9,3h-2.7V39H103.7 M103.7,38h-3.8v8.2h3.8
				c3.8,0,4.9-1.8,4.9-4.1C108.6,39.8,107.4,38,103.7,38L103.7,38z"/>
		</g>
	</g>
	<g>
		<path class="st2" d="M68.3,22.9H51l0-0.2c0-3.1,2.6-5.6,5.7-5.7c0.9-1.7,2.6-2.8,4.6-2.8c2.6,0,4.8,1.9,5.1,4.5
			c1.3,0.4,2.2,1.7,2.2,3.1c0,0.3,0,0.6-0.1,0.9L68.3,22.9z"/>
	</g>
	<path class="st2" d="M102.1,45.3c0,18-10.6,23.6-23.6,23.6s-23.6-5.6-23.6-23.6v-9c0-0.7,0.6-1.3,1.3-1.3h44.7
		c0.7,0,1.3,0.6,1.3,1.3V45.3z"/>
	<g>
		<path class="st3" d="M97,35v10.3c0,16.8-9.2,22.8-21.1,23.5c0.8,0.1,1.7,0.1,2.6,0.1c13,0,23.6-5.6,23.6-23.6v-8.7
			c0-0.8-0.7-1.5-1.5-1.5H97z"/>
	</g>
	<line class="st4" x1="56.7" y1="39.3" x2="100.3" y2="39.3"/>
	<g>
		<path class="st1" d="M106,69.6c0.4,0,0.8,0.4,0.8,0.8c0,0.4-0.4,0.8-0.8,0.8H54.4c-0.4,0-0.8-0.4-0.8-0.8c0-0.4,0.4-0.8,0.8-0.8
			H106 M106,68.6H54.4c-1,0-1.8,0.8-1.8,1.8c0,1,0.8,1.8,1.8,1.8H106c1,0,1.8-0.8,1.8-1.8C107.8,69.4,107,68.6,106,68.6L106,68.6z"
			/>
	</g>
</g>
<g>
	<g>
		<path class="st1" d="M130.6,13c0.2,0,0.4,0.1,0.4,0.3l0.8,2.1l0.7,1.7c0.1,0.2,0.3,0.3,0.4,0.3c0.1,0,0.3-0.1,0.4-0.2l1.2-1.4
			l1.4-1.7c0.1-0.1,0.2-0.2,0.4-0.2c0.2,0,0.4,0.1,0.4,0.3l0.8,2.1l0.7,1.8c0.1,0.2,0.3,0.3,0.4,0.3c0.1,0,0.3-0.1,0.4-0.2l1.3-1.5
			l1.4-1.7c0.1-0.1,0.2-0.2,0.4-0.2c0.2,0,0.4,0.1,0.4,0.3l0.8,2.1l0.7,1.7c0.1,0.2,0.3,0.3,0.4,0.3c0.1,0,0.3-0.1,0.4-0.2l1.2-1.4
			l1.4-1.7c0.1-0.1,0.2-0.2,0.4-0.2c0.2,0,0.4,0.1,0.4,0.3l0.8,2.1l0.7,1.8c0.1,0.2,0.3,0.3,0.4,0.3c0.1,0,0.3-0.1,0.4-0.2l1.2-1.5
			l1.4-1.7c0.1-0.1,0.2-0.2,0.4-0.2c0.2,0,0.4,0.1,0.4,0.3l0.8,2.1l0.7,1.7c0.1,0.2,0.3,0.3,0.4,0.3c0.1,0,0.3-0.1,0.4-0.2l1.2-1.4
			l1.4-1.7c0.1-0.1,0.2-0.2,0.4-0.2c0.2,0,0.4,0.1,0.4,0.3l0.8,2.1l0.8,2.1c0.1,0.3-0.1,0.6-0.4,0.6c0,0-0.1,0-0.1,0l-2.3-0.4
			l-2.6-0.4l-0.4-0.1l-2.6-0.4l-2.7-0.4l-0.3-0.1l-2.7-0.4l-2.7-0.4l-0.4-0.1l-2.7-0.4l-2.8-0.5l-0.3,0l-2.8-0.5l-2.7-0.4l-0.4-0.1
			l-2.7-0.4l-2.3-0.4c-0.3-0.1-0.5-0.4-0.3-0.7l1.5-1.7l1.4-1.7C130.4,13.1,130.5,13,130.6,13 M130.6,12c-0.4,0-0.8,0.2-1.1,0.5
			l-1.4,1.7l-1.5,1.7c-0.3,0.4-0.4,0.9-0.2,1.4c0.2,0.5,0.6,0.9,1.1,0.9l2.3,0.4l2.7,0.4l0.4,0.1l2.7,0.4l2.8,0.5l0.3,0l2.8,0.5
			l2.7,0.4l0.4,0.1l2.7,0.4l2.7,0.4l0.3,0.1l2.7,0.4l2.6,0.4l0.4,0.1l2.6,0.4l2.3,0.4c0.1,0,0.2,0,0.2,0c0.5,0,0.9-0.2,1.2-0.6
			c0.3-0.4,0.3-0.9,0.1-1.3l-0.8-2.1l-0.8-2.1c-0.2-0.6-0.8-0.9-1.4-0.9c-0.4,0-0.8,0.2-1.1,0.5l-1.4,1.7l-0.6,0.7l-0.3-0.8
			l-0.8-2.1c-0.2-0.6-0.8-0.9-1.4-0.9c-0.4,0-0.8,0.2-1.1,0.5l-1.4,1.7l-0.6,0.8l-0.4-0.9l-0.8-2.1c-0.2-0.6-0.8-0.9-1.4-0.9
			c-0.4,0-0.8,0.2-1.1,0.5l-1.4,1.7l-0.6,0.7l-0.4-0.9l-0.8-2.1c-0.2-0.6-0.8-0.9-1.4-0.9c-0.4,0-0.8,0.2-1.1,0.5l-1.4,1.7l-0.7,0.8
			l-0.4-1l-0.8-2.1c-0.2-0.6-0.8-0.9-1.4-0.9c-0.4,0-0.8,0.2-1.1,0.5l-1.4,1.7l-0.6,0.7l-0.4-0.9l-0.8-2.1
			C131.8,12.4,131.3,12,130.6,12L130.6,12z"/>
	</g>
	<g>
		<path class="st1" d="M120,64.2C120,64.2,120,64.2,120,64.2l2.4,0.4l2.6,0.4l0.4,0.1l2.6,0.4l2.7,0.4L131,66l2.7,0.4l2.7,0.4
			l0.4,0.1l2.7,0.4l2.8,0.5l0.3,0l2.8,0.5l2.7,0.4l0.4,0.1l2.7,0.4l2.3,0.4c0.3,0.1,0.5,0.4,0.3,0.7l-1.5,1.7l-1.4,1.7
			c-0.1,0.1-0.2,0.2-0.4,0.2c-0.2,0-0.4-0.1-0.4-0.3l-0.8-2.1l-0.7-1.7c-0.1-0.2-0.3-0.3-0.4-0.3c-0.1,0-0.3,0.1-0.4,0.2l-1.2,1.4
			l-1.4,1.7c-0.1,0.1-0.2,0.2-0.4,0.2c-0.2,0-0.4-0.1-0.4-0.3l-0.8-2.1l-0.7-1.8c-0.1-0.2-0.3-0.3-0.4-0.3c-0.1,0-0.3,0.1-0.4,0.2
			l-1.3,1.5l-1.4,1.7c-0.1,0.1-0.2,0.2-0.4,0.2c-0.2,0-0.4-0.1-0.4-0.3l-0.8-2.1l-0.7-1.7c-0.1-0.2-0.3-0.3-0.4-0.3
			c-0.1,0-0.3,0.1-0.4,0.2l-1.2,1.4l-1.4,1.7c-0.1,0.1-0.2,0.2-0.4,0.2c-0.2,0-0.4-0.1-0.4-0.3l-0.8-2.1l-0.7-1.8
			c-0.1-0.2-0.3-0.3-0.4-0.3c-0.1,0-0.3,0.1-0.4,0.2l-1.2,1.5l-1.4,1.7c-0.1,0.1-0.2,0.2-0.4,0.2c-0.2,0-0.4-0.1-0.4-0.3l-0.8-2.1
			l-0.7-1.7c-0.1-0.2-0.3-0.3-0.4-0.3c-0.1,0-0.3,0.1-0.4,0.2l-1.2,1.4L122,69c-0.1,0.1-0.2,0.2-0.4,0.2c-0.2,0-0.4-0.1-0.4-0.3
			l-0.8-2.1l-0.8-2.1C119.4,64.5,119.7,64.2,120,64.2 M120,63.2C120,63.2,120,63.2,120,63.2c-0.5,0-0.9,0.2-1.2,0.6
			c-0.3,0.4-0.3,0.9-0.1,1.3l0.8,2.1l0.8,2.1c0.2,0.6,0.8,0.9,1.4,0.9c0.4,0,0.8-0.2,1.1-0.5l1.4-1.7l0.6-0.7l0.3,0.8l0.8,2.1
			c0.2,0.6,0.8,0.9,1.4,0.9c0.4,0,0.8-0.2,1.1-0.5l1.4-1.7l0.6-0.8l0.4,0.9l0.8,2.1c0.2,0.6,0.8,0.9,1.4,0.9c0.4,0,0.8-0.2,1.1-0.5
			l1.4-1.7l0.6-0.7l0.4,0.9l0.8,2.1c0.2,0.6,0.8,0.9,1.4,0.9c0.4,0,0.8-0.2,1.1-0.5l1.4-1.7l0.7-0.8l0.4,1l0.8,2.1
			c0.2,0.6,0.8,0.9,1.4,0.9c0.4,0,0.8-0.2,1.1-0.5l1.4-1.7l0.6-0.7l0.4,0.9L149,74c0.2,0.6,0.8,0.9,1.4,0.9c0.4,0,0.8-0.2,1.1-0.5
			l1.4-1.7l1.5-1.7c0.3-0.4,0.4-0.9,0.2-1.4c-0.2-0.5-0.6-0.9-1.1-0.9l-2.3-0.4l-2.7-0.4l-0.4-0.1l-2.7-0.4l-2.8-0.5l-0.3,0
			l-2.8-0.5l-2.7-0.4l-0.4-0.1l-2.7-0.4l-2.7-0.4l-0.3-0.1l-2.7-0.4l-2.6-0.4l-0.4-0.1l-2.6-0.4l-2.3-0.4
			C120.1,63.2,120,63.2,120,63.2L120,63.2z"/>
	</g>
	<g>
		<path class="st2" d="M153.6,70.1c-0.1,0-0.1,0-0.2,0l-33.6-5.5c-0.3-0.1-0.6-0.3-0.8-0.5c-0.1-0.3-0.2-0.5,0-0.8
			c1.6-3.7,4.5-11.6,6.2-22.4c1.8-10.8,1.5-19.2,1.3-23.2c0-0.2,0.1-0.5,0.2-0.7c0.2-0.2,0.5-0.3,0.8-0.3c0.1,0,0.1,0,0.2,0
			l33.6,5.5c0.4,0.1,0.6,0.3,0.8,0.5c0.1,0.3,0.2,0.5,0,0.8c-1.5,3.7-4.4,11.5-6.2,22.4c-1.8,11-1.6,19.3-1.3,23.2
			c0,0.2-0.1,0.5-0.2,0.7C154.2,69.9,153.9,70.1,153.6,70.1z"/>
		<path class="st2" d="M127.4,17.1L127.4,17.1c0,0,0.1,0,0.1,0l33.6,5.5c0.3,0,0.4,0.2,0.4,0.3c0.1,0.1,0.1,0.2,0,0.3
			c-1.6,3.7-4.4,11.5-6.3,22.6c-1.8,11-1.6,19.4-1.3,23.4c0,0,0,0.1-0.1,0.3c-0.1,0.1-0.2,0.2-0.4,0.2c0,0-0.1,0-0.1,0L119.9,64
			c-0.3,0-0.4-0.2-0.4-0.3c-0.1-0.1-0.1-0.2,0-0.3c1.6-3.8,4.5-11.7,6.3-22.6c1.8-10.9,1.6-19.3,1.3-23.4c0,0,0-0.1,0.1-0.2
			C127.2,17.2,127.3,17.1,127.4,17.1 M127.4,16c-0.9,0-1.7,0.7-1.6,1.6c0.3,3.6,0.5,12.2-1.3,23.1s-4.8,18.9-6.2,22.3
			c-0.4,0.9,0.2,1.9,1.3,2.1l33.6,5.5c0.1,0,0.2,0,0.3,0c0.9,0,1.7-0.7,1.6-1.6c-0.3-3.6-0.6-12,1.3-23.1c1.8-11.1,4.8-19,6.2-22.3
			c0.4-0.9-0.2-1.9-1.3-2.1L127.7,16C127.6,16,127.5,16,127.4,16L127.4,16z"/>
	</g>
	<g>
		<path class="st3" d="M156.4,45.9c1.8-11.1,4.8-19,6.2-22.3c0.4-0.9-0.2-1.9-1.3-2.1l-4.1-0.7c1,0.2,1.7,1.2,1.3,2.1
			c-1.4,3.3-4.4,11.2-6.2,22.3c-1.8,11.1-1.5,19.5-1.3,23.1c0.1,1-0.8,1.8-1.9,1.6l4.1,0.7c1,0.2,2-0.6,1.9-1.6
			C154.9,65.4,154.6,57,156.4,45.9z"/>
	</g>
	<g>
		<path class="st5" d="M160.7,35.4c3.2-2.3,5.3-3.8,5.3-3.8"/>
		<path class="st5" d="M159.9,46.4c2.1,0.3,4.2,0.7,4.2,0.7"/>
		<path class="st5" d="M158,58.1c1.8,2.6,3,4.2,3,4.2"/>
	</g>
	<g>
		<path class="st5" d="M120.2,51c-3.2,2.3-5.3,3.8-5.3,3.8"/>
		<path class="st5" d="M121.1,40c-2.1-0.3-4.2-0.7-4.2-0.7"/>
		<path class="st5" d="M123,28.3c-1.8-2.6-3-4.2-3-4.2"/>
	</g>
	<circle class="st3" cx="140.2" cy="42" r="10.2"/>
	<path class="st6" d="M133.3,45.3c5.6-1.5,5.6,6,8,6.5c1.2,0.3,3.5-0.3,4.2,1.3c0.4,1.1,0,6.3-6.5,5.2
		C131.8,57,127.1,46.9,133.3,45.3z"/>
	<path class="st6" d="M146.5,45.5c-5.7-0.5-3.2-7.5-5.3-8.8c-1.1-0.7-3.4-0.9-3.5-2.7c-0.1-1.1,2.2-5.9,7.9-2.6
		C152,34.9,152.9,46.1,146.5,45.5z"/>
</g>
</svg>
