<?xml version="1.0" encoding="utf-8"?>
<!-- Generator: Adobe Illustrator 26.5.0, SVG Export Plug-In . SVG Version: 6.00 Build 0)  -->
<svg version="1.1" id="Capa_1" xmlns="http://www.w3.org/2000/svg" xmlns:xlink="http://www.w3.org/1999/xlink" x="0px" y="0px"
	 viewBox="0 0 220 84" style="enable-background:new 0 0 220 84;" xml:space="preserve">
<style type="text/css">
	.st0{fill:#46BAEB;}
	.st1{fill:#627680;}
</style>
<g>
	<g>
		<path class="st0" d="M103.1,35.4c1.3,0.6,2.3,1.4,3,2.6c0.7,1.2,1.1,2.7,1.1,4.5c0,1.7-0.4,3.2-1.2,4.5c-0.8,1.3-1.9,2.2-3.4,2.9
			c-1.5,0.7-3.2,1-5.3,1c-2.2,0-4.1-0.4-5.7-1.3c-1.6-0.9-2.9-2.3-3.8-4.1c-0.9-1.9-1.3-4.2-1.3-7c0-3.1,0.5-5.7,1.6-7.8
			c1.1-2.1,2.6-3.7,4.6-4.7c2-1.1,4.5-1.6,7.4-1.6c2.3,0,4.2,0.3,5.7,0.8v5.7c-1.6-0.5-3.4-0.8-5.3-0.8c-2.1,0-3.7,0.5-4.8,1.4
			c-1.1,0.9-1.7,2.4-1.8,4.3c0.7-0.4,1.4-0.7,2.2-0.9c0.8-0.2,1.7-0.3,2.6-0.3C100.4,34.5,101.8,34.8,103.1,35.4z M99.6,44.8
			c0.5-0.5,0.8-1.2,0.8-2.1c0-1-0.3-1.7-0.8-2.1c-0.6-0.5-1.4-0.7-2.4-0.7c-1.2,0-2.3,0.3-3.2,0.9c0.1,1.2,0.2,2.2,0.5,2.9
			c0.3,0.7,0.7,1.2,1.2,1.5c0.5,0.3,1.1,0.4,1.8,0.4C98.3,45.5,99,45.3,99.6,44.8z"/>
	</g>
	<path class="st0" d="M85.9,13c0.5,0.2,0.8,0.5,1,0.9c0.2,0.4,0.3,1,0.3,1.7v4.2h-1.7l-0.1-0.7h-0.1c-0.2,0.3-0.5,0.5-0.8,0.6
		c-0.3,0.1-0.7,0.2-1.1,0.2c-0.5,0-0.9-0.1-1.2-0.3c-0.3-0.2-0.6-0.4-0.8-0.7c-0.2-0.3-0.3-0.7-0.3-1.1c0-0.7,0.2-1.2,0.7-1.6
		c0.5-0.4,1.2-0.6,2.2-0.6l1.1-0.1v-0.1c0-0.3-0.1-0.6-0.2-0.8c-0.1-0.2-0.3-0.3-0.5-0.4c-0.2-0.1-0.5-0.1-0.9-0.1
		c-0.3,0-0.6,0-0.9,0.1c-0.3,0-0.7,0.1-1,0.2V13c0.3-0.1,0.7-0.2,1.1-0.2c0.4-0.1,0.8-0.1,1.2-0.1C84.8,12.7,85.4,12.8,85.9,13
		 M84.8,18.4c0.2-0.1,0.4-0.2,0.5-0.3v-1.3l-0.9,0.1c-0.4,0-0.7,0.1-0.8,0.3c-0.2,0.1-0.3,0.4-0.3,0.6c0,0.3,0.1,0.5,0.2,0.6
		c0.2,0.1,0.4,0.2,0.7,0.2C84.4,18.5,84.6,18.4,84.8,18.4"/>
	<path class="st0" d="M88.4,9.4h2v4h0.1c0.2-0.3,0.5-0.5,0.8-0.6c0.3-0.1,0.7-0.2,1.1-0.2c0.7,0,1.2,0.2,1.7,0.7
		c0.4,0.4,0.6,1.1,0.6,2.1v4.4h-2v-4.2c0-0.4-0.1-0.7-0.2-0.9c-0.2-0.2-0.4-0.3-0.7-0.3c-0.2,0-0.5,0-0.7,0.1
		c-0.2,0.1-0.4,0.2-0.6,0.4v4.8h-2V9.4z"/>
	<path class="st0" d="M97.1,19.5c-0.5-0.3-0.9-0.7-1.2-1.2c-0.3-0.5-0.4-1.2-0.4-2c0-1.2,0.3-2.1,0.9-2.7c0.6-0.6,1.4-0.9,2.5-0.9
		c1.1,0,1.9,0.3,2.5,0.9c0.6,0.6,0.9,1.5,0.9,2.7c0,0.8-0.1,1.5-0.4,2c-0.3,0.5-0.7,0.9-1.2,1.2c-0.5,0.3-1.1,0.4-1.8,0.4
		C98.2,19.9,97.6,19.8,97.1,19.5 M99.6,18.2c0.2-0.1,0.3-0.3,0.5-0.6c0.1-0.3,0.2-0.7,0.2-1.2c0-0.5-0.1-0.9-0.2-1.2
		c-0.1-0.3-0.3-0.5-0.5-0.7c-0.2-0.1-0.4-0.2-0.7-0.2c-0.3,0-0.5,0.1-0.7,0.2c-0.2,0.1-0.3,0.3-0.5,0.6c-0.1,0.3-0.2,0.7-0.2,1.2
		c0,0.5,0.1,0.9,0.2,1.2c0.1,0.3,0.3,0.5,0.5,0.6c0.2,0.1,0.4,0.2,0.7,0.2C99.2,18.4,99.4,18.3,99.6,18.2"/>
	<path class="st0" d="M103.1,12.8h1.7l0.2,0.9h0.1c0.2-0.3,0.4-0.6,0.8-0.8c0.3-0.2,0.7-0.2,1.1-0.2c0.2,0,0.4,0,0.6,0.1v1.8
		c-0.2,0-0.4-0.1-0.7-0.1c-0.3,0-0.6,0.1-0.9,0.2c-0.3,0.1-0.5,0.3-0.7,0.5v4.6h-2V12.8z"/>
	<path class="st0" d="M112.5,13c0.5,0.2,0.8,0.5,1,0.9c0.2,0.4,0.3,1,0.3,1.7v4.2h-1.7l-0.1-0.7H112c-0.2,0.3-0.5,0.5-0.8,0.6
		c-0.3,0.1-0.7,0.2-1.1,0.2c-0.5,0-0.9-0.1-1.2-0.3c-0.3-0.2-0.6-0.4-0.8-0.7c-0.2-0.3-0.3-0.7-0.3-1.1c0-0.7,0.2-1.2,0.7-1.6
		c0.5-0.4,1.2-0.6,2.2-0.6l1.1-0.1v-0.1c0-0.3-0.1-0.6-0.2-0.8c-0.1-0.2-0.3-0.3-0.5-0.4c-0.2-0.1-0.5-0.1-0.9-0.1
		c-0.3,0-0.6,0-0.9,0.1c-0.3,0-0.7,0.1-1,0.2V13c0.3-0.1,0.7-0.2,1.1-0.2c0.4-0.1,0.8-0.1,1.2-0.1C111.4,12.7,112,12.8,112.5,13
		 M111.4,18.4c0.2-0.1,0.4-0.2,0.5-0.3v-1.3l-0.9,0.1c-0.4,0-0.7,0.1-0.8,0.3c-0.2,0.1-0.3,0.4-0.3,0.6c0,0.3,0.1,0.5,0.2,0.6
		c0.2,0.1,0.4,0.2,0.7,0.2C111,18.5,111.2,18.4,111.4,18.4"/>
	<path class="st0" d="M95.8,74L82.3,60.1c-1.6-1.6-0.3-4.2,2-4.2h26.9c2.3,0,3.6,2.6,2,4.2L99.8,74C98.7,75.1,96.9,75.1,95.8,74"/>
</g>
<g>
	<path class="st0" d="M138.5,12.8c0.5,0.2,0.8,0.5,1.1,0.9c0.2,0.4,0.3,1,0.3,1.8v4.2h-1.7L138,19h-0.1c-0.2,0.3-0.5,0.5-0.8,0.6
		c-0.3,0.1-0.7,0.2-1.1,0.2c-0.5,0-0.9-0.1-1.2-0.3c-0.3-0.2-0.6-0.4-0.8-0.7c-0.2-0.3-0.3-0.7-0.3-1.1c0-0.7,0.2-1.2,0.7-1.6
		c0.5-0.4,1.2-0.6,2.2-0.7l1.1-0.1v-0.1c0-0.3-0.1-0.6-0.2-0.8c-0.1-0.2-0.3-0.3-0.5-0.4c-0.2-0.1-0.5-0.1-0.9-0.1
		c-0.3,0-0.6,0-0.9,0.1c-0.3,0-0.7,0.1-1,0.2v-1.5c0.3-0.1,0.7-0.2,1.1-0.2c0.4-0.1,0.8-0.1,1.2-0.1C137.4,12.5,138,12.6,138.5,12.8
		 M137.3,18.3c0.2-0.1,0.4-0.2,0.5-0.3v-1.3l-0.9,0.1c-0.4,0-0.7,0.1-0.8,0.3c-0.2,0.1-0.3,0.4-0.3,0.6c0,0.3,0.1,0.5,0.2,0.6
		c0.2,0.1,0.4,0.2,0.7,0.2C136.9,18.4,137.1,18.3,137.3,18.3"/>
	<path class="st0" d="M141,9.2h2.1v4.1h0.1c0.2-0.3,0.5-0.5,0.9-0.6c0.3-0.1,0.7-0.2,1.1-0.2c0.7,0,1.3,0.2,1.7,0.7
		c0.4,0.4,0.6,1.1,0.6,2.1v4.4h-2.1v-4.3c0-0.4-0.1-0.7-0.3-0.9c-0.2-0.2-0.4-0.3-0.7-0.3c-0.2,0-0.5,0-0.7,0.1
		c-0.2,0.1-0.4,0.2-0.6,0.4v4.8H141V9.2z"/>
	<path class="st0" d="M149.7,19.4c-0.5-0.3-0.9-0.7-1.2-1.2c-0.3-0.5-0.4-1.2-0.4-2c0-1.2,0.3-2.1,0.9-2.7c0.6-0.6,1.4-0.9,2.5-0.9
		c1.1,0,1.9,0.3,2.5,0.9c0.6,0.6,0.9,1.5,0.9,2.7c0,0.8-0.1,1.5-0.4,2c-0.3,0.5-0.7,1-1.2,1.2c-0.5,0.3-1.1,0.4-1.8,0.4
		C150.9,19.8,150.2,19.7,149.7,19.4 M152.3,18c0.2-0.1,0.3-0.3,0.5-0.6c0.1-0.3,0.2-0.7,0.2-1.2c0-0.5-0.1-0.9-0.2-1.3
		c-0.1-0.3-0.3-0.5-0.5-0.7c-0.2-0.1-0.5-0.2-0.8-0.2c-0.3,0-0.6,0.1-0.8,0.2c-0.2,0.1-0.4,0.3-0.5,0.6c-0.1,0.3-0.2,0.7-0.2,1.2
		c0,0.5,0.1,0.9,0.2,1.2c0.1,0.3,0.3,0.5,0.5,0.7c0.2,0.1,0.4,0.2,0.8,0.2C151.9,18.2,152.1,18.2,152.3,18"/>
	<path class="st0" d="M155.8,12.6h1.7l0.2,0.9h0.1c0.2-0.3,0.5-0.6,0.8-0.8c0.3-0.2,0.7-0.2,1.1-0.2c0.2,0,0.4,0,0.6,0.1v1.9
		c-0.2,0-0.4-0.1-0.7-0.1c-0.3,0-0.6,0.1-0.9,0.2c-0.3,0.1-0.5,0.3-0.7,0.5v4.6h-2.1V12.6z"/>
	<path class="st0" d="M165.3,12.8c0.5,0.2,0.8,0.5,1.1,0.9c0.2,0.4,0.3,1,0.3,1.8v4.2H165l-0.1-0.7h-0.1c-0.2,0.3-0.5,0.5-0.8,0.6
		c-0.3,0.1-0.7,0.2-1.1,0.2c-0.5,0-0.9-0.1-1.2-0.3c-0.3-0.2-0.6-0.4-0.8-0.7c-0.2-0.3-0.3-0.7-0.3-1.1c0-0.7,0.2-1.2,0.7-1.6
		c0.5-0.4,1.2-0.6,2.2-0.7l1.1-0.1v-0.1c0-0.3-0.1-0.6-0.2-0.8c-0.1-0.2-0.3-0.3-0.5-0.4c-0.2-0.1-0.5-0.1-0.9-0.1
		c-0.3,0-0.6,0-0.9,0.1c-0.3,0-0.7,0.1-1,0.2v-1.5c0.3-0.1,0.7-0.2,1.1-0.2c0.4-0.1,0.8-0.1,1.2-0.1
		C164.2,12.5,164.8,12.6,165.3,12.8 M164.2,18.3c0.2-0.1,0.4-0.2,0.5-0.3v-1.3l-0.9,0.1c-0.4,0-0.7,0.1-0.8,0.3
		c-0.2,0.1-0.3,0.4-0.3,0.6c0,0.3,0.1,0.5,0.2,0.6c0.2,0.1,0.4,0.2,0.7,0.2C163.8,18.4,164,18.3,164.2,18.3"/>
	<polygon class="st0" points="141.1,24.9 145.8,24.9 145.8,49.8 138.5,49.8 138.5,33.3 133.2,36.9 133.2,30.2 	"/>
	<path class="st0" d="M166.7,43.8v6h-17.6v-3.9l6.7-7.9c0.9-1.1,1.6-2.1,2-2.9c0.4-0.8,0.6-1.5,0.6-2.2c0-0.8-0.3-1.5-0.9-1.9
		c-0.6-0.4-1.7-0.6-3.1-0.6c-1,0-1.9,0.1-2.9,0.3c-1,0.2-1.9,0.4-2.6,0.7v-5.8c0.8-0.3,1.8-0.5,3-0.7c1.2-0.2,2.4-0.3,3.4-0.3
		c3.5,0,6.1,0.6,7.8,1.8c1.7,1.2,2.6,3.1,2.6,5.7c0,1.3-0.3,2.5-0.8,3.8c-0.5,1.2-1.4,2.6-2.6,4l-3.4,3.9H166.7z"/>
	<path class="st0" d="M148.4,73.9l-13.6-14c-1.6-1.6-0.3-4.2,2-4.2H164c2.3,0,3.6,2.6,2,4.2l-13.6,14C151.4,75,149.5,75,148.4,73.9"
		/>
</g>
<g>
	<path class="st0" d="M34.9,12.8c0.5,0.2,0.8,0.5,1,0.9c0.2,0.4,0.3,1,0.3,1.7v4.2h-1.7l-0.1-0.7h-0.1c-0.2,0.3-0.5,0.5-0.8,0.6
		c-0.3,0.1-0.7,0.2-1.1,0.2c-0.5,0-0.9-0.1-1.2-0.3c-0.3-0.2-0.6-0.4-0.8-0.7c-0.2-0.3-0.3-0.7-0.3-1.1c0-0.7,0.2-1.2,0.7-1.6
		c0.5-0.4,1.2-0.6,2.2-0.6l1.1-0.1v-0.1c0-0.3-0.1-0.6-0.2-0.8c-0.1-0.2-0.3-0.3-0.5-0.4c-0.2-0.1-0.5-0.1-0.9-0.1
		c-0.3,0-0.6,0-0.9,0.1c-0.3,0-0.7,0.1-1,0.2v-1.5c0.3-0.1,0.7-0.2,1.1-0.2c0.4-0.1,0.8-0.1,1.2-0.1C33.8,12.5,34.4,12.6,34.9,12.8
		 M33.7,18.2c0.2-0.1,0.4-0.2,0.5-0.3v-1.3l-0.9,0.1c-0.4,0-0.7,0.1-0.8,0.3c-0.2,0.1-0.3,0.4-0.3,0.6c0,0.3,0.1,0.5,0.2,0.6
		c0.2,0.1,0.4,0.2,0.7,0.2C33.4,18.3,33.6,18.3,33.7,18.2"/>
	<path class="st0" d="M37.3,9.3h2v4h0.1c0.2-0.3,0.5-0.5,0.8-0.6c0.3-0.1,0.7-0.2,1.1-0.2c0.7,0,1.2,0.2,1.7,0.7
		c0.4,0.4,0.6,1.1,0.6,2.1v4.4h-2v-4.2c0-0.4-0.1-0.7-0.2-0.9c-0.2-0.2-0.4-0.3-0.7-0.3c-0.2,0-0.5,0-0.7,0.1
		c-0.2,0.1-0.4,0.2-0.6,0.4v4.8h-2V9.3z"/>
	<path class="st0" d="M46,19.4c-0.5-0.3-0.9-0.7-1.2-1.2c-0.3-0.5-0.4-1.2-0.4-2c0-1.2,0.3-2.1,0.9-2.7c0.6-0.6,1.4-0.9,2.5-0.9
		c1.1,0,1.9,0.3,2.5,0.9c0.6,0.6,0.9,1.5,0.9,2.7c0,0.8-0.1,1.5-0.4,2c-0.3,0.5-0.7,0.9-1.2,1.2c-0.5,0.3-1.1,0.4-1.8,0.4
		C47.2,19.8,46.6,19.6,46,19.4 M48.6,18c0.2-0.1,0.3-0.3,0.5-0.6c0.1-0.3,0.2-0.7,0.2-1.2c0-0.5-0.1-0.9-0.2-1.2
		c-0.1-0.3-0.3-0.5-0.5-0.7c-0.2-0.1-0.4-0.2-0.7-0.2c-0.3,0-0.5,0.1-0.7,0.2c-0.2,0.1-0.3,0.3-0.5,0.6c-0.1,0.3-0.2,0.7-0.2,1.2
		c0,0.5,0.1,0.9,0.2,1.2c0.1,0.3,0.3,0.5,0.5,0.6c0.2,0.1,0.4,0.2,0.7,0.2C48.2,18.2,48.4,18.1,48.6,18"/>
	<path class="st0" d="M52.1,12.6h1.7l0.2,0.9H54c0.2-0.3,0.4-0.6,0.8-0.8c0.3-0.2,0.7-0.2,1.1-0.2c0.2,0,0.4,0,0.6,0.1v1.8
		c-0.2,0-0.4-0.1-0.7-0.1c-0.3,0-0.6,0.1-0.9,0.2c-0.3,0.1-0.5,0.3-0.7,0.5v4.6h-2V12.6z"/>
	<path class="st0" d="M61.5,12.8c0.5,0.2,0.8,0.5,1,0.9c0.2,0.4,0.3,1,0.3,1.7v4.2h-1.7L61,18.9h-0.1c-0.2,0.3-0.5,0.5-0.8,0.6
		c-0.3,0.1-0.7,0.2-1.1,0.2c-0.5,0-0.9-0.1-1.2-0.3c-0.3-0.2-0.6-0.4-0.8-0.7c-0.2-0.3-0.3-0.7-0.3-1.1c0-0.7,0.2-1.2,0.7-1.6
		c0.5-0.4,1.2-0.6,2.2-0.6l1.1-0.1v-0.1c0-0.3-0.1-0.6-0.2-0.8c-0.1-0.2-0.3-0.3-0.5-0.4c-0.2-0.1-0.5-0.1-0.9-0.1
		c-0.3,0-0.6,0-0.9,0.1c-0.3,0-0.7,0.1-1,0.2v-1.5c0.3-0.1,0.7-0.2,1.1-0.2c0.4-0.1,0.8-0.1,1.2-0.1C60.4,12.5,61,12.6,61.5,12.8
		 M60.3,18.2c0.2-0.1,0.4-0.2,0.5-0.3v-1.3l-0.9,0.1c-0.4,0-0.7,0.1-0.8,0.3c-0.2,0.1-0.3,0.4-0.3,0.6c0,0.3,0.1,0.5,0.2,0.6
		c0.2,0.1,0.4,0.2,0.7,0.2C59.9,18.3,60.1,18.3,60.3,18.2"/>
	<path class="st0" d="M55.4,38.9c0.9,1,1.3,2.3,1.3,4c0,2.4-0.9,4.3-2.8,5.7c-1.9,1.3-4.7,2-8.4,2c-2.4,0-4.8-0.3-7-0.8v-5.5
		c1,0.3,2.1,0.5,3.3,0.6c1.2,0.2,2.3,0.2,3.4,0.2c1.6,0,2.7-0.2,3.4-0.6c0.7-0.4,1-1.1,1-2c0-0.9-0.3-1.5-1-1.9
		c-0.7-0.4-1.9-0.6-3.5-0.6h-4.2v-5.6h3.8c1.5,0,2.5-0.2,3.1-0.6c0.6-0.4,0.9-1,0.9-1.7c0-0.8-0.3-1.4-0.9-1.8
		c-0.6-0.4-1.6-0.6-3-0.6c-1,0-2,0.1-3.1,0.3c-1.1,0.2-2,0.4-2.9,0.7V25c0.9-0.3,1.9-0.5,3.2-0.7c1.3-0.2,2.5-0.3,3.6-0.3
		c3.4,0,6,0.6,7.7,1.8c1.7,1.2,2.6,3,2.6,5.3c0,1.4-0.4,2.6-1.1,3.6c-0.7,1-1.7,1.7-3,2.1C53.3,37.3,54.5,37.9,55.4,38.9"/>
	<path class="st0" d="M44.8,73.8L31.3,59.9c-1.6-1.6-0.3-4.2,2-4.2h26.9c2.3,0,3.6,2.6,2,4.2L48.8,73.8
		C47.7,74.9,45.8,74.9,44.8,73.8"/>
</g>
<g>
	<path class="st1" d="M205.5,48.4l-1.3,0.4c0,0-0.1,0.1-0.1,0.1v1.8c0,0,0,0.1,0.1,0.1l1.3,0.4c0,0,0.1,0.1,0.1,0.1V52
		c0,0.1-0.1,0.1-0.1,0.1l-4.8-1.6c0,0-0.1-0.1-0.1-0.1v-1.2c0,0,0-0.1,0.1-0.1l4.8-1.6c0.1,0,0.1,0,0.1,0.1v0.7
		C205.5,48.3,205.5,48.4,205.5,48.4 M203.4,50.4v-1.2c0-0.1-0.1-0.1-0.1-0.1l-1.8,0.6c-0.1,0-0.1,0.2,0,0.2l1.8,0.6
		C203.3,50.5,203.4,50.5,203.4,50.4"/>
	<path class="st1" d="M201.8,46.9v-0.5c0-0.1,0-0.1,0.1-0.1l0.4-0.1v0c-0.2-0.1-0.3-0.3-0.4-0.4c-0.1-0.2-0.1-0.4-0.1-0.6
		c0-0.1,0-0.1,0-0.2c0-0.1,0.1-0.1,0.1-0.1h0.6c0.1,0,0.1,0.1,0.1,0.1c0,0.1,0,0.1,0,0.2c0,0.2,0,0.4,0.1,0.5
		c0.1,0.2,0.2,0.3,0.3,0.4c0,0,0,0,0.1,0h2.4c0.1,0,0.1,0,0.1,0.1v0.7c0,0.1,0,0.1-0.1,0.1h-3.5C201.9,47,201.8,46.9,201.8,46.9"/>
	<path class="st1" d="M207.1,43.7c0,0.2-0.1,0.3-0.1,0.5c0,0-0.1,0.1-0.1,0.1h-0.5c-0.1,0-0.1-0.1-0.1-0.1c0.1-0.3,0.1-0.7,0.1-1
		c0-0.3,0-0.5-0.1-0.6c-0.1-0.2-0.2-0.3-0.3-0.4c-0.1-0.1-0.3-0.1-0.6-0.1h-0.3v0c0.1,0.1,0.2,0.3,0.3,0.4c0.1,0.2,0.1,0.4,0.1,0.6
		c0,0.3-0.1,0.5-0.2,0.7c-0.1,0.2-0.3,0.4-0.6,0.5c-0.3,0.1-0.6,0.2-1,0.2c-0.7,0-1.1-0.2-1.5-0.5c-0.3-0.3-0.5-0.8-0.5-1.5
		c0-0.2,0-0.5,0.1-0.7c0-0.2,0.1-0.4,0.1-0.6c0,0,0.1-0.1,0.1-0.1h3.2c0.4,0,0.8,0.1,1,0.2c0.3,0.1,0.5,0.3,0.6,0.6
		c0.1,0.3,0.2,0.6,0.2,1.1C207.1,43.3,207.1,43.5,207.1,43.7 M204.8,42.4c0-0.1-0.1-0.2-0.2-0.3c0,0,0,0-0.1,0h-1.9
		c-0.1,0-0.1,0-0.1,0.1c0,0.1,0,0.3,0,0.4c0,0.4,0.1,0.6,0.3,0.8c0.2,0.2,0.5,0.3,0.9,0.3c0.4,0,0.7-0.1,0.9-0.2
		c0.2-0.1,0.3-0.4,0.3-0.6C204.8,42.7,204.8,42.5,204.8,42.4"/>
	<path class="st1" d="M203.9,37.4v2.1c0,0.1,0.1,0.1,0.1,0.1c0.2,0,0.3-0.1,0.5-0.1c0.1-0.1,0.2-0.2,0.3-0.4
		c0.1-0.2,0.1-0.4,0.1-0.7c0-0.2,0-0.5-0.1-0.8c0-0.1,0-0.1,0.1-0.1h0.5c0.1,0,0.1,0,0.1,0.1c0.1,0.3,0.1,0.7,0.1,1
		c0,0.4-0.1,0.8-0.2,1.1c-0.1,0.3-0.3,0.5-0.6,0.6c-0.3,0.1-0.6,0.2-1.1,0.2c-0.4,0-0.8-0.1-1.1-0.2c-0.3-0.1-0.5-0.3-0.6-0.6
		c-0.1-0.2-0.2-0.5-0.2-0.9c0-0.5,0.2-0.9,0.5-1.2c0.3-0.3,0.8-0.4,1.5-0.4h0.1C203.9,37.3,203.9,37.3,203.9,37.4 M202.6,39.4
		c0.1,0.1,0.4,0.2,0.7,0.2c0.1,0,0.1,0,0.1-0.1v-1.2c0-0.1-0.1-0.1-0.1-0.1c-0.3,0-0.6,0.1-0.7,0.2c-0.2,0.1-0.2,0.3-0.2,0.5
		C202.3,39.1,202.4,39.3,202.6,39.4"/>
	<path class="st1" d="M201.8,36.5V36c0-0.1,0-0.1,0.1-0.1l0.3,0v0c-0.1-0.1-0.3-0.3-0.3-0.5c-0.1-0.2-0.1-0.4-0.1-0.6
		c0-0.4,0.1-0.7,0.3-0.9c0.2-0.2,0.6-0.3,1.1-0.3h2.3c0.1,0,0.1,0,0.1,0.1v0.7c0,0.1,0,0.1-0.1,0.1h-2.2c-0.2,0-0.4,0.1-0.5,0.2
		c-0.1,0.1-0.2,0.3-0.2,0.5c0,0.1,0,0.3,0.1,0.4c0.1,0.1,0.1,0.2,0.2,0.3c0,0,0,0,0.1,0h2.5c0.1,0,0.1,0,0.1,0.1v0.7
		c0,0.1,0,0.1-0.1,0.1h-3.5C201.9,36.6,201.8,36.6,201.8,36.5"/>
	<path class="st1" d="M204.9,30.4h0.5c0.1,0,0.1,0,0.1,0.1c0,0.2,0.1,0.4,0.1,0.6c0,0.9-0.4,1.3-1.3,1.3h-1.6c-0.1,0-0.1,0-0.1,0.1
		v0.4c0,0.1,0,0.1-0.1,0.1h-0.5c-0.1,0-0.1,0-0.1-0.1v-0.4c0-0.1,0-0.1-0.1-0.1l-1.1-0.1c-0.1,0-0.1-0.1-0.1-0.1v-0.5
		c0-0.1,0-0.1,0.1-0.1h1.1c0.1,0,0.1,0,0.1-0.1v-0.8c0-0.1,0-0.1,0.1-0.1h0.5c0.1,0,0.1,0,0.1,0.1v0.8c0,0.1,0,0.1,0.1,0.1h1.5
		c0.2,0,0.3,0,0.4-0.1c0.1,0,0.2-0.1,0.2-0.2c0-0.1,0.1-0.2,0.1-0.4c0-0.1,0-0.2,0-0.3C204.8,30.4,204.9,30.4,204.9,30.4"/>
	<path class="st1" d="M201.1,29.7c-0.1,0.1-0.2,0.1-0.4,0.1s-0.3,0-0.4-0.1c-0.1-0.1-0.1-0.2-0.1-0.4c0-0.2,0-0.3,0.1-0.4
		c0.1-0.1,0.2-0.1,0.4-0.1s0.3,0,0.4,0.1c0.1,0.1,0.1,0.2,0.1,0.4C201.2,29.5,201.1,29.6,201.1,29.7 M205.4,29.7h-3.5
		c-0.1,0-0.1,0-0.1-0.1v-0.7c0-0.1,0-0.1,0.1-0.1h3.5c0.1,0,0.1,0,0.1,0.1v0.7C205.5,29.7,205.5,29.7,205.4,29.7"/>
	<path class="st1" d="M201.8,28v-0.5c0-0.1,0-0.1,0.1-0.1l0.3,0v0c-0.1-0.1-0.3-0.3-0.3-0.5c-0.1-0.2-0.1-0.4-0.1-0.6
		c0-0.4,0.1-0.7,0.3-0.9c0.2-0.2,0.6-0.3,1.1-0.3h2.3c0.1,0,0.1,0,0.1,0.1v0.7c0,0.1,0,0.1-0.1,0.1h-2.2c-0.2,0-0.4,0.1-0.5,0.2
		c-0.1,0.1-0.2,0.3-0.2,0.5c0,0.1,0,0.3,0.1,0.4c0.1,0.1,0.1,0.2,0.2,0.3c0,0,0,0,0.1,0h2.5c0.1,0,0.1,0,0.1,0.1V28
		c0,0.1,0,0.1-0.1,0.1h-3.5C201.9,28.1,201.8,28.1,201.8,28"/>
	<path class="st1" d="M201.9,21.9c0.1-0.2,0.2-0.4,0.5-0.5c0.2-0.1,0.5-0.2,0.9-0.2h2.2c0.1,0,0.1,0,0.1,0.1v0.5
		c0,0.1,0,0.1-0.1,0.1l-0.3,0v0c0.1,0.1,0.3,0.3,0.3,0.4c0.1,0.2,0.1,0.4,0.1,0.6c0,0.2,0,0.5-0.1,0.6c-0.1,0.2-0.2,0.3-0.4,0.4
		c-0.2,0.1-0.3,0.1-0.6,0.1c-0.3,0-0.6-0.1-0.8-0.4c-0.2-0.2-0.3-0.6-0.3-1.1l-0.1-0.7h-0.1c-0.2,0-0.3,0-0.4,0.1
		c-0.1,0.1-0.2,0.2-0.2,0.3c0,0.1-0.1,0.3-0.1,0.5c0,0.2,0,0.3,0,0.5c0,0.1,0,0.3,0.1,0.4c0,0.1,0,0.1-0.1,0.1H202
		c0,0-0.1,0-0.1-0.1c0-0.1-0.1-0.3-0.1-0.5c0-0.2,0-0.4,0-0.6C201.8,22.4,201.8,22.1,201.9,21.9 M204.9,22.4c0-0.1-0.1-0.2-0.2-0.3
		c0,0,0,0-0.1,0H204c-0.1,0-0.1,0.1-0.1,0.1l0,0.5c0,0.2,0.1,0.4,0.2,0.5c0.1,0.1,0.2,0.2,0.4,0.2c0.2,0,0.3,0,0.4-0.1
		c0.1-0.1,0.1-0.2,0.1-0.4C205,22.7,204.9,22.5,204.9,22.4"/>
	<path class="st1" d="M203.6,57.4L203.6,57.4L203.6,57.4c0.1,0,0.3,0,0.4,0c0.4,0,0.4,0.1,0.4,0.1c0,0,0,0,0.1,0c0,0,0,0,0,0
		c0,0,0,0,0,0c0,0,0,0,0,0c0,0-0.1-0.2-0.5-0.3c0,0-0.2,0-0.4,0C203.5,57.2,203.5,57.4,203.6,57.4C203.5,57.4,203.5,57.4,203.6,57.4
		C203.5,57.4,203.5,57.4,203.6,57.4"/>
	<path class="st1" d="M202.9,57.6L202.9,57.6c-0.1,0-0.3,0-0.3,0c-0.3,0-0.4,0.2-0.4,0.2c0,0,0,0,0,0c0,0,0,0,0,0c0.1,0,0.1,0,0.1,0
		c0,0,0-0.1,0.2-0.1c0,0,0,0,0,0c0,0,0,0,0,0c0,0,0,0,0,0.1c0,0.1,0.1,0.2,0.2,0.2c0.1,0,0.2-0.1,0.2-0.2c0,0,0,0,0-0.1c0,0,0,0,0,0
		c0,0,0,0,0,0c0.1,0,0.1,0.1,0.1,0.1c0,0,0,0,0.1,0c0,0,0,0,0,0c0,0,0,0,0,0C203,57.6,202.9,57.6,202.9,57.6"/>
	<path class="st1" d="M203.5,57.8C203.6,57.8,203.6,57.8,203.5,57.8c0.1-0.1,0.2-0.1,0.2-0.1c0,0,0,0,0,0c0,0,0,0,0,0c0,0,0,0,0,0.1
		c0,0.1,0.1,0.2,0.2,0.2c0.1,0,0.2-0.1,0.2-0.2c0,0,0,0,0-0.1c0,0,0,0,0,0c0,0,0,0,0,0c0.1,0,0.2,0.1,0.2,0.1c0,0,0,0,0.1,0
		c0,0,0,0,0,0c0,0,0,0,0,0c0,0-0.1-0.2-0.4-0.2c0,0-0.2,0-0.3,0C203.6,57.6,203.5,57.6,203.5,57.8C203.5,57.8,203.5,57.8,203.5,57.8
		C203.5,57.8,203.5,57.8,203.5,57.8"/>
	<path class="st1" d="M202.1,57.5L202.1,57.5C202.1,57.5,202.1,57.5,202.1,57.5C202.1,57.6,202.1,57.6,202.1,57.5
		C202.2,57.6,202.2,57.5,202.1,57.5c0.1,0,0.2-0.2,0.9-0.1c0,0,0,0,0,0c0,0,0,0,0,0c0,0,0-0.1-0.1-0.1c-0.1,0-0.2,0-0.3,0
		c-0.1,0-0.2,0-0.2,0C202.2,57.3,202.1,57.5,202.1,57.5C202.1,57.5,202.1,57.5,202.1,57.5C202.1,57.5,202.1,57.5,202.1,57.5"/>
	<path class="st1" d="M208.3,65.5C208.3,65.4,208.3,65.4,208.3,65.5C208.2,65.4,208.2,65.4,208.3,65.5c-0.1-0.1-0.1-0.2,0-0.2
		c0.1-0.2,0.1-0.4,0.1-0.6c0,0,0-0.1,0-0.1c0,0,0,0-0.1,0c0,0,0-0.1,0-0.1c0-0.2,0.1-0.4,0-0.6c0,0,0-0.1,0-0.1c0,0,0,0-0.1,0
		c0,0,0-0.1,0-0.1c0-0.2,0-0.4,0-0.6c0,0,0-0.1,0-0.1c0,0,0,0,0,0c0,0,0-0.1,0-0.1c0-0.2,0-0.4,0-0.6c0,0,0,0-0.1-0.1
		c0,0-0.1,0-0.1,0c0,0,0,0,0,0c0,0,0-0.1,0-0.1c0-0.2,0-0.4-0.1-0.6c0,0,0,0-0.1-0.1c0,0,0,0-0.1,0c0,0,0-0.1,0-0.1
		c0-0.2-0.1-0.4-0.2-0.6c0,0,0,0-0.1,0c0,0,0,0-0.1,0c0,0,0-0.1,0-0.1c0-0.2-0.1-0.4-0.2-0.5c0,0,0,0-0.1,0c0,0-0.1,0-0.1,0
		c0,0,0,0,0,0c0,0,0-0.1-0.1-0.1c-0.1-0.2-0.2-0.3-0.3-0.5c0,0,0,0-0.1,0c0,0,0,0-0.1,0c0,0,0-0.1-0.1-0.1c-0.1-0.2-0.2-0.3-0.4-0.4
		c0,0-0.1,0-0.1,0c0,0,0,0,0,0c-0.1-0.1-0.2-0.2-0.4-0.3c0,0,0,0,0.1,0c0.2,0,0.4,0,0.4,0c0.1,0,0.1-0.1,0.1-0.1
		c0-0.1-0.1-0.1-0.1-0.1c-0.3,0-0.4-0.1-0.5-0.1c0,0,0,0,0,0l0.6-0.1c0.1,0,0.1-0.1,0.1-0.1c0-0.1,0-0.1-0.1-0.1l-0.5-0.1
		c0.1,0,0.1,0,0.2-0.1c0.2-0.1,0.4-0.2,0.4-0.2c0,0,0.1-0.1,0-0.2c0-0.1-0.1-0.1-0.1-0.1c-0.2,0.1-0.3,0.1-0.5,0.1c0,0,0,0,0,0
		l0.5-0.3c0.1,0,0.1-0.1,0.1-0.2c0-0.1-0.1-0.1-0.1-0.1l-0.5,0.1c0,0,0.1-0.1,0.1-0.1c0.2-0.2,0.3-0.3,0.3-0.3c0-0.1,0-0.1,0-0.2
		c0,0-0.1,0-0.2,0c-0.2,0.2-0.3,0.2-0.4,0.2c0,0,0,0,0,0l0.3-0.5c0,0,0-0.1,0-0.2c0,0-0.1,0-0.2,0l-0.4,0.3c0-0.1,0.1-0.1,0.1-0.2
		c0.1-0.2,0.1-0.4,0.1-0.4c0-0.1,0-0.1-0.1-0.1c-0.1,0-0.1,0-0.1,0.1c-0.1,0.2-0.2,0.3-0.3,0.4c0,0,0,0,0,0l0.1-0.6
		c0-0.1,0-0.1-0.1-0.1c-0.1,0-0.1,0-0.2,0.1l-0.3,0.5c0-0.1,0-0.1,0-0.2c0-0.2,0-0.4,0-0.4c0-0.1-0.1-0.1-0.1-0.1
		c-0.1,0-0.1,0.1-0.1,0.1c0,0.3-0.1,0.4-0.1,0.5c0,0,0,0,0,0l-0.1-0.6c0-0.1-0.1-0.1-0.1-0.1c-0.1,0-0.1,0-0.1,0.1l-0.1,0.5
		c0-0.1,0-0.1-0.1-0.2c-0.1-0.2-0.2-0.4-0.2-0.4c0,0-0.1-0.1-0.2,0c-0.1,0-0.1,0.1-0.1,0.1c0.1,0.2,0.1,0.4,0.1,0.5c0,0,0,0,0,0
		l-0.3-0.5c0-0.1-0.1-0.1-0.2-0.1c-0.1,0-0.1,0.1-0.1,0.1l0.1,0.5c0,0-0.1-0.1-0.1-0.1c-0.2-0.2-0.3-0.3-0.3-0.3c-0.1,0-0.1,0-0.2,0
		c0,0,0,0.1,0,0.2c0.2,0.2,0.2,0.3,0.2,0.4c0,0,0,0,0,0l-0.5-0.3c0,0-0.1,0-0.2,0c0,0,0,0.1,0,0.2l0.3,0.4c-0.1,0-0.1-0.1-0.2-0.1
		c-0.2-0.1-0.4-0.1-0.4-0.1c-0.1,0-0.1,0-0.1,0.1c0,0.1,0,0.1,0.1,0.1c0.2,0.1,0.3,0.2,0.4,0.3c0,0,0,0,0,0l-0.6-0.1
		c-0.1,0-0.1,0-0.1,0.1c0,0.1,0,0.1,0.1,0.2l0.5,0.3c-0.1,0-0.1,0-0.2,0c-0.2,0-0.4,0-0.4,0c-0.1,0-0.1,0.1-0.1,0.1
		c0,0.1,0.1,0.1,0.1,0.1c0.3,0,0.4,0.1,0.5,0.1c0,0,0,0,0,0l-0.6,0.1c-0.1,0-0.1,0.1-0.1,0.1c0,0.1,0,0.1,0.1,0.1l0.5,0.1
		c-0.1,0-0.1,0-0.2,0.1c-0.2,0.1-0.4,0.2-0.4,0.2c0,0-0.1,0.1,0,0.2c0,0.1,0.1,0.1,0.1,0.1c0.1,0,0.2-0.1,0.3-0.1
		c-0.2,0.1-0.2,0.2-0.3,0.3c0,0,0,0.1-0.1,0.1c0,0,0,0,0,0c0,0-0.1,0-0.1,0c-0.2,0.1-0.3,0.3-0.4,0.4c0,0-0.1,0.1-0.1,0.1
		c0,0,0,0-0.1,0c0,0-0.1,0-0.1,0c-0.1,0.2-0.3,0.3-0.3,0.5c0,0,0,0.1-0.1,0.1c0,0,0,0-0.1,0c0,0-0.1,0-0.1,0
		c-0.1,0.2-0.2,0.3-0.3,0.5c0,0,0,0.1,0,0.1c0,0,0,0,0,0c0,0,0,0-0.1,0c0,0-0.1,0-0.1,0c-0.1,0.2-0.2,0.4-0.2,0.6c0,0,0,0.1,0,0.1h0
		c0,0,0,0-0.1,0c0,0,0,0-0.1,0.1c-0.1,0.2-0.1,0.4-0.1,0.6c0,0,0,0.1,0,0.1c0,0,0,0-0.1,0c0,0,0,0-0.1,0.1c0,0.2-0.1,0.4,0,0.6
		c0,0,0,0.1,0,0.1c0,0,0,0,0,0c0,0,0,0,0,0.1c0,0.2,0,0.4,0,0.6c0,0,0,0.1,0,0.1c0,0,0,0,0,0c0,0,0,0,0,0.1c0,0.2,0,0.4,0,0.6
		c0,0,0,0.1,0,0.1c0,0,0,0-0.1,0c0,0,0,0,0,0.1c0,0.2,0,0.4,0.1,0.6c0,0.1,0,0.1,0.1,0.2c0,0,0,0,0,0c0,0-0.1,0-0.1,0c0,0,0,0,0,0.1
		c0,0.2,0.1,0.4,0.2,0.6c0,0,0,0.1,0.1,0.1c0,0,0,0,0,0c0,0,0,0,0,0.1c0,0.2,0.1,0.4,0.2,0.5c0,0,0.1,0.1,0.1,0.1c0,0,0,0-0.1,0
		c0,0,0,0.1,0,0.1c0.1,0.2,0.2,0.4,0.3,0.5c0,0,0.1,0.1,0.1,0.1c0,0,0,0-0.1,0c0,0,0,0.1,0,0.1c0.1,0.2,0.2,0.4,0.3,0.5
		c0,0,0.1,0.1,0.1,0.1c0,0,0,0,0,0c0,0,0,0.1,0,0.1c0.1,0.2,0.2,0.3,0.4,0.4c0,0,0.1,0.1,0.1,0.1c0,0,0,0,0,0c0,0,0,0-0.1,0.1
		c0,0,0,0.1,0,0.1c0.1,0.2,0.3,0.3,0.5,0.4c0.1,0.1,0.3,0.1,0.4,0.1c0.1,0,0.2,0,0.3,0c0.3,0.2,0.6,0.4,0.9,0.5
		c0.2,0.1,0.5,0.2,0.7,0.2c0,0,0.1,0,0.1,0l0.1,0c0.1,0,0.1,0,0.1,0c0,0,0,0.1,0,0.1c0,0,0,0.1,0,0.1c-0.1,0.1-0.4,0.4-0.8,0.4l0,0
		l0,0c0,0,0.1,0.1,0.1,0.1l0,0l0,0c0.4-0.1,0.7-0.3,0.8-0.4c0,0,0,0,0,0c0,0.1-0.2,0.4-0.6,0.5l0,0l0,0c0.1,0,0.2,0.1,0.3,0.1l0,0
		l0,0c0.3-0.2,0.5-0.4,0.5-0.5c0,0,0.1,0,0.1,0c0,0.1,0.2,0.4,0.5,0.5l0,0l0,0c0.1,0,0.2,0,0.3-0.1l0,0l0,0
		c-0.5-0.1-0.6-0.4-0.6-0.5c0,0,0,0,0,0c0.1,0.1,0.4,0.3,0.8,0.4l0,0l0,0c0.1-0.1,0.1-0.1,0.1-0.1l0,0l0,0c-0.4-0.1-0.7-0.3-0.8-0.4
		c0,0,0-0.1,0-0.1c0,0,0-0.1,0-0.1c0,0,0.1,0,0.1,0l0.1,0c0.1,0,0.2,0,0.3-0.1c0.2-0.1,0.5-0.2,0.7-0.3c0.3-0.2,0.6-0.3,0.6-0.4
		c0.1,0,0.2,0,0.3,0c0.1,0,0.2-0.1,0.4-0.1c0.2-0.1,0.3-0.2,0.5-0.4c0,0,0,0,0-0.1c0,0,0,0-0.1-0.1c0,0,0,0,0,0c0,0,0.1-0.1,0.1-0.1
		c0.1-0.1,0.3-0.3,0.4-0.4c0,0,0-0.1,0-0.1c0,0,0,0,0,0c0,0,0.1-0.1,0.1-0.1c0.1-0.1,0.2-0.3,0.3-0.5c0,0,0-0.1,0-0.1c0,0,0,0-0.1,0
		c0,0,0.1-0.1,0.1-0.1c0.1-0.1,0.2-0.3,0.3-0.5c0,0,0-0.1,0-0.1c0,0,0,0-0.1,0h0h0c0,0,0.1-0.1,0.1-0.1c0.1-0.2,0.2-0.3,0.2-0.5
		c0,0,0-0.1,0-0.1c0,0,0,0-0.1,0c0,0,0-0.1,0.1-0.1C208.2,65.9,208.2,65.7,208.3,65.5 M208.2,64.8L208.2,64.8
		C208.2,64.8,208.2,64.8,208.2,64.8c0,0.2,0,0.3-0.1,0.4c0,0.1-0.1,0.2-0.2,0.3c-0.1,0.1-0.2,0.2-0.2,0.2c0,0,0,0,0,0c0,0,0,0,0,0
		c-0.1-0.2-0.2-0.4-0.2-0.6c0-0.1,0-0.1,0-0.2c0,0,0,0,0,0c0,0,0,0,0,0c0.1,0.1,0.2,0.3,0.2,0.3c0,0,0,0,0.1,0c0,0,0,0,0,0
		c0,0,0,0,0.1,0C207.9,65,208.1,64.9,208.2,64.8C208.2,64.8,208.2,64.8,208.2,64.8 M208.2,64C208.2,64,208.2,64,208.2,64
		C208.2,64,208.2,64,208.2,64c0,0.2,0,0.3,0,0.4c0,0.1-0.1,0.2-0.1,0.3c-0.1,0.1-0.2,0.2-0.2,0.2c0,0,0,0,0,0c0,0,0,0,0,0
		c-0.2-0.2-0.2-0.6-0.2-0.8c0,0,0,0,0,0c0,0,0,0,0,0c0.1,0.1,0.2,0.3,0.2,0.3c0,0,0,0,0.1,0c0,0,0,0,0.1,0
		C207.9,64.2,208.1,64.1,208.2,64 M208.1,63.2L208.1,63.2C208.1,63.2,208.1,63.2,208.1,63.2C208.1,63.2,208.1,63.2,208.1,63.2
		c0,0.2,0,0.3,0,0.4c0,0.1-0.1,0.2-0.1,0.3c-0.1,0.1-0.1,0.2-0.2,0.2c0,0,0,0,0,0c0,0,0,0,0,0c-0.2-0.2-0.3-0.5-0.3-0.7c0,0,0,0,0,0
		c0,0,0,0,0,0c0.1,0.1,0.2,0.2,0.2,0.2c0,0,0,0,0.1,0c0,0,0,0,0,0C207.9,63.5,208,63.3,208.1,63.2 M207.9,62.5L207.9,62.5
		C207.9,62.5,208,62.5,207.9,62.5C208,62.5,208,62.5,207.9,62.5c0,0.1,0,0.3,0,0.4c0,0.1,0,0.2-0.1,0.3c-0.1,0.1-0.1,0.2-0.2,0.2
		c0,0,0,0,0,0c0,0,0,0,0,0c-0.2-0.1-0.3-0.4-0.3-0.5c0-0.1,0-0.1,0-0.2c0,0,0,0,0,0c0,0,0,0,0,0c0.1,0.1,0.2,0.2,0.2,0.2
		c0,0,0,0,0.1,0c0,0,0,0,0,0C207.8,62.7,207.9,62.6,207.9,62.5 M203.9,66.5C204,66.6,204,66.6,203.9,66.5c0.3,0.2,0.5,0.4,0.6,0.5
		c0,0,0,0,0,0c0,0,0,0,0,0.1c0,0-0.1,0.1-0.2,0.1c0,0,0,0,0,0c0,0,0,0,0,0c0-0.1-0.1-0.1-0.1-0.2c-0.1-0.1-0.3-0.2-0.3-0.2
		c0,0-0.1,0-0.1,0c0,0,0,0.1,0,0.1c0,0,0.2,0.1,0.2,0.2c0.1,0.1,0.1,0.1,0.1,0.2c0,0,0,0,0,0c0,0,0,0-0.1,0.1c0,0-0.1,0.1-0.2,0
		c0,0,0,0,0,0c0-0.1-0.1-0.2-0.2-0.3c0,0-0.1,0-0.1,0c0,0,0,0,0,0.1c0,0,0,0,0,0.1c0.1,0.1,0.1,0.2,0.2,0.2c0,0,0,0,0,0
		c0,0,0,0-0.1,0c-0.1,0-0.1,0-0.2,0c0,0,0,0,0,0c0,0,0,0,0,0c0,0,0-0.1,0.1-0.1c0-0.1,0-0.1-0.1-0.2c0,0-0.1-0.1-0.3-0.1
		c0,0,0,0,0,0c0,0,0,0,0,0c0-0.1,0-0.1-0.1-0.2c-0.1-0.1-0.2-0.1-0.3-0.1c0,0,0,0,0,0l0,0c0,0,0,0,0,0c0,0-0.1-0.1-0.2-0.2
		c-0.1,0-0.2,0-0.3,0c0,0,0,0,0,0c-0.1-0.1-0.2-0.1-0.2-0.1c-0.1,0-0.3,0-0.4,0.2c0,0,0,0,0,0c-0.6,0.3-1.4,0.7-1.7,0.8c0,0,0,0,0,0
		c0,0,0,0,0,0c-0.2-0.3-0.3-0.7-0.4-1c0-0.1-0.1-0.2-0.1-0.3c0,0,0,0,0,0c0,0,0,0,0,0c0.9-0.1,1.6-0.2,2.1-0.3
		c0.5-0.1,0.9-0.2,1.1-0.3l0,0c0.2-0.1,0.4-0.2,0.6-0.2c0.1,0,0.1,0,0.2,0c0,0,0,0,0,0c0,0,0,0,0,0c-0.1,0-0.1,0-0.1,0.1
		c-0.1,0.1-0.1,0.1-0.2,0.1c0,0-0.1,0.1-0.1,0.1c0,0-0.1,0.1-0.1,0.1c-0.1,0.1-0.2,0.1-0.2,0.2l0,0l0,0c0,0.1,0,0.2,0,0.2
		c0.1,0.1,0.2,0.1,0.4,0.1c0.1,0,0.3-0.1,0.4-0.1c0,0,0.1-0.1,0.1-0.1c0.1,0,0.1-0.1,0.1-0.1c0,0,0,0,0,0c0.1,0,0.2,0,0.4,0
		c0.1,0.1,0.3,0.1,0.4,0.2c0.3,0.2,0.5,0.4,0.6,0.5c0,0,0,0,0,0c0,0,0,0.1-0.1,0.1c0,0-0.1,0.1-0.2,0.1c0,0,0,0,0,0
		c-0.1-0.1-0.3-0.4-0.6-0.5C204,66.4,204,66.4,203.9,66.5C203.9,66.5,203.9,66.5,203.9,66.5 M203.2,67.5
		C203.2,67.5,203.2,67.5,203.2,67.5L203.2,67.5c0,0-0.2,0.1-0.3,0.1c0,0,0,0,0,0c0,0,0,0-0.1,0c0,0,0,0,0,0c0-0.1,0.2-0.2,0.2-0.2
		c0.1-0.1,0.2,0,0.2,0c0,0,0,0.1,0,0.1C203.3,67.4,203.3,67.5,203.2,67.5L203.2,67.5L203.2,67.5z M202.2,67c0.1-0.1,0.2-0.2,0.3-0.1
		c0,0,0.1,0,0.1,0.1c0,0,0,0,0,0c0,0,0,0,0,0c0,0,0,0-0.1,0c-0.1,0.1-0.2,0.2-0.2,0.3c0,0,0,0,0,0h0c0,0,0,0-0.1,0
		c-0.1,0-0.1-0.1-0.1-0.1C202.1,67.1,202.1,67,202.2,67 M202.1,66.8c-0.1,0.1-0.1,0.1-0.2,0.2c0,0,0,0,0,0c0,0,0,0-0.1,0
		c-0.1,0-0.1,0-0.1-0.1c0,0,0,0,0-0.1C201.8,66.8,202,66.7,202.1,66.8C202.1,66.8,202.1,66.8,202.1,66.8
		C202.1,66.8,202.1,66.8,202.1,66.8C202.1,66.8,202.1,66.8,202.1,66.8C202.1,66.8,202.1,66.8,202.1,66.8
		C202.1,66.8,202.1,66.8,202.1,66.8 M202.6,67.1c0.2-0.1,0.3-0.2,0.3-0.1c0,0,0,0,0,0.1c0,0,0,0.1-0.1,0.1c-0.1,0.1-0.2,0.2-0.2,0.2
		c0,0,0,0,0,0c0,0-0.1,0-0.1,0c0,0-0.1,0-0.1,0c0,0,0,0,0-0.1C202.4,67.3,202.5,67.2,202.6,67.1 M204.5,59
		C204.5,59,204.5,59,204.5,59C204.5,58.9,204.5,58.9,204.5,59c0.1,0,0.2-0.1,0.2-0.1c0.2,0,0.4,0.1,0.5,0.2c0,0,0,0,0,0c0,0,0,0,0,0
		c0,0-0.1,0-0.2,0c0,0,0,0,0,0C204.8,59.2,204.7,59.1,204.5,59 M204.7,59.3h-2.9c0.5-0.2,1-0.4,1.5-0.4
		C203.8,58.9,204.3,59,204.7,59.3 M205.1,58.7c-0.1,0-0.2,0.1-0.3,0.1c-0.1,0-0.1,0-0.2,0c-0.2,0-0.3,0-0.4-0.1c0,0,0,0,0,0
		c0,0,0,0,0,0c0.1,0,0.1-0.1,0.2-0.1c0.1,0,0.2,0,0.3,0C204.9,58.6,205,58.6,205.1,58.7C205.1,58.7,205.1,58.7,205.1,58.7
		C205.1,58.7,205.1,58.7,205.1,58.7 M204.4,58.4c-0.1,0-0.2,0.1-0.4,0.1c0,0,0,0-0.1,0c0,0,0,0.1,0,0.1c0,0,0.1,0.1,0.3,0.2
		c0,0,0,0,0,0c0,0,0,0,0,0c-0.2,0-0.5-0.1-0.8-0.3c0,0,0,0,0,0c0,0,0.1-0.1,0.2-0.1C203.9,58.3,204.1,58.3,204.4,58.4
		C204.4,58.4,204.4,58.4,204.4,58.4C204.4,58.4,204.4,58.4,204.4,58.4 M203.6,58.3c-0.1,0-0.2,0.1-0.4,0.2c0,0,0,0,0,0.1
		c0,0,0,0,0,0.1c0,0,0.2,0.1,0.3,0.2c0,0,0,0,0,0c0,0,0,0,0,0c-0.1,0-0.1,0-0.2,0c-0.2,0-0.4,0-0.6-0.2c0,0,0,0,0,0
		c0,0,0.1-0.1,0.2-0.2C203.1,58.3,203.3,58.3,203.6,58.3C203.6,58.3,203.6,58.3,203.6,58.3C203.6,58.3,203.6,58.3,203.6,58.3
		 M202.8,58.3c0,0.1-0.1,0.2-0.3,0.3c0,0,0,0,0,0.1c0,0,0,0,0,0.1c0,0,0.2,0,0.3,0.1c0,0,0,0,0,0c0,0,0,0,0,0c-0.1,0-0.1,0-0.2,0.1
		c-0.1,0-0.1,0-0.2,0c-0.1,0-0.3,0-0.4-0.1c0,0,0,0,0,0c0,0,0.1-0.1,0.1-0.2C202.3,58.4,202.5,58.3,202.8,58.3
		C202.8,58.3,202.8,58.3,202.8,58.3C202.8,58.3,202.8,58.3,202.8,58.3 M202,58.4L202,58.4c0,0.1-0.1,0.2-0.3,0.4c0,0,0,0,0,0.1
		c0,0,0,0,0.1,0h0c0,0,0.1,0,0.2,0c0.1,0,0.1,0,0.2,0c0,0,0,0,0,0c0,0,0,0,0,0c-0.1,0-0.1,0.1-0.2,0.1c-0.1,0-0.3,0.1-0.4,0.1
		c-0.1,0-0.2,0-0.2,0c0,0,0,0,0,0C201.3,59,201.5,58.6,202,58.4C202,58.4,202,58.4,202,58.4C202,58.4,202,58.4,202,58.4 M205.1,59.5
		c0.2,0.1,0.3,0.2,0.5,0.3H201c0.1-0.1,0.3-0.2,0.5-0.3H205.1z M205.8,60c0.1,0.1,0.2,0.2,0.3,0.3h-2.2c-0.3-0.2-0.6-0.2-0.7-0.2
		c0,0-0.3,0-0.6,0.2h-2.1c0.1-0.1,0.2-0.2,0.3-0.3H205.8z M202.6,62.6c-0.2,0-0.3,0-0.5,0.1c0,0,0,0,0,0c0,0,0,0,0,0c0,0,0,0,0-0.1
		c0.1-0.5,0.3-0.9,0.5-1.1c0.1-0.2,0.2-0.2,0.3-0.3c0,0,0,0,0,0c0,0,0.1-0.1,0-0.1c0,0-0.1-0.1-0.1,0c0,0,0,0-0.1,0
		c-0.1,0.1-0.2,0.1-0.2,0c0,0-0.1-0.1,0-0.1c0-0.1,0.1-0.3,0.2-0.3c0,0,0,0,0,0c0.3-0.3,0.7-0.3,0.7-0.3c0,0,0.1,0,0.3,0
		c0.2,0.1,0.4,0.2,0.5,0.4c0.2,0.3,0.3,0.6,0.4,1c0,0,0,0,0,0c0,0,0,0,0,0c-0.2-0.1-0.4-0.2-0.4-0.2c0,0-0.1,0-0.2,0
		c0,0,0,0.1,0,0.2c0,0,0.3,0.2,0.6,0.3c0,0,0,0,0,0c0,0.1,0,0.2,0.1,0.4c0,0,0,0,0,0c0,0,0,0,0,0c-0.1-0.1-0.2-0.1-0.4-0.1
		c-0.1,0-0.1,0-0.2-0.1c-0.2-0.1-0.4-0.2-0.4-0.2c0,0-0.1,0-0.2,0c0,0,0,0.1,0,0.2c0,0,0.2,0.2,0.5,0.3c0.1,0,0.1,0,0.2,0.1
		c0.3,0.1,0.4,0.1,0.4,0.3c0,0,0,0,0,0c0,0,0,0,0,0.1c-0.1,0.1-0.3,0.1-0.3,0.1c0,0-0.3,0-0.3,0c-0.1,0-0.3,0-0.6-0.2
		C203,62.7,202.8,62.6,202.6,62.6 M203.1,63C203.1,63,203.1,63,203.1,63l-0.9,0c-0.1,0-0.2,0-0.2-0.1c0,0,0,0,0,0c0,0,0,0,0,0
		C202.4,62.7,202.6,62.7,203.1,63C203.1,63,203.1,63,203.1,63 M203.4,63.8h4c0,0.1,0,0.2,0,0.4h-4V63.8z M203.4,63.6v-0.3h3.9
		c0,0.1,0,0.2,0,0.3H203.4z M204.7,63.1c0,0,0.1-0.1,0.1-0.2c0,0,0,0,0,0c0-0.1,0-0.1,0-0.2h2.4c0,0.1,0.1,0.2,0.1,0.3H204.7z
		 M204.7,62.5c0-0.1,0-0.2-0.1-0.3h2.4c0,0,0,0.1,0,0.1c0,0.1,0.1,0.2,0.1,0.3H204.7z M204.6,62c0-0.1-0.1-0.2-0.1-0.3h2.3
		c0,0.1,0.1,0.2,0.1,0.3H204.6z M204.5,61.4c0-0.1-0.1-0.2-0.1-0.3h2.2c0.1,0.1,0.1,0.2,0.2,0.3H204.5z M204.3,60.9
		c0,0,0-0.1-0.1-0.1c0-0.1-0.1-0.1-0.1-0.2h2.1c0.1,0.1,0.2,0.2,0.2,0.3H204.3z M202.4,60.5c0,0-0.2,0.2-0.2,0.3h-2
		c0.1-0.1,0.2-0.2,0.2-0.3H202.4z M202.2,61.1c0,0.1,0.1,0.2,0.2,0.2c0,0,0,0,0.1,0c0,0,0,0,0,0c0,0,0,0,0,0c0,0,0,0-0.1,0.1h-2.5
		c0.1-0.1,0.1-0.2,0.2-0.3H202.2z M202.2,61.6c-0.1,0.1-0.1,0.2-0.2,0.3h-2.4c0-0.1,0.1-0.2,0.1-0.3H202.2z M201.9,62.2
		c0,0.1-0.1,0.2-0.1,0.3h-2.4c0-0.1,0-0.2,0.1-0.3c0,0,0-0.1,0-0.1H201.9z M201.8,62.7c0,0,0,0.1,0,0.1c0,0,0,0,0,0
		c0,0.1,0,0.1,0.1,0.2h-2.6c0-0.1,0-0.2,0.1-0.3H201.8z M203.2,63.3v0.3h-3.9c0-0.1,0-0.2,0-0.3H203.2z M203.2,63.8v0.4h-4
		c0-0.1,0-0.2,0-0.4H203.2z M203.2,64.4v0.8c0,0,0,0,0,0c0,0,0,0,0,0c0,0,0,0,0,0c-0.2,0-0.4,0.1-0.6,0.2c-0.3,0.2-1.4,0.4-3.2,0.6
		c0,0,0,0,0,0c-0.1-0.5-0.2-1.1-0.2-1.6c0,0,0,0,0,0H203.2z M204.4,66.1c-0.2-0.1-0.6-0.4-0.9-0.3c-0.1,0-0.1,0.1-0.2,0.1
		c0,0-0.1,0-0.1,0.1c-0.1,0.1-0.3,0.1-0.3,0.1c-0.1,0-0.2,0-0.2,0c0,0,0-0.1,0-0.1c0,0,0,0,0,0c0,0,0.1-0.1,0.2-0.1
		c0.1,0,0.1-0.1,0.2-0.1c0.1,0,0.1-0.1,0.2-0.1c0,0,0.1-0.1,0.2-0.1c0.1-0.1,0.2-0.1,0.4-0.1c0,0,0.1,0,0.1,0c0,0,0,0,0.1,0
		c0.2,0,0.4,0.1,0.6,0.1c0.1,0,0.2,0.1,0.3,0.1c0,0,0,0,0,0c0,0,0.3,0.1,0.8,0.2c0.4,0.1,1,0.2,1.6,0.3c0,0,0,0,0,0c0,0,0,0,0,0
		c0,0.1-0.1,0.2-0.1,0.3c-0.1,0.4-0.3,0.7-0.4,1.1c0,0,0,0,0,0c0,0,0,0,0,0c-0.3-0.1-1-0.4-1.4-0.8c-0.1-0.1-0.2-0.1-0.2-0.2l0,0
		c0,0,0,0,0,0l0,0c0,0,0,0,0,0C204.9,66.5,204.7,66.3,204.4,66.1 M204.8,65.6c-0.1,0-0.2-0.1-0.2-0.1c-0.3-0.1-0.5-0.2-0.7-0.2
		c0,0,0,0,0,0c0,0,0,0,0,0c-0.1-0.1-0.2-0.1-0.4-0.1c0,0,0,0,0,0v-0.8h4c0,0,0,0,0,0c0,0.6-0.1,1.1-0.2,1.7c0,0,0,0,0,0
		C206.1,66,204.9,65.6,204.8,65.6 M207.7,61.7C207.7,61.7,207.7,61.7,207.7,61.7C207.7,61.7,207.7,61.7,207.7,61.7
		c0.1,0.1,0.1,0.3,0.1,0.4c0,0.1,0,0.2,0,0.4c0,0.1-0.1,0.2-0.1,0.2c0,0,0,0,0,0c0,0,0,0,0,0c-0.2-0.1-0.3-0.3-0.4-0.5
		c0-0.1,0-0.1-0.1-0.2c0,0,0,0,0,0c0,0,0,0,0,0c0.1,0.1,0.3,0.2,0.3,0.2c0,0,0,0,0.1,0c0,0,0,0,0-0.1
		C207.6,62,207.6,61.8,207.7,61.7 M207.3,61.6C207.3,61.6,207.3,61.5,207.3,61.6c0-0.3,0.1-0.5,0.1-0.6c0,0,0,0,0,0c0,0,0,0,0,0
		c0.1,0.1,0.1,0.3,0.1,0.4c0,0.1,0,0.2,0,0.4c0,0.1-0.1,0.2-0.1,0.3c0,0,0,0,0,0c0,0,0,0,0,0c-0.2-0.1-0.3-0.2-0.4-0.4
		c0-0.1-0.1-0.1-0.1-0.2c0,0,0,0,0,0c0,0,0,0,0,0C207.1,61.5,207.2,61.6,207.3,61.6C207.2,61.6,207.2,61.6,207.3,61.6L207.3,61.6
		 M206.9,60.9C207,60.9,207,60.9,206.9,60.9c0-0.3,0-0.5,0.1-0.6c0,0,0,0,0,0h0c0,0,0,0,0,0c0.1,0.1,0.1,0.3,0.2,0.4
		c0,0.1,0,0.2,0,0.4c0,0.1-0.1,0.2-0.1,0.3c0,0,0,0,0,0c0,0,0,0,0,0c-0.2-0.1-0.4-0.2-0.5-0.4c0-0.1-0.1-0.1-0.1-0.2c0,0,0,0,0,0
		c0,0,0,0,0,0C206.7,60.8,206.9,60.9,206.9,60.9C206.9,60.9,206.9,60.9,206.9,60.9 M206.5,60.3C206.5,60.3,206.5,60.3,206.5,60.3
		C206.6,60.3,206.6,60.3,206.5,60.3c0-0.3,0-0.5,0.1-0.6c0,0,0,0,0,0c0,0,0,0,0,0c0.1,0.1,0.2,0.2,0.2,0.3c0.1,0.1,0.1,0.2,0.1,0.4
		c0,0.1,0,0.2,0,0.3c0,0,0,0,0,0h0c-0.2,0-0.4-0.1-0.5-0.3c-0.1-0.1-0.1-0.1-0.1-0.2c0,0,0,0,0,0c0,0,0,0,0,0
		C206.3,60.2,206.5,60.3,206.5,60.3 M206,59.8C206,59.8,206,59.8,206,59.8C206.1,59.7,206.1,59.7,206,59.8c0-0.3,0-0.5,0-0.6
		c0,0,0,0,0,0s0,0,0,0c0.1,0.1,0.2,0.2,0.3,0.3c0.1,0.1,0.1,0.2,0.1,0.3c0,0.1,0,0.2,0,0.3c0,0,0,0,0,0h0c-0.2,0-0.4-0.1-0.5-0.2
		c-0.1,0-0.1-0.1-0.2-0.2c0,0,0,0,0,0c0,0,0,0,0,0C205.8,59.7,206,59.8,206,59.8 M205.8,59.3c0.1,0.1,0.1,0.3,0.1,0.3c0,0,0,0,0,0
		c0,0,0,0,0,0c-0.3,0-0.6-0.2-0.7-0.3c0,0,0,0,0,0c0,0,0,0,0,0c0.2,0,0.3,0,0.3,0c0,0,0.1,0,0.1,0c0,0,0-0.1,0-0.1
		c-0.1-0.1-0.2-0.3-0.2-0.4c0,0,0,0,0,0c0,0,0,0,0,0C205.5,58.9,205.7,59,205.8,59.3 M200.9,58.5C200.9,58.5,200.9,58.5,200.9,58.5
		C200.9,58.5,200.9,58.5,200.9,58.5c0.1,0,0.1-0.1,0.2-0.1c0.2-0.1,0.3-0.1,0.4-0.1c0.2,0,0.3-0.1,0.3-0.1c0,0,0,0,0,0c0,0,0,0,0,0
		l-0.9-0.1c0,0,0,0,0,0c0,0,0,0,0,0l0.9-0.1c0,0,0,0,0,0c0,0,0,0,0,0c0,0-0.2,0-0.3-0.1c-0.1,0-0.1,0-0.1-0.1
		c-0.1-0.1-0.2-0.1-0.3-0.1c0,0,0,0,0,0c0,0,0,0,0,0c0.1,0,0.1,0,0.2,0c0.2,0,0.3,0,0.4,0c0.2,0,0.3,0,0.3,0c0,0,0,0,0,0
		c0,0,0,0,0,0l-0.8-0.5c0,0,0,0,0,0c0,0,0,0,0,0l0.9,0.2c0,0,0,0,0,0c0,0,0,0,0,0c0,0-0.1-0.1-0.3-0.2c0,0-0.1-0.1-0.1-0.1
		c-0.1-0.1-0.1-0.2-0.3-0.3c0,0,0,0,0,0c0,0,0,0,0,0c0.1,0,0.1,0,0.2,0.1c0.1,0.1,0.3,0.2,0.3,0.2c0.1,0.1,0.3,0.1,0.3,0.1
		c0,0,0,0,0,0c0,0,0,0,0,0l-0.5-0.7c0,0,0,0,0,0c0,0,0,0,0,0l0.7,0.5c0,0,0,0,0,0c0,0,0,0,0,0c0,0-0.1-0.1-0.2-0.3
		c0-0.1,0-0.1,0-0.1c0-0.1-0.1-0.2-0.2-0.3c0,0,0,0,0,0c0,0,0,0,0,0c0,0,0.1,0.1,0.1,0.1c0.1,0.1,0.2,0.2,0.2,0.3
		c0.1,0.1,0.2,0.2,0.2,0.2c0,0,0,0,0,0c0,0,0,0,0,0l-0.2-0.9c0,0,0,0,0,0c0,0,0,0,0,0l0.5,0.8c0,0,0,0,0,0c0,0,0,0,0,0
		c0,0,0-0.2,0-0.4c0-0.1,0-0.1,0-0.1c0-0.1,0-0.2,0-0.4c0,0,0,0,0,0c0,0,0,0,0,0c0,0.1,0.1,0.1,0.1,0.2c0.1,0.2,0.1,0.3,0.1,0.4
		c0,0.2,0.1,0.3,0.1,0.3c0,0,0,0,0,0c0,0,0,0,0,0l0.1-0.9c0,0,0,0,0,0s0,0,0,0l0.1,0.9c0,0,0,0,0,0c0,0,0,0,0,0c0,0,0-0.2,0.1-0.3
		c0-0.1,0-0.1,0.1-0.1c0.1-0.1,0.1-0.2,0.1-0.3c0,0,0,0,0,0c0,0,0,0,0,0c0,0.1,0,0.1,0,0.2c0,0.2,0,0.3,0,0.4c0,0.2,0,0.3,0,0.3
		c0,0,0,0,0,0c0,0,0,0,0,0l0.5-0.8c0,0,0,0,0,0c0,0,0,0,0,0l-0.2,0.9c0,0,0,0,0,0c0,0,0,0,0,0c0,0,0.1-0.1,0.2-0.3
		c0,0,0.1-0.1,0.1-0.1c0.1-0.1,0.2-0.1,0.3-0.3c0,0,0,0,0,0c0,0,0,0,0,0c0,0.1,0,0.1-0.1,0.2c-0.1,0.1-0.2,0.3-0.2,0.3
		c-0.1,0.1-0.1,0.3-0.1,0.3c0,0,0,0,0,0c0,0,0,0,0,0l0.7-0.5c0,0,0,0,0,0c0,0,0,0,0,0l-0.5,0.7c0,0,0,0,0,0c0,0,0,0,0,0
		c0,0,0.1-0.1,0.3-0.2c0.1,0,0.1,0,0.1,0c0.1,0,0.2-0.1,0.3-0.2c0,0,0,0,0,0c0,0,0,0,0,0c0,0-0.1,0.1-0.1,0.1
		c-0.1,0.1-0.2,0.2-0.3,0.2c-0.1,0.1-0.2,0.2-0.2,0.2c0,0,0,0,0,0c0,0,0,0,0,0l0.9-0.2c0,0,0,0,0,0c0,0,0,0,0,0l-0.8,0.5
		c0,0,0,0,0,0c0,0,0,0,0,0c0,0,0.2,0,0.4,0c0.1,0,0.1,0,0.1,0c0.1,0,0.2,0,0.4,0c0,0,0,0,0,0c0,0,0,0,0,0c-0.1,0-0.1,0.1-0.2,0.1
		c-0.2,0.1-0.3,0.1-0.4,0.1c-0.2,0-0.3,0.1-0.3,0.1c0,0,0,0,0,0c0,0,0,0,0,0l0.9,0.1c0,0,0,0,0,0c0,0,0,0,0,0l-0.9,0.1c0,0,0,0,0,0
		c0,0,0,0,0,0c0,0,0.2,0,0.3,0.1c0.1,0,0.1,0,0.1,0.1c0.1,0.1,0.2,0.1,0.3,0.1c0,0,0,0,0,0c0,0,0,0,0,0c0,0-0.1,0-0.1,0
		c0,0-0.1,0-0.1,0c-0.2,0-0.3,0-0.4,0c0,0,0,0,0,0c0,0,0,0,0,0c-0.1-0.1-0.3-0.1-0.4-0.1h0c0,0,0,0,0,0c0,0,0,0,0,0c0,0,0,0,0,0
		c0,0,0,0,0,0c-0.2-0.1-0.3-0.1-0.5-0.1c0,0,0,0,0,0h0c0,0,0,0,0,0c0,0,0,0,0,0h0c0,0,0,0,0,0c0,0,0,0,0,0h0c-0.1,0-0.1,0-0.2,0
		c0,0,0,0,0,0c0,0,0,0,0,0v0c0,0,0,0,0,0c0,0,0,0,0,0c0,0,0,0,0,0c0,0,0,0,0,0c0,0,0,0,0,0l0,0l0,0c0,0,0,0,0,0c0,0,0,0,0,0
		c-0.2,0-0.3,0-0.5,0c0,0-0.1,0-0.1,0c0,0,0,0,0,0c0,0,0,0,0,0l0,0c0,0,0,0,0,0v0c0,0,0,0-0.1,0c0,0,0,0,0,0c0,0,0,0,0,0l0,0v0
		c0,0,0,0,0,0l0,0c0,0,0,0,0-0.1v0c0,0,0,0,0,0l0,0c0,0,0,0,0,0c-0.2,0-0.4,0.1-0.6,0.1c-0.1,0-0.1,0-0.1,0.1c0,0,0,0,0,0
		c0,0,0,0,0,0c0,0,0,0,0,0c0,0,0,0,0,0c0,0,0,0,0-0.1c0,0,0,0,0,0l0,0c0,0,0,0,0,0l0,0c0,0,0,0,0,0c-0.2,0.1-0.4,0.1-0.5,0.2
		c0,0,0,0,0,0l0,0c0,0,0,0,0,0c0,0-0.1,0-0.1,0c0,0-0.1,0-0.1,0C201.2,58.5,201.1,58.5,200.9,58.5 M201.3,58.7L201.3,58.7
		C201.3,58.7,201.3,58.7,201.3,58.7C201.3,58.7,201.3,58.7,201.3,58.7c0,0.1,0,0.3-0.2,0.5c0,0,0,0,0,0.1c0,0,0,0,0.1,0
		c0,0,0.2,0,0.3,0c0,0,0,0,0,0c0,0,0,0,0,0c-0.1,0.1-0.4,0.3-0.7,0.3c0,0,0,0,0,0c0,0,0,0,0,0C200.7,59.4,200.8,59.1,201.3,58.7
		 M200.2,59.8c0-0.1,0.1-0.2,0.1-0.3c0.1-0.1,0.2-0.2,0.3-0.3c0,0,0,0,0,0c0,0,0,0,0,0c0,0.1,0,0.3-0.1,0.5c0,0,0,0,0,0.1
		c0,0,0,0,0.1,0c0,0,0.2-0.1,0.3-0.1c0,0,0,0,0,0c0,0,0,0,0,0c-0.1,0.1-0.1,0.1-0.2,0.2c-0.1,0.1-0.3,0.2-0.5,0.2c0,0,0,0,0,0
		c0,0,0,0,0,0C200.2,60.1,200.2,59.9,200.2,59.8 M200.1,59.7L200.1,59.7C200.1,59.7,200.1,59.7,200.1,59.7
		C200.1,59.7,200.1,59.7,200.1,59.7c0,0.1,0,0.3,0,0.5c0,0,0,0.1,0,0.1c0,0,0,0,0.1,0c0,0,0.1-0.1,0.3-0.1c0,0,0,0,0,0c0,0,0,0,0,0
		c-0.1,0.2-0.4,0.4-0.7,0.5h0c0,0,0,0,0,0C199.7,60.6,199.7,60.2,200.1,59.7 M199.4,60.7c0-0.1,0.1-0.2,0.2-0.4c0,0,0,0,0,0
		c0,0,0,0,0,0c0,0.1,0.1,0.3,0,0.5c0,0,0,0.1,0,0.1c0,0,0.1,0,0.1,0c0,0,0.1-0.1,0.3-0.2c0,0,0,0,0,0c0,0,0,0,0,0
		c0,0.1-0.1,0.1-0.1,0.2c-0.1,0.2-0.3,0.3-0.5,0.4c0,0,0,0,0,0c0,0,0,0,0,0c0,0-0.1-0.1-0.1-0.3C199.3,61,199.3,60.8,199.4,60.7
		 M199,61.4c0-0.1,0.1-0.3,0.1-0.4c0,0,0,0,0,0c0,0,0,0,0,0c0.1,0.1,0.1,0.3,0.1,0.5c0,0,0,0,0,0.1c0,0,0,0,0.1,0
		c0,0,0.1-0.1,0.3-0.2c0,0,0,0,0,0c0,0,0,0,0,0c0,0.1,0,0.1-0.1,0.2c-0.1,0.2-0.2,0.4-0.5,0.5c0,0,0,0,0,0c0,0,0,0,0,0
		c0,0-0.1-0.1-0.1-0.3C199,61.7,199,61.5,199,61.4 M198.8,61.7C198.8,61.7,198.8,61.7,198.8,61.7C198.8,61.7,198.8,61.7,198.8,61.7
		c0.1,0.1,0.2,0.3,0.2,0.5c0,0,0,0,0,0.1c0,0,0,0,0.1,0c0,0,0.1-0.1,0.3-0.2c0,0,0,0,0,0c0,0,0,0,0,0c0,0.1,0,0.1,0,0.2
		c-0.1,0.2-0.2,0.4-0.4,0.5c0,0,0,0,0,0c0,0,0,0,0,0c0,0-0.1-0.1-0.1-0.2c0-0.1-0.1-0.2-0.1-0.4C198.8,62,198.8,61.9,198.8,61.7
		 M198.6,62.5L198.6,62.5C198.6,62.5,198.6,62.5,198.6,62.5C198.6,62.5,198.6,62.5,198.6,62.5c0.1,0.1,0.2,0.2,0.2,0.5c0,0,0,0,0,0
		c0,0,0,0,0.1,0c0,0,0.1-0.2,0.2-0.3c0,0,0,0,0,0c0,0,0,0,0,0c0,0.1,0,0.1,0,0.2c0,0.2-0.2,0.4-0.3,0.5c0,0,0,0,0,0c0,0,0,0,0,0
		c0,0-0.1-0.1-0.2-0.2c-0.1-0.1-0.1-0.2-0.1-0.3C198.6,62.8,198.6,62.6,198.6,62.5 M198.5,63.2C198.5,63.2,198.5,63.2,198.5,63.2
		C198.5,63.2,198.5,63.2,198.5,63.2c0.1,0.1,0.2,0.2,0.3,0.5c0,0,0,0,0.1,0c0,0,0,0,0.1,0c0,0,0.1-0.2,0.2-0.3c0,0,0,0,0,0
		c0,0,0,0,0,0c0,0.1,0,0.2,0,0.2c0,0.2-0.1,0.4-0.3,0.5c0,0,0,0,0,0s0,0,0,0c0,0-0.1-0.1-0.2-0.2c-0.1-0.1-0.1-0.2-0.1-0.3
		C198.5,63.5,198.5,63.4,198.5,63.2 M198.4,64L198.4,64C198.4,64,198.4,64,198.4,64C198.4,64,198.4,64,198.4,64
		C198.5,64,198.5,64.1,198.4,64c0.1,0.1,0.2,0.2,0.3,0.4c0,0,0,0,0.1,0c0,0,0,0,0,0c0,0,0.1,0,0.1-0.1c0,0,0-0.2,0.2-0.3
		c0,0,0,0,0,0c0,0,0,0,0,0c0,0.1,0,0.2,0,0.4c0,0.2-0.1,0.3-0.2,0.4c0,0,0,0,0,0c0,0,0,0,0,0C198.7,64.9,198.4,64.6,198.4,64
		 M198.4,64.8C198.4,64.8,198.4,64.8,198.4,64.8C198.4,64.8,198.5,64.8,198.4,64.8c0.1,0.1,0.2,0.2,0.3,0.4c0,0,0,0,0.1,0l0,0l0,0
		c0,0,0,0,0.1,0c0,0,0.1-0.2,0.2-0.3c0,0,0,0,0,0c0,0,0,0,0,0c0,0.2,0.1,0.5-0.2,0.8c0,0,0,0,0,0c0,0,0,0,0,0
		C198.7,65.6,198.4,65.4,198.4,64.8C198.4,64.8,198.4,64.8,198.4,64.8 M198.4,65.6L198.4,65.6C198.4,65.6,198.4,65.6,198.4,65.6
		C198.5,65.6,198.5,65.6,198.4,65.6c0.1,0,0.3,0.1,0.4,0.3c0,0,0,0,0.1,0c0,0,0,0,0,0c0,0,0,0,0,0c0,0,0-0.2,0.1-0.3c0,0,0,0,0,0h0
		c0,0,0,0,0,0c0,0.1,0.1,0.1,0.1,0.2c0,0.2,0,0.4-0.1,0.6c0,0,0,0,0,0c0,0,0,0,0,0c0,0-0.1-0.1-0.2-0.1c-0.1-0.1-0.2-0.2-0.2-0.3
		C198.5,65.9,198.5,65.7,198.4,65.6 M198.6,66.3L198.6,66.3C198.6,66.3,198.6,66.3,198.6,66.3C198.6,66.3,198.6,66.3,198.6,66.3
		C198.7,66.3,198.7,66.3,198.6,66.3c0.2,0.1,0.3,0.2,0.4,0.3c0,0,0,0,0.1,0c0,0,0,0,0-0.1c0,0,0-0.2,0.1-0.3c0,0,0,0,0,0
		c0,0,0,0,0,0c0.1,0.2,0.2,0.5,0,0.8c0,0,0,0,0,0c0,0,0,0,0,0C199.1,67.1,198.8,66.9,198.6,66.3 M199.1,67.4
		c-0.1-0.1-0.2-0.2-0.2-0.4c0,0,0,0,0,0c0,0,0,0,0,0c0,0,0,0,0.1,0c0.1,0,0.2,0.1,0.4,0.2c0,0,0,0,0.1,0c0,0,0,0,0-0.1
		c0,0,0-0.2,0.1-0.3c0,0,0,0,0,0c0,0,0,0,0,0c0,0.1,0.1,0.1,0.1,0.2c0.1,0.2,0.1,0.4,0,0.6c0,0,0,0,0,0h0c0,0-0.1,0-0.3-0.1
		C199.2,67.6,199.2,67.5,199.1,67.4 M199.2,67.8C199.2,67.8,199.2,67.8,199.2,67.8C199.2,67.8,199.2,67.8,199.2,67.8
		c0.1,0,0.3,0.1,0.5,0.2c0,0,0,0,0.1,0c0,0,0,0,0-0.1c0,0,0-0.2,0-0.3c0,0,0,0,0,0c0,0,0,0,0,0c0,0.1,0.1,0.1,0.1,0.2
		c0.1,0.1,0.1,0.4,0.1,0.6c0,0,0,0,0,0c-0.1,0-0.2,0-0.3-0.1c-0.1,0-0.2-0.1-0.3-0.2C199.3,68,199.3,67.9,199.2,67.8 M199.9,68.7
		c-0.1-0.1-0.2-0.2-0.3-0.3c0,0,0,0,0,0c0,0,0,0,0,0c0.1,0,0.3,0,0.5,0.2c0,0,0,0,0.1,0c0,0,0,0,0-0.1c0,0,0-0.2,0-0.3c0,0,0,0,0,0
		s0,0,0,0c0.1,0.1,0.3,0.4,0.3,0.8c0,0,0,0,0,0c0,0,0,0,0,0c-0.1,0-0.1,0-0.2,0C200.1,68.9,200,68.8,199.9,68.7 M201,69.5
		c0,0-0.1,0-0.1,0c0,0-0.1,0-0.2,0c-0.2,0-0.4-0.2-0.7-0.4c0,0,0,0,0,0c0,0,0,0,0,0c0.1,0,0.3,0,0.5,0.1c0,0,0,0,0.1,0
		c0,0,0,0,0-0.1c0,0-0.1-0.2-0.1-0.3c0,0,0,0,0,0c0,0,0,0,0,0C200.7,68.9,201,69.1,201,69.5C201,69.5,201,69.5,201,69.5 M202.4,70.1
		c-0.2,0-0.3-0.1-0.5-0.2c-0.3-0.1-0.6-0.3-0.8-0.5c0,0,0,0,0,0c0-0.1,0-0.2,0-0.3c0,0,0,0,0,0c0,0,0,0,0,0c0.2,0.2,0.4,0.3,0.6,0.4
		c0.2,0.1,0.5,0.2,0.7,0.3v0l0.1,0C202.4,70,202.4,70,202.4,70.1L202.4,70.1z M202.8,69.9c0,0.1,0,0.2,0,0.3c0,0,0,0,0,0
		c0,0,0,0,0,0c0,0,0,0,0,0c-0.1,0-0.2-0.1-0.2-0.1c0-0.1-0.1-0.1-0.1-0.2c0-0.1,0-0.1,0.1-0.1c0.1,0,0.2-0.1,0.3,0c0,0,0,0,0,0
		c0,0,0,0,0,0C202.9,69.8,202.8,69.8,202.8,69.9 M203.3,70.7c-0.1,0-0.2-0.1-0.2-0.2s0.1-0.2,0.2-0.2c0.1,0,0.2,0.1,0.2,0.2
		S203.4,70.7,203.3,70.7 M203.5,70.2C203.5,70.2,203.5,70.2,203.5,70.2c-0.1-0.1-0.2-0.1-0.3-0.1c-0.1,0-0.2,0-0.2,0.1c0,0,0,0,0,0
		c0,0,0,0,0,0c-0.1-0.1-0.1-0.1-0.1-0.2c0.1-0.2,0.3-0.2,0.3-0.2h0c0,0,0.1,0,0.1,0c0.1,0,0.2,0.1,0.2,0.2
		C203.7,70.1,203.6,70.2,203.5,70.2 M204,70.1c0,0.1-0.1,0.1-0.2,0.1c0,0,0,0,0,0c0,0,0,0,0,0c0,0,0,0,0,0c0-0.1,0-0.2,0-0.3
		c0-0.1-0.1-0.1-0.1-0.2c0,0,0,0,0,0c0,0,0,0,0,0c0.1,0,0.3,0,0.3,0c0,0,0.1,0.1,0.1,0.1C204.1,69.9,204,70,204,70.1 M205.5,69.5
		C205.5,69.5,205.5,69.5,205.5,69.5c-0.1,0-0.3,0.2-0.6,0.4c-0.2,0.1-0.5,0.2-0.7,0.3l0,0c0-0.1,0.1-0.2,0.1-0.2l0.1,0v0
		c0.2-0.1,0.5-0.2,0.7-0.3c0.2-0.1,0.4-0.3,0.6-0.4c0,0,0,0,0,0c0,0,0,0,0,0C205.5,69.3,205.5,69.4,205.5,69.5 M204.9,69.4
		c-0.2,0.1-0.5,0.2-0.7,0.3l0,0c0,0-0.1-0.1-0.1-0.1c-0.2-0.1-0.7,0-0.8,0c0,0,0,0,0,0c-0.1,0-0.6-0.1-0.8,0c0,0-0.1,0.1-0.1,0.1
		l0,0c-0.2-0.1-0.5-0.2-0.7-0.3c-0.5-0.3-0.9-0.7-1.3-1.2c-0.1-0.2-0.3-0.4-0.4-0.6c0,0,0,0,0,0c0,0,0,0,0,0
		c0.3-0.1,0.9-0.4,1.5-0.7c0,0,0,0,0,0s0,0,0,0c0,0,0,0,0,0.1c0,0.1,0.2,0.2,0.3,0.2c0,0,0.1,0,0.1,0c0,0,0,0,0,0
		c0,0.1,0.1,0.2,0.2,0.2c0,0,0.1,0,0.1,0c0,0,0,0,0,0c0,0.1,0.1,0.1,0.1,0.1c0.1,0.1,0.3,0.1,0.4,0.1c0,0,0,0,0,0
		c0.1,0.1,0.1,0.1,0.2,0.1c0.1,0,0.2,0,0.2,0c0,0,0,0,0,0c0,0,0,0,0,0v1c0,0.1,0.1,0.1,0.1,0.1c0.1,0,0.1-0.1,0.1-0.1v-1.1
		c0,0,0,0,0,0c0,0,0,0,0,0c0.1,0,0.2,0,0.3,0c0.1,0,0.1-0.1,0.1-0.1c0,0,0,0,0,0c0.1,0,0.2,0,0.3-0.1c0,0,0.1-0.1,0.1-0.1
		c0,0,0,0,0,0c0,0,0,0,0,0c0.2,0,0.3-0.1,0.3-0.1c0,0,0-0.1,0.1-0.1c0,0,0,0,0,0c0.1,0,0.2,0,0.3-0.1c0,0,0.1-0.1,0.1-0.1
		c0,0,0,0,0,0c0,0,0,0,0,0c0.5,0.4,1.2,0.7,1.5,0.8c0,0,0,0,0,0c0,0,0,0,0,0c-0.1,0.2-0.2,0.4-0.3,0.5
		C205.8,68.8,205.4,69.2,204.9,69.4 M206.5,69.1L206.5,69.1c-0.3,0.3-0.5,0.3-0.7,0.4c-0.1,0-0.1,0-0.2,0c0,0-0.1,0-0.1,0
		c0,0,0,0,0,0c0-0.2,0.1-0.4,0.2-0.6c0-0.1,0.1-0.1,0.2-0.2c0,0,0,0,0,0c0,0,0,0,0,0c0,0.2-0.1,0.3-0.1,0.3c0,0,0,0,0,0.1
		c0,0,0,0,0.1,0C206.2,69.1,206.4,69.1,206.5,69.1C206.5,69.1,206.5,69.1,206.5,69.1C206.5,69.1,206.5,69.1,206.5,69.1 M207,68.4
		c-0.1,0.1-0.2,0.2-0.3,0.3c-0.1,0.1-0.2,0.1-0.3,0.2c-0.1,0-0.2,0-0.2,0c0,0,0,0,0,0c0,0,0,0,0,0c0-0.2,0-0.4,0.2-0.6
		c0-0.1,0.1-0.1,0.1-0.2c0,0,0,0,0,0c0,0,0,0,0,0c0,0.2,0,0.3,0,0.3c0,0,0,0,0,0.1c0,0,0,0,0.1,0C206.7,68.5,206.9,68.4,207,68.4
		C207,68.4,207,68.4,207,68.4C207,68.4,207,68.4,207,68.4 M207.4,67.8c-0.1,0.1-0.2,0.2-0.2,0.3c-0.1,0.1-0.2,0.2-0.3,0.2
		c-0.1,0.1-0.2,0.1-0.3,0.1c0,0,0,0,0,0c0-0.2,0-0.4,0.1-0.6c0-0.1,0.1-0.1,0.1-0.2c0,0,0,0,0,0c0,0,0,0,0,0c0,0.2,0,0.3,0,0.3
		c0,0,0,0,0,0.1c0,0,0,0,0.1,0C207.1,67.8,207.3,67.8,207.4,67.8C207.4,67.8,207.4,67.8,207.4,67.8
		C207.4,67.8,207.4,67.8,207.4,67.8 M207.7,67.1L207.7,67.1c-0.1,0.1-0.1,0.3-0.2,0.4c-0.1,0.1-0.2,0.2-0.3,0.2
		c-0.1,0.1-0.2,0.1-0.3,0.1l0,0c0,0,0,0,0,0c-0.1-0.2,0-0.4,0-0.6c0-0.1,0.1-0.1,0.1-0.2c0,0,0,0,0,0c0,0,0,0,0,0
		c0.1,0.2,0.1,0.3,0.1,0.3c0,0,0,0,0,0.1c0,0,0,0,0.1,0c0,0,0,0,0,0C207.4,67.2,207.6,67.1,207.7,67.1
		C207.7,67.1,207.7,67.1,207.7,67.1C207.7,67.1,207.7,67.1,207.7,67.1C207.7,67.1,207.7,67.1,207.7,67.1 M208,66.3L208,66.3
		c0,0.1-0.1,0.3-0.2,0.4c-0.1,0.1-0.2,0.2-0.2,0.3c-0.1,0.1-0.2,0.1-0.2,0.1c0,0,0,0,0,0c0,0,0,0,0,0c-0.1-0.2-0.1-0.5,0-0.6
		c0-0.1,0-0.1,0.1-0.2c0,0,0,0,0,0c0,0,0,0,0,0c0.1,0.2,0.1,0.3,0.1,0.3c0,0,0,0,0,0.1c0,0,0,0,0.1,0
		C207.7,66.5,207.8,66.4,208,66.3C207.9,66.3,208,66.3,208,66.3C208,66.3,208,66.3,208,66.3 M208,66c-0.1,0.1-0.1,0.2-0.2,0.3
		c-0.1,0.1-0.2,0.1-0.2,0.2c0,0,0,0,0,0c0,0,0,0,0,0c-0.1-0.2-0.1-0.4-0.1-0.6c0-0.1,0-0.1,0-0.2c0,0,0,0,0,0c0,0,0,0,0,0
		c0.1,0.1,0.1,0.3,0.1,0.3c0,0,0,0,0,0c0,0,0,0,0.1,0c0.1-0.2,0.3-0.3,0.4-0.4c0,0,0,0,0,0c0,0,0,0,0,0C208.1,65.7,208,65.8,208,66"
		/>
</g>
</svg>
