<?xml version="1.0" encoding="utf-8"?>
<!-- Generator: Adobe Illustrator 26.4.1, SVG Export Plug-In . SVG Version: 6.00 Build 0)  -->
<svg version="1.1" id="Capa_1" xmlns="http://www.w3.org/2000/svg" xmlns:xlink="http://www.w3.org/1999/xlink" x="0px" y="0px"
	 viewBox="0 0 220 84" style="enable-background:new 0 0 220 84;" xml:space="preserve">
<style type="text/css">
	.st0{fill:#641980;}
	.st1{clip-path:url(#SVGID_00000183214297512170928380000012693864333384753812_);fill:#641980;}
</style>
<g>
	<g>
		<path class="st0" d="M80.3,59.9h5.2v1.6h-3.2v1.7h2.4v1.5h-2.4v3.2h-1.9V59.9z"/>
		<path class="st0" d="M89.3,59.9v6.5h2.5v1.5h-4.5v-7.9H89.3z"/>
		<path class="st0" d="M91.9,59.9h2.2l1.5,3.3l1.5-3.3h2.2l-2.8,5.3v2.6h-1.9v-2.6L91.9,59.9z"/>
		<path class="st0" d="M104.7,67.9H101v-7.9h3.6c1.6,0,2.6,0.8,2.6,2.1c0,1-0.6,1.6-1.3,1.8c0.9,0.2,1.5,1,1.5,1.9
			C107.4,67,106.4,67.9,104.7,67.9z M104.2,61.5H103v1.7h1.3c0.6,0,1-0.3,1-0.8S104.9,61.5,104.2,61.5z M104.4,64.5H103v1.8h1.4
			c0.6,0,1-0.3,1-0.9C105.4,64.9,105,64.5,104.4,64.5z"/>
		<path class="st0" d="M113.2,67.9c-2.3,0-4.1-1.7-4.1-4.1c0-2.4,1.8-4.1,4.1-4.1c2.3,0,4.1,1.7,4.1,4.1
			C117.2,66.3,115.4,67.9,113.2,67.9z M113.2,66.2c1.3,0,2.1-0.9,2.1-2.3c0-1.4-0.8-2.3-2.1-2.3c-1.3,0-2.1,0.9-2.1,2.3
			C111.1,65.3,111.9,66.2,113.2,66.2z"/>
		<path class="st0" d="M126.1,59.9v7.9h-1.9l-3.2-4.9v4.9H119v-7.9h1.9l3.2,4.9v-4.9H126.1z"/>
		<path class="st0" d="M135.8,63.9c0,2.4-1.6,4-4.2,4h-3v-7.9h3C134.2,59.9,135.8,61.5,135.8,63.9z M131.5,66.2
			c1.5,0,2.3-0.8,2.3-2.3s-0.9-2.3-2.3-2.3h-0.9v4.6H131.5z"/>
		<path class="st0" d="M137.8,59.9h1.9v7.9h-1.9V59.9z"/>
	</g>
	<g>
		<g>
			<g>
				<path class="st0" d="M91.9,49.3V16.1h6v33.3H91.9z"/>
			</g>
			<g>
				<path class="st0" d="M120.6,38.6c0,1.5-0.5,2.7-1.6,3.8c-1.1,1.1-2.4,1.6-3.9,1.6c-1.5,0-2.8-0.5-3.9-1.6
					c-1.1-1.1-1.6-2.3-1.6-3.8V23.9h-5.9v14.6c0,2.9,1.2,5.6,3.5,7.8c2.3,2.2,5,3.4,8,3.4c3,0,5.7-1.1,8-3.4
					c2.3-2.2,3.5-4.9,3.5-7.8V23.9h-5.9V38.6z"/>
			</g>
			<g>
				<defs>
					<path id="SVGID_1_" d="M132.2,16.1v20.7c0,2.1,0.4,4,1.3,5.7c0.9,0.1,1.8,0.3,2.8,0.4c0.1,0,0.2,0,0.3,0c0.9-0.7,3.4-2.3,4.3-3
						c0,0,0,0,0-0.1c-0.3-0.1-1.9-1.1-4.8-2.7c-0.6-0.3-0.7-0.4-0.1-0.8c0.3-0.3,0.6-0.5,0.9-0.8c0.3-0.3,0.7-0.5,1.2-0.5
						c0.8,0,2.1,0.3,3.5,0.7c1.4,0.3,2.8,0.7,3.6,0.7c0.3,0,0.4-0.1,0.6-0.2c1.2-0.7,3.6-2.1,5-2.7c1.1-0.5,3.8-1.9,4.8-0.5
						c0.3,0.4,1.1,1.5-2,3.6c-1.2,1-14.8,8.6-17.1,9.9c2.5,2.2,5.5,3.4,9,3.4c3.7,0,6.8-1.3,9.4-3.8c2.6-2.6,4-5.6,4-9.2
						c0-3.5-1.3-6.5-3.8-9.2c-2.5-2.6-5.6-3.9-9.2-3.9c-3.4,0-6.3,1.2-8.8,3.5V16.1H132.2z"/>
				</defs>
				<use xlink:href="#SVGID_1_"  style="overflow:visible;fill:#641980;"/>
				<clipPath id="SVGID_00000166635339951083923790000016894455828216025516_">
					<use xlink:href="#SVGID_1_"  style="overflow:visible;"/>
				</clipPath>
				
					<rect x="127.5" y="11.3" style="clip-path:url(#SVGID_00000166635339951083923790000016894455828216025516_);fill:#641980;" width="36.2" height="43.2"/>
			</g>
		</g>
		<path class="st0" d="M79.9,41.1h6.7c-1.5,4.1-4.1,6.8-7.8,8c-1.4,0.5-2.9,0.7-4.5,0.7c-3.8,0-7-1.3-9.6-4
			c-2.5-2.5-3.7-5.5-3.7-9.1c0-3.8,1.3-7,4-9.5c2.5-2.4,5.5-3.5,9.1-3.5c3.6,0,6.6,1.2,9.2,3.5c1.4,1.3,2.4,2.8,3.1,4.6
			c0.1,0.2,0.2,0.5,0.3,0.8h-6.7c-1.2-2.3-3.1-3.4-5.8-3.4c-2.6,0-4.5,1-5.8,3.1c-0.8,1.3-1.3,2.7-1.3,4.4c0,2.7,1,4.7,2.9,6.2
			c1.3,0.9,2.7,1.4,4.3,1.4c2.3,0,4.2-1,5.6-3.1C79.8,41.2,79.9,41.1,79.9,41.1z"/>
	</g>
</g>
</svg>
