<?xml version="1.0" encoding="utf-8"?>
<!-- Generator: Adobe Illustrator 26.4.1, SVG Export Plug-In . SVG Version: 6.00 Build 0)  -->
<svg version="1.1" id="Capa_1" xmlns="http://www.w3.org/2000/svg" xmlns:xlink="http://www.w3.org/1999/xlink" x="0px" y="0px"
	 viewBox="0 0 220 84" style="enable-background:new 0 0 220 84;" xml:space="preserve">
<style type="text/css">
	.st0{fill:#1270FF;}
	.st1{fill:#0033A6;}
</style>
<g>
	<path class="st0" d="M69.6,37.6c0-4.3,2.2-7.2,7-7.2c1.5,0,2.8,0.1,4.1,0.5V34h-1.5L79,32.1c-0.6-0.1-1.5-0.2-2.3-0.2
		c-3.6,0-4.8,2.2-4.8,5.3c0,4.1,1.4,5.7,4.9,5.7c0.7,0,1.5-0.1,2.2-0.2l0.3-1.9h1.6l-0.1,3c-1.3,0.4-2.6,0.6-4.2,0.6
		C71.8,44.4,69.6,42.1,69.6,37.6"/>
	<polygon class="st0" points="82.1,42.9 83.2,42.9 83.2,31.2 81.9,31.2 81.9,29.9 85,29.7 85.2,29.9 85.2,42.9 86.4,42.9 86.4,44.2 
		82.1,44.2 	"/>
	<path class="st0" d="M88,41.3l0-5.5h-1.2v-1.3l3-0.1l0.2,0.1l0,6.4c0,1.7,1.2,2.1,2.1,2.1c1,0,1.8-0.5,2.3-0.8l0-6.4h-1.2v-1.3
		l3-0.1l0.2,0.1l0,8.3l1.2,0.1v1.3l-2.8,0.1l-0.1-0.2l-0.1-0.9c-1,0.7-2.1,1.2-3.3,1.2C89,44.4,88,43.1,88,41.3"/>
	<path class="st0" d="M106.2,39.3c0-2.1-0.9-3.5-2.8-3.5c-1,0-1.8,0.3-2.3,0.7v6.4c0.5,0.1,1.2,0.3,2,0.3
		C105.2,43,106.2,41.3,106.2,39.3 M99.2,43.9V31.2h-1.4v-1.3l3.1-0.2l0.2,0.1v5.4c0.7-0.5,1.7-0.9,2.9-0.9c2.8,0,4.2,1.9,4.2,4.8
		c0,3.4-2.2,5.3-5.2,5.3C101.8,44.4,100.4,44.3,99.2,43.9"/>
	<path class="st1" d="M77.7,57.4c0,2.3-1.7,2.9-3.8,2.9h-0.4v-8.6h1.8V51h-6.5v0.7h1.6v8.6h-1.6v0.7h9.7V57h-0.8V57.4z"/>
	<path class="st1" d="M82.6,57.5l1.7-3.4h0.1l1.7,3.4H82.6z M86.2,51h-1.2l-4.2,8.4c-0.2,0.5-0.6,0.9-1.4,0.9h-0.3v0.7H83v-0.7h-0.7
		c-0.4,0-0.8-0.1-0.8-0.5c0-0.2,0.1-0.3,0.1-0.4l0.6-1.2h4.2l1.1,2.1h-1.6v0.7h6.4v-0.7H91L86.2,51z"/>
	<path class="st1" d="M110.8,51h-4v0.7h0.5c0.8,0,1.2,0.3,1.2,0.8v4.4h0l-5.2-5.9h-4.7v0.7h0.3c0.6,0,1.2,0.5,1.2,1.1v6.5
		c0,0.8-0.5,1-1.1,1h-0.2h-0.3v0.7h4v-0.7h-0.3c-1,0-1.4-0.2-1.4-1v-6.4h0l7,8h1.4v-8.5c0-0.4,0.3-0.8,1.2-0.8h0.4V51z"/>
	<path class="st1" d="M114,57.5l1.7-3.4h0.2l1.7,3.4H114z M117.7,51h-1.2l-4.2,8.4c-0.2,0.5-0.6,0.9-1.4,0.9h-0.3v0.7h3.9v-0.7h-0.7
		c-0.4,0-0.8-0.1-0.8-0.5c0-0.2,0.1-0.3,0.1-0.4l0.6-1.1h4.2l1.1,2.1h-1.6v0.7h6.4v-0.7h-1.3L117.7,51z"/>
	<path class="st1" d="M129.8,60.4c-2.4,0-2.8-2-2.8-4.4c0-2.4,0.5-4.5,2.9-4.5c1.9,0,2.7,1.6,3,3.1h0.8v-3.5h-0.5
		c0,0.3-0.1,0.5-0.5,0.5c-0.4,0-1.1-0.8-3.2-0.8c-2.8,0-5.7,2.4-5.7,5.1c0,2.8,3,5.1,6,5.1c2.3,0,4.1-1.3,4.1-3.7H133
		C133,59.1,131.7,60.4,129.8,60.4"/>
	<polygon class="st1" points="135.5,51.6 137.1,51.6 137.1,60.3 135.5,60.3 135.5,60.9 141.8,60.9 141.8,60.3 140.2,60.3 
		140.2,51.6 141.8,51.6 141.8,51 135.5,51 	"/>
	<path class="st1" d="M149.1,60.4c-2.3,0-2.6-2.2-2.6-4.5c0-2.3,0.3-4.5,2.6-4.5c2.3,0,2.6,2.2,2.6,4.5
		C151.7,58.2,151.4,60.4,149.1,60.4 M149.1,50.8c-2.9,0-5.9,2.2-5.9,5.1c0,2.9,3,5.2,5.9,5.2c2.9,0,5.9-2.2,5.9-5.2
		C155,53.1,152,50.8,149.1,50.8"/>
	<path class="st1" d="M164.2,51v0.7h0.5c0.8,0,1.2,0.3,1.2,0.8v4.4h-0.1l-5.2-5.9h-4.7v0.7h0.3c0.6,0,1.2,0.5,1.2,1.1v6.5
		c0,0.8-0.5,1-1.1,1h-0.2H156v0.7h4v-0.7h-0.3c-1,0-1.4-0.2-1.4-1v-6.4h0l7,8h1.3v-8.5c0-0.4,0.3-0.8,1.2-0.8h0.4V51H164.2z"/>
	<path class="st0" d="M127.1,43c-0.5-2-1.1-3.9-1.9-5.8c-1.9-4.6-4.7-8.6-8.2-12.1c-3.5-3.5-7.6-6.3-12.1-8.2c-4.7-2-9.7-3-14.9-3
		c-5.2,0-10.2,1-14.9,3c-4.6,1.9-8.6,4.7-12.1,8.2c-3.5,3.5-6.3,7.6-8.2,12.1c-2,4.7-3,9.7-3,14.9c0,5.2,1,10.2,3,14.9
		c0.2,0.5,0.4,0.9,0.6,1.4c0.3,0.7,1.1,0.9,1.8,0.6c0.6-0.3,0.8-1,0.5-1.6c-0.2-0.4-0.4-0.9-0.6-1.3c-1.9-4.4-2.8-9.1-2.8-13.9
		c0-4.8,0.9-9.5,2.8-13.9c1.8-4.3,4.4-8.1,7.7-11.3c3.3-3.3,7.1-5.9,11.3-7.7c4.4-1.9,9.1-2.8,13.9-2.8c4.8,0,9.5,0.9,13.9,2.8
		c4.3,1.8,8.1,4.4,11.3,7.7c3.3,3.3,5.9,7.1,7.7,11.3c0.7,1.8,1.3,3.6,1.8,5.4c0.1,0.6,0.6,1,1.2,1C126.7,44.6,127.3,43.8,127.1,43"
		/>
</g>
</svg>
