<?xml version="1.0" encoding="utf-8"?>
<!-- Generator: Adobe Illustrator 26.5.0, SVG Export Plug-In . SVG Version: 6.00 Build 0)  -->
<svg version="1.1" id="Capa_1" xmlns="http://www.w3.org/2000/svg" xmlns:xlink="http://www.w3.org/1999/xlink" x="0px" y="0px"
	 viewBox="0 0 220 84" style="enable-background:new 0 0 220 84;" xml:space="preserve">
<style type="text/css">
	.st0{fill:#221551;}
	.st1{fill:#DF034D;}
	.st2{fill-rule:evenodd;clip-rule:evenodd;fill:#F3D031;}
	.st3{fill-rule:evenodd;clip-rule:evenodd;fill:#F6D967;}
	.st4{fill-rule:evenodd;clip-rule:evenodd;fill:#FEFDFD;}
	.st5{fill-rule:evenodd;clip-rule:evenodd;fill:#CA0488;}
	.st6{fill-rule:evenodd;clip-rule:evenodd;fill:#CA0288;}
	.st7{fill-rule:evenodd;clip-rule:evenodd;fill:#2F488A;}
	.st8{fill-rule:evenodd;clip-rule:evenodd;fill:#FEFCFD;}
	.st9{fill-rule:evenodd;clip-rule:evenodd;fill:#FEFDFE;}
	.st10{fill-rule:evenodd;clip-rule:evenodd;fill:#FEFBFC;}
	.st11{fill-rule:evenodd;clip-rule:evenodd;fill:#FEFEFE;}
	.st12{fill-rule:evenodd;clip-rule:evenodd;fill:#FBFBFC;}
	.st13{fill-rule:evenodd;clip-rule:evenodd;fill:#FCFCFD;}
	.st14{fill-rule:evenodd;clip-rule:evenodd;fill:#CA1089;}
	.st15{fill:#2566AF;}
	.st16{fill:#005591;}
	.st17{fill:#231F20;}
	.st18{fill:#F79410;}
	.st19{fill:#FF5F00;}
	.st20{fill:#EB001B;}
	.st21{fill:#F79E1B;}
	.st22{fill:#009AE5;}
	.st23{fill:#6E69C3;}
	.st24{fill:#707070;}
	.st25{fill:#31BAEC;}
	.st26{fill:#FE5000;}
	.st27{fill:#50007F;}
</style>
<g>
	<g id="WgCFvB_00000110443305039487520120000005540732639234930818_">
		<g>
			<path class="st0" d="M75.8,56.9c0.1-0.5,0.5-0.8,1-1c0.6-0.2,1.3-0.3,1.9-0.2s0.8,0.8,0.5,1.2C79.2,57,79,57,79,57
				c-0.4,0-0.8,0.1-1.2,0.1c-0.2,0-0.2,0.1-0.2,0.3c0,1,0,2,0,2.9c0,0.2,0,0.3-0.3,0.3c-0.2,0-0.5,0-0.7,0c-0.4,0-0.6-0.2-0.7-0.6
				C75.8,59.1,75.8,58,75.8,56.9z"/>
			<path class="st0" d="M92.3,53.6c0.4,0.2,0.7,0.4,0.7,0.9s-0.3,0.8-0.8,0.9c-0.5,0.1-1-0.2-1.1-0.7s0.1-0.9,0.6-1.1
				c0,0,0.1,0,0.1-0.1C92,53.6,92.2,53.6,92.3,53.6z"/>
			<path class="st0" d="M108.4,60.4c-0.5,0.2-1,0.2-1.5,0.1c-0.9-0.1-1.5-0.7-1.6-1.6c-0.1-0.6-0.1-1.2,0.1-1.8
				c0.3-0.8,1-1.3,1.8-1.4c0.7-0.1,1.4,0,2.1,0.3c0.5,0.2,0.8,0.5,0.7,1.1c0,1.1,0,2.2,0,3.4c0,1.4-0.8,2-1.8,2.2
				c-0.8,0.1-1.5,0.1-2.2-0.2c-0.6-0.2-0.7-0.9-0.3-1.4c0,0,0,0,0.1-0.1c0.5,0.3,1,0.4,1.6,0.4c0.2,0,0.3,0,0.5-0.1
				C108.4,61.1,108.5,60.8,108.4,60.4z M108.4,58.1c0-0.3,0-0.5,0-0.8c0-0.1-0.1-0.2-0.1-0.2c-0.6-0.3-1.2,0-1.3,0.7
				c0,0.2,0,0.4,0,0.6c0,0.7,0.7,1.1,1.4,0.8c0.1,0,0.1-0.1,0.1-0.2C108.4,58.6,108.4,58.4,108.4,58.1z"/>
			<path class="st0" d="M95.8,60.7c0,0.6,0,1.2,0,1.7c-0.4,0.1-0.8,0.1-1.2,0c-0.3-0.1-0.4-0.2-0.5-0.5c0-0.1,0-0.2,0-0.3
				c0-1.6,0-3.1,0-4.7c0-0.5,0.2-0.8,0.6-1c1-0.5,2.1-0.5,3.1-0.1c0.7,0.3,1.1,0.8,1.3,1.5c0.1,0.6,0.1,1.2-0.1,1.8
				c-0.5,1.4-1.8,1.7-2.9,1.5C95.9,60.8,95.9,60.8,95.8,60.7z M95.8,58.3c0,0.3,0,0.6,0,1c0,0.1,0,0.2,0.1,0.2
				c0.5,0.3,1.2,0,1.4-0.5c0.1-0.3,0.1-0.7,0.1-1c-0.1-0.7-0.7-1.1-1.4-0.8c-0.1,0-0.2,0.1-0.2,0.2C95.8,57.6,95.8,57.9,95.8,58.3z"
				/>
			<path class="st0" d="M87,60.8c0,0.6,0,1.1,0,1.7c-0.5,0.1-0.9,0.2-1.3,0c-0.1-0.1-0.3-0.2-0.3-0.4c-0.1-0.1-0.1-0.3-0.1-0.4
				c0-1.6,0-3.2,0-4.7c0-0.5,0.2-0.8,0.6-0.9c1-0.5,2.1-0.5,3.2-0.1c0.6,0.2,1,0.7,1.2,1.4c0.2,0.6,0.2,1.2,0,1.8
				C90,60.3,89,61,87.8,60.9C87.6,60.8,87.3,60.8,87,60.8z M88.6,58.3c0-0.1,0-0.2,0-0.3c-0.1-0.8-0.7-1.2-1.4-0.9
				c-0.1,0-0.1,0.1-0.1,0.2c0,0.6,0,1.3,0,1.9c0,0.1,0.1,0.2,0.2,0.2c0.6,0.2,1.2-0.1,1.4-0.7C88.6,58.6,88.6,58.4,88.6,58.3z"/>
			<path class="st0" d="M116.2,58.3c0,1.7-1.2,2.7-3,2.6c-1.3-0.1-2-0.8-2.3-1.9c-0.1-0.6-0.1-1.2,0.1-1.8c0.4-1,1.4-1.5,2.6-1.5
				c0.9,0,1.6,0.4,2.1,1.1C116.1,57.2,116.2,57.7,116.2,58.3z M114.5,58.3c-0.1-0.3-0.1-0.6-0.2-0.8c-0.1-0.3-0.4-0.5-0.7-0.4
				c-0.3,0-0.6,0.2-0.7,0.4c-0.2,0.5-0.2,1.1,0,1.6c0.1,0.3,0.4,0.5,0.7,0.5c0.3,0,0.6-0.1,0.7-0.5
				C114.4,58.8,114.4,58.6,114.5,58.3z"/>
			<path class="st0" d="M102.7,57.5c0-0.3-0.1-0.5-0.4-0.5c-0.4,0-0.8,0-1.3,0c-0.2,0-0.4,0.1-0.5,0.1c-0.2,0.1-0.3,0-0.3-0.1
				c-0.3-0.5-0.2-1,0.4-1.2c0.9-0.3,1.9-0.3,2.8,0c0.7,0.3,1,0.8,1,1.6c0,0.7,0,1.5,0,2.2c0,0.3-0.1,0.5-0.3,0.7
				c-0.3,0.3-0.7,0.4-1.1,0.4c-0.7,0.1-1.4,0.1-2-0.1c-1-0.3-1.4-1-1.2-2c0.2-0.6,0.7-0.9,1.3-1C101.6,57.7,102.1,57.6,102.7,57.5z
				 M102.7,58.7c-0.4,0.1-0.7,0.1-1,0.2c-0.2,0-0.3,0.2-0.3,0.4s0.1,0.4,0.3,0.4c0.3,0,0.6,0,0.9,0l0.1-0.1
				C102.7,59.2,102.7,58.9,102.7,58.7z"/>
			<path class="st0" d="M82.6,57.5c0-0.3-0.1-0.5-0.4-0.5c-0.5-0.1-1-0.1-1.4,0.1c-0.1,0-0.2,0-0.3,0.1c-0.3,0.1-0.3,0.1-0.5-0.2
				c-0.2-0.5-0.1-0.9,0.4-1.1c1-0.3,2-0.4,2.9,0.1c0.7,0.3,0.9,0.8,1,1.5c0,0.8,0,1.5,0,2.3c0,0.3-0.2,0.5-0.4,0.7
				c-0.4,0.3-0.9,0.4-1.4,0.4c-0.6,0.1-1.2,0-1.8-0.2c-0.9-0.3-1.3-1.1-1-2c0.2-0.6,0.7-0.9,1.3-1C81.5,57.7,82,57.6,82.6,57.5z
				 M82.6,58.7c-0.4,0-0.7,0.1-1,0.1c-0.2,0-0.3,0.2-0.3,0.4s0.1,0.4,0.3,0.4c0.3,0,0.6,0,0.9,0l0.1-0.1
				C82.6,59.2,82.6,58.9,82.6,58.7z"/>
			<path class="st0" d="M91.2,58.1c0-0.7,0-1.3,0-2c0-0.2,0.1-0.3,0.2-0.3c0.3,0,0.6,0,1,0c0.3,0,0.5,0.2,0.5,0.6c0,0.3,0,0.6,0,0.9
				c0,1.1,0,2.1,0,3.2c0,0.2,0,0.3-0.2,0.3c-0.3,0-0.6,0-0.9,0c-0.4-0.1-0.6-0.2-0.6-0.7C91.2,59.4,91.2,58.7,91.2,58.1z"/>
		</g>
	</g>
	<g id="WgCFvB_00000002373056565069568480000015185687633005007281_">
		<g>
			<path class="st1" d="M118.1,59.8c0,0.1-0.1,0.2-0.1,0.3c-0.5,1.5-1.6,2.4-3.2,2.7c-0.3,0.1-0.6,0.1-0.9,0.1c-0.1,0-0.2,0-0.2-0.2
				c0-0.4,0-0.7,0-1.1c0-0.1,0.1-0.2,0.2-0.2c0.3,0,0.6-0.1,0.9-0.1c1-0.2,1.6-0.8,1.9-1.7c0.1-0.2,0.1-0.2,0.3-0.2
				c0.4,0.1,0.7,0.2,1.1,0.3C118.1,59.7,118.1,59.8,118.1,59.8z"/>
		</g>
	</g>
</g>
<g>
	<path class="st2" d="M52.4,65.1c0-4.4,0-8.8,0-13.3c0-0.1,0-0.2,0.1-0.2c0.2-0.9,0.9-1.6,1.7-1.8c0.2,0,0.2-0.1,0.4-0.1
		c4.4,0,8.8,0,13.3,0H68c0.6,0.1,1.2,0.4,1.6,0.9c0.3,0.4,0.5,0.8,0.5,1.3v0.1c0,1.3,0,2.6,0,3.9V56c0,3,0,6.1,0,9.1
		c0,0.1,0,0.2,0,0.2c-0.1,0.7-0.5,1.3-1,1.6c-0.3,0.2-0.7,0.3-1.1,0.3h-0.1c-0.9,0-1.7,0-2.6,0h-0.1c-3.5,0-6.9,0-10.4,0
		c-0.1,0-0.2,0-0.3-0.1c-0.9-0.2-1.6-0.9-1.8-1.7C52.5,65.4,52.5,65.3,52.4,65.1z M66.9,54.8L66.9,54.8c0-0.3,0-0.6,0-0.7
		c-0.1-0.6-0.4-0.9-0.7-1.3c-0.7-0.7-1.9-0.9-2.8-0.4h-0.1c-0.3-0.3-0.6-0.6-0.9-0.9c-0.4-0.4-1-0.4-1.3,0c-0.2,0.2-0.5,0.5-0.7,0.7
		c-0.4,0.4-0.8,0.8-1.1,1.1c-0.4,0.4-0.8,0.8-1.2,1.2c-0.8,0.8-1.5,1.5-2.3,2.3c-0.6,0.5-1,1-1.5,1.5c-0.4,0.4-0.4,1,0,1.4
		c0.3,0.3,0.6,0.6,0.9,0.9v0.1c-0.2,0.2-0.5,0.5-0.8,0.8c0,0,0,0,0,0.1c-0.2,0.2-0.1,0.4,0.1,0.6c0.9,0.9,1.8,1.8,2.7,2.7v0.1
		c-0.1,0.1-0.2,0.2-0.2,0.3c-0.2,0.4-0.1,0.8,0.3,0.9c0.1,0,0.2,0,0.3,0c0.8,0,1.5,0,2.3,0c0.8,0,1.5,0,2.3,0c1.3,0,2.4,0,3.7,0
		c0.2,0,0.6,0,0.8,0c0.5,0,0.9,0,1.3,0s0.9-0.3,0.9-0.8c0-0.2,0-0.3,0-0.6c0-1.1,0-2.2,0-3.3c0-0.4,0-0.8,0-1.3c0-1.2,0-2.4,0-3.5
		c0-0.4,0-0.7,0-1.1c0-0.3,0-0.7,0-1c0-0.1,0-0.2-0.1-0.3c-0.1-0.2-0.3-0.4-0.6-0.3c-0.2,0-0.3,0.1-0.4,0.2
		C67.3,54.2,67.1,54.5,66.9,54.8C66.9,54.7,66.9,54.8,66.9,54.8z"/>
	<path class="st3" d="M70,51.9L70,51.9c0,1.3,0,2.8,0,4.1v-0.1C70,54.6,70,53.3,70,51.9L70,51.9z"/>
	<path class="st3" d="M67.9,67.3C67.8,67.3,67.8,67.3,67.9,67.3c-0.9,0-1.8,0-2.8,0h0.1C66.1,67.3,66.9,67.3,67.9,67.3
		C67.8,67.3,67.8,67.3,67.9,67.3z"/>
	<path class="st4" d="M66.9,54.8C66.9,54.8,66.9,54.7,66.9,54.8c0.3-0.2,0.6-0.6,0.8-0.8c0.1-0.1,0.2-0.2,0.4-0.2
		c0.2-0.1,0.5,0.1,0.6,0.3c0.1,0.1,0.1,0.2,0.1,0.3c0,0.3,0,0.7,0,1c0,0.4,0,0.7,0,1.1c0,1.2,0,2.4,0,3.5c0,0.4,0,0.8,0,1.3
		c0,1.1,0,2.2,0,3.3c0,0.2,0,0.3,0,0.6c-0.1,0.5-0.5,0.8-0.9,0.8s-0.9,0-1.3,0c-0.2,0-0.6,0-0.8,0c-1.3,0-2.4,0-3.7,0
		c-0.8,0-1.5,0-2.3,0s-1.5,0-2.3,0c-0.1,0-0.2,0-0.3,0c-0.4-0.1-0.6-0.6-0.3-0.9c0.1-0.1,0.2-0.2,0.2-0.3v-0.1
		c-0.9-0.9-1.8-1.8-2.7-2.7c-0.2-0.2-0.2-0.4-0.1-0.6c0,0,0,0,0-0.1c0.2-0.2,0.5-0.5,0.8-0.8v-0.1c-0.3-0.3-0.6-0.6-0.9-0.9
		c-0.4-0.4-0.4-1,0-1.4c0.5-0.5,1-1,1.5-1.5c0.8-0.8,1.5-1.5,2.3-2.3c0.4-0.4,0.8-0.8,1.2-1.2c0.4-0.4,0.8-0.8,1.1-1.1
		c0.2-0.2,0.5-0.5,0.7-0.7c0.4-0.4,1-0.4,1.3,0c0.3,0.3,0.6,0.6,0.9,0.9h0.1c0.9-0.5,2.1-0.3,2.8,0.4c0.4,0.4,0.6,0.8,0.7,1.3
		c0.1,0.2,0.1,0.4,0,0.6C66.9,54.7,66.9,54.7,66.9,54.8z M58.4,62.1c-0.2,0.2-0.3,0.5-0.5,0.6c0,0,0,0,0,0.1
		c0.2,0.2,0.3,0.3,0.4,0.4c0.2,0.2,0.2,0.4,0,0.6c-0.4,0.4-0.8,0.8-1.3,1.3c-0.1,0-0.1,0.1-0.2,0.2c0,0.1,0,0.2,0.1,0.2
		c0.1,0,0.1,0,0.2,0c0.2,0,0.5,0,0.6,0c0.8,0,1.5,0,2.3,0s1.5,0,2.3,0c1.1,0,2.2,0,3.3,0c0.6,0,1.3,0,2,0c0.3,0,0.6-0.2,0.6-0.6
		c0-0.3,0-0.6,0-0.9c0-0.8,0-1.5,0-2.3c0-1.2,0-2.4,0-3.6c0-0.3,0-0.6,0-0.9c0-0.9,0-1.8,0-2.8c0-0.1,0-0.1,0-0.2
		c0-0.2-0.2-0.2-0.2-0.1c-0.1,0-0.1,0.1-0.2,0.2c-0.4,0.4-0.7,0.7-1.1,1.1c-0.1,0.1-0.2,0.2-0.2,0.2l0,0c-0.1,0.2-0.2,0.4-0.4,0.6
		c-0.3,0.3-0.8,0.6-1.3,0.6c-0.2,0-0.3,0-0.6,0l0,0c0,0.1,0,0.2,0,0.3c-0.1,0.7-0.4,1.3-0.9,1.7c-0.3,0.2-0.6,0.5-0.9,0.6
		c0,0-0.1,0,0,0.1c0.1,0.2,0,0.3-0.1,0.4c-0.3,0.3-0.6,0.6-0.9,0.9c-0.2,0.2-0.3,0.2-0.5,0.1c-0.2-0.1-0.2-0.1-0.4-0.2h-0.1
		c-0.2,0.2-0.3,0.3-0.5,0.5v0.1c0.1,0.1,0.1,0.2,0.2,0.3c0.1,0.2,0.1,0.3-0.1,0.5c-0.1,0.1-0.2,0.2-0.3,0.3
		c-0.2,0.2-0.4,0.4-0.6,0.6c-0.2,0.2-0.6,0.2-0.6-0.2c0-0.1-0.1-0.1-0.1-0.2C58.5,62.4,58.4,62.3,58.4,62.1z M62,54.7
		C62,54.7,62,54.6,62,54.7c0-0.2,0-0.3,0-0.6c0.1-0.6,0.3-1.2,0.8-1.6v-0.1c-0.3-0.3-0.6-0.6-0.9-0.9c-0.2-0.2-0.6-0.2-0.8,0
		c-0.6,0.6-1.2,1.2-1.8,1.7c-0.4,0.4-0.8,0.8-1.1,1.1c-0.6,0.6-1.2,1.1-1.7,1.7c-0.7,0.7-1.4,1.4-2.2,2.2c-0.2,0.2-0.2,0.6,0,0.8
		c0.3,0.3,0.6,0.6,0.9,0.9h0.1c0.2-0.2,0.3-0.3,0.6-0.4c0.5-0.2,0.9-0.3,1.4-0.2l0,0c-0.1-0.2-0.2-0.5-0.3-0.7
		c-0.1-0.2-0.1-0.3,0.1-0.5c0.2-0.2,0.5-0.5,0.7-0.7c0.2-0.2,0.3-0.2,0.5-0.1c0.4,0.2,0.8,0.3,1.2,0.5c0,0,0,0,0.1,0v-0.1
		c-0.2-0.6-0.3-1.1-0.1-1.7c0.2-0.9,1.1-1.6,2-1.7C61.6,54.6,61.9,54.6,62,54.7z M64.3,56.4c0.6,0,1.2-0.2,1.6-0.6
		c0.6-0.6,0.7-1.5,0.3-2.2c-0.4-0.8-1.3-1.3-2.1-1.1c-0.9,0.2-1.6,0.9-1.7,1.7c-0.1,0.5,0.1,0.9,0.3,1.3
		C63.2,56.1,63.8,56.4,64.3,56.4z M59.8,57.1c0,0.2,0,0.2,0,0.4c0.1,0.6,0.4,0.9,0.8,1.3c0.5,0.4,1,0.5,1.7,0.3
		c0.4-0.1,0.7-0.3,1-0.6c0.4-0.4,0.6-0.9,0.6-1.4v-0.1c-0.4-0.4-0.8-0.8-1.2-1.2c0,0,0,0-0.1,0c-0.4,0.4-0.8,0.8-1.2,1.2
		c0,0,0,0,0,0.1c0.2,0.2,0.4,0.4,0.6,0.6H62c0.2-0.2,0.3-0.3,0.4-0.4h0.1c0.1,0.1,0.1,0.1,0.2,0.2v0.1c-0.1,0.2-0.2,0.2-0.2,0.4
		c-0.2,0.2-0.6,0.4-0.9,0.2c-0.2-0.1-0.5-0.3-0.6-0.6c-0.1-0.2-0.2-0.4-0.1-0.6c0.1-0.3,0.2-0.5,0.6-0.6c0.2-0.1,0.3-0.1,0.6-0.1H62
		C62,55.9,62,55.6,62,55.3c0-0.1,0-0.1-0.1-0.1c-0.2,0-0.3,0-0.4,0.1c-0.4,0.1-0.7,0.3-0.9,0.6C60,56.1,59.8,56.5,59.8,57.1z
		 M59,62.6L59,62.6c0.3-0.3,0.6-0.6,0.9-0.9c0,0,0,0,0-0.1c-0.1-0.2-0.2-0.4-0.2-0.6V61c0.3-0.3,0.6-0.6,0.9-0.9h0.1
		c0.2,0.1,0.4,0.2,0.6,0.2h0.1c0.2-0.2,0.6-0.6,0.8-0.8c0.1-0.1,0.1-0.1,0-0.1c-1.3-0.6-2.5-1-3.8-1.6h-0.1
		c-0.2,0.2-0.5,0.5-0.7,0.7v0.1c0.4,0.9,0.8,1.8,1.2,2.8C58.7,61.9,58.9,62.3,59,62.6z M58.2,61.3c0-0.1,0-0.2,0-0.3
		c-0.1-0.3-0.2-0.6-0.5-0.8c-0.3-0.2-0.7-0.4-1.1-0.3c-0.3,0.1-0.6,0.2-0.9,0.5c-0.4,0.4-0.8,0.8-1.2,1.2v0.1
		c0.9,0.9,1.7,1.7,2.7,2.7c0,0,0,0,0.1,0c0.2-0.2,0.5-0.5,0.7-0.7v-0.1c-0.2-0.2-0.5-0.5-0.7-0.7c0,0,0,0,0-0.1
		c0.1-0.1,0.2-0.2,0.2-0.2c0.2-0.2,0.3-0.3,0.4-0.5C58.1,61.9,58.2,61.6,58.2,61.3z"/>
	<path class="st5" d="M58.4,62.1c0.1,0.2,0.2,0.3,0.2,0.5c0,0.1,0.1,0.1,0.1,0.2c0.2,0.2,0.5,0.3,0.6,0.2c0.2-0.2,0.4-0.4,0.6-0.6
		c0.1-0.1,0.2-0.2,0.3-0.3c0.2-0.2,0.2-0.3,0.1-0.5c-0.1-0.1-0.1-0.2-0.2-0.3v-0.1c0.2-0.2,0.3-0.3,0.5-0.5c0,0,0,0,0.1,0
		c0.1,0.1,0.2,0.1,0.4,0.2c0.2,0.1,0.3,0.1,0.5-0.1c0.3-0.3,0.6-0.6,0.9-0.9c0.1-0.1,0.2-0.2,0.1-0.4v-0.1c0.4-0.1,0.7-0.3,0.9-0.6
		c0.5-0.5,0.8-1,0.9-1.7c0-0.1,0-0.2,0-0.3l0,0c0.2,0,0.3,0,0.6,0c0.5-0.1,0.9-0.3,1.3-0.6c0.2-0.2,0.3-0.3,0.4-0.6l0,0
		c0.1-0.1,0.2-0.1,0.2-0.2c0.4-0.4,0.7-0.7,1.1-1.1c0.1-0.1,0.1-0.1,0.2-0.2c0.2-0.1,0.2,0,0.2,0.1s0,0.1,0,0.2c0,0.9,0,1.8,0,2.8
		c0,0.3,0,0.6,0,0.9c0,1.2,0,2.4,0,3.6c0,0.8,0,1.5,0,2.3c0,0.3,0,0.6,0,0.9c0,0.3-0.2,0.6-0.6,0.6c-0.6,0-1.3,0-2,0
		c-1.1,0-2.2,0-3.3,0c-0.8,0-1.5,0-2.3,0c-0.8,0-1.5,0-2.3,0c-0.2,0-0.5,0-0.6,0c-0.1,0-0.2,0-0.2,0c-0.1,0-0.1-0.1-0.1-0.2
		s0.1-0.2,0.2-0.2c0.4-0.4,0.8-0.8,1.3-1.3c0.2-0.2,0.2-0.4,0-0.6c-0.2-0.2-0.3-0.3-0.4-0.4c0,0,0,0,0-0.1
		C58.1,62.6,58.3,62.4,58.4,62.1z M66,60.7C66.1,60.7,66.1,60.7,66,60.7c0.1,0.2,0.2,0.2,0.2,0.2c0.1,0.1,0.2,0.1,0.2,0.1
		c0.1,0,0.2-0.1,0.2-0.2c0.1-0.2,0.2-0.5,0.2-0.7c0-0.1,0-0.2,0-0.2c0,0,0,0,0.1,0.1c0.1,0.1,0.2,0.2,0.2,0.2
		c0.2,0.1,0.3,0.1,0.4-0.1c0-0.1,0.1-0.1,0.1-0.2c0.2-0.4,0.2-0.9,0.2-1.3l0,0c-0.1,0-0.1,0-0.2,0c-0.1,0-0.1,0-0.1,0.1
		c0,0.2,0,0.3,0,0.6c0,0.1,0,0.1-0.1,0.2c0,0.1-0.1,0.1-0.2,0c0,0,0-0.1-0.1-0.1c-0.1-0.1-0.1-0.2-0.2-0.3c-0.2-0.6-0.3-1.3-0.4-2
		c0-0.1,0-0.1-0.1-0.1s-0.2,0-0.2,0c-0.2,0-0.2,0.1-0.2,0.2c0,0,0,0,0,0.1c0,0.2,0,0.2,0.1,0.4c0.1,0.5,0.2,0.9,0.2,1.3
		s0.2,0.8,0.1,1.2c0,0.1,0,0.2-0.1,0.2c0,0.1-0.1,0.1-0.1,0l-0.1-0.1c-0.1-0.1-0.1-0.2-0.1-0.3c-0.1-0.3-0.2-0.6-0.2-0.9
		c0-0.1,0-0.1-0.1-0.1c-0.1,0-0.2,0-0.2,0c-0.1,0-0.2,0.1-0.2,0.2c0,0.2,0.1,0.5,0.1,0.6c0.1,0.2,0.1,0.5,0.1,0.7s0,0.6-0.1,0.8
		c-0.1,0.2-0.1,0.3-0.2,0.4c-0.1,0.1-0.2,0.1-0.3,0c-0.1-0.1-0.2-0.2-0.2-0.2c-0.2-0.4-0.2-0.8-0.2-1.2c0-0.1,0-0.1,0.1-0.1
		c0-0.1,0.1-0.1,0.1,0s0.1,0.1,0.1,0.2c0,0.2,0.1,0.2,0.1,0.4l0,0c0.2-0.1,0.2-0.2,0.2-0.3c0-0.2,0-0.2-0.1-0.4
		c-0.1-0.2-0.2-0.2-0.3-0.2s-0.3,0.1-0.5,0.2c-0.1,0.2-0.2,0.2-0.2,0.4c-0.1,0.4-0.1,0.7,0.1,1.1c0.1,0.3,0.1,0.6,0,0.9
		c0,0,0,0.1-0.1,0.1s-0.1,0-0.1-0.1c-0.1-0.1-0.1-0.2-0.2-0.3c-0.1-0.3-0.2-0.6-0.2-0.9c0-0.1,0-0.1-0.1-0.1c-0.1,0-0.2,0-0.2,0
		c-0.1,0-0.2,0.1-0.2,0.2c0,0.1,0,0.2,0,0.2c0,0-0.1,0-0.1-0.1c-0.2-0.1-0.2,0-0.3,0.1c-0.1,0.1-0.1,0.2-0.2,0.2
		c-0.2,0.2-0.2,0.5-0.2,0.8c0,0.3,0.1,0.6,0.2,0.9c0.1,0.2,0.2,0.4,0.3,0.6c0.2,0.2,0.4,0.2,0.6,0c0.1-0.1,0.1-0.1,0.1-0.2
		c0.1-0.2,0.1-0.4,0.1-0.6c0-0.1,0-0.2,0-0.2c0.1,0.1,0.2,0.2,0.2,0.2c0.2,0.2,0.4,0.1,0.5-0.1c0.1-0.2,0.2-0.5,0.2-0.7
		c0-0.1,0-0.2,0-0.2c0.1,0,0.1,0.1,0.2,0.1c0.2,0.1,0.5,0.1,0.6-0.1c0.1-0.1,0.2-0.2,0.2-0.2c0.2-0.2,0.2-0.6,0.2-0.8
		C66,60.9,66,60.8,66,60.7z M61.7,63.2c-0.1-0.3-0.1-0.6-0.2-0.8c0-0.2,0-0.3,0.1-0.4c0.2-0.3,0.4-0.6,0.6-0.9
		c0.2-0.2,0.4-0.5,0.6-0.7v-0.1h-0.1c-0.3,0-0.6,0.2-0.7,0.3c-0.2,0.2-0.5,0.5-0.7,0.8c-0.4,0.6-0.7,1.1-1,1.7
		c-0.1,0.1-0.1,0.2-0.2,0.3c0,0.1,0,0.2,0.1,0.2c0,0,0,0,0.1,0c0.1,0,0.2-0.1,0.2-0.2c0.2-0.2,0.3-0.5,0.5-0.7c0,0,0-0.1,0,0
		c0,0,0,0,0,0.1c0.1,0.3,0.1,0.6,0.2,0.9c0,0.1,0,0.1,0,0.2c-0.1,0.1-0.1,0.2-0.2,0.2c0,0.1,0,0.1,0.1,0.2c0,0,0.1,0,0.1,0.1
		c0.1,0,0.1,0,0.2,0c0.1,0,0.1,0,0.1,0.1c0.1,0.2,0.2,0.5,0.3,0.7c0,0.1,0.1,0.1,0.2,0.2c0.1,0.1,0.3,0.1,0.4,0c0.1,0,0.1-0.1,0-0.1
		c-0.1-0.1-0.1-0.1-0.2-0.2c-0.1-0.2-0.2-0.4-0.2-0.6c-0.1-0.2-0.2-0.3-0.2-0.5c0-0.1,0-0.2,0.1-0.2c0.2-0.2,0.2-0.3,0.4-0.6
		c0.1-0.1,0.2-0.2,0.2-0.2c0-0.1,0-0.1,0-0.1c-0.1,0-0.2-0.1-0.2-0.1c-0.1,0-0.2,0.1-0.3,0.2C62,63,61.9,63.1,61.7,63.2z M63.5,60.2
		c0-0.2-0.1-0.2-0.2-0.2c-0.1,0-0.2,0-0.2,0c-0.1,0-0.1,0-0.1,0.1c0,0.2,0,0.6-0.1,0.8v0.1c0,0,0,0.1,0.1,0.1s0.2,0,0.2-0.1
		c0.1-0.1,0.1-0.2,0.2-0.2C63.5,60.5,63.5,60.3,63.5,60.2z M65.9,57.9c0-0.2,0-0.2-0.1-0.3c-0.1-0.2-0.2-0.2-0.4,0
		c-0.2,0.2-0.2,0.5,0,0.6c0.1,0.1,0.2,0.1,0.3,0C65.8,58.2,65.9,58.1,65.9,57.9z"/>
	<path class="st6" d="M62,54.7c-0.2-0.1-0.4-0.1-0.6,0c-0.9,0.2-1.7,0.9-2,1.7c-0.2,0.6-0.2,1.1,0.1,1.7v0.1c0,0,0,0-0.1,0
		c-0.4-0.2-0.8-0.3-1.2-0.5c-0.2-0.1-0.3-0.1-0.5,0.1c-0.2,0.2-0.5,0.5-0.7,0.7c-0.1,0.1-0.1,0.2,0,0.4c0.1,0.2,0.2,0.5,0.3,0.7l0,0
		c-0.5-0.2-0.9-0.1-1.4,0.2c-0.2,0.1-0.4,0.2-0.6,0.4h-0.1c-0.3-0.3-0.6-0.6-0.9-0.9c-0.2-0.2-0.2-0.6,0-0.8
		c0.7-0.7,1.4-1.4,2.2-2.2c0.6-0.6,1.2-1.1,1.7-1.7c0.4-0.4,0.8-0.8,1.1-1.1c0.6-0.6,1.2-1.2,1.8-1.7c0.2-0.2,0.6-0.2,0.8,0
		c0.3,0.3,0.6,0.6,0.9,0.9c0,0,0,0,0,0.1c-0.5,0.4-0.8,0.9-0.8,1.6C62,54.3,62,54.5,62,54.7C62,54.6,62,54.7,62,54.7z"/>
	<path class="st7" d="M64.3,56.4c-0.6,0-1.1-0.3-1.5-0.9c-0.3-0.4-0.4-0.9-0.3-1.3c0.1-0.9,0.8-1.6,1.7-1.7c0.9-0.2,1.7,0.3,2.1,1.1
		c0.4,0.8,0.2,1.6-0.3,2.2C65.6,56.2,65,56.4,64.3,56.4z M64.6,55.3c0.2,0,0.4-0.1,0.6-0.2c0.2-0.2,0.3-0.6,0.2-0.9
		c-0.2-0.4-0.6-0.6-0.9-0.7c-0.5,0-0.9,0.4-0.9,0.9C63.6,54.9,64.1,55.3,64.6,55.3z"/>
	<path class="st7" d="M59.8,57.1c0-0.6,0.2-1,0.6-1.4c0.3-0.2,0.6-0.5,0.9-0.6c0.2,0,0.3-0.1,0.4-0.1c0,0,0.1,0,0.1,0.1
		c0,0.3,0.1,0.6,0.1,0.9c0,0.1,0,0-0.1,0c-0.2,0-0.4,0-0.6,0.1c-0.1,0.2-0.3,0.4-0.3,0.7c-0.1,0.2,0,0.4,0.1,0.6
		c0.2,0.2,0.3,0.4,0.6,0.6c0.3,0.2,0.7,0.1,0.9-0.2c0.1-0.1,0.2-0.2,0.2-0.4v-0.1c-0.1-0.1-0.1-0.1-0.2-0.2h-0.1
		c-0.2,0.2-0.3,0.3-0.4,0.4c0,0,0,0-0.1,0c-0.2-0.2-0.4-0.4-0.6-0.6c0,0,0,0,0-0.1c0.4-0.4,0.8-0.8,1.2-1.2c0,0,0,0,0.1,0
		c0.4,0.4,0.8,0.8,1.2,1.2v0.1c-0.1,0.6-0.2,1-0.6,1.4c-0.3,0.3-0.6,0.6-1,0.6c-0.6,0.2-1.2,0-1.7-0.3c-0.4-0.3-0.7-0.7-0.8-1.3
		C59.8,57.3,59.8,57.2,59.8,57.1z"/>
	<path class="st7" d="M59,62.6c-0.2-0.4-0.3-0.7-0.5-1.1c-0.4-0.9-0.8-1.8-1.2-2.8v-0.1c0.2-0.2,0.5-0.5,0.7-0.7c0,0,0,0,0.1,0
		c1.3,0.6,2.5,1,3.8,1.6c0.1,0,0.1,0,0,0.1c-0.2,0.2-0.6,0.6-0.8,0.8h-0.1c-0.2-0.1-0.4-0.2-0.6-0.2h-0.1c-0.3,0.3-0.6,0.6-0.9,0.9
		v0.1c0.1,0.2,0.2,0.4,0.2,0.6v0.1C59.6,62.1,59.3,62.3,59,62.6L59,62.6z M59.6,59.8c-0.2-0.1-0.5-0.2-0.8-0.3
		c0,0.1,0.1,0.1,0.1,0.2c0.1,0.2,0.2,0.4,0.2,0.6c0,0,0,0.1,0,0C59.3,60,59.4,59.9,59.6,59.8z"/>
	<path class="st7" d="M58.2,61.3c0,0.2-0.1,0.6-0.2,0.8c-0.1,0.2-0.2,0.3-0.4,0.5c-0.1,0.1-0.2,0.2-0.2,0.2c0,0,0,0,0,0.1
		c0.2,0.2,0.5,0.5,0.7,0.7v0.1c-0.2,0.2-0.5,0.5-0.7,0.7h-0.1c-0.9-0.9-1.7-1.7-2.7-2.7v-0.1c0.4-0.4,0.8-0.8,1.2-1.2
		c0.2-0.2,0.6-0.4,0.9-0.5c0.4-0.1,0.8,0,1.1,0.3c0.2,0.2,0.4,0.5,0.5,0.8C58.2,61.1,58.2,61.3,58.2,61.3z M56,61.6L56,61.6
		c0.2,0.2,0.4,0.4,0.6,0.6c0,0,0,0,0.1,0c0.1-0.1,0.2-0.2,0.3-0.3c0,0,0.1-0.1,0.1-0.2c0.2-0.2,0-0.6-0.3-0.6c-0.2,0-0.2,0-0.3,0.1
		C56.3,61.3,56.2,61.4,56,61.6z"/>
	<path class="st8" d="M66,60.7c0,0.1,0,0.2,0,0.3c0,0.3-0.1,0.6-0.2,0.8c-0.1,0.1-0.1,0.2-0.2,0.2c-0.2,0.2-0.4,0.2-0.6,0.1
		c-0.1,0-0.1-0.1-0.2-0.1c0,0.1,0,0.2,0,0.2c0,0.2-0.1,0.5-0.2,0.7s-0.3,0.2-0.5,0.1c-0.1-0.1-0.2-0.2-0.2-0.2c0,0.1,0,0.2,0,0.2
		c0,0.2,0,0.4-0.1,0.6c0,0.1-0.1,0.1-0.1,0.2c-0.2,0.2-0.4,0.2-0.6,0c-0.2-0.2-0.2-0.3-0.3-0.6c-0.2-0.3-0.2-0.6-0.2-0.9
		c0-0.2,0.1-0.6,0.2-0.8c0-0.1,0.1-0.2,0.2-0.2c0.1-0.1,0.2-0.2,0.3-0.1c0,0,0.1,0,0.1,0.1c0-0.1,0-0.2,0-0.2s0-0.2,0.2-0.2
		c0.1,0,0.2,0,0.2,0c0.1,0,0.1,0,0.1,0.1c0.1,0.3,0.1,0.6,0.2,0.9c0,0.1,0.1,0.2,0.2,0.3l0.1,0.1c0.1,0,0.1-0.1,0.1-0.1
		c0.1-0.3,0.1-0.6,0-0.9c-0.2-0.4-0.2-0.7-0.1-1.1c0-0.2,0.1-0.3,0.2-0.4c0.1-0.2,0.2-0.2,0.5-0.2c0.2,0,0.2,0.1,0.3,0.2
		c0.1,0.2,0.1,0.2,0.1,0.4c0,0.2-0.1,0.2-0.2,0.3l0,0c0-0.2-0.1-0.2-0.1-0.4c0-0.1,0-0.1-0.1-0.2c0-0.1-0.1-0.1-0.1,0
		c0,0,0,0.1-0.1,0.1c-0.1,0.4,0,0.9,0.2,1.2c0.1,0.1,0.1,0.2,0.2,0.2c0.1,0.1,0.2,0.1,0.3,0c0.2-0.1,0.2-0.2,0.2-0.4
		c0.1-0.2,0.1-0.6,0.1-0.8s-0.1-0.5-0.1-0.7c0-0.2-0.1-0.5-0.1-0.6c0-0.2,0-0.2,0.2-0.2c0.1,0,0.2,0,0.2,0s0.1,0,0.1,0.1
		c0.1,0.3,0.1,0.6,0.2,0.9c0,0.1,0.1,0.2,0.1,0.3c0,0,0,0.1,0.1,0.1c0.1,0.1,0.1,0.1,0.1,0c0-0.1,0.1-0.2,0.1-0.2
		c0.1-0.4,0-0.8-0.1-1.2c-0.1-0.5-0.2-0.9-0.2-1.3c0-0.2,0-0.2-0.1-0.4c0,0,0,0,0-0.1c0-0.2,0-0.2,0.2-0.2c0.1,0,0.2,0,0.2,0
		c0.1,0,0.1,0,0.1,0.1c0.1,0.7,0.2,1.3,0.4,2c0,0.2,0.1,0.2,0.2,0.3c0,0,0,0.1,0.1,0.1c0.1,0.1,0.1,0.1,0.2,0c0-0.1,0-0.1,0.1-0.2
		c0-0.2,0.1-0.3,0-0.6c0-0.1,0-0.1,0.1-0.1s0.1,0,0.2,0l0,0c0,0.4,0,0.9-0.2,1.3c0,0.1-0.1,0.1-0.1,0.2c-0.1,0.2-0.2,0.2-0.4,0.1
		c-0.1-0.1-0.2-0.2-0.2-0.2c0,0,0,0-0.1-0.1c0,0.1,0,0.2,0,0.2c0,0.2-0.1,0.5-0.2,0.7c0,0.1-0.1,0.2-0.2,0.2c-0.1,0-0.2,0-0.2-0.1
		C66.2,60.9,66.2,60.8,66,60.7C66.1,60.7,66.1,60.7,66,60.7z M63.6,62.8c0-0.4-0.1-0.8-0.2-1.2c0-0.1-0.1-0.2-0.2-0.2
		c-0.1,0-0.1,0-0.2,0.1c0,0.1-0.1,0.2-0.1,0.3c0,0.4,0.1,0.8,0.2,1.2c0,0.1,0.1,0.1,0.1,0.2c0.1,0.1,0.1,0.1,0.2,0v-0.1
		C63.7,63.1,63.6,62.9,63.6,62.8z"/>
	<path class="st9" d="M61.7,63.2c0.1-0.2,0.2-0.2,0.3-0.4c0.1-0.1,0.2-0.2,0.3-0.2c0.1,0,0.2,0,0.2,0.1c0.1,0,0.1,0.1,0,0.1
		c-0.1,0.1-0.2,0.2-0.2,0.2c-0.2,0.2-0.2,0.4-0.4,0.6c-0.1,0.1-0.1,0.2-0.1,0.2c0,0.2,0.1,0.3,0.2,0.5c0.1,0.2,0.2,0.4,0.2,0.6
		c0,0.1,0.1,0.2,0.2,0.2v0.1c-0.1,0.1-0.3,0.1-0.4,0c-0.1,0-0.1-0.1-0.2-0.2c-0.2-0.2-0.3-0.5-0.3-0.7c0-0.1,0-0.1-0.1-0.1
		c-0.1,0-0.1,0-0.2,0c0,0-0.1,0-0.1-0.1c-0.1,0-0.1-0.1-0.1-0.2c0-0.1,0.1-0.2,0.2-0.2c0,0,0-0.1,0-0.2c-0.1-0.3-0.1-0.6-0.2-0.9
		v-0.1l0,0c-0.2,0.2-0.3,0.5-0.5,0.7c-0.1,0.1-0.2,0.2-0.2,0.2c0,0,0,0-0.1,0c-0.1,0-0.2-0.1-0.1-0.2c0-0.1,0.1-0.2,0.2-0.3
		c0.3-0.6,0.6-1.1,1-1.7c0.2-0.3,0.5-0.6,0.7-0.8c0.2-0.2,0.5-0.3,0.7-0.3H63v0.1c-0.2,0.2-0.4,0.5-0.6,0.7
		c-0.2,0.3-0.5,0.6-0.6,0.9c-0.1,0.2-0.2,0.2-0.1,0.4C61.6,62.7,61.7,62.9,61.7,63.2z"/>
	<path class="st10" d="M63.5,60.2c0,0.2-0.1,0.3-0.2,0.5c-0.1,0.1-0.1,0.2-0.2,0.2c0,0.1-0.2,0.1-0.2,0.1c0,0-0.1,0-0.1-0.1v-0.1
		C63,60.6,63,60.2,63,60c0,0,0-0.1,0.1-0.1c0.1,0,0.2,0,0.2,0C63.5,59.9,63.5,60,63.5,60.2z"/>
	<path class="st10" d="M65.9,57.9c0,0.1-0.1,0.2-0.2,0.3c-0.1,0.1-0.2,0.1-0.3,0c-0.2-0.2-0.2-0.5,0-0.6c0.1-0.1,0.2-0.1,0.4,0
		C65.8,57.8,65.9,57.9,65.9,57.9z"/>
	<path class="st11" d="M64.6,55.3c-0.5,0-0.9-0.4-1-0.9c0-0.5,0.3-0.9,0.9-0.9c0.4,0,0.8,0.3,0.9,0.7c0.1,0.3,0.1,0.6-0.2,0.9
		C65,55.2,64.8,55.3,64.6,55.3z"/>
	<path class="st12" d="M59.6,59.8c-0.2,0.2-0.2,0.2-0.4,0.4l0,0C59.1,60,59,59.8,59,59.6c0-0.1-0.1-0.1-0.1-0.2
		C59.1,59.5,59.4,59.6,59.6,59.8z"/>
	<path class="st13" d="M56,61.6c0.2-0.2,0.2-0.2,0.4-0.4c0.1-0.1,0.2-0.2,0.3-0.1c0.3,0.1,0.5,0.4,0.3,0.6c0,0.1-0.1,0.1-0.1,0.2
		c-0.1,0.1-0.2,0.2-0.3,0.3c0,0,0,0-0.1,0C56.4,62,56.3,61.7,56,61.6L56,61.6z"/>
	<path class="st14" d="M63.6,62.8c0,0.2,0,0.2,0,0.4v0.1c0,0.1-0.1,0.1-0.2,0c-0.1-0.1-0.1-0.1-0.1-0.2c-0.2-0.4-0.2-0.8-0.2-1.2
		c0-0.1,0-0.2,0.1-0.3c0-0.1,0.1-0.1,0.2-0.1c0.1,0,0.2,0.1,0.2,0.2C63.5,62.1,63.6,62.4,63.6,62.8z"/>
</g>
<g>
	<path class="st15" d="M29.3,30.6H26L28.1,18h3.3L29.3,30.6z M23.3,17.9l-3.1,8.7l-0.4-1.9l0,0L18.7,19c0,0-0.1-1.1-1.6-1.1h-5.2
		l-0.1,0.2c0,0,1.6,0.3,3.4,1.4l2.9,11h3.4l5.2-12.6H23.3L23.3,17.9z M49.2,30.6h3L49.6,18H47c-1.2,0-1.5,0.9-1.5,0.9l-4.9,11.7H44
		l0.7-1.9h4.2L49.2,30.6L49.2,30.6z M45.5,26.1l1.7-4.7l1,4.7C48.2,26.1,45.5,26.1,45.5,26.1z M40.7,21l0.5-2.7c0,0-1.4-0.6-3-0.6
		s-5.5,0.7-5.5,4.2c0,3.3,4.5,3.3,4.5,5s-4.1,1.4-5.4,0.3L31.3,30c0,0,1.5,0.7,3.7,0.7c2.2,0,5.6-1.2,5.6-4.3c0-3.3-4.6-3.6-4.6-5
		C36.1,20,39.3,20.2,40.7,21L40.7,21z"/>
</g>
<g>
	<path class="st15" d="M106,30.6c-1,0-1.9,0-2.9,0c-0.2,0-0.2,0-0.2-0.1c-0.1-0.5-0.2-1.1-0.3-1.6c0-0.1,0-0.1-0.2-0.1
		c-0.7,0-1.3,0-2,0c-0.6,0-1.3,0-1.9,0c-0.2,0-0.2,0-0.2,0.2c-0.2,0.5-0.4,1-0.6,1.6c-0.1,0.2-0.1,0.2-0.2,0.2c-1,0-2.1,0-3.1,0
		c-0.2,0-0.2,0-0.1-0.2c0.3-0.6,0.5-1.2,0.8-1.8c0.4-0.9,0.8-1.9,1.2-2.8c0.4-1.1,0.9-2.1,1.3-3.2s0.9-2.1,1.3-3.2
		c0.1-0.2,0.2-0.5,0.3-0.7c0.3-0.6,0.7-0.8,1.3-0.8c0.9,0,1.8,0,2.7,0c0.2,0,0.2,0,0.2,0.2c0.1,0.5,0.2,1.1,0.3,1.6
		c0.1,0.6,0.2,1.2,0.4,1.8c0.1,0.7,0.3,1.3,0.4,2c0.1,0.5,0.2,1.1,0.3,1.6c0.2,0.8,0.3,1.7,0.5,2.5c0.1,0.7,0.3,1.4,0.4,2.1
		c0.1,0.3,0.1,0.5,0.2,0.8c0,0,0,0,0,0.1C106,30.5,106,30.6,106,30.6z M100.6,26.1c0.4,0,0.8,0,1.1,0h0.1c0,0,0.1,0,0.1-0.1
		s0-0.2-0.1-0.4c-0.1-0.6-0.3-1.3-0.4-1.9c-0.1-0.7-0.3-1.3-0.4-2c0-0.1,0-0.2-0.1-0.3l0,0l0,0l0,0c-0.3,0.8-0.6,1.6-0.9,2.4
		c-0.2,0.6-0.5,1.3-0.7,1.9c0,0.1-0.1,0.1-0.1,0.2V26h0.1C99.9,26.1,100.3,26.1,100.6,26.1z"/>
	<path class="st15" d="M68.3,17.9c0.9,0,1.8,0,2.7,0c0.6,0,1.1,0.3,1.4,0.8c0.1,0.2,0.1,0.4,0.2,0.6c0.2,0.7,0.3,1.5,0.4,2.2
		c0.1,0.6,0.2,1.3,0.4,1.9c0.2,0.8,0.3,1.6,0.5,2.5c0,0.2,0.1,0.3,0.1,0.5v0.1c0,0,0-0.1,0.1-0.1c0.2-0.4,0.4-0.9,0.5-1.3
		c0.3-0.8,0.6-1.5,0.9-2.3c0.4-1.1,0.8-2.1,1.3-3.2c0.2-0.5,0.4-1,0.6-1.6c0-0.1,0.1-0.1,0.2-0.1c1.1,0,2.1,0,3.2,0c0,0,0,0,0.1,0
		s0.1,0,0.1,0.1c-0.1,0.2-0.1,0.4-0.2,0.5c-0.5,1.2-1,2.3-1.5,3.5c-0.4,1.1-0.9,2.1-1.3,3.2c-0.4,0.9-0.8,1.8-1.2,2.8
		c-0.3,0.8-0.7,1.6-1,2.5c0,0,0,0.1-0.1,0.1c0,0.1-0.1,0.1-0.1,0.1h-0.1c-1,0-2,0-3.1,0c0,0,0,0-0.1,0s-0.1,0-0.2-0.2
		c-0.2-1-0.5-1.9-0.7-2.9c-0.4-1.4-0.7-2.8-1.1-4.1c-0.3-1-0.5-2-0.8-3c-0.1-0.3-0.2-0.6-0.5-0.8c-0.2-0.1-0.4-0.2-0.6-0.3
		c-0.8-0.4-1.6-0.6-2.5-0.8c-0.1,0-0.2-0.1-0.3-0.1c-0.1,0-0.1,0-0.1-0.1c0.1-0.3,0-0.3,0.4-0.3C66.6,17.9,67.5,17.9,68.3,17.9z"/>
	<path class="st15" d="M88.7,30.8c-0.2,0-0.3,0-0.5,0c-0.4,0-0.8-0.1-1.3-0.1c-0.4-0.1-0.8-0.1-1.2-0.3c-0.2-0.1-0.4-0.1-0.6-0.2
		C85,30.1,85,30.1,85,30c0.1-0.5,0.2-1,0.3-1.6c0.1-0.3,0.1-0.6,0.2-0.9v-0.1c0-0.1,0-0.1,0.1-0.1c0.3,0.1,0.7,0.3,1,0.4
		c0.4,0.2,0.8,0.3,1.3,0.3c0.3,0,0.6,0.1,0.9,0.1c0.4,0,0.7,0,1.1-0.2c0.2-0.1,0.4-0.2,0.5-0.3c0.5-0.4,0.6-1.1,0.1-1.6
		c-0.3-0.3-0.7-0.5-1.1-0.7c-0.5-0.3-1.1-0.5-1.5-0.9c-0.4-0.3-0.8-0.7-1.1-1.1c-0.2-0.4-0.4-0.8-0.4-1.2c-0.1-0.9,0.2-1.8,0.7-2.5
		s1.3-1.2,2.1-1.5c0.5-0.2,1-0.3,1.6-0.4s1.2-0.1,1.8-0.1c0.8,0,1.5,0.2,2.3,0.5c0.1,0,0.1,0,0.1,0.2c-0.1,0.6-0.3,1.3-0.4,1.9
		c0,0.2-0.1,0.4-0.1,0.5s0,0.1-0.1,0.1c-0.5-0.2-0.9-0.4-1.4-0.4c-0.3,0-0.5-0.1-0.8-0.1c-0.1,0-0.3,0-0.4,0c-0.3,0-0.7,0-1,0.1
		c-0.2,0.1-0.5,0.2-0.6,0.4c-0.3,0.3-0.3,0.8,0,1.1c0.2,0.2,0.3,0.3,0.5,0.4s0.4,0.2,0.6,0.3c0.5,0.3,1.1,0.5,1.5,0.9
		c0.5,0.3,0.9,0.7,1.2,1.2c0.2,0.3,0.3,0.7,0.4,1.1c0,0.2,0,0.4,0,0.7c0,0.8-0.3,1.6-0.8,2.2s-1.1,1-1.8,1.3
		c-0.6,0.3-1.2,0.4-1.8,0.5C89.6,30.8,89.1,30.8,88.7,30.8z"/>
	<path class="st15" d="M81.1,30.6c-0.5,0-0.9,0-1.4,0h-0.1c-0.1,0-0.1,0-0.1-0.1c0-0.2,0.1-0.3,0.1-0.5c0.2-1,0.4-2,0.6-3
		c0.2-0.9,0.4-1.9,0.6-2.8c0.1-0.6,0.3-1.3,0.4-1.9c0.2-0.8,0.3-1.5,0.5-2.3c0.1-0.6,0.2-1.1,0.4-1.7c0-0.1,0-0.1,0-0.2
		s0-0.1,0.2-0.1c0.8,0,1.6,0,2.3,0c0.2,0,0.5,0,0.7,0c0.1,0,0.1,0,0.1,0.1c-0.1,0.4-0.2,0.7-0.2,1.1c-0.1,0.6-0.3,1.2-0.4,1.8
		c-0.1,0.6-0.2,1.1-0.4,1.7c-0.1,0.6-0.3,1.3-0.4,1.9s-0.2,1.2-0.4,1.7c-0.1,0.6-0.3,1.2-0.4,1.8c-0.1,0.6-0.2,1.1-0.4,1.7
		c0,0.2-0.1,0.5-0.2,0.7c0,0.1,0,0.1-0.2,0.1C82,30.6,81.6,30.6,81.1,30.6C81.3,30.6,81.2,30.6,81.1,30.6z"/>
	<path class="st15" d="M87.9,34c0-0.5,0-1,0-1.5v-0.1c0-0.1,0-0.1,0.1-0.1h0.1c0.5,0,1,0,1.6,0c0.2,0,0.2,0,0.2,0.2s0,0.2-0.2,0.2
		c-0.4,0-0.7,0-1.1,0c-0.1,0-0.1,0-0.1,0.1c0,0.3,0,0.5,0,0.8c0,0.1,0,0.1,0.1,0.1c0.3,0,0.7,0,1,0c0.2,0,0.2,0,0.2,0.2
		s0,0.2-0.2,0.2c-0.3,0-0.7,0-1,0c-0.1,0-0.1,0-0.1,0.1c0,0.3,0,0.6,0,0.9c0,0.1,0,0.1,0.1,0.1c0.4,0,0.8,0,1.1,0h0.1
		c0.1,0,0.1,0,0.1,0.1c0,0.3,0,0.3-0.3,0.3c-0.5,0-1,0-1.5,0c-0.2,0-0.2,0-0.2-0.2C87.9,35,87.9,34.5,87.9,34z"/>
	<path class="st15" d="M101.8,33.2c0.4,0,1,0.4,1,1.1c0,0.2,0,0.4,0,0.6c-0.1,0.5-0.6,0.9-1.1,0.9c-0.2,0-0.4,0-0.5-0.1
		c-0.3-0.1-0.6-0.4-0.7-0.7c-0.1-0.4-0.1-0.7,0-1.1C100.7,33.4,101.1,33.2,101.8,33.2z M100.9,34.5c0,0.3,0,0.4,0.1,0.6
		c0.3,0.5,0.9,0.4,1.1,0.1c0.2-0.4,0.3-0.8,0.1-1.2c-0.1-0.2-0.2-0.3-0.4-0.4c-0.4-0.1-0.7,0-0.9,0.3
		C100.9,34.1,100.9,34.3,100.9,34.5z"/>
	<path class="st15" d="M93,34.6c-0.2,0-0.5,0-0.7,0c-0.1,0-0.1,0-0.1,0.1c0,0.3,0.3,0.7,0.7,0.7c0.2,0,0.4,0,0.7-0.1
		c0.1,0,0.1,0,0.2,0.1c0.1,0.2,0.1,0.2-0.2,0.3c-0.3,0.1-0.6,0.1-0.9,0.1c-0.5-0.1-0.8-0.4-0.9-0.8c-0.1-0.4-0.1-0.8,0.2-1.2
		c0.2-0.3,0.5-0.5,0.9-0.5c0.1,0,0.2,0,0.4,0c0.2,0,0.4,0.2,0.5,0.4C94,34,94,34.3,94,34.6c0,0.1,0,0.1-0.1,0.1
		C93.5,34.6,93.2,34.6,93,34.6L93,34.6z M92.8,34.2L92.8,34.2c0.2,0,0.4,0,0.6,0c0.1,0,0.1,0,0.1-0.1s0-0.1-0.1-0.2
		c-0.1-0.3-0.4-0.4-0.7-0.4c-0.3,0.1-0.4,0.3-0.5,0.6c0,0.1,0,0.1,0.1,0.1C92.4,34.2,92.6,34.2,92.8,34.2z"/>
	<path class="st15" d="M103.5,34.5c0-0.4,0-0.7,0-1.1c0-0.1,0-0.1,0.1-0.1h0.1c0.1,0,0.2,0,0.2,0.2c0,0.1,0,0.1,0,0.2l0.1-0.1
		c0.3-0.3,0.8-0.3,1.2-0.1c0.2,0.1,0.3,0.3,0.3,0.5s0.1,0.3,0.1,0.5c0,0.4,0,0.9,0,1.3c0,0.1,0,0.1-0.1,0.1s-0.1,0-0.2,0
		s-0.1,0-0.1-0.1c0-0.4,0-0.7,0-1.1c0-0.1,0-0.3,0-0.4c0-0.2-0.1-0.4-0.3-0.4c-0.2-0.1-0.4-0.1-0.6,0.1c-0.2,0.2-0.2,0.4-0.2,0.6
		c0,0.4,0,0.8,0,1.2v0.1c0,0.1,0,0.1-0.1,0.1s-0.1,0-0.2,0s-0.1,0-0.1-0.1C103.5,35.2,103.5,34.8,103.5,34.5L103.5,34.5z"/>
	<path class="st15" d="M95.6,35.8c-0.2,0-0.4,0-0.6-0.1c-0.3-0.2-0.5-0.4-0.6-0.8c-0.1-0.3,0-0.6,0.1-0.9c0.2-0.5,0.6-0.8,1.1-0.8
		c0.2,0,0.4,0,0.6,0.1c0.1,0,0.1,0,0.1,0.2c-0.1,0.2-0.1,0.2-0.3,0.2c-0.2,0-0.4-0.1-0.6,0c-0.3,0.1-0.5,0.2-0.5,0.5
		c-0.1,0.3-0.1,0.7,0.1,1s0.5,0.4,0.8,0.3c0.1,0,0.2,0,0.3-0.1c0.1,0,0.1,0,0.1,0.1s0,0.1,0,0.2c0,0.1,0,0.1-0.1,0.1
		C96,35.7,95.8,35.8,95.6,35.8z"/>
	<path class="st15" d="M97.8,35.8c-0.1,0-0.2,0-0.2,0c-0.3-0.1-0.4-0.3-0.5-0.6c0-0.5,0-0.9,0-1.4v-0.1c0-0.1,0-0.1-0.1-0.1
		s-0.1,0-0.2,0s-0.1,0-0.1-0.1c0,0,0,0,0-0.1c0-0.2,0-0.2,0.2-0.2c0,0,0,0,0.1,0s0.1,0,0.1-0.1s0-0.2,0-0.2c0-0.1,0-0.1,0.1-0.2
		c0.1,0,0.2-0.1,0.3-0.1c0.1,0,0.1,0,0.1,0.1s0,0.2,0,0.4c0,0.1,0,0.1,0.1,0.1s0.3,0,0.4,0s0.1,0,0.1,0.1l0,0c0,0.3,0,0.2-0.2,0.2
		c-0.1,0-0.2,0-0.3,0c-0.1,0-0.1,0-0.1,0.1c0,0.2,0,0.5,0,0.7s0,0.3,0,0.5c0,0.1,0,0.1,0,0.2c0,0.2,0.2,0.3,0.4,0.3h0.1
		c0.1,0,0.1,0,0.1,0.1c0,0,0,0,0,0.1c0,0.2,0,0.2-0.2,0.2C97.9,35.8,97.9,35.8,97.8,35.8L97.8,35.8z"/>
	<path class="st15" d="M90.5,33.9c0-0.5,0-1.1,0-1.6v-0.1c0-0.1,0-0.1,0.1-0.1c0.4,0,0.4,0,0.4,0.3c0,1,0,2.1,0,3.1
		c0,0.2,0,0.2-0.2,0.2c-0.3,0-0.3,0-0.3-0.3C90.5,34.9,90.5,34.4,90.5,33.9z"/>
	<path class="st15" d="M98.8,34.4c0-0.4,0-0.7,0-1.1c0-0.1,0-0.1,0.1-0.1H99c0.2,0,0.2,0,0.2,0.2c0,0.1,0,0.1,0,0.2l0,0l0,0
		c0.1-0.1,0.2-0.2,0.3-0.3c0.1,0,0.1-0.1,0.2-0.1c0.2-0.1,0.3,0,0.3,0.2c0,0,0,0,0,0.1s0,0.1-0.1,0.1c-0.4,0-0.6,0.3-0.6,0.6
		s0,0.6,0,1c0,0.1,0,0.3,0,0.4c0,0.1,0,0.1-0.1,0.1s-0.2,0-0.2,0c-0.1,0-0.1,0-0.1-0.1s0-0.2,0-0.2C98.8,35,98.8,34.7,98.8,34.4
		L98.8,34.4z"/>
</g>
<g>
	<path class="st16" d="M155.4,55.5c0.2,0,0.3,0,0.5,0c0.9,0,1.8,0,2.7,0c0.2,0,0.5,0,0.7,0.1c0.8,0.2,1.2,0.7,1.2,1.5
		c0,0.1,0,0.2,0,0.3c0,0.6-0.1,1.2-0.8,1.5c0.5,0.2,0.9,0.4,1,0.9c0.1,0.6,0.1,1.2,0,1.8c-0.2,0.8-0.8,1.1-1.6,1.1
		c-1.2,0-2.4,0-3.5,0c-0.2,0-0.2-0.1-0.2-0.2c0-0.3,0-0.5,0-0.8c0-1.9,0-3.8,0-5.8C155.4,55.8,155.4,55.7,155.4,55.5z M157.9,59.7
		L157.9,59.7c-0.3,0-0.5,0-0.8,0c-0.1,0-0.2,0.1-0.2,0.2c0,0.5,0,1,0,1.5c0,0.1,0.1,0.2,0.1,0.2c0.6,0,1.2,0,1.7,0
		c0.3,0,0.5-0.2,0.5-0.5c0-0.2,0-0.5,0-0.7c0-0.4-0.2-0.6-0.6-0.6C158.4,59.6,158.2,59.7,157.9,59.7z M156.9,57.6L156.9,57.6
		c0,0.2,0,0.5,0,0.7c0,0.1,0.1,0.2,0.2,0.2c0.5,0,0.9,0,1.4,0c0.3,0,0.5-0.2,0.5-0.6c0-0.2,0-0.4,0-0.6c0-0.4-0.2-0.6-0.6-0.6
		c-0.4,0-0.8,0-1.2,0c-0.3,0-0.3,0.1-0.3,0.3C156.9,57.2,156.9,57.4,156.9,57.6z"/>
	<path class="st16" d="M134.7,53.3c0.3,0.3,0.6,0.6,1,0.9c1.4,1.4,2.8,2.8,4.2,4.1c0.5,0.5,0.5,0.9,0,1.4c-1.6,1.6-3.3,3.2-4.9,4.9
		c-0.1,0.1-0.1,0.1-0.3,0.2c0-0.2,0-0.3,0-0.4c0-0.7,0-1.5,0-2.2c0-0.2,0.1-0.4,0.2-0.6c0.7-0.7,1.4-1.4,2.2-2.1
		c0.4-0.4,0.4-0.6,0-0.9c-0.7-0.7-1.5-1.5-2.2-2.2c-0.1-0.1-0.2-0.2-0.2-0.3C134.7,55.2,134.7,54.3,134.7,53.3
		C134.6,53.4,134.6,53.4,134.7,53.3z"/>
	<path class="st16" d="M133.7,53.3c0,0.8,0,1.6,0,2.3c0,0.5-0.1,0.8-0.5,1.2c-0.7,0.6-1.3,1.3-2,1.9c-0.3,0.3-0.3,0.5,0,0.8
		c0.8,0.8,1.5,1.5,2.3,2.3c0.1,0.1,0.1,0.2,0.1,0.3c0,0.9,0,1.8,0,2.7v0.1c-0.2-0.2-0.4-0.4-0.6-0.6c-1.6-1.5-3.1-3.1-4.7-4.6
		c-0.4-0.4-0.4-0.8,0-1.2c1.7-1.7,3.4-3.3,5-4.9C133.5,53.4,133.5,53.4,133.7,53.3z"/>
	<path class="st16" d="M154.8,62.7c-0.5,0-1,0-1.4,0c-0.1,0-0.1-0.1-0.2-0.2c-0.1-0.4-0.2-0.7-0.4-1.1c0-0.1-0.1-0.2-0.3-0.2
		c-0.8,0-1.6,0-2.4,0c-0.2,0-0.2,0.1-0.3,0.2c-0.1,0.3-0.2,0.7-0.3,1c-0.1,0.2-0.1,0.3-0.3,0.2c-0.4,0-0.9,0-1.3,0
		c0-0.1,0.1-0.2,0.1-0.3c0.7-2.1,1.4-4.2,2.1-6.2c0.2-0.5,0.4-0.7,0.9-0.7c0.4,0,0.8,0,1.1,0c0.2,0,0.3,0,0.3,0.2
		c0.8,2.3,1.5,4.5,2.3,6.7C154.8,62.5,154.8,62.6,154.8,62.7z M152.4,60c-0.3-1.1-0.7-2.1-1-3.3c-0.4,1.1-0.7,2.2-1,3.3
		C151,60,151.7,60,152.4,60z"/>
	<path class="st16" d="M168,62.7c-0.5,0-1,0-1.4,0c-0.1,0-0.2-0.1-0.2-0.2c-0.1-0.4-0.2-0.7-0.4-1.1c0-0.1-0.2-0.2-0.2-0.2
		c-0.8,0-1.6,0-2.4,0c-0.1,0-0.2,0.1-0.2,0.2c-0.1,0.4-0.3,0.7-0.4,1.1c-0.1,0.2-0.1,0.2-0.3,0.2c-0.4,0-0.9,0-1.3,0
		c0-0.1,0-0.2,0.1-0.3c0.7-2,1.4-4,2.1-6.1c0.2-0.7,0.6-0.9,1.3-0.9c0.3,0,0.6,0,0.9,0c0.1,0,0.2,0.1,0.2,0.2
		c0.8,2.3,1.6,4.6,2.3,6.9C168,62.6,168,62.6,168,62.7z M165.6,60c-0.3-1.1-0.7-2.1-1-3.3c-0.4,1.1-0.7,2.2-1,3.3
		C164.2,60,164.9,60,165.6,60z"/>
	<path class="st16" d="M147.4,56.6c-0.2,0-0.4,0-0.5,0c-0.6,0-1.2,0-1.8,0c-0.7,0-1,0.3-1,1c0,0.9,0,1.9,0,2.8c0,0.6,0.3,0.9,0.9,1
		c0.5,0,1,0,1.5,0.1c0.7,0,0.9,0.3,0.9,0.9c0,0.1,0,0.2,0,0.3c-1.1-0.1-2.2,0.1-3.2-0.2c-1-0.2-1.5-0.9-1.5-1.9c0-1.1,0-2.1,0-3.2
		c0-1.3,0.6-2,1.9-2.1c0.7-0.1,1.5-0.1,2.2-0.1c0.4,0,0.6,0.3,0.7,0.6C147.4,56.1,147.4,56.3,147.4,56.6z"/>
	<path class="st16" d="M170,61.5c0.3,0,0.5,0,0.8,0c0.7,0,1.4,0,2.1,0c0.2,0,0.3,0.1,0.3,0.3c0,0.3,0,0.6,0,0.9c-0.1,0-0.2,0-0.3,0
		c-1.3,0-2.7,0-4,0c-0.3,0-0.4-0.1-0.4-0.4c0-2,0-3.9,0-5.9c0-0.8,0.3-1.1,1.1-1.1c0.1,0,0.3,0,0.4,0C170,57.4,170,59.4,170,61.5z"
		/>
</g>
<g>
	<path class="st17" d="M158.4,36.2L158.4,36.2L158.4,36.2C158.5,36.3,158.5,36.3,158.4,36.2C158.5,36.3,158.5,36.3,158.4,36.2
		C158.5,36.3,158.5,36.2,158.4,36.2C158.5,36.2,158.5,36.2,158.4,36.2L158.4,36.2L158.4,36.2z M158.5,36.2L158.5,36.2
		C158.6,36.2,158.6,36.2,158.5,36.2c0.1,0.1,0.1,0.1,0.1,0.1l0,0l0.1,0.1h-0.1L158.5,36.2L158.5,36.2v0.2l0,0V36.2L158.5,36.2
		L158.5,36.2z M158.5,36.5L158.5,36.5c0.1,0,0.1,0,0.1-0.1c0,0,0,0,0-0.1v-0.1c0,0,0,0,0-0.1c0,0,0,0-0.1,0c0,0,0,0-0.1,0
		c0,0,0,0-0.1,0c0,0,0,0-0.1,0c0,0.1-0.1,0.1,0,0.2c0,0,0,0,0,0.1C158.4,36.4,158.4,36.5,158.5,36.5
		C158.4,36.5,158.5,36.5,158.5,36.5 M158.5,36.1c0.1,0,0.1,0,0.2,0.1c0,0,0,0,0,0.1s0,0.1,0,0.2v0.1c0,0,0,0-0.1,0h-0.1h-0.1h-0.1
		c0,0,0,0,0-0.1s0-0.1,0-0.2v-0.1C158.3,36.1,158.4,36.1,158.5,36.1C158.4,36.1,158.4,36.1,158.5,36.1 M137.5,35.3
		c0-0.4,0.3-0.7,0.7-0.7s0.7,0.3,0.7,0.7s-0.3,0.7-0.7,0.7C137.7,36,137.5,35.7,137.5,35.3 M139.3,35.3v-1.1h-0.5v0.3
		c-0.2-0.2-0.4-0.3-0.7-0.3c-0.6,0-1.1,0.5-1.1,1.2s0.5,1.2,1.1,1.2c0.3,0,0.6-0.1,0.7-0.3v0.3h0.5V35.3L139.3,35.3z M155.8,35.3
		c0-0.4,0.3-0.7,0.7-0.7s0.7,0.3,0.7,0.7s-0.3,0.7-0.7,0.7S155.8,35.7,155.8,35.3 M157.7,35.3v-2h-0.5v1.2c-0.2-0.2-0.4-0.3-0.7-0.3
		c-0.6,0-1.1,0.5-1.1,1.2s0.5,1.2,1.1,1.2c0.3,0,0.6-0.1,0.7-0.3v0.3h0.5V35.3z M145.4,34.5c0.3,0,0.5,0.2,0.6,0.5h-1.2
		C144.8,34.8,145,34.5,145.4,34.5 M145.4,34.1c-0.7,0-1.1,0.5-1.1,1.2s0.5,1.2,1.2,1.2c0.3,0,0.6-0.1,0.9-0.3l-0.2-0.4
		c-0.2,0.2-0.4,0.2-0.7,0.2s-0.6-0.1-0.7-0.6h1.7c0-0.1,0-0.1,0-0.2C146.4,34.6,146,34.1,145.4,34.1 M151.3,35.3
		c0-0.4,0.3-0.7,0.7-0.7s0.7,0.3,0.7,0.7S152.4,36,152,36C151.5,36,151.3,35.7,151.3,35.3 M153.1,35.3v-1.1h-0.5v0.3
		c-0.2-0.2-0.4-0.3-0.7-0.3c-0.6,0-1.1,0.5-1.1,1.2s0.5,1.2,1.1,1.2c0.3,0,0.6-0.1,0.7-0.3v0.3h0.5V35.3L153.1,35.3z M148.5,35.3
		c0,0.7,0.5,1.2,1.2,1.2c0.3,0,0.6-0.1,0.8-0.3l-0.2-0.4c-0.2,0.1-0.4,0.2-0.6,0.2c-0.4,0-0.7-0.3-0.7-0.7s0.3-0.7,0.7-0.7
		c0.2,0,0.4,0.1,0.6,0.2l0.2-0.4c-0.2-0.2-0.5-0.3-0.8-0.3C149,34.1,148.5,34.6,148.5,35.3 M154.8,34.1c-0.3,0-0.5,0.1-0.6,0.3v-0.3
		h-0.5v2.3h0.5v-1.3c0-0.4,0.2-0.6,0.5-0.6c0.1,0,0.2,0,0.3,0.1l0.2-0.5C155.1,34.1,154.9,34.1,154.8,34.1 M141.7,34.3
		c-0.2-0.2-0.6-0.2-0.9-0.2c-0.6,0-0.9,0.3-0.9,0.7s0.3,0.6,0.8,0.7h0.2c0.3,0,0.4,0.1,0.4,0.2c0,0.2-0.2,0.3-0.5,0.3
		s-0.6-0.1-0.7-0.2l-0.2,0.4c0.3,0.2,0.6,0.3,1,0.3c0.7,0,1-0.3,1-0.7s-0.3-0.6-0.8-0.7h-0.2c-0.2,0-0.4-0.1-0.4-0.2
		c0-0.2,0.2-0.3,0.4-0.3c0.3,0,0.6,0.1,0.7,0.2L141.7,34.3L141.7,34.3z M148,34.1c-0.3,0-0.5,0.1-0.6,0.3v-0.3H147v2.3h0.5v-1.3
		c0-0.4,0.2-0.6,0.5-0.6c0.1,0,0.2,0,0.3,0.1l0.2-0.5C148.3,34.1,148.1,34.1,148,34.1 M143.9,34.2h-0.8v-0.7h-0.5v0.7h-0.5v0.4h0.5
		v1c0,0.5,0.2,0.8,0.8,0.8c0.2,0,0.5-0.1,0.6-0.2l-0.1-0.4c-0.1,0.1-0.3,0.1-0.4,0.1c-0.2,0-0.3-0.2-0.3-0.4v-1h0.8v-0.3H143.9z
		 M136.5,36.4V35c0-0.5-0.3-0.9-0.9-0.9c-0.3,0-0.6,0.1-0.8,0.4c-0.2-0.2-0.4-0.4-0.7-0.4c-0.2,0-0.5,0.1-0.7,0.3v-0.3H133v2.3h0.5
		v-1.2c0-0.4,0.2-0.6,0.6-0.6c0.3,0,0.5,0.2,0.5,0.6v1.3h0.5v-1.2c0-0.4,0.2-0.6,0.6-0.6c0.3,0,0.5,0.2,0.5,0.6v1.3L136.5,36.4z"/>
	<path class="st18" d="M158.7,28.9v-0.3h-0.1l-0.1,0.2l-0.1-0.2h-0.1v0.3h0.1v-0.2l0.1,0.2h0.1l0.1-0.2V28.9L158.7,28.9L158.7,28.9z
		 M158.2,28.9v-0.3h0.1v-0.1H158v0.1h0.1L158.2,28.9L158.2,28.9L158.2,28.9z"/>
	<path class="st19" d="M149,30.3h-7.4V17h7.4V30.3z"/>
	<path class="st20" d="M142,23.7c0-2.7,1.3-5.1,3.2-6.7c-1.5-1.2-3.3-1.8-5.2-1.8c-4.7,0-8.5,3.8-8.5,8.5s3.8,8.5,8.5,8.5
		c1.9,0,3.7-0.6,5.2-1.8C143.3,28.8,142,26.4,142,23.7"/>
	<path class="st21" d="M159,23.7c0,4.7-3.8,8.5-8.5,8.5c-1.9,0-3.7-0.6-5.2-1.8c2-1.6,3.2-4,3.2-6.7s-1.3-5.1-3.2-6.7
		c1.5-1.2,3.3-1.8,5.2-1.8C155.2,15.2,159,19,159,23.7"/>
</g>
<g>
	<g>
		<path class="st17" d="M200.8,36.2L200.8,36.2L200.8,36.2C200.8,36.3,200.8,36.3,200.8,36.2C200.8,36.3,200.8,36.3,200.8,36.2
			C200.8,36.3,200.8,36.2,200.8,36.2L200.8,36.2L200.8,36.2L200.8,36.2z M200.8,36.2C200.8,36.2,200.9,36.2,200.8,36.2
			C200.9,36.2,200.9,36.2,200.8,36.2c0.1,0.1,0.1,0.1,0.1,0.1l0,0l0.1,0.1h-0.1L200.8,36.2L200.8,36.2v0.2l0,0V36.2L200.8,36.2
			L200.8,36.2z M200.8,36.5L200.8,36.5c0.1,0,0.1,0,0.1-0.1c0,0,0,0,0-0.1v-0.1c0,0,0,0,0-0.1c0,0,0,0-0.1,0c0,0,0,0-0.1,0
			c0,0,0,0-0.1,0c0,0,0,0-0.1,0c0,0.1-0.1,0.1,0,0.2c0,0,0,0,0,0.1C200.7,36.4,200.7,36.5,200.8,36.5
			C200.7,36.5,200.8,36.5,200.8,36.5 M200.8,36.1c0.1,0,0.1,0,0.2,0.1c0,0,0,0,0,0.1s0,0.1,0,0.2v0.1c0,0,0,0-0.1,0h-0.1h-0.1h-0.1
			c0,0,0,0,0-0.1s0-0.1,0-0.2v-0.1C200.7,36.1,200.7,36.1,200.8,36.1C200.7,36.1,200.8,36.1,200.8,36.1"/>
	</g>
	<path class="st22" d="M204.3,28.9v-0.3h-0.1l-0.1,0.2l-0.1-0.2h0v0.3h0.1v-0.2L204.3,28.9L204.3,28.9l0.1-0.2L204.3,28.9
		L204.3,28.9L204.3,28.9z M203.8,28.9v-0.3h0.1v-0.1h-0.3v0.1h0.1L203.8,28.9L203.8,28.9L203.8,28.9z"/>
	<path class="st23" d="M194.6,30.3h-7.4V17h7.4V30.3z"/>
	<path class="st20" d="M187.6,23.7c0-2.7,1.3-5.1,3.2-6.7c-1.5-1.2-3.3-1.8-5.2-1.8c-4.7,0-8.5,3.8-8.5,8.5s3.8,8.5,8.5,8.5
		c1.9,0,3.7-0.6,5.2-1.8C188.9,28.8,187.6,26.4,187.6,23.7"/>
	<path class="st22" d="M204.6,23.7c0,4.7-3.8,8.5-8.5,8.5c-1.9,0-3.7-0.6-5.2-1.8c2-1.6,3.2-4,3.2-6.7s-1.3-5.1-3.2-6.7
		c1.5-1.2,3.3-1.8,5.2-1.8C200.8,15.2,204.6,19,204.6,23.7"/>
	<g id="XMLID_00000072250491470734039330000013625737673516167299_">
		<g>
			<path class="st17" d="M198.9,34c0.7,0,1.2,0.5,1.2,1.2s-0.5,1.2-1.2,1.2s-1.2-0.5-1.2-1.2C197.7,34.6,198.2,34,198.9,34z
				 M199.6,35.2c0-0.4-0.3-0.7-0.7-0.7s-0.7,0.3-0.7,0.7s0.3,0.7,0.7,0.7C199.3,36,199.6,35.6,199.6,35.2z"/>
			<path class="st17" d="M197.4,34.2l-0.1,0.5c-0.1,0-0.2-0.1-0.3-0.1c-0.3,0-0.5,0.2-0.5,0.6v1.3H196v-2.3h0.5v0.3
				c0.1-0.2,0.3-0.3,0.6-0.3C197.2,34.1,197.3,34.1,197.4,34.2z"/>
			<path class="st17" d="M195.3,35.9l0.1,0.4c-0.2,0.1-0.4,0.2-0.6,0.2c-0.6,0-0.8-0.3-0.8-0.8v-1h-0.5v-0.4h0.5v-0.7h0.5v0.7h0.8
				v0.4h-0.8v1c0,0.2,0.1,0.4,0.3,0.4C194.9,36,195.1,36,195.3,35.9z"/>
			<path class="st17" d="M193,34.3l-0.2,0.4c-0.1-0.1-0.4-0.2-0.7-0.2s-0.4,0.1-0.4,0.3c0,0.1,0.2,0.2,0.4,0.2h0.2
				c0.5,0.1,0.8,0.3,0.8,0.7s-0.4,0.7-1,0.7c-0.4,0-0.7-0.1-1-0.3l0.2-0.4c0.2,0.1,0.4,0.2,0.7,0.2s0.5-0.1,0.5-0.3
				c0-0.1-0.1-0.2-0.4-0.2h-0.2c-0.5-0.1-0.8-0.3-0.8-0.7s0.4-0.7,0.9-0.7C192.5,34.1,192.8,34.2,193,34.3z"/>
			<path class="st17" d="M190.7,35.3c0,0.1,0,0.1,0,0.2H189c0.1,0.4,0.4,0.6,0.7,0.6c0.2,0,0.5-0.1,0.7-0.2l0.2,0.4
				c-0.3,0.2-0.6,0.3-0.9,0.3c-0.7,0-1.2-0.5-1.2-1.2s0.5-1.2,1.1-1.2C190.2,34.1,190.7,34.6,190.7,35.3z M189,35.1h1.2
				c-0.1-0.3-0.3-0.5-0.6-0.5C189.2,34.5,189,34.8,189,35.1z"/>
			<path class="st17" d="M188,35.3v1.1h-0.5v-0.3c-0.2,0.2-0.4,0.3-0.7,0.3c-0.6,0-1.1-0.5-1.1-1.2s0.5-1.2,1.1-1.2
				c0.3,0,0.6,0.1,0.7,0.3V34h0.5V35.3z M187.5,35.3c0-0.4-0.3-0.7-0.7-0.7s-0.7,0.3-0.7,0.7s0.3,0.7,0.7,0.7
				C187.3,36,187.5,35.7,187.5,35.3z"/>
			<path class="st17" d="M185.2,35v1.4h-0.5v-1.3c0-0.4-0.2-0.6-0.5-0.6s-0.6,0.2-0.6,0.6v1.3h-0.5v-1.3c0-0.4-0.2-0.6-0.5-0.6
				s-0.6,0.2-0.6,0.6v1.3h-0.5v-2.3h0.5v0.3c0.2-0.3,0.4-0.3,0.7-0.3s0.6,0.1,0.7,0.4c0.2-0.3,0.5-0.4,0.8-0.4
				C184.9,34.1,185.2,34.5,185.2,35z"/>
		</g>
	</g>
</g>
<g>
	<g>
		<path class="st24" d="M184.7,56.6v-5.8h1l0.1,0.4h0.1c0.1-0.2,0.3-0.3,0.5-0.4c0.2-0.1,0.4-0.1,0.6-0.1c0.3,0,0.6,0.1,0.9,0.2
			c0.3,0.1,0.5,0.4,0.6,0.7s0.2,0.7,0.2,1.2s-0.1,0.9-0.3,1.2s-0.4,0.6-0.8,0.8c-0.3,0.2-0.8,0.3-1.3,0.3c-0.1,0-0.2,0-0.2,0
			c-0.1,0-0.2,0-0.2,0v1.6h-1.2V56.6z M186.4,54c0.4,0,0.6-0.1,0.8-0.3s0.3-0.5,0.3-0.9c0-0.3,0-0.5-0.1-0.7s-0.2-0.3-0.3-0.4
			c-0.1-0.1-0.3-0.1-0.4-0.1c-0.1,0-0.3,0-0.4,0.1c-0.1,0-0.2,0.1-0.3,0.2V54c0.1,0,0.1,0,0.2,0C186.2,54,186.3,54,186.4,54z"/>
	</g>
	<g>
		<path class="st24" d="M189.3,54.9v-4.2h1l0.1,0.5h0.1c0.1-0.2,0.3-0.4,0.5-0.5s0.4-0.1,0.6-0.1c0.1,0,0.1,0,0.2,0
			c0.1,0,0.1,0,0.2,0v1.1c-0.1,0-0.1,0-0.2,0c-0.1,0-0.1,0-0.2,0c-0.1,0-0.2,0-0.4,0c-0.1,0-0.2,0.1-0.3,0.1
			c-0.1,0.1-0.2,0.1-0.3,0.2v2.7h-1.3V54.9z"/>
		<path class="st24" d="M194.4,55c-0.5,0-1-0.1-1.3-0.2c-0.3-0.1-0.6-0.4-0.8-0.7s-0.2-0.7-0.2-1.2s0.1-0.9,0.2-1.2
			c0.2-0.3,0.4-0.6,0.7-0.7c0.3-0.2,0.6-0.2,1-0.2s0.7,0.1,1,0.2c0.3,0.2,0.5,0.4,0.6,0.7s0.2,0.7,0.2,1.2v0.3h-3.1v-0.7h2.1
			l-0.2,0.1c0-0.3,0-0.5-0.1-0.7s-0.1-0.3-0.2-0.3c-0.1-0.1-0.2-0.1-0.4-0.1s-0.3,0-0.4,0.1c-0.1,0.1-0.2,0.2-0.2,0.3
			c-0.1,0.2-0.1,0.4-0.1,0.7V53c0,0.3,0,0.5,0.1,0.6c0.1,0.2,0.2,0.3,0.4,0.3c0.2,0.1,0.4,0.1,0.7,0.1c0.2,0,0.3,0,0.5,0
			s0.4-0.1,0.5-0.1v0.9c-0.2,0-0.4,0.1-0.6,0.1C194.8,55,194.6,55,194.4,55z"/>
	</g>
	<g>
		<path class="st17" d="M186.7,63.9l-2-5.6h1.7l1.4,4.3h-0.1l1.4-4.3h1.6l-2,5.6H186.7z"/>
	</g>
	<g>
		<g>
			<path class="st17" d="M192.1,57.4c-0.3,0-0.6-0.1-0.8-0.2c-0.2-0.1-0.3-0.4-0.3-0.6c0-0.3,0.1-0.5,0.3-0.6s0.4-0.2,0.8-0.2
				c0.3,0,0.6,0.1,0.8,0.2c0.2,0.1,0.2,0.4,0.2,0.6c0,0.3-0.1,0.5-0.2,0.6C192.7,57.3,192.4,57.4,192.1,57.4z M191.3,63.9v-5.6h1.6
				v5.6H191.3z"/>
		</g>
	</g>
	<g>
		<g>
			<path class="st17" d="M195.5,64c-0.6,0-1-0.2-1.3-0.5s-0.5-0.7-0.5-1.2s0.2-0.9,0.6-1.2c0.4-0.3,1-0.5,1.8-0.5l1.2-0.1l0.2,0.9
				l-1.2,0.1c-0.3,0-0.5,0.1-0.7,0.2c-0.1,0.1-0.2,0.3-0.2,0.5s0.1,0.4,0.2,0.5c0.1,0.1,0.3,0.2,0.6,0.2c0.2,0,0.3,0,0.5-0.1
				s0.3-0.1,0.4-0.3v-2.1c0-0.3,0-0.5-0.1-0.6s-0.2-0.3-0.4-0.3c-0.2-0.1-0.4-0.1-0.7-0.1c-0.2,0-0.5,0-0.7,0.1
				c-0.3,0-0.5,0.1-0.8,0.2v-1.2c0.3-0.1,0.6-0.1,0.9-0.2c0.3,0,0.6-0.1,0.9-0.1c0.6,0,1.1,0.1,1.5,0.2c0.4,0.1,0.7,0.4,0.9,0.7
				s0.3,0.8,0.3,1.4v3.4h-1.4l-0.1-0.6H197c-0.2,0.2-0.4,0.4-0.6,0.5C196.1,63.9,195.8,64,195.5,64z"/>
			<path class="st17" d="M199.9,66.3l-1.1-0.7c0.2-0.3,0.4-0.5,0.5-0.8s0.2-0.5,0.3-0.8c0.1-0.3,0.1-0.6,0.1-1v-4.7h1.6V63
				c0,0.4,0,0.8-0.1,1.2c-0.1,0.4-0.2,0.7-0.4,1.1C200.5,65.6,200.3,65.9,199.9,66.3z M200.5,57.4c-0.3,0-0.6-0.1-0.8-0.2
				c-0.2-0.1-0.2-0.4-0.2-0.6c0-0.3,0.1-0.5,0.2-0.6c0.2-0.1,0.4-0.2,0.8-0.2c0.3,0,0.6,0.1,0.8,0.2c0.2,0.1,0.2,0.4,0.2,0.6
				c0,0.3-0.1,0.5-0.2,0.6C201.1,57.3,200.8,57.4,200.5,57.4z"/>
			<path class="st17" d="M205.3,64c-0.7,0-1.3-0.1-1.8-0.3s-0.8-0.5-1-1c-0.2-0.4-0.3-1-0.3-1.7c0-0.6,0.1-1.2,0.3-1.6
				c0.2-0.4,0.5-0.8,0.9-1s0.9-0.3,1.4-0.3s1,0.1,1.3,0.3c0.4,0.2,0.6,0.6,0.8,1s0.3,1,0.3,1.6v0.4h-4.1v-0.9h2.9l-0.3,0.1
				c0-0.4,0-0.7-0.1-0.9s-0.2-0.4-0.3-0.5s-0.3-0.1-0.5-0.1s-0.4,0-0.5,0.1s-0.3,0.3-0.3,0.5c-0.1,0.2-0.1,0.5-0.1,0.9v0.7
				c0,0.3,0.1,0.6,0.2,0.8c0.1,0.2,0.3,0.4,0.5,0.4c0.2,0.1,0.6,0.1,1,0.1c0.2,0,0.5,0,0.7,0s0.5-0.1,0.7-0.1v1.2
				c-0.3,0.1-0.6,0.1-0.9,0.1S205.6,64,205.3,64z"/>
		</g>
	</g>
	<g>
		<rect x="209.5" y="58.2" class="st25" width="3.8" height="2.1"/>
		<rect x="209.5" y="61.7" class="st25" width="3.8" height="2.1"/>
	</g>
</g>
<g>
	<path class="st26" d="M12.7,54.6h-1.1c-0.1,0-0.1,0.1-0.1,0.1l0,4.3c0,0,0,0-0.1,0l-2.8-4.3c0-0.1-0.1-0.1-0.2-0.1H7.1
		C7,54.6,7,54.7,7,54.7v6.7c0,0.1,0.1,0.1,0.1,0.1h1.1c0.1,0,0.1-0.1,0.1-0.1v-4.3c0,0,0,0,0,0l2.8,4.3c0,0.1,0.1,0.1,0.2,0.1h1.3
		c0.1,0,0.1-0.1,0.1-0.1v-6.7C12.8,54.7,12.7,54.6,12.7,54.6z"/>
	<path class="st26" d="M31.9,57.3c-0.4-0.4-0.9-0.7-1.5-0.7c-0.1,0-0.3,0-0.4,0.1c-0.1,0-0.3,0.2-0.5,0.3c0,0,0,0,0,0v-0.1
		c0-0.1-0.1-0.1-0.1-0.1h-1.1c-0.1,0-0.1,0.1-0.1,0.1v4.6c0,0.1,0.1,0.1,0.1,0.1h1.1c0.1,0,0.1-0.1,0.1-0.1c0,0,0-2.8,0-2.8
		c0-0.4,0.4-0.7,0.8-0.7c0.5,0,0.7,0.4,0.8,0.7c0,0,0,2.8,0,2.8c0,0.1,0.1,0.1,0.1,0.1h1.1c0.1,0,0.1-0.1,0.1-0.1V59
		C32.4,58.2,32.3,57.7,31.9,57.3z"/>
	<path class="st26" d="M27.2,56.7h-1.1c-0.1,0-0.1,0.1-0.1,0.1v0.1c0,0,0,0,0,0c-0.3-0.2-0.7-0.3-1-0.3c-0.6,0-1.2,0.2-1.7,0.6
		c-0.6,0.5-0.8,1.1-0.8,1.9c0,0.7,0.2,1.2,0.6,1.7c0.5,0.6,1.1,0.8,1.8,0.8c0.4,0,0.7-0.1,1-0.3c0,0,0,0,0,0v0.1
		c0,0.1,0.1,0.1,0.1,0.1h1.1c0.1,0,0.1-0.1,0.1-0.1v-4.6C27.3,56.7,27.3,56.7,27.2,56.7z M24.8,60.3c-0.3,0-0.6-0.1-0.8-0.3
		c-0.2-0.2-0.3-0.5-0.3-0.9c0-0.3,0.1-0.6,0.2-0.8c0.2-0.3,0.5-0.4,0.8-0.4c0.3,0,0.6,0.1,0.8,0.3c0.2,0.2,0.3,0.5,0.3,0.9
		c0,0.3-0.1,0.6-0.2,0.8C25.5,60.2,25.2,60.3,24.8,60.3z"/>
	<path class="st26" d="M18.3,56.7h-1.1c-0.1,0-0.1,0.1-0.1,0.1v0.1c0,0,0,0,0,0c-0.3-0.2-0.7-0.3-1-0.3c-0.6,0-1.2,0.2-1.7,0.6
		c-0.6,0.5-0.8,1.1-0.8,1.9c0,0.7,0.2,1.2,0.6,1.7c0.5,0.6,1.1,0.8,1.8,0.8c0.4,0,0.7-0.1,1-0.3c0,0,0,0,0,0v0.1
		c0,0.1,0.1,0.1,0.1,0.1h1.1c0.1,0,0.1-0.1,0.1-0.1v-4.6C18.5,56.7,18.4,56.7,18.3,56.7z M16,60.3c-0.3,0-0.6-0.1-0.8-0.3
		c-0.2-0.2-0.3-0.5-0.3-0.9c0-0.3,0.1-0.6,0.2-0.8c0.2-0.3,0.5-0.4,0.8-0.4c0.3,0,0.6,0.1,0.8,0.3c0.2,0.2,0.3,0.5,0.3,0.9
		c0,0.3-0.1,0.6-0.2,0.8C16.6,60.2,16.4,60.3,16,60.3z"/>
	<path class="st26" d="M40,56.7h-1.1c-0.1,0-0.1,0.1-0.1,0.1v0.1c0,0,0,0,0,0c-0.3-0.2-0.7-0.3-1-0.3c-0.6,0-1.2,0.2-1.7,0.6
		c-0.6,0.5-0.8,1.1-0.8,1.9c0,0.7,0.2,1.2,0.6,1.7c0.5,0.6,1.1,0.8,1.8,0.8c0.4,0,0.7-0.1,1-0.3c0,0,0,0,0,0v0.1
		c0,0.1,0.1,0.1,0.1,0.1H40c0.1,0,0.1-0.1,0.1-0.1v-4.6C40.2,56.7,40.1,56.7,40,56.7z M37.7,60.3c-0.3,0-0.6-0.1-0.8-0.3
		c-0.2-0.2-0.3-0.5-0.3-0.9c0-0.3,0.1-0.6,0.2-0.8c0.2-0.3,0.5-0.4,0.8-0.4c0.3,0,0.6,0.1,0.8,0.3c0.2,0.2,0.3,0.5,0.3,0.9
		c0,0.3-0.1,0.6-0.2,0.8C38.3,60.2,38.1,60.3,37.7,60.3z"/>
	<path class="st26" d="M21.6,56.7c-0.3,0-0.5,0.1-0.7,0.3c0,0,0,0,0,0v-0.1c0-0.1-0.1-0.1-0.1-0.1h-1.1c-0.1,0-0.1,0.1-0.1,0.1v4.6
		c0,0.1,0.1,0.1,0.1,0.1h1.1c0.1,0,0.1-0.1,0.1-0.1v-2.2c0-0.5,0.1-0.8,0.2-1c0.1-0.2,0.3-0.2,0.6-0.2c0.1,0,0.2,0,0.4,0
		c0.1,0,0.1-0.1,0.1-0.1v-1c0-0.1-0.1-0.1-0.1-0.1C21.9,56.7,21.7,56.7,21.6,56.7z"/>
	<path class="st26" d="M34.6,54.8c-0.2-0.2-0.4-0.2-0.6-0.2c-0.2,0-0.4,0.1-0.6,0.2c-0.2,0.2-0.3,0.4-0.3,0.6c0,0.2,0.1,0.4,0.2,0.6
		c0.2,0.2,0.4,0.2,0.6,0.2c0.2,0,0.4-0.1,0.6-0.2c0.2-0.2,0.2-0.4,0.2-0.6C34.8,55.2,34.7,55,34.6,54.8
		C34.6,54.8,34.6,54.8,34.6,54.8z"/>
	<path class="st26" d="M34.5,56.7h-1.1c-0.1,0-0.1,0.1-0.1,0.1v4.8c0,0.2-0.1,0.9-1,0.9c-0.1,0-0.1,0.1-0.1,0.1v1.1v0v0c0,0,0,0,0,0
		c0,0.1,0.1,0.1,0.1,0.1h0c0.2,0,2.3-0.2,2.4-2.1c0,0,0,0,0,0v-4.9C34.7,56.8,34.6,56.7,34.5,56.7z"/>
	<path class="st26" d="M42.8,54.7c0-0.1-0.1-0.1-0.2-0.1h-1.3c-0.1,0-0.2,0.1-0.1,0.2l2.1,3.2c0,0,0,0,0,0.1l-2.1,3.2
		c-0.1,0.1,0,0.2,0.1,0.2h1.3c0.1,0,0.2,0,0.2-0.1l2-3.2c0.1-0.1,0.1-0.3,0-0.4L42.8,54.7z"/>
	<path class="st27" d="M45.2,58.5C45.2,58.5,45.2,58.5,45.2,58.5l-0.8,1.1c-0.1,0.1-0.1,0.3,0,0.4l0.9,1.4c0.1,0.1,0.1,0.1,0.2,0.1
		h1.3c0.1,0,0.2-0.1,0.1-0.2L45.2,58.5z"/>
	<path class="st27" d="M45.4,54.7l-0.9,1.4c-0.1,0.1-0.1,0.3,0,0.4l0.7,1.1c0,0,0.1,0,0.1,0l1.8-2.8c0.1-0.1,0-0.2-0.1-0.2h-1.3
		C45.5,54.6,45.4,54.6,45.4,54.7z"/>
</g>
</svg>
