<?xml version="1.0" encoding="utf-8"?>
<!-- Generator: Adobe Illustrator 26.5.0, SVG Export Plug-In . SVG Version: 6.00 Build 0)  -->
<svg version="1.1" id="Capa_1" xmlns="http://www.w3.org/2000/svg" xmlns:xlink="http://www.w3.org/1999/xlink" x="0px" y="0px"
	 viewBox="0 0 220 84" style="enable-background:new 0 0 220 84;" xml:space="preserve">
<style type="text/css">
	.st0{fill:#FE5000;}
	.st1{fill:#50007F;}
</style>
<g>
	<path class="st0" d="M60.2,27.9h-4c-0.3,0-0.5,0.2-0.5,0.5l0.1,14.9c0,0.1-0.1,0.1-0.2,0L46,28.3c-0.1-0.2-0.4-0.4-0.7-0.4h-4.4
		c-0.3,0-0.5,0.2-0.5,0.5v23.2c0,0.3,0.2,0.5,0.5,0.5h4c0.3,0,0.5-0.2,0.5-0.5V36.8c0-0.1,0.1-0.1,0.2,0l9.6,14.9
		c0.1,0.2,0.4,0.4,0.7,0.4h4.4c0.3,0,0.5-0.2,0.5-0.5V28.4C60.7,28.1,60.4,27.9,60.2,27.9z"/>
	<path class="st0" d="M127.1,37.2c-1.2-1.5-3.2-2.3-5.3-2.3c-0.4,0-1,0.1-1.5,0.2c-0.5,0.1-1.2,0.5-1.6,0.9c-0.1,0.1-0.2,0-0.2-0.1
		v-0.3c0-0.3-0.2-0.5-0.5-0.5h-3.9c-0.3,0-0.5,0.2-0.5,0.5v15.9c0,0.3,0.2,0.5,0.5,0.5h3.9c0.3,0,0.5-0.2,0.5-0.5c0,0,0-9.7,0-9.8
		c0-1.5,1.2-2.4,2.7-2.4c1.7,0,2.6,1.2,2.7,2.6c0,0,0,9.6,0,9.6c0,0.3,0.2,0.5,0.5,0.5h3.9c0.3,0,0.5-0.2,0.5-0.5v-8.2
		C128.8,40.5,128.3,38.7,127.1,37.2z"/>
	<path class="st0" d="M110.6,35.2h-3.9c-0.3,0-0.5,0.2-0.5,0.5V36c0,0.1-0.1,0.1-0.2,0.1c-1.1-0.8-2.4-1.2-3.6-1.2
		c-2.2,0-4.1,0.7-5.8,2.2c-1.9,1.7-2.9,3.9-2.9,6.5c0,2.3,0.7,4.3,2.2,5.9c1.7,1.9,3.9,2.9,6.4,2.9c1.3,0,2.5-0.4,3.6-1.1
		c0.1,0,0.1,0,0.1,0.1v0.2c0,0.3,0.2,0.5,0.5,0.5h3.9c0.3,0,0.5-0.2,0.5-0.5V35.7C111.1,35.4,110.8,35.2,110.6,35.2z M102.5,47.9
		c-1.1,0-1.9-0.4-2.7-1.1c-0.8-0.8-1.1-1.8-1.1-3.2c0-1.2,0.3-2.1,0.8-2.8c0.8-1,1.7-1.4,2.9-1.4c1.1,0,2,0.4,2.7,1.1
		c0.7,0.8,1.1,1.8,1.1,3.2c0,1.2-0.3,2.1-0.8,2.9C104.7,47.4,103.7,47.9,102.5,47.9z"/>
	<path class="st0" d="M79.9,35.2h-3.9c-0.3,0-0.5,0.2-0.5,0.5V36c0,0.1-0.1,0.1-0.2,0.1c-1.1-0.8-2.4-1.2-3.6-1.2
		c-2.2,0-4.1,0.7-5.8,2.2C64,38.8,63,41,63,43.6c0,2.3,0.7,4.3,2.2,5.9c1.7,1.9,3.9,2.9,6.4,2.9c1.3,0,2.5-0.4,3.6-1.1
		c0.1,0,0.1,0,0.1,0.1v0.2c0,0.3,0.2,0.5,0.5,0.5h3.9c0.3,0,0.5-0.2,0.5-0.5V35.7C80.3,35.4,80.1,35.2,79.9,35.2z M71.8,47.9
		c-1.1,0-1.9-0.4-2.7-1.1C68.3,46,68,45,68,43.6c0-1.2,0.3-2.1,0.8-2.8c0.8-1,1.7-1.4,2.9-1.4c1.1,0,2,0.4,2.7,1.1
		c0.7,0.8,1.1,1.8,1.1,3.2c0,1.2-0.3,2.1-0.8,2.9C74,47.4,73,47.9,71.8,47.9z"/>
	<path class="st0" d="M155.2,35.2h-3.9c-0.3,0-0.5,0.2-0.5,0.5V36c0,0.1-0.1,0.1-0.2,0.1c-1.1-0.8-2.4-1.2-3.6-1.2
		c-2.2,0-4.1,0.7-5.8,2.2c-1.9,1.7-2.9,3.9-2.9,6.5c0,2.3,0.7,4.3,2.2,5.9c1.7,1.9,3.9,2.9,6.4,2.9c1.3,0,2.5-0.4,3.6-1.1
		c0.1,0,0.1,0,0.1,0.1v0.2c0,0.3,0.2,0.5,0.5,0.5h3.9c0.3,0,0.5-0.2,0.5-0.5V35.7C155.7,35.4,155.4,35.2,155.2,35.2z M147.1,47.9
		c-1.1,0-1.9-0.4-2.7-1.1c-0.8-0.8-1.1-1.8-1.1-3.2c0-1.2,0.3-2.1,0.8-2.8c0.8-1,1.7-1.4,2.9-1.4c1.1,0,2,0.4,2.7,1.1
		c0.7,0.8,1.1,1.8,1.1,3.2c0,1.2-0.3,2.1-0.8,2.9C149.3,47.4,148.3,47.9,147.1,47.9z"/>
	<path class="st0" d="M91.2,35.3c-0.9,0-1.9,0.4-2.5,0.9c-0.1,0-0.2,0-0.2-0.1v-0.4c0-0.3-0.2-0.5-0.5-0.5h-3.9
		c-0.3,0-0.5,0.2-0.5,0.5v15.9c0,0.3,0.2,0.5,0.5,0.5h3.9c0.3,0,0.5-0.2,0.5-0.5v-7.7c0-1.6,0.2-2.8,0.6-3.4
		c0.4-0.5,1.1-0.8,2.1-0.8c0.3,0,0.7,0,1.4,0.1c0.3,0,0.5-0.2,0.5-0.5v-3.5c0-0.2-0.2-0.4-0.4-0.5C92.1,35.3,91.6,35.3,91.2,35.3z"
		/>
	<path class="st0" d="M136.2,28.8c-0.6-0.6-1.3-0.8-2.1-0.8c-0.8,0-1.5,0.3-2.1,0.8c-0.6,0.6-0.9,1.2-0.9,2c0,0.8,0.3,1.5,0.9,2.1
		c0.6,0.6,1.3,0.8,2.1,0.8c0.8,0,1.5-0.3,2.1-0.8c0.6-0.6,0.8-1.3,0.8-2.1C137,30,136.8,29.4,136.2,28.8
		C136.2,28.8,136.2,28.8,136.2,28.8z"/>
	<path class="st0" d="M136.1,35.2h-3.9c-0.3,0-0.5,0.2-0.5,0.5v16.7c0,0.7-0.3,3-3.5,3.2c-0.2,0-0.4,0.2-0.4,0.5v3.8v0v0
		c0,0,0,0,0,0c0,0.3,0.2,0.5,0.5,0.5h0c0.8,0,7.9-0.6,8.3-7.5c0,0,0-0.1,0-0.1V35.7C136.5,35.4,136.3,35.2,136.1,35.2z"/>
	<path class="st0" d="M164.7,28.3c-0.2-0.2-0.5-0.4-0.7-0.4h-4.6c-0.4,0-0.6,0.4-0.4,0.7l7.3,11.2c0,0.1,0,0.1,0,0.2L159,51.3
		c-0.2,0.3,0,0.7,0.4,0.7h4.6c0.3,0,0.6-0.1,0.7-0.4l7.1-11c0.2-0.4,0.2-0.9,0-1.3L164.7,28.3z"/>
	<path class="st1" d="M173.2,41.6c-0.1-0.1-0.2-0.1-0.3,0l-2.4,3.7c-0.2,0.4-0.2,0.9,0,1.3l3.2,5c0.2,0.3,0.5,0.5,0.9,0.5h4.5
		c0.4,0,0.6-0.4,0.4-0.7L173.2,41.6z"/>
	<path class="st1" d="M173.7,28.4l-3.2,5c-0.2,0.4-0.2,0.9,0,1.3l2.4,3.7c0.1,0.1,0.2,0.1,0.3,0l6.3-9.7c0.2-0.3,0-0.7-0.4-0.7h-4.5
		C174.3,27.9,173.9,28.1,173.7,28.4z"/>
</g>
</svg>
