<?xml version="1.0" encoding="utf-8"?>
<!-- Generator: Adobe Illustrator 26.4.1, SVG Export Plug-In . SVG Version: 6.00 Build 0)  -->
<svg version="1.1" id="Capa_1" xmlns="http://www.w3.org/2000/svg" xmlns:xlink="http://www.w3.org/1999/xlink" x="0px" y="0px"
	 viewBox="0 0 220 84" style="enable-background:new 0 0 220 84;" xml:space="preserve">
<style type="text/css">
	.st0{fill:#BFBFBF;}
	.st1{fill:#231F20;}
	.st2{fill:#31BAEC;}
</style>
<g>
	<g>
		<g>
			<path class="st0" d="M55.1,34.8V12.4H59l0.3,1.7h0.2c0.5-0.6,1.1-1.1,1.8-1.4c0.7-0.4,1.5-0.5,2.5-0.5c1.2,0,2.3,0.3,3.3,0.8
				c1,0.5,1.8,1.4,2.4,2.6s0.9,2.7,0.9,4.6c0,1.9-0.3,3.4-1,4.7c-0.7,1.3-1.6,2.2-2.9,2.9c-1.3,0.7-2.9,1-4.8,1c-0.3,0-0.6,0-1,0
				c-0.3,0-0.6-0.1-0.9-0.1v6.3H55.1z M61.6,25.1c1.3,0,2.4-0.4,3-1.1c0.7-0.7,1-1.9,1-3.6c0-1.2-0.1-2.1-0.4-2.7
				c-0.3-0.7-0.6-1.1-1.1-1.4C63.6,16.1,63,16,62.4,16c-0.5,0-1,0.1-1.4,0.3c-0.5,0.2-0.9,0.4-1.2,0.8V25c0.3,0,0.5,0.1,0.9,0.1
				C60.9,25.1,61.3,25.1,61.6,25.1z"/>
		</g>
	</g>
	<g>
		<path class="st0" d="M72.7,28.4v-16h3.8l0.4,2.1h0.2c0.4-0.8,1-1.4,1.8-1.7c0.7-0.4,1.6-0.5,2.4-0.5c0.2,0,0.5,0,0.7,0
			c0.2,0,0.4,0,0.6,0.1v4.2c-0.2,0-0.5-0.1-0.8-0.1s-0.5,0-0.8,0c-0.5,0-0.9,0.1-1.4,0.2c-0.5,0.1-0.9,0.3-1.3,0.5
			c-0.4,0.2-0.7,0.5-1,0.8v10.5H72.7z"/>
		<path class="st0" d="M92.2,28.7c-2,0-3.7-0.3-5-0.9c-1.3-0.6-2.3-1.5-2.9-2.7c-0.6-1.2-0.9-2.8-0.9-4.7c0-1.8,0.3-3.3,0.9-4.5
			c0.6-1.2,1.4-2.2,2.5-2.8c1.1-0.6,2.4-1,4-1c1.5,0,2.8,0.3,3.8,1c1,0.6,1.8,1.6,2.3,2.8c0.5,1.2,0.8,2.8,0.8,4.6v1.2H86.1v-2.7
			h8.1l-0.7,0.3c0-1.1-0.1-1.9-0.3-2.5c-0.2-0.6-0.5-1.1-0.9-1.3c-0.4-0.3-0.9-0.4-1.5-0.4c-0.6,0-1.1,0.1-1.5,0.4
			c-0.4,0.3-0.7,0.7-0.9,1.3c-0.2,0.6-0.3,1.5-0.3,2.5v1.9c0,1,0.1,1.8,0.4,2.3c0.3,0.6,0.8,1,1.5,1.3c0.7,0.3,1.7,0.4,2.9,0.4
			c0.6,0,1.3,0,2-0.1c0.7-0.1,1.4-0.2,2.1-0.4v3.5c-0.9,0.2-1.7,0.3-2.4,0.4C93.7,28.7,93,28.7,92.2,28.7z"/>
	</g>
	<g>
		<path class="st1" d="M62.7,62.8l-7.6-21.6h6.6l5.4,16.6h-0.5L72,41.2h6.2l-7.6,21.6H62.7z"/>
	</g>
	<g>
		<g>
			<path class="st1" d="M83.4,38c-1.3,0-2.3-0.3-2.9-0.9c-0.6-0.6-1-1.4-1-2.4c0-1.1,0.3-1.9,1-2.4c0.6-0.6,1.6-0.8,2.9-0.8
				c1.3,0,2.3,0.3,2.9,0.8c0.6,0.6,0.9,1.4,0.9,2.4c0,1-0.3,1.8-0.9,2.4C85.7,37.7,84.7,38,83.4,38z M80.2,62.8V41.2h6.3v21.6H80.2z
				"/>
		</g>
	</g>
	<g>
		<g>
			<path class="st1" d="M96.5,63.2c-2.2,0-3.9-0.6-5.2-1.7c-1.2-1.2-1.8-2.7-1.8-4.5c0-2,0.7-3.6,2.1-4.8c1.4-1.2,3.7-1.8,6.8-2
				l4.5-0.4l0.7,3.5l-4.6,0.4c-1.2,0.1-2.1,0.4-2.6,0.8c-0.5,0.5-0.8,1.1-0.8,1.9c0,0.8,0.2,1.4,0.7,1.8c0.5,0.4,1.2,0.6,2.1,0.6
				c0.6,0,1.2-0.1,1.8-0.3c0.6-0.2,1.2-0.6,1.7-1.1v-7.9c0-1-0.2-1.8-0.5-2.4c-0.3-0.6-0.8-1-1.6-1.2c-0.7-0.2-1.7-0.4-2.9-0.4
				c-0.8,0-1.8,0.1-2.8,0.2c-1,0.1-2.1,0.4-3,0.7v-4.8c1.1-0.3,2.2-0.5,3.5-0.7c1.3-0.1,2.4-0.2,3.5-0.2c2.3,0,4.1,0.3,5.6,0.8
				c1.5,0.6,2.6,1.5,3.3,2.8c0.7,1.3,1,3.1,1,5.4v12.8H103l-0.5-2.2h-0.3c-0.6,0.9-1.5,1.5-2.5,1.9C98.8,63,97.7,63.2,96.5,63.2z"/>
			<path class="st1" d="M113.4,72.1l-4.1-2.7c0.8-1,1.4-2,1.8-3c0.4-1,0.8-2.1,1-3.2c0.2-1.1,0.3-2.4,0.3-3.9V41.2h6.3V59
				c0,1.7-0.2,3.2-0.5,4.7c-0.3,1.4-0.9,2.9-1.7,4.2C115.8,69.3,114.7,70.7,113.4,72.1z M115.5,38c-1.3,0-2.3-0.3-2.9-0.9
				c-0.6-0.6-1-1.4-1-2.4c0-1.1,0.3-1.9,1-2.4c0.6-0.6,1.6-0.8,2.9-0.8c1.3,0,2.3,0.3,2.9,0.8c0.6,0.6,0.9,1.4,0.9,2.4
				c0,1-0.3,1.8-0.9,2.4C117.8,37.7,116.8,38,115.5,38z"/>
			<path class="st1" d="M134.1,63.2c-2.7,0-5-0.4-6.7-1.2c-1.8-0.8-3.1-2-3.9-3.7c-0.8-1.7-1.3-3.8-1.3-6.4c0-2.4,0.4-4.4,1.2-6.1
				c0.8-1.7,1.9-2.9,3.4-3.8c1.5-0.9,3.3-1.3,5.4-1.3c2,0,3.8,0.4,5.1,1.3c1.4,0.9,2.4,2.1,3.2,3.8c0.7,1.7,1.1,3.8,1.1,6.2v1.6
				h-15.8v-3.6h11l-1,0.4c0-1.4-0.1-2.6-0.4-3.4c-0.3-0.8-0.7-1.4-1.2-1.8c-0.5-0.4-1.2-0.6-2-0.6c-0.8,0-1.5,0.2-2,0.5
				c-0.5,0.4-1,1-1.2,1.8c-0.3,0.8-0.4,2-0.4,3.4v2.5c0,1.3,0.2,2.4,0.6,3.2c0.4,0.8,1.1,1.4,2,1.7c0.9,0.3,2.2,0.5,3.9,0.5
				c0.9,0,1.7-0.1,2.7-0.2c0.9-0.1,1.8-0.3,2.8-0.5v4.7c-1.2,0.3-2.3,0.4-3.3,0.6S135.1,63.2,134.1,63.2z"/>
		</g>
	</g>
	<g>
		<rect x="150" y="41.2" class="st2" width="14.6" height="8.1"/>
		<rect x="150" y="54.6" class="st2" width="14.6" height="8.1"/>
	</g>
</g>
</svg>
