<?xml version="1.0" encoding="utf-8"?>
<!-- Generator: Adobe Illustrator 26.4.1, SVG Export Plug-In . SVG Version: 6.00 Build 0)  -->
<svg version="1.1" id="Capa_1" xmlns="http://www.w3.org/2000/svg" xmlns:xlink="http://www.w3.org/1999/xlink" x="0px" y="0px"
	 viewBox="0 0 220 84" style="enable-background:new 0 0 220 84;" xml:space="preserve">
<style type="text/css">
	.st0{fill:#FB6868;}
	.st1{fill:#416CF6;}
</style>
<g>
	<path class="st0" d="M128.3,14.4c-4.3-0.9-6.7,1.4-9,4.2c-2,2.5-3.4,5.4-5,8.2c-1.8,3.3-3.9,6.3-6.5,9.1c-3.1,3.3-8.6,3.9-12.7,1.4
		c-1.3-0.8-2.6-1.6-3.6-3.2c4.1,1.1,6.2-1.6,8.4-4c2.7-3,4.5-6.6,6.5-10.1c1.5-2.7,3.4-5.1,5.5-7.4c3-3.2,8.4-3.8,12.5-1.5
		C126,11.9,127.3,12.8,128.3,14.4z"/>
	<path class="st1" d="M100.2,40.4C92.7,42.7,84.5,40,80.7,34c-2.2-3.4-3.1-7.2-2.8-11.3c0.1-2.4,2.3-4.4,4.7-4.4
		c2.8,0,4.9,2.1,4.9,4.8c0,3.3,0.3,6.5,1.7,9.6c1.7,3.8,6.6,7.3,10.4,7.1C99.8,39.9,100,40.1,100.2,40.4z"/>
	<path class="st1" d="M119.9,8.1c1.3-0.6,2.7-0.8,4.1-0.8c3.7-0.2,7.3,0.5,10.6,2.5c3.8,2.3,6,5.8,7,10c0.5,2,0.8,4.1,0.5,6.2
		c-0.4,2.5-2.5,4.3-4.9,4.2c-2.6-0.1-4.6-2-4.7-4.7c-0.1-3-0.1-5.9-1.2-8.7c-1.9-4.8-5.4-7.5-10.4-8.3
		C120.5,8.3,120.2,8.4,119.9,8.1z"/>
	<path class="st1" d="M137.3,67.7c0,1.8,0,3.7,0,5.5c0,0.8-0.2,1.5-1,1.8c-0.7,0.3-1.5,0.2-2-0.5c-0.3-0.5-0.6-0.3-1-0.1
		c-3.7,1.9-8,0.4-9.7-3.3c-1.9-3.9-0.4-8.6,3.4-10.4c1.9-0.9,4-0.7,6-0.1c0.6,0.2,0.9,0.6,1.5-0.1c0.4-0.6,1.3-0.4,2-0.2
		c0.7,0.2,0.7,0.9,0.7,1.4C137.3,63.7,137.3,65.7,137.3,67.7C137.3,67.7,137.3,67.7,137.3,67.7z M134,67.7c0-2.5-1.6-4.4-3.9-4.4
		c-2.2,0-4,1.9-4,4.3c0,2.2,2,4.6,3.7,4.5C132.1,72,133.9,70,134,67.7z"/>
	<path class="st1" d="M113.3,67.6c0,1.8,0,3.7,0,5.5c0,0.9-0.2,1.6-1.1,1.9c-0.7,0.3-1.5,0.1-1.9-0.6c-0.3-0.5-0.6-0.3-0.9-0.1
		c-3.7,2-9,0.5-10.4-4.9c-0.7-2.9,0-5.6,2.3-7.6c2.3-2.1,4.9-2.4,7.7-1.2c0.5,0.2,0.9,0.5,1.4-0.1c0.5-0.6,1.4-0.4,2.1-0.2
		c0.6,0.2,0.7,0.9,0.7,1.4C113.3,63.8,113.3,65.7,113.3,67.6z M110,67.6c0-2.4-1.7-4.3-4-4.3c-2.1,0-3.9,1.9-3.9,4.2
		c0,2.5,1.6,4.3,3.9,4.4C108.2,71.9,110,70,110,67.6z"/>
	<path class="st1" d="M83.2,65.9c0-1.6,0-2.8,0-4.1c0-1.1,0.8-1.5,1.6-1.6c0.9-0.1,1.6,0.4,1.6,1.5c0,2.3,0,4.7,0,7
		c0,1.2,0.5,2.3,1.7,2.8c1.4,0.6,2.7,0.4,3.7-0.7c0.6-0.6,0.8-1.4,0.8-2.3c0-2.2,0-4.4,0-6.7c0-1.2,0.6-1.9,1.6-2
		c1,0,1.8,0.7,1.8,1.9c0,2.3,0.1,4.6,0,6.9c-0.1,3.2-2.5,5.9-5.5,6.3c-3.3,0.4-6.1-1.4-7-4.5C83,68.9,83.4,67.2,83.2,65.9z"/>
	<path class="st1" d="M120,61.9c0,3.7,0,7.5,0,11.2c0,1-0.3,1.7-1.3,2c-1.2,0.3-2.1-0.5-2.1-1.8c0-2.3,0-4.6,0-6.9
		c0-5.3,0-10.6,0-15.9c0-1.1,0.3-1.9,1.5-2c1.2-0.1,1.9,0.6,1.9,2C120,54.3,120,58.1,120,61.9z"/>
	<path class="st0" d="M133.1,50.3c0.7,0.1,1.5,0.2,2.1,0.7c0.3,0.2,0.5,0.5,0.4,0.9c-0.1,0.4-0.4,0.4-0.7,0.4
		c-0.8,0.1-1.4,0.6-1.9,1.3c-0.9,1.1-1.7,2.3-2.6,3.4c-1.5,1.8-3.5,2.2-5.1,0.9c-0.3-0.2-0.6-0.4-0.6-0.9c0.1-0.4,0.5-0.4,0.8-0.5
		c1-0.3,1.7-1,2.3-1.8c0.9-1.2,1.7-2.4,2.8-3.5C131.3,50.7,132.1,50.3,133.1,50.3z"/>
</g>
</svg>
