<?xml version="1.0" encoding="utf-8"?>
<!-- Generator: Adobe Illustrator 26.5.0, SVG Export Plug-In . SVG Version: 6.00 Build 0)  -->
<svg version="1.1" id="Capa_1" xmlns="http://www.w3.org/2000/svg" xmlns:xlink="http://www.w3.org/1999/xlink" x="0px" y="0px"
	 viewBox="0 0 220 84" style="enable-background:new 0 0 220 84;" xml:space="preserve">
<style type="text/css">
	.st0{fill:#FFFFFF;}
	.st1{fill:#4F4C4D;}
	.st2{fill:#FAB816;}
	.st3{fill:#FDBE15;}
	.st4{fill:#007FC3;}
	.st5{fill:#1A1413;}
	.st6{font-family:'Poppins-SemiBold';}
	.st7{font-size:3.5865px;}
	.st8{font-size:6.9635px;}
	.st9{fill:#221551;}
	.st10{fill:#DF034D;}
	.st11{fill-rule:evenodd;clip-rule:evenodd;fill:#F3D031;}
	.st12{fill-rule:evenodd;clip-rule:evenodd;fill:#F6D967;}
	.st13{fill-rule:evenodd;clip-rule:evenodd;fill:#FEFDFD;}
	.st14{fill-rule:evenodd;clip-rule:evenodd;fill:#CA0488;}
	.st15{fill-rule:evenodd;clip-rule:evenodd;fill:#CA0288;}
	.st16{fill-rule:evenodd;clip-rule:evenodd;fill:#2F488A;}
	.st17{fill-rule:evenodd;clip-rule:evenodd;fill:#FEFCFD;}
	.st18{fill-rule:evenodd;clip-rule:evenodd;fill:#FEFDFE;}
	.st19{fill-rule:evenodd;clip-rule:evenodd;fill:#FEFBFC;}
	.st20{fill-rule:evenodd;clip-rule:evenodd;fill:#FEFEFE;}
	.st21{fill-rule:evenodd;clip-rule:evenodd;fill:#FBFBFC;}
	.st22{fill-rule:evenodd;clip-rule:evenodd;fill:#FCFCFD;}
	.st23{fill-rule:evenodd;clip-rule:evenodd;fill:#CA1089;}
</style>
<g>
	<g>
		<path class="st0" d="M10.2,46.4l45.7-26.1l3.3,5.4c0,0-2.9,5.6-1.1,8.3c1.8,2.8,8,2.5,8,2.5l2.9,5.8L23.6,68.5
			c0,0-1.7-2.6-3.6-5.8c-1.1-1.9,4.4-3.3,0.7-8c-3.6-4.7-5.7-1-6.9-2.9C11.9,48.6,10.2,46.4,10.2,46.4z"/>
	</g>
	<g>
		<path class="st1" d="M60.4,26.7c0.4-0.3,0.6-0.8,0.3-1.2l-2.9-5c-0.8-1.3-2.5-1.7-3.8-1l-43.3,25c-1.4,0.7-1.8,2.4-1,3.8l2.9,5
			c0.3,0.4,0.8,0.6,1.2,0.3c2.3-1.3,5.3-0.6,6.7,1.8c1.4,2.4,0.6,5.3-1.8,6.7c-0.4,0.3-0.6,0.8-0.3,1.2l2.9,5c0.8,1.3,2.5,1.7,3.8,1
			l43.3-25c1.3-0.8,1.7-2.5,1-3.8l-2.9-5c-0.3-0.4-0.8-0.6-1.2-0.3c-2.3,1.3-5.3,0.6-6.7-1.8C57.2,31,58.1,28,60.4,26.7z M57.1,34.2
			c1.7,2.9,5.3,4.1,8.3,2.9l2.5,4.3c0.3,0.4,0.2,1.1-0.4,1.4l-8.4,4.8c0,0,0,0,0-0.1l-1-1.7c-0.3-0.4-0.8-0.6-1.2-0.3
			c-0.4,0.2-0.6,0.8-0.3,1.2l1,1.7c0,0,0,0,0,0.1L24.2,67.8c-0.4,0.3-1.1,0.2-1.4-0.4l-2.5-4.3c2.6-2,3.3-5.7,1.7-8.6
			c-1.7-2.9-5.3-4.1-8.3-2.9l-2.5-4.3c-0.3-0.4-0.2-1.1,0.4-1.4l33.3-19.3c0,0,0,0,0,0.1l1,1.7c0.3,0.4,0.8,0.6,1.2,0.3
			c0.4-0.3,0.6-0.8,0.3-1.2l-0.9-1.6c0,0,0,0,0-0.1l8.4-4.8c0.4-0.3,1.1-0.2,1.4,0.4l2.5,4.3C56.2,27.6,55.4,31.2,57.1,34.2z"/>
	</g>
	<g>
		<path class="st1" d="M51.2,36c-0.4,0.2-0.5,0.8-0.2,1.2l1,1.8c0.3,0.4,0.8,0.6,1.2,0.4c0.4-0.2,0.5-0.8,0.2-1.2l-1-1.8
			C52.2,35.9,51.6,35.8,51.2,36z"/>
	</g>
	<g>
		<path class="st1" d="M47.9,30.3c-0.4,0.2-0.5,0.8-0.2,1.2l1.1,1.8c0.3,0.4,0.8,0.6,1.2,0.4c0.4-0.2,0.5-0.8,0.2-1.2l-1-1.8
			C48.9,30.2,48.3,30,47.9,30.3z"/>
	</g>
	<g>
		<path class="st1" d="M54.2,40.7c-0.4,0.3-0.6,0.8-0.3,1.3l1.1,2c0.3,0.5,0.8,0.7,1.3,0.4c0.4-0.3,0.6-0.8,0.3-1.3l-1.1-2
			C55.1,40.7,54.5,40.5,54.2,40.7z"/>
	</g>
	<g>
		<path class="st2" d="M45.4,41.1c0.6,1-0.1,2.1-0.8,2.6L42.3,45L41,53.6c-0.1,0.4-0.4,0.7-0.6,0.8c-0.8,0.4-1.8,0-1.9-1l-0.5-6.2
			l-3.7,2.1L34,51.7c-0.1,0.4-0.1,0.4-0.2,0.5c-0.4,0.2-0.8,0.1-1-0.3l-3.1-5.3c-0.2-0.4-0.1-0.8,0.3-1c0.2-0.1,0.4-0.2,0.5,0
			l2.3,0.8l3.9-2.3L31,41c-0.8-0.6-0.7-1.7,0.1-2.1c0.4-0.2,0.8-0.1,1-0.1l8.1,3.2l2.3-1.3C43.6,40.2,44.9,40.2,45.4,41.1z"/>
	</g>
</g>
<g id="w9i9wT_00000054961842485197630020000018070943815379723918_">
	<g>
		<g>
			<path class="st3" d="M101.3,21.9c0,0.7-0.2,1.4-0.5,2.1c-1,2.3-2,4.6-3,6.9c-0.4,1-1,2-1.4,3c-0.1,0.3-0.3,0.4-0.6,0.4
				c-0.3,0-0.5-0.2-0.6-0.4c-0.3-0.6-0.6-1.3-0.9-1.9c-1.2-2.6-2.5-5.2-3.5-7.9c-0.3-0.9-0.6-1.7-0.4-2.7c0.3-2.2,2.1-4.3,4.4-4.6
				c3-0.5,5.7,1.3,6.3,4.2C101.2,21.2,101.3,21.6,101.3,21.9z M95.9,19.9c-1.2,0-2.2,0.9-2.2,2.1c0,1.2,1,2.2,2.2,2.2
				c1.2,0,2.1-1,2.1-2.1C98,20.9,97.1,19.9,95.9,19.9z"/>
		</g>
	</g>
</g>
<g>
	<rect x="85.8" y="43.2" class="st4" width="20.2" height="16.7"/>
	<rect x="85.8" y="38.7" class="st5" width="20.2" height="4.4"/>
	<g>
		<path class="st0" d="M98.6,55.3h-5.5l-1,2.7h-2.9l5-13.5h3.1l5,13.5h-2.9L98.6,55.3z M97.9,53.3l-2-5.7l-2,5.7H97.9z"/>
	</g>
	<text transform="matrix(1 0 0 1 87.9966 42.0562)" class="st0 st6 st7">Terminal</text>
	<text transform="matrix(1 0 0 1 85.1631 66.9602)" class="st5 st6 st8">EZEIZA</text>
</g>
<g>
	<g id="WgCFvB_00000110443305039487520120000005540732639234930818_">
		<g>
			<path class="st9" d="M154.4,43.7c0.1-0.6,0.6-1,1.3-1.3c0.8-0.3,1.6-0.4,2.4-0.3c0.8,0.1,1,1,0.6,1.5c0,0.1-0.3,0.1-0.3,0.1
				c-0.5,0-1,0.1-1.5,0.1c-0.3,0-0.3,0.1-0.3,0.4c0,1.3,0,2.5,0,3.6c0,0.3,0,0.4-0.4,0.4c-0.3,0-0.6,0-0.9,0c-0.5,0-0.8-0.3-0.9-0.8
				C154.4,46.4,154.4,45,154.4,43.7z"/>
			<path class="st9" d="M175.1,39.5c0.5,0.3,0.9,0.5,0.9,1.1s-0.4,1-1,1.1c-0.6,0.1-1.3-0.3-1.4-0.9c-0.1-0.6,0.1-1.1,0.8-1.4
				c0,0,0.1,0,0.1-0.1C174.7,39.5,174.9,39.5,175.1,39.5z"/>
			<path class="st9" d="M195.3,48c-0.6,0.3-1.3,0.3-1.9,0.1c-1.1-0.1-1.9-0.9-2-2c-0.1-0.8-0.1-1.5,0.1-2.3c0.4-1,1.3-1.6,2.3-1.8
				c0.9-0.1,1.8,0,2.6,0.4c0.6,0.3,1,0.6,0.9,1.4c0,1.4,0,2.8,0,4.3c0,1.8-1,2.5-2.3,2.8c-1,0.1-1.9,0.1-2.8-0.3
				c-0.8-0.3-0.9-1.1-0.4-1.8c0,0,0,0,0.1-0.1c0.6,0.4,1.3,0.5,2,0.5c0.3,0,0.4,0,0.6-0.1C195.3,48.9,195.4,48.5,195.3,48z
				 M195.3,45.2c0-0.4,0-0.6,0-1c0-0.1-0.1-0.3-0.1-0.3c-0.8-0.4-1.5,0-1.6,0.9c0,0.3,0,0.5,0,0.8c0,0.9,0.9,1.4,1.8,1
				c0.1,0,0.1-0.1,0.1-0.3C195.3,45.8,195.3,45.5,195.3,45.2z"/>
			<path class="st9" d="M179.5,48.4c0,0.8,0,1.5,0,2.1c-0.5,0.1-1,0.1-1.5,0c-0.4-0.1-0.5-0.3-0.6-0.6c0-0.1,0-0.3,0-0.4
				c0-2,0-3.9,0-5.9c0-0.6,0.3-1,0.8-1.3c1.3-0.6,2.6-0.6,3.9-0.1c0.9,0.4,1.4,1,1.6,1.9c0.1,0.8,0.1,1.5-0.1,2.3
				c-0.6,1.8-2.3,2.1-3.6,1.9C179.6,48.5,179.6,48.5,179.5,48.4z M179.5,45.4c0,0.4,0,0.8,0,1.3c0,0.1,0,0.3,0.1,0.3
				c0.6,0.4,1.5,0,1.8-0.6c0.1-0.4,0.1-0.9,0.1-1.3c-0.1-0.9-0.9-1.4-1.8-1c-0.1,0-0.3,0.1-0.3,0.3
				C179.5,44.5,179.5,44.9,179.5,45.4z"/>
			<path class="st9" d="M168.4,48.5c0,0.8,0,1.4,0,2.1c-0.6,0.1-1.1,0.3-1.6,0c-0.1-0.1-0.4-0.3-0.4-0.5c-0.1-0.1-0.1-0.4-0.1-0.5
				c0-2,0-4,0-5.9c0-0.6,0.3-1,0.8-1.1c1.3-0.6,2.6-0.6,4-0.1c0.8,0.3,1.3,0.9,1.5,1.8c0.3,0.8,0.3,1.5,0,2.3
				c-0.4,1.4-1.6,2.3-3.1,2.1C169.2,48.5,168.8,48.5,168.4,48.5z M170.4,45.4c0-0.1,0-0.3,0-0.4c-0.1-1-0.9-1.5-1.8-1.1
				c-0.1,0-0.1,0.1-0.1,0.3c0,0.8,0,1.6,0,2.4c0,0.1,0.1,0.3,0.3,0.3c0.8,0.3,1.5-0.1,1.8-0.9C170.4,45.8,170.4,45.5,170.4,45.4z"/>
			<path class="st9" d="M205,45.4c0,2.1-1.5,3.4-3.8,3.3c-1.6-0.1-2.5-1-2.9-2.4c-0.1-0.8-0.1-1.5,0.1-2.3c0.5-1.3,1.8-1.9,3.3-1.9
				c1.1,0,2,0.5,2.6,1.4C204.9,44,205,44.7,205,45.4z M202.9,45.4c-0.1-0.4-0.1-0.8-0.3-1c-0.1-0.4-0.5-0.6-0.9-0.5
				c-0.4,0-0.8,0.3-0.9,0.5c-0.3,0.6-0.3,1.4,0,2c0.1,0.4,0.5,0.6,0.9,0.6c0.4,0,0.8-0.1,0.9-0.6C202.8,46,202.8,45.8,202.9,45.4z"
				/>
			<path class="st9" d="M188.1,44.4c0-0.4-0.1-0.6-0.5-0.6c-0.5,0-1,0-1.6,0c-0.3,0-0.5,0.1-0.6,0.1c-0.3,0.1-0.4,0-0.4-0.1
				c-0.4-0.6-0.3-1.3,0.5-1.5c1.1-0.4,2.4-0.4,3.5,0c0.9,0.4,1.3,1,1.3,2c0,0.9,0,1.9,0,2.8c0,0.4-0.1,0.6-0.4,0.9
				c-0.4,0.4-0.9,0.5-1.4,0.5c-0.9,0.1-1.8,0.1-2.5-0.1c-1.3-0.4-1.8-1.3-1.5-2.5c0.3-0.8,0.9-1.1,1.6-1.3
				C186.7,44.7,187.4,44.5,188.1,44.4z M188.1,45.9c-0.5,0.1-0.9,0.1-1.3,0.3c-0.3,0-0.4,0.3-0.4,0.5s0.1,0.5,0.4,0.5
				c0.4,0,0.8,0,1.1,0l0.1-0.1C188.1,46.5,188.1,46.2,188.1,45.9z"/>
			<path class="st9" d="M162.9,44.4c0-0.4-0.1-0.6-0.5-0.6c-0.6-0.1-1.3-0.1-1.8,0.1c-0.1,0-0.3,0-0.4,0.1c-0.4,0.1-0.4,0.1-0.6-0.3
				c-0.3-0.6-0.1-1.1,0.5-1.4c1.3-0.4,2.5-0.5,3.6,0.1c0.9,0.4,1.1,1,1.3,1.9c0,1,0,1.9,0,2.9c0,0.4-0.3,0.6-0.5,0.9
				c-0.5,0.4-1.1,0.5-1.8,0.5c-0.8,0.1-1.5,0-2.3-0.3c-1.1-0.4-1.6-1.4-1.3-2.5c0.3-0.8,0.9-1.1,1.6-1.3
				C161.5,44.7,162.2,44.5,162.9,44.4z M162.9,45.9c-0.5,0-0.9,0.1-1.3,0.1c-0.3,0-0.4,0.3-0.4,0.5s0.1,0.5,0.4,0.5
				c0.4,0,0.8,0,1.1,0l0.1-0.1C162.9,46.5,162.9,46.2,162.9,45.9z"/>
			<path class="st9" d="M173.7,45.2c0-0.9,0-1.6,0-2.5c0-0.3,0.1-0.4,0.3-0.4c0.4,0,0.8,0,1.3,0c0.4,0,0.6,0.3,0.6,0.8
				c0,0.4,0,0.8,0,1.1c0,1.4,0,2.6,0,4c0,0.3,0,0.4-0.3,0.4c-0.4,0-0.8,0-1.1,0c-0.5-0.1-0.8-0.3-0.8-0.9
				C173.7,46.8,173.7,45.9,173.7,45.2z"/>
		</g>
	</g>
	<g id="WgCFvB_00000002373056565069568480000015185687633005007281_">
		<g>
			<path class="st10" d="M207.4,47.3c0,0.1-0.1,0.3-0.1,0.4c-0.6,1.9-2,3-4,3.4c-0.4,0.1-0.8,0.1-1.1,0.1c-0.1,0-0.3,0-0.3-0.3
				c0-0.5,0-0.9,0-1.4c0-0.1,0.1-0.3,0.3-0.3c0.4,0,0.8-0.1,1.1-0.1c1.3-0.3,2-1,2.4-2.1c0.1-0.3,0.1-0.3,0.4-0.3
				c0.5,0.1,0.9,0.3,1.4,0.4C207.4,47.2,207.4,47.3,207.4,47.3z"/>
		</g>
	</g>
</g>
<g>
	<path class="st11" d="M122.2,56c0-6.4,0-12.8,0-19.2c0-0.1,0-0.3,0.1-0.4c0.2-1.3,1.3-2.3,2.5-2.6c0.2,0,0.4-0.1,0.6-0.1
		c6.4,0,12.8,0,19.2,0c0,0,0.1,0,0.1,0c0.9,0.1,1.7,0.5,2.2,1.2c0.4,0.5,0.7,1.2,0.7,1.8c0,0.1,0,0.1,0,0.2c0,1.9,0,3.8,0,5.7
		c0,0,0,0.1,0,0.1c0,4.4,0,8.8,0,13.2c0,0.1,0,0.2,0,0.3c-0.2,1-0.7,1.8-1.5,2.3c-0.5,0.3-1,0.5-1.6,0.5c-0.1,0-0.1,0-0.2,0
		c-1.3,0-2.5,0-3.8,0c0,0-0.1,0-0.1,0c-5,0-10.1,0-15.1,0c-0.1,0-0.3,0-0.4-0.1c-1.3-0.2-2.3-1.2-2.6-2.5
		C122.2,56.3,122.2,56.2,122.2,56z M143,41c0,0,0-0.1,0-0.1c0-0.3,0-0.6,0-0.9c-0.1-0.8-0.5-1.4-1.1-1.9c-1.1-1-2.7-1.2-4-0.5
		c-0.1,0-0.1,0-0.1,0c-0.5-0.5-0.9-0.9-1.4-1.4c-0.6-0.6-1.4-0.6-2,0c-0.3,0.3-0.7,0.7-1,1c-0.6,0.6-1.1,1.1-1.7,1.7
		c-0.6,0.6-1.1,1.1-1.7,1.7c-1.1,1.1-2.2,2.2-3.3,3.3c-0.7,0.7-1.5,1.5-2.2,2.2c-0.6,0.6-0.6,1.5,0,2c0.5,0.5,0.9,0.9,1.4,1.4
		c0,0,0,0.1,0,0.1c-0.4,0.4-0.7,0.7-1.1,1.1c0,0,0,0-0.1,0.1c-0.2,0.2-0.2,0.6,0.1,0.8c1.3,1.3,2.6,2.6,3.9,3.9c0,0,0,0.1,0,0.1
		c-0.1,0.1-0.3,0.3-0.4,0.4c-0.4,0.5-0.2,1.2,0.5,1.3c0.2,0,0.3,0,0.5,0c1.1,0,2.2,0,3.3,0c1.1,0,2.2,0,3.3,0c1.8,0,3.6,0,5.4,0
		c0.4,0,0.8,0,1.2,0c0.6,0,1.3,0,1.9,0c0.7,0,1.3-0.5,1.4-1.2c0-0.2,0-0.5,0-0.8c0-1.6,0-3.2,0-4.8c0-0.6,0-1.2,0-1.8
		c0-1.7,0-3.4,0-5.1c0-0.5,0-1,0-1.5c0-0.5,0-1,0-1.5c0-0.2,0-0.3-0.1-0.5c-0.2-0.4-0.5-0.6-0.9-0.5c-0.2,0-0.4,0.2-0.6,0.3
		C143.8,40.2,143.4,40.6,143,41C143.1,40.9,143.1,41,143,41z"/>
	<path class="st12" d="M147.6,36.8C147.6,36.8,147.6,36.8,147.6,36.8c0,2,0,4,0,6c0,0,0-0.1,0-0.1c0-1.9,0-3.8,0-5.7
		C147.6,36.9,147.6,36.8,147.6,36.8z"/>
	<path class="st12" d="M144.5,59.1C144.5,59.1,144.5,59.1,144.5,59.1c-1.3,0-2.7,0-4,0c0,0,0.1,0,0.1,0c1.3,0,2.5,0,3.8,0
		C144.4,59.1,144.4,59.1,144.5,59.1z"/>
	<path class="st13" d="M143,41C143.1,41,143.1,40.9,143,41c0.4-0.4,0.8-0.7,1.1-1.1c0.2-0.2,0.4-0.3,0.6-0.3
		c0.4-0.1,0.7,0.1,0.9,0.5c0.1,0.2,0.1,0.3,0.1,0.5c0,0.5,0,1,0,1.5c0,0.5,0,1,0,1.5c0,1.7,0,3.4,0,5.1c0,0.6,0,1.2,0,1.8
		c0,1.6,0,3.2,0,4.8c0,0.3,0,0.5,0,0.8c-0.1,0.7-0.7,1.2-1.4,1.2c-0.6,0-1.3,0-1.9,0c-0.4,0-0.8,0-1.2,0c-1.8,0-3.6,0-5.4,0
		c-1.1,0-2.2,0-3.3,0c-1.1,0-2.2,0-3.3,0c-0.2,0-0.3,0-0.5,0c-0.6-0.2-0.9-0.8-0.5-1.3c0.1-0.2,0.2-0.3,0.4-0.4c0,0,0-0.1,0-0.1
		c-1.3-1.3-2.6-2.6-3.9-3.9c-0.2-0.2-0.3-0.6-0.1-0.8c0,0,0,0,0.1-0.1c0.4-0.4,0.7-0.7,1.1-1.1c0,0,0.1-0.1,0-0.1
		c-0.5-0.5-0.9-0.9-1.4-1.4c-0.6-0.6-0.6-1.5,0-2c0.7-0.7,1.5-1.5,2.2-2.2c1.1-1.1,2.2-2.2,3.3-3.3c0.6-0.6,1.1-1.1,1.7-1.7
		c0.6-0.6,1.1-1.1,1.7-1.7c0.3-0.3,0.7-0.7,1-1c0.6-0.6,1.4-0.6,2,0c0.5,0.5,0.9,0.9,1.4,1.4c0,0,0.1,0,0.1,0c1.3-0.7,2.9-0.5,4,0.5
		c0.6,0.5,0.9,1.2,1.1,1.9c0.1,0.3,0.1,0.6,0,0.9C143,40.9,143,40.9,143,41z M130.8,51.6c-0.2,0.4-0.4,0.7-0.7,0.9c0,0,0,0,0,0.1
		c0.2,0.2,0.4,0.4,0.6,0.6c0.3,0.3,0.3,0.6,0,0.9c-0.6,0.6-1.2,1.2-1.8,1.8c-0.1,0.1-0.2,0.2-0.2,0.3c0,0.1,0,0.2,0.1,0.3
		c0.1,0,0.2,0.1,0.3,0.1c0.3,0,0.6,0,0.9,0c1.1,0,2.2,0,3.3,0c1.1,0,2.2,0,3.3,0c1.6,0,3.2,0,4.8,0c0.9,0,1.9,0,2.8,0
		c0.5,0,0.8-0.4,0.9-0.8c0-0.4,0-0.9,0-1.3c0-1.1,0-2.2,0-3.3c0-1.8,0-3.5,0-5.3c0-0.4,0-0.9,0-1.3c0-1.3,0-2.6,0-3.9
		c0-0.1,0-0.2,0-0.3c-0.1-0.2-0.2-0.2-0.4-0.2c-0.1,0-0.2,0.1-0.2,0.2c-0.5,0.5-1,1-1.6,1.6c-0.1,0.1-0.2,0.2-0.3,0.3c0,0,0,0,0,0
		c-0.2,0.3-0.4,0.5-0.6,0.8c-0.5,0.5-1.1,0.8-1.8,0.9c-0.3,0-0.5,0.1-0.8,0c0,0-0.1,0,0,0c0,0.1,0,0.3,0,0.4c-0.1,1-0.5,1.8-1.3,2.5
		c-0.4,0.4-0.9,0.6-1.4,0.8c0,0-0.1,0-0.1,0.1c0.1,0.2,0,0.4-0.2,0.6c-0.4,0.4-0.8,0.8-1.2,1.2c-0.2,0.2-0.4,0.2-0.7,0.1
		c-0.2-0.1-0.3-0.1-0.5-0.2c0,0-0.1,0-0.1,0c-0.2,0.2-0.5,0.5-0.7,0.7c0,0,0,0.1,0,0.1c0.1,0.2,0.2,0.3,0.2,0.5
		c0.1,0.2,0.1,0.5-0.1,0.7c-0.1,0.1-0.3,0.3-0.4,0.4c-0.3,0.3-0.5,0.5-0.8,0.8c-0.3,0.3-0.8,0.2-1-0.2c0-0.1-0.1-0.2-0.1-0.2
		C131,52.1,130.9,51.9,130.8,51.6z M136.1,40.9C136.1,40.8,136.1,40.8,136.1,40.9c0-0.3,0-0.5,0-0.7c0.1-0.9,0.5-1.7,1.2-2.3
		c0,0,0-0.1,0-0.1c-0.4-0.4-0.9-0.9-1.3-1.3c-0.3-0.3-0.9-0.3-1.2,0c-0.9,0.9-1.7,1.7-2.6,2.6c-0.5,0.5-1.1,1.1-1.6,1.6
		c-0.8,0.8-1.7,1.7-2.5,2.5c-1.1,1.1-2.1,2.1-3.2,3.2c-0.3,0.3-0.3,0.9,0,1.2c0.5,0.5,0.9,0.9,1.4,1.4c0,0,0.1,0.1,0.1,0
		c0.2-0.2,0.5-0.4,0.8-0.6c0.6-0.4,1.3-0.5,2-0.3c0,0,0,0,0,0c-0.1-0.3-0.3-0.7-0.4-1c-0.1-0.3-0.1-0.5,0.1-0.7c0.3-0.3,0.7-0.7,1-1
		c0.2-0.2,0.4-0.3,0.7-0.1c0.6,0.2,1.2,0.5,1.8,0.7c0,0,0,0,0.1,0c0,0,0-0.1,0-0.1c-0.4-0.8-0.4-1.6-0.2-2.4
		c0.4-1.2,1.6-2.2,2.8-2.5C135.5,40.8,135.8,40.7,136.1,40.9z M139.4,43.4c1,0,1.7-0.3,2.3-0.9c0.8-0.9,1-2.1,0.4-3.2
		c-0.6-1.1-1.8-1.8-3.1-1.6c-1.2,0.2-2.2,1.3-2.4,2.5c-0.1,0.7,0.1,1.4,0.5,2C137.8,42.9,138.6,43.4,139.4,43.4z M132.8,44.3
		c0,0.2,0,0.4,0.1,0.6c0.2,0.8,0.6,1.4,1.2,1.8c0.7,0.5,1.5,0.7,2.4,0.5c0.6-0.2,1.1-0.5,1.5-0.9c0.5-0.6,0.8-1.3,0.9-2.1
		c0,0,0-0.1,0-0.1c-0.6-0.6-1.2-1.2-1.7-1.7c0,0-0.1,0-0.1,0c-0.6,0.6-1.2,1.2-1.7,1.7c0,0,0,0,0,0.1c0.3,0.3,0.6,0.6,0.8,0.8
		c0,0,0.1,0,0.1,0c0.2-0.2,0.4-0.4,0.6-0.6c0,0,0.1,0,0.1,0c0.1,0.1,0.2,0.2,0.2,0.2c0,0,0,0.1,0,0.1c-0.1,0.2-0.2,0.4-0.3,0.5
		c-0.4,0.4-0.9,0.5-1.4,0.3c-0.4-0.2-0.7-0.4-0.8-0.8c-0.1-0.3-0.2-0.5-0.1-0.8c0.1-0.4,0.4-0.7,0.8-0.9c0.2-0.1,0.5-0.2,0.8-0.2
		c0,0,0.1,0,0.1,0c-0.1-0.5-0.1-0.9-0.2-1.4c0-0.1,0-0.1-0.1-0.1c-0.2,0-0.4,0-0.6,0.1c-0.5,0.1-1,0.4-1.4,0.8
		C133.1,42.8,132.8,43.5,132.8,44.3z M131.7,52.3C131.7,52.3,131.7,52.3,131.7,52.3c0.4-0.4,0.8-0.8,1.2-1.2c0,0,0-0.1,0-0.1
		c-0.1-0.3-0.2-0.6-0.4-0.8c0-0.1,0-0.1,0-0.1c0.4-0.4,0.8-0.8,1.2-1.2c0,0,0.1,0,0.1,0c0.3,0.1,0.5,0.2,0.8,0.4c0.1,0,0.1,0,0.1,0
		c0.4-0.4,0.8-0.8,1.2-1.2c0.1-0.1,0.1-0.1,0-0.1c-1.8-0.8-3.7-1.5-5.5-2.3c0,0-0.1,0-0.1,0c-0.3,0.3-0.7,0.7-1,1c0,0,0,0.1,0,0.1
		c0.6,1.3,1.1,2.7,1.7,4C131.2,51.3,131.5,51.8,131.7,52.3z M130.5,50.5c0-0.2,0-0.3,0-0.5c-0.1-0.5-0.4-0.8-0.7-1.1
		c-0.5-0.4-1-0.5-1.6-0.4c-0.5,0.1-0.9,0.4-1.2,0.7c-0.6,0.6-1.1,1.1-1.7,1.7c0,0,0,0.1,0,0.1c1.3,1.3,2.6,2.6,3.8,3.8
		c0,0,0.1,0,0.1,0c0.4-0.4,0.7-0.7,1.1-1.1c0,0,0-0.1,0-0.1c-0.3-0.3-0.7-0.7-1-1c0,0,0-0.1,0-0.1c0.1-0.1,0.2-0.2,0.3-0.3
		c0.2-0.2,0.4-0.4,0.6-0.7C130.4,51.2,130.5,50.9,130.5,50.5z"/>
	<path class="st14" d="M130.8,51.6c0.1,0.2,0.2,0.4,0.3,0.7c0,0.1,0.1,0.2,0.1,0.2c0.2,0.4,0.7,0.5,1,0.2c0.3-0.3,0.5-0.5,0.8-0.8
		c0.1-0.1,0.3-0.3,0.4-0.4c0.2-0.2,0.2-0.4,0.1-0.7c-0.1-0.2-0.1-0.3-0.2-0.5c0,0,0-0.1,0-0.1c0.2-0.2,0.5-0.5,0.7-0.7
		c0,0,0.1,0,0.1,0c0.2,0.1,0.3,0.1,0.5,0.2c0.3,0.1,0.5,0.1,0.7-0.1c0.4-0.4,0.8-0.8,1.2-1.2c0.2-0.2,0.2-0.4,0.2-0.6
		c0-0.1,0-0.1,0.1-0.1c0.5-0.2,1-0.4,1.4-0.8c0.7-0.7,1.1-1.5,1.3-2.5c0-0.1,0-0.3,0-0.4c0,0,0,0,0,0c0.3,0,0.5,0,0.8,0
		c0.7-0.1,1.3-0.4,1.8-0.9c0.2-0.2,0.4-0.5,0.6-0.8c0,0,0,0,0,0c0.1-0.1,0.2-0.2,0.3-0.3c0.5-0.5,1-1,1.6-1.6
		c0.1-0.1,0.1-0.1,0.2-0.2c0.2-0.1,0.3,0,0.4,0.2c0,0.1,0,0.2,0,0.3c0,1.3,0,2.6,0,3.9c0,0.4,0,0.9,0,1.3c0,1.8,0,3.5,0,5.3
		c0,1.1,0,2.2,0,3.3c0,0.4,0,0.9,0,1.3c0,0.5-0.4,0.8-0.9,0.8c-0.9,0-1.9,0-2.8,0c-1.6,0-3.2,0-4.8,0c-1.1,0-2.2,0-3.3,0
		c-1.1,0-2.2,0-3.3,0c-0.3,0-0.6,0-0.9,0c-0.1,0-0.2,0-0.3-0.1c-0.1-0.1-0.2-0.2-0.1-0.3c0-0.1,0.1-0.2,0.2-0.3
		c0.6-0.6,1.2-1.2,1.8-1.8c0.3-0.3,0.3-0.6,0-0.9c-0.2-0.2-0.4-0.4-0.6-0.6c0,0,0,0,0-0.1C130.3,52.3,130.6,52,130.8,51.6z
		 M141.8,49.5C141.8,49.6,141.9,49.6,141.8,49.5c0.1,0.2,0.2,0.3,0.3,0.4c0.1,0.1,0.2,0.1,0.4,0.1c0.1,0,0.2-0.1,0.3-0.3
		c0.1-0.3,0.2-0.7,0.2-1c0-0.1,0-0.3,0-0.4c0,0,0,0.1,0.1,0.1c0.1,0.1,0.2,0.2,0.3,0.3c0.2,0.2,0.5,0.1,0.6-0.1
		c0-0.1,0.1-0.2,0.1-0.2c0.2-0.6,0.2-1.2,0.2-1.9c0,0,0-0.1-0.1-0.1c-0.1,0-0.1,0-0.2,0c-0.1,0-0.1,0-0.1,0.2c0,0.3,0,0.5-0.1,0.8
		c0,0.1,0,0.2-0.1,0.2c0,0.1-0.1,0.1-0.2,0c0,0-0.1-0.1-0.1-0.1c-0.1-0.2-0.1-0.3-0.2-0.5c-0.3-1-0.5-1.9-0.6-2.9
		c0-0.1,0-0.1-0.1-0.1c-0.1,0-0.2,0-0.4,0c-0.2,0-0.2,0.1-0.2,0.3c0,0,0,0,0,0.1c0,0.2,0,0.3,0.1,0.5c0.1,0.7,0.2,1.3,0.4,2
		c0.1,0.6,0.2,1.1,0.1,1.7c0,0.1,0,0.3-0.1,0.4c0,0.1-0.1,0.1-0.2,0c0,0-0.1-0.1-0.1-0.2c-0.1-0.1-0.1-0.3-0.2-0.4
		c-0.1-0.4-0.2-0.9-0.3-1.3c0-0.1,0-0.1-0.1-0.1c-0.1,0-0.2,0-0.4,0c-0.2,0-0.2,0.1-0.2,0.3c0,0.3,0.1,0.6,0.2,0.9
		c0.1,0.3,0.1,0.7,0.1,1c0,0.4,0,0.8-0.1,1.1c-0.1,0.2-0.2,0.4-0.3,0.6c-0.2,0.1-0.3,0.1-0.5,0c-0.1-0.1-0.2-0.2-0.2-0.3
		c-0.3-0.5-0.4-1.1-0.3-1.7c0-0.1,0-0.1,0.1-0.2c0.1-0.1,0.1-0.1,0.2,0c0.1,0.1,0.1,0.1,0.1,0.2c0,0.2,0.1,0.4,0.1,0.6
		c0,0,0,0,0.1,0c0.2-0.1,0.3-0.2,0.4-0.4c0-0.2,0-0.4-0.1-0.6c-0.1-0.2-0.2-0.3-0.4-0.3c-0.3,0-0.5,0.1-0.6,0.3
		c-0.2,0.2-0.2,0.4-0.3,0.6c-0.1,0.5-0.1,1.1,0.1,1.6c0.1,0.4,0.1,0.9,0,1.3c0,0.1,0,0.1-0.1,0.1c-0.1,0-0.1-0.1-0.1-0.1
		c-0.1-0.1-0.1-0.3-0.2-0.4c-0.2-0.5-0.3-0.9-0.3-1.4c0-0.1,0-0.1-0.1-0.1c-0.1,0-0.2,0-0.4,0c-0.2,0-0.2,0.1-0.2,0.2
		c0,0.1,0,0.2,0,0.3c-0.1,0-0.1,0-0.2-0.1c-0.2-0.1-0.4,0-0.5,0.1c-0.1,0.1-0.1,0.2-0.2,0.3c-0.2,0.4-0.3,0.7-0.3,1.1
		c0,0.5,0.1,1,0.3,1.4c0.1,0.3,0.3,0.6,0.5,0.8c0.2,0.2,0.5,0.2,0.7,0c0.1-0.1,0.1-0.1,0.1-0.2c0.1-0.3,0.1-0.6,0.1-0.9
		c0-0.1,0-0.2,0-0.3c0.1,0.1,0.2,0.2,0.3,0.4c0.2,0.2,0.5,0.1,0.7-0.1c0.1-0.3,0.2-0.7,0.2-1c0-0.1,0-0.2,0-0.4
		c0.1,0.1,0.2,0.1,0.3,0.1c0.3,0.2,0.6,0.1,0.9-0.1c0.1-0.1,0.2-0.2,0.3-0.3c0.2-0.4,0.3-0.8,0.4-1.2
		C141.8,49.8,141.8,49.7,141.8,49.5z M135.7,53.2c-0.1-0.4-0.2-0.8-0.2-1.2c0-0.2,0-0.4,0.2-0.6c0.3-0.4,0.6-0.9,1-1.3
		c0.3-0.3,0.5-0.7,0.8-1c0,0,0.1-0.1,0-0.1c0,0-0.1,0-0.1,0c-0.4,0-0.8,0.2-1.1,0.5c-0.4,0.3-0.7,0.7-1,1.2c-0.6,0.7-1,1.6-1.4,2.4
		c-0.1,0.1-0.2,0.3-0.2,0.5c0,0.2,0,0.2,0.2,0.3c0,0,0,0,0.1,0c0.2,0,0.3-0.1,0.4-0.2c0.3-0.3,0.5-0.7,0.7-1c0,0,0-0.1,0.1-0.1
		c0,0,0,0,0,0.1c0.1,0.5,0.1,0.9,0.2,1.4c0,0.1,0,0.1,0,0.2c-0.1,0.1-0.2,0.2-0.2,0.4c0,0.1,0,0.1,0.1,0.2c0,0,0.1,0.1,0.2,0.1
		c0.1,0,0.1,0,0.2,0c0.1,0,0.1,0,0.1,0.1c0.1,0.4,0.3,0.7,0.5,1.1c0.1,0.1,0.1,0.1,0.2,0.2c0.2,0.1,0.4,0.1,0.6,0
		c0.1,0,0.1-0.1,0-0.1c-0.1-0.1-0.1-0.2-0.2-0.3c-0.2-0.3-0.3-0.6-0.4-0.9c-0.1-0.2-0.2-0.4-0.2-0.7c0-0.1,0-0.2,0.1-0.3
		c0.2-0.3,0.4-0.5,0.6-0.8c0.1-0.1,0.2-0.2,0.3-0.4c0.1-0.1,0-0.1,0-0.2c-0.1-0.1-0.2-0.1-0.3-0.1c-0.2,0-0.3,0.1-0.4,0.2
		C136,52.8,135.8,53,135.7,53.2z M138.3,48.7c0-0.2-0.1-0.3-0.3-0.3c-0.1,0-0.2,0-0.3,0.1c-0.1,0-0.1,0-0.1,0.1c0,0.4,0,0.8-0.1,1.1
		c0,0,0,0.1,0,0.1c0,0.1,0,0.1,0.1,0.1c0.1,0,0.2-0.1,0.3-0.1c0.1-0.1,0.1-0.2,0.2-0.4C138.2,49.2,138.3,49,138.3,48.7z M141.6,45.6
		c0-0.2,0-0.3-0.1-0.4c-0.1-0.2-0.4-0.2-0.5,0c-0.2,0.2-0.2,0.7,0,0.9c0.1,0.2,0.3,0.2,0.4,0C141.6,45.9,141.6,45.8,141.6,45.6z"/>
	<path class="st15" d="M136.1,40.9c-0.3-0.1-0.6-0.1-0.9,0c-1.3,0.2-2.4,1.2-2.8,2.5c-0.3,0.8-0.2,1.7,0.2,2.4c0,0,0,0.1,0,0.1
		c0,0-0.1,0-0.1,0c-0.6-0.2-1.2-0.5-1.8-0.7c-0.3-0.1-0.5-0.1-0.7,0.1c-0.3,0.3-0.7,0.7-1,1c-0.2,0.2-0.2,0.4-0.1,0.7
		c0.1,0.3,0.3,0.7,0.4,1c0,0,0,0,0,0c-0.7-0.2-1.4-0.1-2,0.3c-0.3,0.2-0.5,0.4-0.8,0.6c-0.1,0.1-0.1,0-0.1,0
		c-0.5-0.5-0.9-0.9-1.4-1.4c-0.3-0.3-0.3-0.9,0-1.2c1.1-1.1,2.1-2.1,3.2-3.2c0.8-0.8,1.7-1.7,2.5-2.5c0.5-0.5,1.1-1.1,1.6-1.6
		c0.9-0.9,1.7-1.7,2.6-2.6c0.3-0.3,0.9-0.3,1.2,0c0.4,0.4,0.9,0.9,1.3,1.3c0,0,0,0.1,0,0.1c-0.7,0.6-1.1,1.4-1.2,2.3
		C136.1,40.3,136.1,40.6,136.1,40.9C136.1,40.8,136.1,40.8,136.1,40.9z"/>
	<path class="st16" d="M139.4,43.4c-0.8,0-1.6-0.5-2.2-1.3c-0.4-0.6-0.6-1.3-0.5-2c0.1-1.2,1.1-2.3,2.4-2.5c1.3-0.2,2.5,0.5,3.1,1.6
		c0.6,1.1,0.4,2.3-0.4,3.2C141.2,43,140.4,43.4,139.4,43.4z M139.7,41.8c0.3,0,0.6-0.1,0.8-0.3c0.3-0.4,0.4-0.8,0.2-1.2
		c-0.2-0.5-0.8-1-1.3-1c-0.7,0-1.3,0.5-1.2,1.2C138.3,41.1,139,41.8,139.7,41.8z"/>
	<path class="st16" d="M132.8,44.3c0-0.8,0.3-1.5,0.9-2.1c0.4-0.4,0.9-0.7,1.4-0.8c0.2,0,0.4-0.1,0.6-0.1c0.1,0,0.1,0,0.1,0.1
		c0.1,0.5,0.1,1,0.2,1.4c0,0.1,0,0-0.1,0c-0.3,0-0.5,0.1-0.8,0.2c-0.4,0.2-0.7,0.5-0.8,0.9c-0.1,0.3,0,0.6,0.1,0.8
		c0.2,0.4,0.5,0.6,0.8,0.8c0.5,0.2,1,0.1,1.4-0.3c0.1-0.2,0.3-0.3,0.3-0.5c0,0,0-0.1,0-0.1c-0.1-0.1-0.2-0.2-0.2-0.2
		c0,0-0.1,0-0.1,0c-0.2,0.2-0.4,0.4-0.6,0.6c0,0-0.1,0-0.1,0c-0.3-0.3-0.6-0.6-0.8-0.8c0,0,0,0,0-0.1c0.6-0.6,1.2-1.2,1.7-1.7
		c0,0,0.1,0,0.1,0c0.6,0.6,1.2,1.2,1.7,1.7c0,0,0,0.1,0,0.1c-0.1,0.8-0.4,1.5-0.9,2.1c-0.4,0.4-0.9,0.8-1.5,0.9
		c-0.9,0.2-1.7,0-2.4-0.5c-0.6-0.5-1-1.1-1.2-1.8C132.8,44.7,132.8,44.5,132.8,44.3z"/>
	<path class="st16" d="M131.7,52.3c-0.2-0.5-0.4-1-0.6-1.5c-0.6-1.3-1.1-2.7-1.7-4c0,0,0-0.1,0-0.1c0.3-0.3,0.7-0.7,1-1
		c0,0,0.1,0,0.1,0c1.8,0.8,3.7,1.5,5.5,2.3c0.1,0,0.1,0,0,0.1c-0.4,0.4-0.8,0.8-1.2,1.2c0,0-0.1,0-0.1,0c-0.3-0.1-0.5-0.2-0.8-0.4
		c0,0-0.1,0-0.1,0c-0.4,0.4-0.8,0.8-1.2,1.2c0,0,0,0.1,0,0.1c0.1,0.3,0.2,0.6,0.4,0.8c0,0,0,0.1,0,0.1
		C132.5,51.5,132.1,51.9,131.7,52.3C131.7,52.3,131.7,52.3,131.7,52.3z M132.5,48.2c-0.4-0.2-0.7-0.3-1.1-0.5c0,0.1,0.1,0.2,0.1,0.2
		c0.1,0.3,0.2,0.6,0.4,0.8c0,0,0,0.1,0.1,0C132.1,48.6,132.3,48.4,132.5,48.2z"/>
	<path class="st16" d="M130.5,50.5c0,0.4-0.1,0.8-0.3,1.1c-0.2,0.3-0.4,0.5-0.6,0.7c-0.1,0.1-0.2,0.2-0.3,0.3c0,0,0,0.1,0,0.1
		c0.3,0.3,0.7,0.7,1,1c0,0,0,0.1,0,0.1c-0.4,0.4-0.7,0.7-1.1,1.1c0,0-0.1,0-0.1,0c-1.3-1.3-2.6-2.6-3.8-3.8c0,0,0-0.1,0-0.1
		c0.6-0.6,1.1-1.1,1.7-1.7c0.3-0.3,0.7-0.6,1.2-0.7c0.6-0.1,1.1,0,1.6,0.4c0.4,0.3,0.6,0.7,0.7,1.1
		C130.5,50.2,130.5,50.3,130.5,50.5z M127.4,50.8C127.4,50.8,127.4,50.8,127.4,50.8c0.3,0.3,0.6,0.6,0.8,0.8c0,0,0,0,0.1,0
		c0.1-0.1,0.3-0.3,0.4-0.4c0.1-0.1,0.1-0.1,0.1-0.2c0.2-0.4,0-0.8-0.4-0.9c-0.2,0-0.3,0-0.5,0.1C127.7,50.4,127.6,50.6,127.4,50.8z"
		/>
	<path class="st17" d="M141.8,49.5c0,0.1,0,0.3,0,0.4c0,0.4-0.1,0.8-0.4,1.2c-0.1,0.1-0.2,0.2-0.3,0.3c-0.2,0.2-0.6,0.3-0.9,0.1
		c-0.1,0-0.2-0.1-0.3-0.1c0,0.1,0,0.3,0,0.4c0,0.3-0.1,0.7-0.2,1c-0.1,0.3-0.4,0.4-0.7,0.1c-0.1-0.1-0.2-0.2-0.3-0.4
		c0,0.1,0,0.2,0,0.3c0,0.3,0,0.6-0.1,0.9c0,0.1-0.1,0.2-0.1,0.2c-0.2,0.2-0.5,0.2-0.7,0c-0.2-0.2-0.4-0.5-0.5-0.8
		c-0.2-0.5-0.3-0.9-0.3-1.4c0-0.4,0.1-0.8,0.3-1.1c0.1-0.1,0.1-0.2,0.2-0.3c0.1-0.1,0.3-0.2,0.5-0.1c0.1,0,0.1,0,0.2,0.1
		c0-0.1,0-0.2,0-0.3c0-0.2,0-0.2,0.2-0.2c0.1,0,0.2,0,0.4,0c0.1,0,0.1,0,0.1,0.1c0.1,0.5,0.2,1,0.3,1.4c0.1,0.1,0.1,0.3,0.2,0.4
		c0,0,0.1,0.1,0.1,0.1c0.1,0,0.1-0.1,0.1-0.1c0.1-0.4,0.1-0.9,0-1.3c-0.2-0.5-0.2-1.1-0.1-1.6c0.1-0.2,0.1-0.4,0.3-0.6
		c0.2-0.2,0.4-0.3,0.6-0.3c0.2,0,0.4,0.1,0.4,0.3c0.1,0.2,0.1,0.4,0.1,0.6c0,0.2-0.2,0.3-0.4,0.4c0,0,0,0-0.1,0
		c0-0.2-0.1-0.4-0.1-0.6c0-0.1-0.1-0.2-0.1-0.2c-0.1-0.1-0.1-0.1-0.2,0c0,0-0.1,0.1-0.1,0.2c-0.1,0.6,0,1.2,0.3,1.7
		c0.1,0.1,0.1,0.2,0.2,0.3c0.1,0.2,0.3,0.2,0.5,0c0.2-0.1,0.3-0.3,0.3-0.6c0.1-0.4,0.1-0.8,0.1-1.1c0-0.4-0.1-0.7-0.1-1
		c-0.1-0.3-0.1-0.6-0.2-0.9c0-0.2,0-0.2,0.2-0.3c0.1,0,0.2,0,0.4,0c0.1,0,0.1,0,0.1,0.1c0.1,0.4,0.2,0.9,0.3,1.3
		c0,0.1,0.1,0.3,0.2,0.4c0,0.1,0.1,0.1,0.1,0.2c0.1,0.1,0.1,0.1,0.2,0c0.1-0.1,0.1-0.2,0.1-0.4c0.1-0.6,0-1.1-0.1-1.7
		c-0.2-0.6-0.3-1.3-0.4-2c0-0.2,0-0.3-0.1-0.5c0,0,0,0,0-0.1c0-0.2,0-0.2,0.2-0.3c0.1,0,0.2,0,0.4,0c0.1,0,0.1,0,0.1,0.1
		c0.1,1,0.3,2,0.6,2.9c0.1,0.2,0.1,0.3,0.2,0.5c0,0,0,0.1,0.1,0.1c0.1,0.1,0.1,0.1,0.2,0c0-0.1,0.1-0.2,0.1-0.2
		c0-0.3,0.1-0.5,0.1-0.8c0-0.1,0-0.1,0.1-0.2c0.1,0,0.1,0,0.2,0c0,0,0.1,0,0.1,0.1c0,0.6,0,1.3-0.2,1.9c0,0.1-0.1,0.2-0.1,0.2
		c-0.1,0.2-0.4,0.3-0.6,0.1c-0.1-0.1-0.2-0.2-0.3-0.3c0,0,0,0-0.1-0.1c0,0.1,0,0.3,0,0.4c0,0.3-0.1,0.7-0.2,1
		c-0.1,0.1-0.1,0.2-0.3,0.3c-0.1,0-0.3,0-0.4-0.1C142.1,49.8,142,49.7,141.8,49.5C141.9,49.6,141.8,49.6,141.8,49.5z M138.4,52.6
		c0-0.6-0.1-1.1-0.2-1.7c0-0.1-0.1-0.2-0.2-0.2c-0.1,0-0.2,0-0.2,0.2c-0.1,0.1-0.1,0.3-0.1,0.4c0,0.6,0.1,1.2,0.4,1.8
		c0,0.1,0.1,0.2,0.1,0.2c0.1,0.1,0.1,0.1,0.2,0c0,0,0-0.1,0-0.1C138.4,53,138.4,52.8,138.4,52.6z"/>
	<path class="st18" d="M135.7,53.2c0.2-0.2,0.3-0.4,0.5-0.5c0.1-0.1,0.3-0.2,0.4-0.2c0.1,0,0.2,0,0.3,0.1c0.1,0,0.1,0.1,0,0.2
		c-0.1,0.1-0.2,0.3-0.3,0.4c-0.2,0.3-0.4,0.5-0.6,0.8c-0.1,0.1-0.1,0.2-0.1,0.3c0,0.2,0.1,0.4,0.2,0.7c0.1,0.3,0.2,0.6,0.4,0.9
		c0,0.1,0.1,0.2,0.2,0.3c0.1,0.1,0.1,0.1,0,0.1c-0.1,0.1-0.4,0.1-0.6,0c-0.1-0.1-0.1-0.1-0.2-0.2c-0.2-0.3-0.4-0.7-0.5-1.1
		c0-0.1,0-0.1-0.1-0.1c-0.1,0-0.1,0-0.2,0c-0.1,0-0.1,0-0.2-0.1c-0.1,0-0.1-0.1-0.1-0.2c0-0.1,0.1-0.3,0.2-0.4c0-0.1,0-0.1,0-0.2
		c-0.1-0.5-0.2-0.9-0.2-1.4c0,0,0-0.1,0-0.1c0,0,0,0-0.1,0.1c-0.2,0.4-0.5,0.7-0.7,1c-0.1,0.1-0.2,0.2-0.4,0.2c0,0,0,0-0.1,0
		c-0.2,0-0.2-0.1-0.2-0.3c0-0.2,0.1-0.3,0.2-0.5c0.4-0.8,0.9-1.6,1.4-2.4c0.3-0.4,0.6-0.8,1-1.2c0.3-0.3,0.7-0.5,1.1-0.5
		c0,0,0.1,0,0.1,0c0,0,0,0.1,0,0.1c-0.3,0.3-0.5,0.7-0.8,1c-0.3,0.4-0.6,0.9-1,1.3c-0.1,0.2-0.2,0.4-0.2,0.6
		C135.5,52.4,135.6,52.8,135.7,53.2z"/>
	<path class="st19" d="M138.3,48.7c0,0.2-0.1,0.4-0.2,0.7c-0.1,0.1-0.1,0.2-0.2,0.4c0,0.1-0.2,0.2-0.3,0.1c-0.1,0-0.1,0-0.1-0.1
		c0,0,0-0.1,0-0.1c0.1-0.4,0.1-0.8,0.1-1.1c0-0.1,0-0.1,0.1-0.1c0.1,0,0.2-0.1,0.3-0.1C138.2,48.4,138.3,48.5,138.3,48.7z"/>
	<path class="st19" d="M141.6,45.6c0,0.2-0.1,0.3-0.2,0.5c-0.1,0.2-0.3,0.2-0.4,0c-0.2-0.3-0.2-0.7,0-0.9c0.2-0.2,0.4-0.1,0.5,0
		C141.6,45.3,141.6,45.4,141.6,45.6z"/>
	<path class="st20" d="M139.7,41.8c-0.7,0-1.4-0.6-1.4-1.3c-0.1-0.7,0.5-1.3,1.2-1.2c0.5,0,1.1,0.4,1.3,1c0.2,0.5,0.1,0.9-0.2,1.2
		C140.3,41.6,140,41.8,139.7,41.8z"/>
	<path class="st21" d="M132.5,48.2c-0.2,0.2-0.4,0.4-0.6,0.6c0,0,0,0-0.1,0c-0.1-0.3-0.2-0.6-0.4-0.8c0-0.1-0.1-0.1-0.1-0.2
		C131.8,47.9,132.2,48,132.5,48.2z"/>
	<path class="st22" d="M127.4,50.8c0.2-0.2,0.4-0.4,0.6-0.5c0.1-0.1,0.3-0.2,0.5-0.1c0.4,0.1,0.6,0.5,0.4,0.9c0,0.1-0.1,0.1-0.1,0.2
		c-0.1,0.1-0.3,0.3-0.4,0.4c0,0,0,0-0.1,0C128,51.3,127.7,51.1,127.4,50.8C127.4,50.8,127.4,50.8,127.4,50.8z"/>
	<path class="st23" d="M138.4,52.6c0,0.2,0,0.3,0,0.5c0,0,0,0.1,0,0.1c0,0.1-0.1,0.1-0.2,0c-0.1-0.1-0.1-0.1-0.1-0.2
		c-0.2-0.6-0.4-1.1-0.4-1.8c0-0.1,0-0.3,0.1-0.4c0-0.1,0.1-0.2,0.2-0.2c0.1,0,0.2,0.1,0.2,0.2C138.3,51.5,138.4,52,138.4,52.6z"/>
</g>
</svg>
