<?xml version="1.0" encoding="utf-8"?>
<!-- Generator: Adobe Illustrator 26.4.1, SVG Export Plug-In . SVG Version: 6.00 Build 0)  -->
<svg version="1.1" id="Capa_1" xmlns="http://www.w3.org/2000/svg" xmlns:xlink="http://www.w3.org/1999/xlink" x="0px" y="0px"
	 viewBox="0 0 220 84" style="enable-background:new 0 0 220 84;" xml:space="preserve">
<style type="text/css">
	.st0{fill:#FF0059;}
</style>
<g id="sCuAqY_00000177466038271312967510000001470670578825163423_">
	<g>
		<path class="st0" d="M113.1,68.3c0-2.3,0-4.5,0-7c2.9-0.3,5.8-0.1,8.6-0.2c2.9,0,5.8,0,8.7,0c2.8,0,5.6,0,8.5,0c2.9,0,5.8,0,8.9,0
			c0-4.6,0-8.9,0-13.5c-4.8,0-9.5,0-14.5,0c0-10.2,0-20.2,0-30.3c2.2,0,4.4,0,6.9,0c0,7.5,0,15,0,22.7c2.7,0,5.1,0,7.8,0
			c0-7.6,0-15,0-22.6c2.5,0,4.7,0,7.1,0c0,17,0,33.8,0,50.9C141.1,68.3,127.3,68.3,113.1,68.3z"/>
		<path class="st0" d="M81.1,15c3.2,8.2,6.4,16.3,9.7,24.7c-2.1,1.9-4.4,4-6.6,6.1c-2.1,0-4.6,0-7.2,0c-2-5.3-4-10.3-6-15.4
			c-2-5.1-4-10.1-6-15.3C70.2,15,75.5,15,81.1,15z"/>
		<path class="st0" d="M125.6,42.1c0,7.2-5.5,12.7-12.8,12.7c-7.4,0-12.9-5.3-12.9-12.6c0-7.2,5.5-12.7,12.8-12.7
			C120.1,29.5,125.5,34.8,125.6,42.1z M117.8,42.3c0.1-3.3-2.2-5.8-5.1-5.9c-2.8,0-5.1,2.4-5.2,5.5c-0.1,3.2,2.2,5.8,5.1,5.8
			C115.6,47.8,117.8,45.5,117.8,42.3z"/>
		<path class="st0" d="M93,36.9c2.1-3.4,0.9-6.2-1.3-8.9c-1-1.2-2-2.4-2.7-3.7c-0.7-1.4-1.3-3-1.4-4.5c-0.2-3.5,1.6-5.7,5-6.3
			c3.2-0.6,6.4,1.1,7.1,4.3c0.5,2.1,0.6,4.4,0.2,6.5C99,29.2,96.2,33.1,93,36.9z"/>
		<path class="st0" d="M81.7,49.5c-0.6,2.9,0.9,4.7,3.2,6.1c1.1,0.7,2.1,1.4,3.1,2.3c2.7,2.4,2.8,6.3,0.3,8.9
			c-2.3,2.4-6.3,2.3-8.7-0.2c-1.4-1.5-2.1-3.3-2.2-5.3C77.1,57.3,78.6,53.1,81.7,49.5z"/>
	</g>
</g>
</svg>
