<?xml version="1.0" encoding="utf-8"?>
<!-- Generator: Adobe Illustrator 24.3.0, SVG Export Plug-In . SVG Version: 6.00 Build 0)  -->
<svg version="1.0" id="Layer_1" xmlns="http://www.w3.org/2000/svg" xmlns:xlink="http://www.w3.org/1999/xlink" x="0px" y="0px"
	 viewBox="0 0 300 300" style="enable-background:new 0 0 300 300;" xml:space="preserve">
<style type="text/css">
	.st0{fill:#FDBE15;}
</style>
<g id="Grupo_244" transform="translate(-5757.339 -1072.211)">
	<g id="Grupo_239" transform="translate(5757.339 1072.211)">
		<path id="Trazado_33" class="st0" d="M166.5,147.9H184c3.9,0,7.1-3.2,7.1-7.1v-17.5c0-3.9-3.2-7.1-7.1-7.1h-17.5
			c-3.9,0-7.1,3.2-7.1,7.1v17.5C159.4,144.7,162.6,147.9,166.5,147.9z M166.7,123.3h17.1v17.1h-17.1V123.3z M209.2,123.1v17.5
			c0,3.9,3.2,7.1,7.1,7.1h17.5c3.9,0,7.1-3.2,7.1-7.1v-17.5c0-3.9-3.2-7.1-7.1-7.1h-17.5C212.5,116,209.3,119.2,209.2,123.1z
			 M216.6,123.3h17.1v17.1h-17.1V123.3z M233.9,162.6h-17.5c-3.9,0-7.1,3.2-7.1,7.1v17.5c0,3.9,3.2,7.1,7.1,7.1h17.5
			c3.9,0,7.1-3.2,7.1-7.1v-17.5C241,165.8,237.8,162.7,233.9,162.6z M233.6,187h-17.1V170h17.1V187z M244.7,41.5h-15.8v-5.6
			c0-6.2-4.9-11.2-11.1-11.2c-0.1,0-0.1,0-0.2,0H216c-6.2,0-11.2,4.9-11.2,11.1c0,0.1,0,0.1,0,0.2v5.6H95.5v-5.6
			c0-6.2-4.9-11.2-11.1-11.2c-0.1,0-0.1,0-0.2,0h-1.7c-6.2,0-11.2,4.9-11.2,11.1c0,0.1,0,0.1,0,0.2v5.6H55.5
			c-10.1,0-18.3,8.2-18.4,18.3c0,0,0,0,0,0V257c0,10.1,8.2,18.3,18.3,18.3c0,0,0,0,0,0h188.9c10.1,0,18.3-8.2,18.3-18.3c0,0,0,0,0,0
			V59.9c0.2-9.9-7.7-18.2-17.7-18.3C245,41.5,244.8,41.5,244.7,41.5L244.7,41.5z M212.3,35.9c0-2.1,1.7-3.9,3.9-3.9c0,0,0,0,0,0h1.7
			c2.1,0,3.9,1.7,3.9,3.9c0,0,0,0,0,0v5.6h-9.3L212.3,35.9z M79.1,35.9c0-2.1,1.7-3.9,3.9-3.9c0,0,0,0,0,0h1.7
			c2.1,0,3.9,1.7,3.9,3.9c0,0,0,0,0,0v5.6h-9.5L79.1,35.9L79.1,35.9z M255.7,257c0,6.1-4.9,11-11,11H55.8c-6.1,0-11-4.9-11-11l0,0
			c3.2,2.4,7,3.6,11,3.7h148.8c4.9,0,9.5-1.9,12.9-5.4l38-38L255.7,257z M214,248.8c0.2-1.2,0.4-2.4,0.4-3.7v-24.6
			c0-4.6,3.8-8.4,8.4-8.4h24.6c1.2,0,2.5-0.2,3.7-0.4L214,248.8z M255.7,94h-48.6c-2,0-3.7,1.6-3.7,3.7c0,2,1.6,3.7,3.7,3.7
			c0,0,0,0,0,0h48.6v95c0,4.6-3.8,8.4-8.4,8.4h-24.4c-8.7,0.1-15.7,7.1-15.8,15.8v24.6c0,4.6-3.8,8.4-8.4,8.4H56
			c-6.1,0-11-4.9-11-11v-141h164.7c2,0,3.6-1.7,3.6-3.8c0-2-1.6-3.5-3.6-3.6H45V60.1c0-6.1,4.9-11,11-11h15.8v10.8
			c0,6.2,4.9,11.2,11.1,11.2c0.1,0,0.1,0,0.2,0c2,0,3.6-1.7,3.6-3.8c0-2-1.6-3.5-3.6-3.6c-2.1,0-3.9-1.7-3.9-3.8c0,0,0,0,0,0V49.1
			h126.1v10.8c0,6.2,4.9,11.2,11.1,11.2c0.1,0,0.1,0,0.2,0c2,0,3.6-1.7,3.6-3.8c0-2-1.6-3.5-3.6-3.6c-2.1,0-3.9-1.7-3.9-3.9
			c0,0,0,0,0,0V49.1h32.4c6.1,0,11,4.9,11,11L255.7,94z M66.8,193.3h17.5c3.9,0,7.1-3.2,7.1-7.1v-17.5c0-3.9-3.2-7.1-7.1-7.1H66.8
			c-3.9,0-7.1,3.2-7.1,7.1v17.5C59.7,190.1,62.8,193.3,66.8,193.3L66.8,193.3z M67,168.9H84v17.1H67V168.9z M134.1,161.5h-17.5
			c-3.9,0-7.1,3.2-7.1,7.1v17.5c0,3.9,3.2,7.1,7.1,7.1h17.5c3.9,0,7.1-3.2,7.1-7.1v-17.5c0-3.9-3.1-7.1-7-7.1
			C134.2,161.5,134.2,161.5,134.1,161.5z M133.9,185.9h-17.1v-17.1h17.1V185.9z M184,206.9h-17.5c-3.9,0-7.1,3.2-7.1,7.1v17.5
			c0,3.9,3.2,7.1,7.1,7.1H184c3.9,0,7.1-3.2,7.1-7.1V214C191.1,210.1,187.9,206.9,184,206.9z M183.8,231.3h-17.1v-17.1h17.1V231.3z
			 M189.8,166.5c-1.6-1.3-3.9-1.1-5.2,0.4l0,0l-14.9,18.1l-5.6-5.6c-1.5-1.3-3.8-1.2-5.2,0.2c-1.3,1.5-0.4,3.5,0.9,4.8l6.7,6.7
			c1.1,1.1,1.9,2.2,3.5,2.2h0.2c1.6-0.1,3.1-0.9,4.1-2.2l16-19.6C191.5,170,191.3,167.8,189.8,166.5
			C189.9,166.6,189.8,166.5,189.8,166.5L189.8,166.5z M92,209.7c-1.6-1.3-3.9-1.1-5.2,0.4l0,0l-14.9,18.1l-5.6-5.6
			c-1.5-1.3-3.8-1.3-5.2,0.2c-1.3,1.5,0.2,2.8,1.5,4.1l6.5,7.1c0.8,1,2,1.6,3.2,1.5h0.9c1.3,0.2,2.5-0.2,3.5-1.1l16-19.6
			C93.9,213.3,93.6,211,92,209.7L92,209.7z M134.1,116h-17.5c-3.9,0-7.1,3.2-7.1,7.1v17.5c0,3.9,3.2,7.1,7.1,7.1h17.5
			c3.9,0,7.1-3.2,7.1-7.1v-17.5C141.2,119.2,138,116,134.1,116L134.1,116z M133.9,140.6h-17.1v-17.1h17.1V140.6z M134.1,206.9h-17.5
			c-3.9,0-7.1,3.2-7.1,7.1v17.9c0,2,1.6,3.7,3.7,3.7s3.7-1.6,3.7-3.7V214h17.1v17.1h-17.1c0-2-1.6-3.7-3.7-3.7s-3.7,1.6-3.7,3.7
			c0,3.9,3.2,7.1,7.1,7.1h17.5c3.9,0,7.1-3.2,7.1-7.1v-17.5C141,209.8,137.9,206.9,134.1,206.9L134.1,206.9z M66.8,147.9h17.5
			c3.9,0,7.1-3.2,7.1-7.1v-17.5c0-3.9-3.2-7.1-7.1-7.1H66.8c-3.9,0-7.1,3.2-7.1,7.1v17.5C59.7,144.7,62.8,147.9,66.8,147.9
			L66.8,147.9z M67,123.3H84v17.1H67V123.3z"/>
	</g>
	<g id="Grupo_241" transform="translate(5820.31 1145.617)">
		<g id="Grupo_240">
			<path id="Trazado_113" class="st0" d="M95.7,110.8l6.3,6.3c0.7,0.8,1.5,1.5,2.4,2.2c2.3,2,5.8,1.8,7.8-0.5c0-0.1,0.1-0.1,0.1-0.2
				c4.1-4.7,8-9.9,11.9-14.7c1.5-1.7,2.8-3.7,4.3-5.4c1.5-1.7,1.5-4.2,0-5.8c-1.6-1.6-4.2-1.6-5.8,0c0,0,0,0,0,0
				c-3.2,4.1-6.7,8.2-9.9,12.3c-1.9,2.4-3.7,4.5-5.6,6.9c-0.2,0.2-0.9,0.9-0.9,1.1c0.2,0,0.2-0.2,0.4-0.2c0.9-0.6,1.7-0.4,2.8,0.4
				l0,0l-0.2-0.2l-1.3-1.3l-6.7-6.7c-1.6-1.5-4.2-1.5-5.8,0C94.1,106.8,94.2,109.2,95.7,110.8L95.7,110.8z"/>
		</g>
	</g>
	<g id="Grupo_243" transform="translate(5768.901 1168.274)">
		<g id="Grupo_242">
			<path id="Trazado_114" class="st0" d="M48.9,131.5l6.3,6.3c0.7,0.8,1.5,1.5,2.4,2.2c2.3,2,5.8,1.8,7.8-0.5c0-0.1,0.1-0.1,0.1-0.2
				c4.1-4.7,8-9.9,11.9-14.7c1.5-1.7,2.8-3.7,4.3-5.4c1.5-1.6,1.5-4.2,0-5.8c-1.6-1.6-4.2-1.6-5.8,0c0,0,0,0,0,0
				c-3.2,4.1-6.7,8.2-9.9,12.3c-1.9,2.4-3.7,4.5-5.6,6.9c-0.2,0.2-0.9,0.9-0.9,1.1c0.2,0,0.2-0.2,0.4-0.2c0.9-0.6,1.7-0.4,2.8,0.4
				l0,0l-0.2-0.2l-1.3-1.3l-6.7-6.7c-1.6-1.5-4.2-1.5-5.8,0C47.3,127.4,47.4,129.8,48.9,131.5L48.9,131.5z"/>
		</g>
	</g>
</g>
</svg>
