<?xml version="1.0" encoding="utf-8"?>
<!-- Generator: Adobe Illustrator 24.3.0, SVG Export Plug-In . SVG Version: 6.00 Build 0)  -->
<svg version="1.0" id="Layer_1" xmlns="http://www.w3.org/2000/svg" xmlns:xlink="http://www.w3.org/1999/xlink" x="0px" y="0px"
	 viewBox="0 0 300 300" style="enable-background:new 0 0 300 300;" xml:space="preserve">
<style type="text/css">
	.st0{fill:#F4BB38;}
	.st1{fill:#F4BB38;stroke:#F4BB38;stroke-width:2;stroke-miterlimit:10;}
</style>
<g id="Grupo_95_1_" transform="translate(-0.507)">
	<path id="Trazado_5_1_" class="st0" d="M176.4,120h9.6c2.6,0,4.9-2.1,4.9-4.7c0-2.6-2.1-4.9-4.7-4.9H186h-9.6
		c-2.6,0-4.9,2.1-4.9,4.7C171.4,117.6,173.5,120,176.4,120C176.1,120,176.1,120,176.4,120z"/>
	<path id="Trazado_6_1_" class="st0" d="M159.2,153.8c-2.1,0-4.2-0.3-6-1c-2.6-1-5.2,0.3-6.2,2.9s0.3,5.2,2.9,6.2
		c3.1,1,6.2,1.8,9.6,1.8h1.8c2.6,0,4.7-2.3,4.7-4.9c0-2.6-2.1-4.7-4.7-4.7L159.2,153.8z"/>
	<path id="Trazado_7_1_" class="st0" d="M147.8,123.3c0.8,0,1.8-0.3,2.6-0.8c2.1-1.3,4.7-2.1,7-2.3c2.6-0.3,4.4-2.9,4.2-5.5
		c-0.3-2.6-2.6-4.4-5.2-4.2c-3.9,0.5-7.8,1.8-11.2,3.9c-2.3,1.3-2.9,4.4-1.6,6.8C144.4,122.6,146.2,123.3,147.8,123.3L147.8,123.3z"
		/>
	<path id="Trazado_8_1_" class="st0" d="M178.7,197.4c-0.5,0-0.8,0-1.3,0c-2.6,0.3-4.7,2.3-4.7,5.2c0.3,2.6,2.3,4.7,4.7,4.7h0.3h9.6
		c2.6,0,4.9-2.1,4.9-4.7s-2.1-4.9-4.7-4.9h-0.3L178.7,197.4z"/>
	<path id="Trazado_9_1_" class="st0" d="M215.1,120c2.6,0,4.7-2.3,4.7-4.9c0-2.6-2.1-4.7-4.7-4.7h-9.6c-2.6,0-4.9,2.1-4.9,4.7
		c0,2.6,2.1,4.9,4.7,4.9h0.3H215.1z"/>
	<path id="Trazado_10_1_" class="st0" d="M235.9,197.4c-2.6,0-4.9,2.1-4.9,4.7s2.1,4.9,4.7,4.9h0.3h9.6c2.6,0,4.9-2.1,4.9-4.7
		c0-2.6-2.1-4.9-4.7-4.9h-0.3H235.9z"/>
	<path id="Trazado_11_1_" class="st0" d="M253.1,159c0-2.6-2.1-4.9-4.9-4.9l0,0h-9.6c-2.6,0-4.7,2.3-4.7,4.9c0,2.6,2.1,4.7,4.7,4.7
		h9.6C251,163.6,253.1,161.6,253.1,159L253.1,159z"/>
	<path id="Trazado_12_1_" class="st0" d="M206.8,207h9.6c2.6,0,4.9-2.1,4.9-4.7c0-2.6-2.1-4.9-4.7-4.9h-0.3h-9.6
		c-2.6,0-4.9,2.1-4.9,4.7C201.6,205.2,203.7,207,206.8,207C206.3,207,206.8,207,206.8,207z"/>
	<path id="Trazado_13_1_" class="st0" d="M224.2,159c0-2.6-2.1-4.9-4.9-4.9l0,0h-9.6c-2.6,0-4.7,2.3-4.7,4.9c0,2.6,2.1,4.7,4.7,4.7
		h9.6C221.9,163.6,224.2,161.6,224.2,159L224.2,159z"/>
	<path id="Trazado_14_1_" class="st0" d="M180.3,153.8c-2.6,0-4.7,2.3-4.7,4.9c0,2.6,2.1,4.7,4.7,4.7h9.6c2.6,0,4.7-2.3,4.7-4.9
		s-2.1-4.7-4.7-4.7H180.3z"/>
	<path id="Trazado_15_1_" class="st0" d="M120.5,284.8h-9.6c-2.6,0-4.7,2.3-4.7,4.9c0,2.6,2.1,4.7,4.7,4.7h9.6
		c2.6,0,4.7-2.3,4.7-4.9C125.2,286.9,123.1,284.8,120.5,284.8z"/>
	<path id="Trazado_16_1_" class="st0" d="M91.4,284.8h-9.6c-2.6,0-4.7,2.3-4.7,4.9c0,2.6,2.1,4.7,4.7,4.7h9.6c2.6,0,4.7-2.3,4.7-4.9
		C96,286.9,94,284.8,91.4,284.8z"/>
	<path id="Trazado_17_1_" class="st0" d="M259.3,268.1c-2.6-0.5-5.2,1-5.7,3.6l0,0c-0.5,2.3-1.6,4.7-3.1,6.8
		c-1.6,2.1-1.3,5.2,0.8,6.8s5.2,1.3,6.8-0.8l0,0c2.3-3.1,4.2-6.8,4.9-10.7C263.5,271,261.9,268.4,259.3,268.1L259.3,268.1z"/>
	<path id="Trazado_18_1_" class="st0" d="M254.1,259.3c2.6,0,4.9-2.1,4.9-4.9c0-1-0.3-2.1-1-2.9c-2.3-3.1-5.5-5.7-9.1-7.5
		c-2.3-1-5.2-0.3-6.5,2.3c-1,2.3-0.3,5.2,2.1,6.5c2.3,1,4.2,2.9,5.7,4.7C251,258.5,252.3,259.3,254.1,259.3z"/>
	<path id="Trazado_19_1_" class="st0" d="M232.3,246c0-2.6-2.1-4.9-4.9-4.9l0,0h-9.6c-2.6,0-4.7,2.3-4.7,4.9c0,2.6,2.1,4.7,4.7,4.7
		h9.6C230.2,250.7,232.3,248.6,232.3,246L232.3,246z"/>
	<path id="Trazado_20_1_" class="st0" d="M236.7,284.8h-9.4c-2.6,0-4.9,2.1-4.9,4.7c0,2.6,2.1,4.9,4.7,4.9h0.3h9.6l0.3-4.9v4.9
		c2.6,0,4.7-2.1,4.7-4.7l0,0C241.9,287.1,239.3,284.8,236.7,284.8z"/>
	<path id="Trazado_21_1_" class="st0" d="M292.1,176.6c-0.5-2.6-2.9-4.4-5.5-3.9c-2.6,0.5-4.4,2.9-3.9,5.5l0,0
		c0.3,0.8,0.3,1.8,0.3,2.6c0,1.6-0.3,3.1-0.8,4.7c-0.8,2.6,0.8,5.2,3.4,6l0,0c0.5,0,0.8,0.3,1.3,0.3c2.1,0,4.2-1.3,4.7-3.4
		c0.8-2.3,1-4.9,1-7.5C292.6,179.2,292.6,177.9,292.1,176.6z"/>
	<path id="Trazado_22_1_" class="st0" d="M140,148.6c2.6-0.8,3.9-3.6,3.1-6.2c-0.5-1.8-0.8-3.4-0.8-5.2c0-0.8,0-1.6,0.3-2.1
		c0.3-2.6-1.8-4.9-4.4-5.2c-2.6-0.3-4.7,1.6-5.2,4.2c-0.3,1-0.3,2.3-0.3,3.4c0,2.9,0.5,5.7,1.3,8.3c0.8,2.1,2.6,3.4,4.7,3.4
		C138.7,148.6,139.2,148.6,140,148.6z"/>
	<path id="Trazado_23_1_" class="st0" d="M279.1,157.4c-3.4-2.1-7.3-3.1-11.2-3.4c-2.6-0.3-4.9,1.8-5.2,4.4
		c-0.3,2.6,1.8,4.9,4.4,5.2c0,0,0,0,0.3,0c2.6,0.3,4.9,1,7,2.3c2.3,1.3,5.2,0.5,6.8-1.8C282.7,161.8,281.7,159,279.1,157.4z"/>
	<path id="Trazado_24_1_" class="st0" d="M272.6,196.1c-2.1,0.8-4.4,1.3-6.5,1.3h-1c-2.6,0-4.9,2.1-4.9,4.7s2.1,4.9,4.7,4.9h0.3h1
		c3.6,0,7-0.8,10.4-2.1c2.3-1,3.4-3.9,2.3-6.5C277.8,196.4,274.9,195.3,272.6,196.1z"/>
	<path id="Trazado_25_1_" class="st0" d="M162.1,220.8c0.5-2.6,1.6-4.9,3.1-6.8c1.6-2.1,1.3-5.2-0.8-6.8s-5.2-1.3-6.8,0.8
		c0,0,0,0-0.3,0.3c-2.3,3.1-3.9,6.8-4.7,10.7c-0.5,2.6,1.3,5.2,3.9,5.7C158.7,225.2,161.3,223.9,162.1,220.8L162.1,220.8z"/>
	<path id="Trazado_26_1_" class="st0" d="M169.6,248.9c2.6,0,4.9-2.1,4.9-4.9c0-1.8-1-3.6-2.9-4.4c-2.3-1-4.4-2.6-6-4.4
		c-1.6-2.1-4.7-2.6-6.8-0.8c-2.1,1.6-2.6,4.7-0.8,6.8l0.3,0.3c2.6,3.1,5.7,5.5,9.4,7C168.3,248.6,168.8,248.9,169.6,248.9z"/>
	<path id="Trazado_27_1_" class="st0" d="M149.6,284.8H140c-2.6,0-4.7,2.3-4.7,4.9c0,2.6,2.1,4.7,4.7,4.7h9.6c2.6,0,4.7-2.3,4.7-4.9
		C154.3,286.9,152.2,284.8,149.6,284.8z"/>
	<path id="Trazado_28_1_" class="st0" d="M179,284.8h-9.6c-2.6,0-4.7,2.3-4.7,4.9c0,2.6,2.1,4.7,4.7,4.7h9.6c2.6,0,4.9-2.1,4.9-4.7
		C184.2,287.1,182.1,284.8,179,284.8C179.2,284.8,179.2,284.8,179,284.8z"/>
	<path id="Trazado_29_1_" class="st0" d="M203.4,246c0-2.6-2.1-4.9-4.9-4.9l0,0h-9.6c-2.6,0-4.7,2.3-4.7,4.9c0,2.6,2.1,4.7,4.7,4.7
		h9.6C201.1,250.7,203.4,248.6,203.4,246L203.4,246z"/>
	<path id="Trazado_30_1_" class="st0" d="M208.1,284.8h-9.6c-2.6,0-4.9,2.1-4.9,4.7c0,2.6,2.1,4.9,4.7,4.9h0.3h9.6
		c2.6,0,4.9-2.1,4.9-4.7C213.3,287.1,211.2,284.8,208.1,284.8L208.1,284.8z"/>
	<path id="Trazado_31_1_" class="st1" d="M105.9,144.1c-10.4-12.2-25.5-19.2-41.3-19.2s-30.9,7.3-41.3,19.2
		c-22.4,25.2-22.4,66.6,0,91.8l41.3,46.8l41.3-46.8C128.3,210.4,128.3,169.4,105.9,144.1z M64.3,212c-16.1,0-29.1-13-29.1-29.1
		s13-29.1,29.1-29.1s29.1,13,29.1,29.1C93.4,199,80.5,212,64.3,212z"/>
	<path id="Trazado_32_1_" class="st1" d="M240.6,122.6l31.5-35.4c16.9-20,16.9-49.1,0-68.9c-14.6-17.4-40.6-19.5-57.7-4.9
		c-1.8,1.6-3.4,3.1-4.9,4.9c-16.9,20-16.9,49.1,0,68.9L240.6,122.6z M241.9,22.7c14.8,0,26.8,12,26.8,26.8s-12,26.8-26.8,26.8
		c-14.8,0-26.8-12-26.8-26.8S227.1,22.7,241.9,22.7L241.9,22.7z"/>
</g>
</svg>
