<?xml version="1.0" encoding="utf-8"?>
<!-- Generator: Adobe Illustrator 24.3.0, SVG Export Plug-In . SVG Version: 6.00 Build 0)  -->
<svg version="1.0" id="Layer_1" xmlns="http://www.w3.org/2000/svg" xmlns:xlink="http://www.w3.org/1999/xlink" x="0px" y="0px"
	 viewBox="0 0 300 300" style="enable-background:new 0 0 300 300;" xml:space="preserve">
<style type="text/css">
	.st0{fill:#F4BB38;}
</style>
<g id="_02_Ancillaries_1_" transform="translate(2197.783 -0.703)">
	<g id="_01.31_Desktop-1280-Ancilliaries-v1_1_">
		<g id="ticket_2_">
			<path id="Shape_1_" class="st0" d="M-1945.1,63.6c2.2-1.1,2.9-4,1.6-6l0,0l-14.3-24.6c-3.8-6.7-12.3-8.9-19-5.1l-213.5,123.3
				c-6.7,3.8-8.9,12.3-5.1,19l14.3,24.6c1.3,2.2,4,2.9,6,1.6c11.4-6.7,26.1-2.7,32.8,8.7c6.7,11.4,2.7,26.1-8.7,32.8
				c-2.2,1.1-2.9,4-1.6,6l0,0l14.3,24.6c3.8,6.7,12.3,8.9,19,5.1l213.5-123.3c6.7-3.8,8.9-12.3,5.1-19l-14.3-24.6
				c-1.3-2.2-4-2.9-6-1.6c-11.4,6.7-26.1,2.7-32.8-8.7C-1960.5,84.8-1956.5,70.3-1945.1,63.6z M-1961.4,100.7
				c8.3,14.3,25.7,20.1,40.9,14.1l12.1,21c1.3,2.5,0.7,5.6-1.8,6.9l-41.3,23.9c0,0,0-0.2-0.2-0.2l-4.7-8.3c-1.1-2.2-4-2.9-6-1.6l0,0
				c-2.2,1.1-2.9,4-1.6,6l0,0l4.7,8.3c0,0,0,0.2,0.2,0.2l-164.6,94.9c-2.5,1.3-5.6,0.7-6.9-1.8l-12.1-21c13-10,16.5-28.1,8.3-42.4
				c-8.3-14.3-25.7-20.1-40.9-14.1l-12.1-21c-1.3-2.5-0.7-5.6,1.8-6.9l164.6-94.9c0,0,0,0.2,0.2,0.2l4.7,8.3c1.1,2.2,4,2.9,6,1.6
				c2.2-1.1,2.9-4,1.6-6l-4.7-8.3c0,0,0-0.2-0.2-0.2l41.3-23.9c2.5-1.3,5.6-0.7,6.9,1.8l12.1,21
				C-1966.1,68.5-1969.6,86.6-1961.4,100.7z"/>
			<path id="Path_1_" class="st0" d="M-1990.4,109.4c-2,1.6-2.5,4.2-1.1,6.3l5.1,9.2c1.1,2.2,3.8,3.1,6,2.2c2-1.3,2.5-4.2,1.1-6.3
				l-5.1-9.2C-1985.5,109.4-1988.2,108.5-1990.4,109.4z"/>
			<path id="Path-2_1_" class="st0" d="M-2006.7,81c-2,1.6-2.5,4.2-1.1,6.3l5.1,9.2c1.1,2.2,3.8,3.1,6,2.2c2-1.6,2.5-4.2,1.1-6.3
				l-5.1-9.2C-2001.8,81-2004.5,80.1-2006.7,81z"/>
			<path id="Path-3_1_" class="st0" d="M-1976.1,132.8c-2,1.6-2.7,4.5-1.1,6.7l5.6,9.6c1.1,2.5,4,3.3,6.3,2.5c2-1.6,2.7-4.5,1.1-6.7
				l-5.6-9.6C-1971,132.8-1973.7,131.7-1976.1,132.8z"/>
			<g id="Layer_2_3_">
				<path id="Path-4_1_" class="st0" d="M-2018.8,135.1c2.7,4.9-0.4,10.5-4.2,12.7l-11.6,6.7l-6.5,42.2c-0.4,1.6-1.3,3.1-2.7,4.2
					l0,0c-2.9,1.8-6.7,0.9-8.3-2c-0.4-0.9-0.9-2-0.9-2.9l-2.2-30.8l-18.3,10.5l-2.2,11.6c-0.4,1.6-0.4,1.6-1.3,2l0,0
					c-1.3,1.1-3.1,0.9-4.2-0.4c-0.2-0.2-0.2-0.4-0.4-0.7l-15-25.9c-0.9-1.3-0.7-3.1,0.4-4.2c0.2-0.2,0.4-0.2,0.7-0.4
					c0.9-0.4,2-1.1,2.5-0.2l11.2,3.8l19.4-11.2l-27.5-16.3c-2.9-1.8-3.6-5.6-1.8-8.5c0.7-0.9,1.3-1.6,2.2-2c1.6-0.9,3.3-0.9,4.9-0.2
					l40,15.4l11.6-6.7C-2028.1,130.2-2021.7,130.4-2018.8,135.1z"/>
			</g>
		</g>
	</g>
</g>
</svg>
