<?xml version="1.0" encoding="utf-8"?>
<!-- Generator: Adobe Illustrator 24.3.0, SVG Export Plug-In . SVG Version: 6.00 Build 0)  -->
<svg version="1.0" id="Layer_1" xmlns="http://www.w3.org/2000/svg" xmlns:xlink="http://www.w3.org/1999/xlink" x="0px" y="0px"
	 viewBox="0 0 300 300" style="enable-background:new 0 0 300 300;" xml:space="preserve">
<style type="text/css">
	.st0{fill:#FDBE15;stroke:#FDBE15;stroke-width:7;stroke-linecap:round;}
	.st1{fill:#FDBE15;}
</style>
<g>
	<g id="Grupo_238" transform="translate(-202.057 410.485)">
		<path id="Trazado_111" class="st0" d="M250.8-181.8h203.7"/>
	</g>
	<path id="Trazado_112" class="st1" d="M35.3,135c8.4,3.2,16.8,6.5,25.2,9.7c0.8,0.3,1.7,0.4,2.5,0.1c10.3-4.9,36.6-15.1,46.9-20
		c0.1,0,0.1-0.1,0.3-0.5c-2.3-1.2-15.6-14.3-39-36c-4.8-4.4-5.6-4.8,0.6-8.4c3.5-2,7.1-3.9,10.5-6.1c3.5-2.3,7.8-3.1,11.9-2.2
		c14.3,2.6,48.8,24.4,64,27.2c2.2,0.3,4.5-0.1,6.4-1.1c12.7-4.2,38.7-12.6,52.3-15.9c11.3-2.7,39.4-10.9,46.3,5.4
		c2,4.6,7,16.3-26.2,30.6c-13.5,7.3-156.9,53-181.1,60.9L35.3,135z"/>
</g>
</svg>
